<svg width="170" height="196" viewBox="0 0 170 196" fill="none" xmlns="http://www.w3.org/2000/svg">
<path d="M66.4784 9.8936C66.4784 9.8936 62.3616 8.05218 59.4262 10.2161C56.4877 12.38 56.6143 17.2623 59.4262 18.8084C59.4262 18.8084 57.4792 20.2911 58.6516 22.6419C59.824 24.9926 63.9679 24.188 63.9679 24.188C63.9679 24.188 70.7067 18.1905 70.8303 13.926C70.9539 9.65852 66.4784 9.8936 66.4784 9.8936Z" fill="#260E11"/>
<path d="M43.8751 57.5053C50.4298 57.5053 55.7434 52.1917 55.7434 45.637C55.7434 39.0824 50.4298 33.7688 43.8751 33.7688C37.3204 33.7688 32.0068 39.0824 32.0068 45.637C32.0068 52.1917 37.3204 57.5053 43.8751 57.5053Z" fill="#FFC6A8"/>
<path d="M38.9932 34.8206C38.9932 34.8206 49.9362 29.5043 64.1552 28.7629C78.3742 28.0215 83.8473 30.7821 87.509 37.0658C91.1707 43.3526 42.0853 44.7721 42.0853 44.7721L38.9932 34.8206Z" fill="#FFC6A8"/>
<path d="M44.8972 79.0207L38.9932 58.3401C38.9932 58.3401 41.0938 39.2388 53.1489 38.4944C65.204 37.75 71.0809 37.2316 73.9199 44.1512C76.7588 51.0709 79.5767 65.757 79.854 68.5388C80.1343 71.3235 44.8972 79.0207 44.8972 79.0207Z" fill="#FFC6A8"/>
<path d="M13.8306 84.7077L51.6596 54.597L35.6715 37.0658L6.25098 69.5092L13.8306 84.7077Z" fill="#FFC6A8"/>
<path d="M127.475 47.0264C125.727 44.2115 122.553 43.2411 115.775 49.5308C112.177 52.8671 103.045 59.8771 98.9522 63.792L88.3617 39.1212C88.3225 38.9946 88.2803 38.8711 88.2382 38.7475C88.2382 38.7475 88.1869 38.5908 88.1839 38.5908C86.5384 34.0129 82.1594 30.7369 77.0118 30.7369C70.4569 30.7369 65.1436 36.0502 65.1436 42.6052C65.1436 44.2507 65.4781 45.8148 66.0808 47.2404C66.0808 47.2404 76.6532 74.512 87.548 85.877C88.7475 87.1277 90.0585 88.2278 91.6407 88.9631C93.7172 89.9275 94.8293 90.0511 96.4688 90.039C100.194 90.0722 104.166 87.9023 106.625 85.0753C110.335 80.8108 124.503 61.2394 128.451 55.5282C132.797 49.2475 129.223 49.8443 127.475 47.0264Z" fill="#FFC6A8"/>
<path d="M98.5723 62.906L98.9521 63.792C98.1022 64.5937 97.2764 65.4285 96.4808 66.2965C96.086 66.7275 95.4471 66.0855 95.8419 65.6576C96.7219 64.7052 97.629 63.789 98.5723 62.906Z" fill="#D69370"/>
<path d="M82.8408 76.9502C83.8896 76.8869 84.8751 77.4475 85.3573 78.3787C88.1391 83.7493 97.4968 102.242 102.638 117.805C105.51 126.5 107.581 134.881 106.993 144.091C106.201 156.49 105.149 167.104 98.0002 177.686C95.9719 180.688 93.6241 183.545 92.0359 186.818C90.749 189.47 90.2638 193.113 87.479 194.702C86.2524 195.401 84.7908 195.521 83.3833 195.597C73.7543 196.112 63.3055 196.618 54.0291 193.819C49.9183 192.58 46.0607 190.202 42.6521 187.565C40.238 185.699 33.442 182.402 32.4113 179.389C31.923 177.963 30.4915 177.086 31.0852 175.362C34.1803 166.351 42.2422 142.268 44.5025 129.52C45.033 126.524 41.8293 112.697 41.9981 105.316C42.203 96.3861 44.2102 85.5696 45.1023 81.1695C45.3404 79.9881 46.347 79.1171 47.5495 79.0448L82.8408 76.9502Z" fill="#FF8F27"/>
<path d="M71.84 81.2509C71.7376 81.5613 71.6321 81.8717 71.5266 82.1821C70.3331 85.7685 69.0583 89.3308 67.7051 92.863C60.3696 112.055 50.4844 131.599 39.0049 148.627C39.2822 147.678 39.915 145.511 40.1803 144.57V144.567C41.1085 143.166 42.0187 141.756 42.9168 140.336C54.4083 122.163 63.6908 102.628 70.5441 82.2545C70.6496 81.9471 70.752 81.6397 70.8545 81.3323C71.183 81.3081 71.5115 81.281 71.84 81.2509Z" fill="#E0822C"/>
<path d="M63.3988 103.444C61.3434 110.599 58.9716 117.657 56.4189 124.649C55.7197 126.56 55.0085 128.468 54.2882 130.369C53.5709 132.259 52.8446 134.143 52.1122 136.023C51.3859 137.889 50.6505 139.751 49.9122 141.611C49.1768 143.461 48.4384 145.309 47.7 147.156C46.9617 149.001 46.2233 150.845 45.4879 152.69C44.7526 154.537 44.0172 156.384 43.2879 158.235C42.5555 160.094 41.8292 161.957 41.1119 163.819C40.3886 165.7 39.6743 167.584 38.9721 169.47C38.0439 171.969 37.1669 174.464 36.329 176.996C36.0668 177.788 35.6419 178.647 35.2441 179.455C35.0633 179.82 34.8674 180.217 34.566 180.501C34.4032 180.654 34.1893 180.769 33.9632 180.769C33.4931 180.769 33.1344 180.326 32.8059 180.049C32.5015 179.786 32.2182 179.5 31.935 179.214C31.5552 178.825 31.1755 178.433 30.7505 178.093C30.3768 177.794 29.8012 177.607 29.5812 177.158C29.2527 176.489 29.7108 175.263 29.8404 174.573C30.0212 173.629 30.2141 172.689 30.422 171.752C30.8108 169.992 31.2508 168.241 31.7481 166.508C32.6462 163.361 33.7251 160.272 34.9728 157.249C36.1844 154.314 37.5526 151.442 38.9993 148.615C45.9731 134.987 54.9391 123.613 62.5188 103.2C62.7298 102.661 63.5586 102.884 63.3988 103.444Z" fill="#E0822C"/>
<path d="M69.125 112.386C68.1576 118.45 67.1902 124.514 66.1113 130.559C64.2367 141.044 62.0336 151.49 58.9385 161.692C57.3803 166.824 55.551 171.848 53.5528 176.824C53.2967 177.46 47.911 190.341 47.6579 190.98L46.9346 190.546C47.4861 189.129 52.9561 175.914 53.5136 174.503C61.4339 154.537 64.8846 133.254 68.254 112.145C68.3445 111.573 69.2154 111.817 69.125 112.386Z" fill="#E0822C"/>
<path d="M65.7319 162.288C64.1255 167.77 56.4283 188.569 54.825 194.051L54.0264 193.819C55.6538 188.255 63.2335 167.611 64.8609 162.047C65.0236 161.49 65.8946 161.731 65.7319 162.288Z" fill="#E0822C"/>
<path d="M85.4088 79.5421C81.2528 80.8169 76.3463 81.7783 71.5273 82.1821C71.1988 82.2093 70.8703 82.2334 70.5448 82.2545C66.4973 82.5287 62.5523 82.3961 59.204 81.712C58.6344 81.5945 58.8935 80.7295 59.4601 80.844C62.8024 81.5282 66.7806 81.6366 70.8552 81.3323C71.1837 81.3081 71.5122 81.281 71.8407 81.2509C76.4066 80.835 81.0388 79.9188 84.9899 78.7223C85.1195 78.9725 85.2581 79.2467 85.4088 79.5421Z" fill="#E0822C"/>
<path d="M84.363 77.5198C80.3697 78.6861 75.7526 79.5632 71.2138 79.9429C70.8853 79.97 70.5568 79.9941 70.2313 80.0152C66.1838 80.2895 62.2388 80.1569 58.8905 79.4727C58.3209 79.3552 58.5801 78.4903 59.1467 78.6048C62.4889 79.2889 66.4671 79.3974 70.5418 79.093C70.8703 79.0689 71.1988 79.0418 71.5273 79.0116C75.8068 78.6229 80.1437 77.7911 83.926 76.7031H83.935C83.935 76.7031 84.0857 76.9894 84.363 77.5198Z" fill="#E0822C"/>
<path d="M51.6569 111.793C49.8035 117.437 47.4768 122.862 44.5354 127.992C44.5022 127.446 44.4419 126.967 44.3877 126.25C46.9584 121.575 49.1103 116.642 50.7829 111.551C50.9668 111 51.8408 111.238 51.6569 111.793Z" fill="#E0822C"/>
<path d="M44.8041 32.4698C44.8041 32.4698 50.1023 45.7063 48.9782 59.5486C48.3302 67.5231 41.7451 67.8938 41.7451 67.8938L44.8975 79.0207C44.8975 79.0207 71.6057 80.2262 83.938 76.7031C83.938 76.7031 89.1308 66.3176 89.7788 56.6735C90.4267 47.0294 77.3529 29.6881 77.3529 29.6881L74.0378 28.9437C74.0378 28.9437 84.4926 45.8239 71.7895 58.4335C71.7895 58.4335 57.3535 52.5928 49.6563 31.0775C49.6563 31.0775 48.1223 31.4753 47.6371 31.6139C46.9077 31.8249 44.8041 32.4698 44.8041 32.4698Z" fill="#FF8F27"/>
<path d="M52.8599 55.8538C52.9111 56.4324 52.007 56.4264 51.9558 55.8538C51.2385 47.6563 48.7551 39.8325 46.4014 31.9846C46.7058 31.8912 47.0101 31.7978 47.2603 31.7224C49.6352 39.6547 52.1336 47.5628 52.8599 55.8538Z" fill="#E0822C"/>
<path d="M48.3777 38.5607C52.7145 46.8335 57.3678 54.5578 64.3537 60.8958C64.7847 61.2846 65.4236 60.6487 64.9927 60.2569C58.061 53.9671 53.4589 46.3091 49.1583 38.1026C48.887 37.5872 48.1065 38.0453 48.3777 38.5607Z" fill="#E0822C"/>
<path d="M130.7 38.2955H127.264C127.107 38.1749 126.944 38.0544 126.779 37.9428C121.215 34.1395 113.889 34.1395 113.889 34.1395C113.889 34.1395 110.92 37.7861 105.544 36.9513C100.818 36.219 101.677 32.3704 101.954 31.4482H102.021V25.0378H95.8875V30.0467C94.0701 29.8328 91.8701 29.676 89.3174 29.673C84.7576 29.667 80.9421 31.1076 78.4256 33.2504H75.1768V39.6637H75.1798C75.1948 40.387 75.3305 41.1164 75.5927 41.8367C77.7264 47.6774 85.7009 50.9232 93.2112 50.1818C93.2112 50.1818 95.0647 44.7118 100.167 44.7118C102.964 44.7118 104.82 45.411 105.667 46.6527V50.7394H105.67C105.67 50.7394 111.098 52.1649 122.047 51.3572C128.213 50.9051 130.7 47.9124 130.703 44.7058V38.2955H130.7Z" fill="#965336"/>
<path d="M102.02 25.0017C102.02 25.0017 97.4604 23.4375 89.3172 23.4255C79.7665 23.4104 73.4587 29.7454 75.5924 35.5891C77.7262 41.4298 85.7006 44.6756 93.211 43.9342C93.211 43.9342 95.0645 38.4642 100.167 38.4642C105.269 38.4642 107.246 40.7818 105.67 44.4918C105.67 44.4918 111.098 45.9173 122.047 45.1096C132.996 44.3049 132.345 35.4957 126.781 31.6923C121.218 27.8889 113.892 27.8889 113.892 27.8889C113.892 27.8889 110.923 31.5356 105.546 30.7007C100.164 29.872 102.02 25.0017 102.02 25.0017Z" fill="#BA764E"/>
<path d="M90.224 30.3873C89.6966 31.4843 89.136 32.5633 88.5453 33.6271C88.262 34.1364 89.0426 34.5915 89.3259 34.0822C89.9166 33.0183 90.4771 31.9394 91.0046 30.8424C91.2547 30.321 90.4771 29.8629 90.224 30.3873Z" fill="#4F2539"/>
<path d="M114.578 33.0907C113.725 34.8598 112.875 36.6289 112.023 38.3979C111.772 38.9193 112.55 39.3774 112.803 38.853C113.656 37.0839 114.506 35.3148 115.359 33.5458C115.609 33.0244 114.831 32.5663 114.578 33.0907Z" fill="#4F2539"/>
<path d="M97.719 36.0683C97.7009 35.8483 97.8214 35.3329 98.6231 35.342C99.5755 35.354 100.088 36.3606 99.0571 37.1743C97.3995 38.4884 93.2224 35.1883 90.4467 35.4957C87.9724 35.7699 88.2889 37.7801 89.1598 37.6566C89.1598 37.6566 89.2985 37.1804 89.8018 37.1683C90.3412 37.1563 90.6306 37.6535 89.85 38.0544C89.0694 38.4522 87.3847 37.9368 87.7373 36.6258C88.0206 35.568 89.5215 34.0551 92.5654 34.8718C95.6606 35.7036 96.6852 36.6952 97.7672 36.7735C98.3187 36.7735 98.3308 36.3697 98.3308 36.3697C98.3308 36.3697 97.7582 36.5113 97.719 36.0683Z" fill="#4F2539"/>
<path d="M100.375 31.1016C100.203 31.2945 99.9591 31.7797 100.734 31.9394C101.65 32.1293 102.843 31.3427 102.43 30.3964C101.761 28.8774 95.4626 30.9358 93.0244 30.0739C90.8515 29.3054 92.5543 27.5815 93.2987 27.8768C93.2987 27.8768 93.0998 28.3319 93.5699 28.4464C94.0762 28.573 94.7001 28.1873 94.2329 27.6689C93.7658 27.1475 91.7948 27.253 91.2161 28.4947C90.749 29.4982 91.1287 31.1619 94.6097 31.0775C98.1509 30.9901 99.8235 30.324 100.911 30.4807C101.439 30.5983 101.168 30.9599 101.168 30.9599C101.168 30.9599 100.722 30.7188 100.375 31.1016Z" fill="#4F2539"/>
<path d="M87.6893 33.7688L89.5006 30.2125L75.1309 29.673L74.6758 30.8786L87.6893 33.7688Z" fill="#4F2539"/>
<path d="M113.903 39.287L154.228 45.3568L155.71 41.8246L116.317 34.1304L113.903 39.287Z" fill="#4F2539"/>
<path d="M88.5062 30.9208C105.034 33.8923 121.585 36.7464 138.122 39.6667C143.948 40.6944 149.77 41.7372 155.59 42.783C156.16 42.8855 156.404 42.0145 155.831 41.912C139.304 38.9404 122.752 36.0864 106.215 33.166C100.39 32.1383 94.567 31.0956 88.7473 30.0498C88.1777 29.9443 87.9336 30.8183 88.5062 30.9208Z" fill="#FFE7D9"/>
<path d="M87.7289 32.078C104.329 35.0617 120.935 37.9971 137.538 40.9627C143.369 42.0024 149.201 43.0482 155.033 44.097C155.602 44.1995 155.846 43.3285 155.274 43.226C138.674 40.2424 122.068 37.3069 105.465 34.3414C99.6333 33.3016 93.8017 32.2558 87.97 31.2071C87.4004 31.1016 87.1563 31.9726 87.7289 32.078Z" fill="#FFE7D9"/>
<path d="M87.0355 33.5458C103.675 36.5354 120.35 39.3051 137.004 42.2044C142.848 43.22 148.685 44.2597 154.523 45.3085C155.093 45.411 155.337 44.54 154.764 44.4376C138.125 41.4479 121.45 38.6782 104.796 35.779C98.952 34.7633 93.1143 33.7236 87.2766 32.6748C86.707 32.5723 86.4629 33.4433 87.0355 33.5458Z" fill="#FFE7D9"/>
<path d="M155.71 41.8246C155.71 41.8246 157.437 42.0868 159.514 42.9939C161.738 43.9674 163.085 45.3567 163.085 45.3567C163.085 45.3567 163.362 41.6046 166.795 42.2073C170.225 42.8101 170.586 47.3247 169.161 48.8829C167.678 50.5043 163.968 50.878 161.048 48.6508C158.127 46.4266 157.042 45.7666 154.23 45.3567L155.71 41.8246Z" fill="#BA764E"/>
<path d="M114.593 21.0677L114.104 20.5463L49.1191 81.3833L49.6073 81.9047L114.593 21.0677Z" fill="#522C2A"/>
<path d="M115.58 22.1176L114.752 21.2331L49.7577 82.0701L50.5857 82.9546L115.58 22.1176Z" fill="#CCBD9F"/>
<path d="M115.57 22.1108L114.104 20.5443L112.24 22.2888L113.707 23.8552L115.57 22.1108Z" fill="#522C2A"/>
<path d="M87.0817 19.1009C89.7314 13.8513 87.6239 7.44762 82.3743 4.79784C77.1248 2.14806 70.7211 4.25562 68.0713 9.50519C65.4215 14.7548 67.5291 21.1584 72.7786 23.8082C78.0282 26.458 84.4319 24.3505 87.0817 19.1009Z" fill="#FFC6A8"/>
<path d="M83.4401 28.0705C85.0558 23.7559 82.8679 18.9483 78.5532 17.3325C74.2386 15.7168 69.431 17.9047 67.8152 22.2194C66.1995 26.534 68.3874 31.3416 72.7021 32.9574C77.0167 34.5731 81.8243 32.3852 83.4401 28.0705Z" fill="#FFC6A8"/>
<path d="M86.7948 19.6311C86.7948 19.6311 84.6218 23.6696 83.6424 27.4459L73.0459 22.6328L86.7948 19.6311Z" fill="#FFC6A8"/>
<path d="M68.6034 12.3468C68.6034 12.3468 64.125 22.6208 60.3818 28.9437C60.3818 28.9437 67.8108 35.8272 72.5575 35.36L74.3688 31.6923L68.6034 12.3468Z" fill="#FFC6A8"/>
<path d="M83.5643 16.0266C83.5643 16.0266 73.218 22.9131 65.8613 16.0507L66.3164 10.2161C66.3164 10.2161 69.1433 3.95644 75.623 2.85942C82.202 1.74734 87.9614 4.62248 88.9409 11.3643C89.7998 17.2623 86.4183 20.3604 86.4183 20.3604C86.4183 20.3604 83.5643 19.2393 83.5643 16.0266Z" fill="#260E11"/>
<path d="M66.844 15.0321C64.0803 15.6439 64.3033 19.7878 65.7861 21.7558C66.3376 22.4882 67.2719 21.8704 68.1881 20.8758C69.3243 21.1561 70.5419 21.1531 71.015 20.4418C72.6244 18.0187 70.1501 14.2997 66.844 15.0321Z" fill="#FFC6A8"/>
<path d="M37.0314 35.9538C37.0314 35.9538 9.27451 56.1491 1.57129 76.0099L12.8308 91.6334C12.8308 91.6334 41.2357 90.9372 48.8394 90.1958C56.4432 89.4544 55.6747 86.5341 56.6933 83.3786C57.712 80.2262 55.2106 76.239 46.0306 75.1269C36.8506 74.0148 19.6027 72.2517 19.6027 72.2517L37.0314 35.9538Z" fill="#FFC6A8"/>
<path d="M12.8126 91.6304C19.3673 91.6304 24.6809 86.3168 24.6809 79.7621C24.6809 73.2074 19.3673 67.8938 12.8126 67.8938C6.25794 67.8938 0.944336 73.2074 0.944336 79.7621C0.944336 86.3168 6.25794 91.6304 12.8126 91.6304Z" fill="#FFC6A8"/>
<path d="M47.399 75.3258C47.399 75.3258 56.6754 74.0751 58.6524 75.1269C60.6295 76.1787 63.4112 79.9248 63.598 80.9766C63.7849 82.0284 62.4859 83.472 60.6295 82.9175C58.776 82.36 57.9713 81.1876 57.9713 81.1876C57.9713 81.1876 59.2702 83.8457 59.207 85.8861C59.1437 87.9264 58.5891 89.4725 56.3017 89.2856C56.3017 89.2856 56.148 92.0583 53.1191 91.8503C53.1191 91.8503 50.4218 95.94 48.8365 90.1958C47.2543 84.4515 47.399 75.3258 47.399 75.3258Z" fill="#FFC6A8"/>
<path d="M137.318 39.8295C137.318 39.8295 137.291 38.1598 138.677 37.7258C140.253 37.2316 140.5 38.4672 140.778 39.0851C141.055 39.7029 142.2 45.0192 142.23 46.0409C142.26 47.0595 141.625 49.7478 139.913 50.7092C138.315 51.6073 133.9 52.9093 128.448 55.5343C128.448 55.5343 123.931 54.6331 123.931 51.1402L128.653 48.8376C128.653 48.8376 127.186 46.5653 126.607 45.0343C126.061 43.5876 125.826 42.0928 127.514 41.5955C128.481 41.3092 130.239 42.8282 130.239 42.8282C130.239 42.8282 128.599 40.1067 130.95 38.8711C131.601 38.5305 132.897 39.7993 132.897 39.7993C132.897 39.7993 132.481 37.5269 134.813 36.9875C135.618 36.8006 136.516 37.6656 137.318 39.8295Z" fill="#FFC6A8"/>
<path d="M68.667 29.7815C68.667 29.7815 69.3903 34.9622 75.1768 36.8278V33.4734C74.5559 33.4553 73.1786 33.1781 72.5548 32.934C70.7555 32.2257 69.981 31.4542 68.667 29.7815Z" fill="#D69370"/>
<path d="M75.9424 27.7502C76.8466 28.9347 78.2299 29.6007 79.7308 29.447C80.3034 29.3897 80.3094 28.4826 79.7308 28.5429C78.5705 28.6604 77.4403 28.2355 76.723 27.2952C76.3764 26.8371 75.5898 27.2891 75.9424 27.7502Z" fill="#9E4C29"/>
<path d="M77.0603 20.1917C77.7113 21.3188 78.9651 21.8312 80.2248 21.5027C80.7884 21.355 80.5503 20.484 79.9837 20.6317C79.1127 20.8577 78.29 20.5142 77.8409 19.7366C77.5516 19.2333 76.768 19.6884 77.0603 20.1917Z" fill="#9E4C29"/>
<path d="M84.8417 23.8745C84.7302 24.1518 84.6217 24.4351 84.5132 24.7244C83.9165 24.5707 83.3981 24.1789 83.1118 23.6153C82.8466 23.1 83.6272 22.6419 83.8924 23.1603C84.0913 23.546 84.4288 23.8082 84.8417 23.8745Z" fill="#9E4C29"/>
<path d="M79.3988 26.1138C80.2276 26.4151 81.2583 26.605 81.9575 25.9118C82.7441 25.1313 82.3071 24.0041 82.4247 23.0427C82.494 22.4671 81.5898 22.4701 81.5205 23.0427C81.4452 23.6575 81.7405 24.4773 81.4572 25.0469C81.1076 25.7551 80.2125 25.4477 79.6369 25.2398C79.0914 25.0439 78.8533 25.9179 79.3988 26.1138Z" fill="#9E4C29"/>
<path d="M29.3009 72.3934L28.3546 73.1468C26.6729 72.8997 24.9942 72.8575 23.2914 73.0082C22.7097 73.0594 22.7158 72.1553 23.2914 72.1041C25.3137 71.9293 27.3058 72.0287 29.3009 72.3934Z" fill="#D69370"/>
<path d="M66.1991 25.5019C65.8616 26.605 64.873 29.2812 63.3179 29.1637C61.4102 29.019 61.9316 25.5622 62.2571 24.3989C62.5765 23.2537 63.4656 20.9843 64.873 20.7402C67.0791 20.3604 66.4643 24.429 66.1991 25.5019C66.0575 26.0655 66.9315 26.3066 67.0701 25.743C67.486 24.0734 67.9381 20.3273 65.518 19.8391C63.2938 19.39 61.8502 22.5002 61.3831 24.1608C60.919 25.8124 60.5483 29.4108 62.8086 30.0407C65.0991 30.6796 66.5668 27.3735 67.0701 25.743C67.2419 25.1855 66.3679 24.9474 66.1991 25.5019Z" fill="#FFD044"/>
<path d="M69.8058 17.6902C69.3055 16.5631 68.1482 15.8549 66.9216 15.8699C66.3399 15.879 66.3399 16.7831 66.9216 16.7741C67.8589 16.762 68.6455 17.2954 69.0252 18.1453C69.2603 18.6788 70.0409 18.2177 69.8058 17.6902Z" fill="#D69370"/>
<path d="M67.9705 16.4516C66.9277 17.1659 66.1592 18.3443 66.6143 19.6372C66.8072 20.1827 67.6812 19.9476 67.4853 19.3961C67.1688 18.4949 67.7023 17.7294 68.4256 17.2322C68.9048 16.9037 68.4527 16.1201 67.9705 16.4516Z" fill="#D69370"/>
<path d="M133.744 47.8883C133.171 45.836 131.749 44.1482 130.173 42.7077C130.04 42.4545 129.742 41.8126 129.69 41.0923C131.788 42.8372 133.865 44.959 134.615 47.6472C134.772 48.2108 133.898 48.4459 133.744 47.8883Z" fill="#D69370"/>
<path d="M136.688 47.4845C135.938 44.6515 134.663 42.0536 132.891 39.7662C132.891 39.7632 132.891 39.7632 132.891 39.7632C132.873 39.6276 132.812 39.076 133.014 38.4883C135.166 41.038 136.7 43.9975 137.559 47.2464C137.707 47.81 136.836 48.0481 136.688 47.4845Z" fill="#D69370"/>
<path d="M139.425 46.297C138.858 44.0578 138.093 41.8879 137.321 39.7149C137.336 39.4618 137.412 38.847 137.791 38.3467C138.693 40.8963 139.633 43.4339 140.296 46.0559C140.441 46.6225 139.57 46.8606 139.425 46.297Z" fill="#D69370"/>
<path d="M54.0199 91.8142C53.7547 91.8564 53.4564 91.8714 53.1218 91.8473C52.7029 88.3212 52.7752 83.7553 49.225 81.9682C48.7036 81.706 49.1617 80.9284 49.6801 81.1876C53.595 83.1586 53.5196 87.9927 54.0199 91.8142Z" fill="#D69370"/>
<path d="M59.4902 82.4413C58.5258 81.9169 58.0526 81.2961 57.9803 81.1966C57.9773 81.1936 57.9773 81.1936 57.9742 81.1906V81.1876C57.9712 81.1846 57.9712 81.1846 57.9712 81.1846C57.3685 79.9188 56.5758 78.7826 55.1473 78.3305C54.5928 78.1557 54.8309 77.2847 55.3884 77.4595C57.7422 78.204 58.6071 80.3588 59.4902 82.4413Z" fill="#D69370"/>
<path d="M57.2027 89.2555C56.9375 89.3007 56.6392 89.3097 56.3046 89.2826C56.1811 85.7052 55.8345 81.2569 52.3084 79.7169C51.7749 79.4818 52.236 78.7042 52.7634 78.9363C56.612 80.621 57.052 85.3918 57.2027 89.2555Z" fill="#D69370"/>
<path d="M48.8366 90.1958C48.5623 90.2229 48.258 90.25 47.9294 90.2772C47.7245 89.4092 47.5316 88.5382 47.3809 87.6582C47.2815 87.0886 48.1525 86.8445 48.2519 87.4171C48.4117 88.3514 48.6196 89.2766 48.8366 90.1958Z" fill="#D69370"/>
</svg>
