<svg width="147" height="196" viewBox="0 0 147 196" fill="none" xmlns="http://www.w3.org/2000/svg">
<path d="M92.3833 61.1773C98.9343 60.6416 105.971 61.3161 112.004 64.0604C119.388 67.4184 122.314 74.1146 125.448 81.1816C128.146 87.2653 138.782 113.779 140.227 117.496C145.853 131.97 153.717 153.014 135.441 160.415C118.128 167.428 104.56 146.176 104.56 146.176L75.6685 65.1094C75.6685 65.1094 92.382 61.1773 92.3833 61.1773Z" fill="#ED695B"/>
<path d="M41.8152 66.5714C39.4183 65.8287 35.8069 66.1895 33.2899 66.3433C30.3254 66.5243 27.2804 67.0551 24.6431 68.4873C20.1704 70.9166 15.7113 76.0665 13.6057 80.5009C11.2299 85.5057 9.55065 90.8354 8.29646 96.2234C6.36683 104.523 -0.280892 139.632 0.323897 148.413C0.88531 156.574 4.47935 168.122 19.4813 168.122C32.5401 168.122 40.3714 158.407 40.3714 158.407L49.2833 79.2025L48.4109 68.615C48.4096 68.615 41.8177 66.5714 41.8152 66.5714Z" fill="#ED695B"/>
<path d="M30.2635 115.588C30.2635 115.588 26.4463 151.973 27.0486 164.437C27.651 176.901 27.8517 195.997 27.8517 195.997H121.676C121.676 195.997 121.274 156.395 120.068 140.514C118.863 124.633 110.023 81.4123 110.023 81.4123L83.2804 65.1094L51.9553 78.5986L30.2635 115.588Z" fill="#ED695B"/>
<path d="M85.0602 59.9471L61.0173 65.1094L60.5662 55.9009L60.2564 49.4725L60.2118 48.5784L69.2564 45.957L79.9021 42.8767L82.698 52.12L85.0602 59.9471Z" fill="#F9B0AC"/>
<path d="M82.698 52.12C81.0249 52.9793 78.9553 53.9701 76.5039 54.9981C71.3892 57.1583 64.1243 56.4415 60.5662 55.9009L60.2564 49.4725C61.9902 49.1984 63.6459 48.9504 63.9644 48.9504C64.3449 48.9504 66.8669 47.4624 69.2563 45.9582L79.9021 42.8767L82.698 52.12Z" fill="#C88866"/>
<path d="M76.9811 23.5184C76.9811 23.5184 77.0046 23.589 77.0555 23.718C77.0951 23.7812 77.1187 23.8519 77.1286 23.9176L77.1323 23.9263C77.2091 24.1557 77.3256 24.4682 77.4619 24.865C77.519 25.0523 77.5896 25.2445 77.654 25.4689C78.1659 27.2298 78.4423 29.0105 78.4869 30.7565C78.4869 30.7565 78.4931 30.8346 78.498 30.9971C78.5984 37.201 75.8025 42.9325 70.6432 45.7697C66.8794 47.8393 62.5529 47.9968 58.5375 46.5571C55.8172 45.5911 53.2406 43.9133 51.0842 41.6093C50.4348 40.9236 49.8201 40.1821 49.2612 39.3835C49.1769 39.2694 49.0976 39.1441 49.022 39.0263C48.6341 38.4634 48.2685 37.8793 47.9351 37.2593C47.9029 37.2134 47.883 37.1712 47.8595 37.1216C47.7888 36.9914 47.7479 36.9294 47.7479 36.9294C47.36 36.1928 47.0192 35.4438 46.723 34.6849C46.7082 34.6304 46.692 34.5969 46.692 34.5969C43.3422 25.9798 45.9522 16.4861 53.1031 12.5465C60.8984 8.2621 71.1439 12.2216 75.9971 21.388C76.3701 22.0898 76.696 22.8053 76.9811 23.5184Z" fill="#FFC6A8"/>
<path d="M76.3206 23.8296C76.3206 23.8296 76.3442 23.9003 76.395 24.0293C76.4148 24.0913 76.4421 24.1495 76.4693 24.2289L76.4731 24.2376C76.5511 24.4658 76.6689 24.7782 76.8064 25.1738C76.8647 25.3611 76.9353 25.552 77.0023 25.7765C77.9379 28.5529 79.5652 33.8963 80.1266 38.8614C80.7338 44.3164 78.1288 51.4107 73.2112 53.4778C68.2663 55.5574 61.4574 53.272 57.6316 49.3224C54.2879 45.8615 51.2888 41.3279 49.6715 38.7188C49.1671 37.9153 48.7953 37.2928 48.5982 36.9356C48.5672 36.8897 48.535 36.8426 48.5189 36.8091C48.4483 36.6789 48.4086 36.6157 48.4086 36.6157L48.8027 36.6244L65.4778 36.7893L76.0182 24.183L76.3206 23.8296Z" fill="#FFC6A8"/>
<path d="M53.7588 37.9847C55.7008 40.3929 55.9078 43.4496 54.2211 44.8124C52.5344 46.1752 49.591 45.327 47.649 42.9188C45.7069 40.5107 45.5 37.454 47.1867 36.0912C48.8734 34.7284 51.8156 35.5753 53.7588 37.9847Z" fill="#FFC6A8"/>
<path d="M73.5334 28.6707C74.1506 31.7026 76.3727 33.8107 78.4969 33.3779C80.6211 32.9452 81.8443 30.1365 81.2271 27.1033C80.6099 24.0714 78.3878 21.9633 76.2636 22.3961C74.1382 22.8289 72.9162 25.6376 73.5334 28.6707Z" fill="#FFC6A8"/>
<path d="M53.2481 22.2895C52.7437 24.1309 54.071 26.2564 54.0178 28.3012C53.9558 30.3113 53.2568 31.5241 51.7795 32.7989C50.6208 33.7996 49.4261 35.6497 49.6727 37.2618C49.8945 38.6519 50.3456 40.2366 50.3456 40.2366L44.2668 38.5725L43.3286 38.3245L40.762 37.6164L39.8511 37.3684L32.2676 35.2963C32.2676 35.2963 33.5417 34.3129 34.082 32.1267C34.9136 28.8059 33.6743 26.8231 36.0116 24.1582C38.3391 21.4847 38.8522 22.3428 40.5426 20.36C42.233 18.3858 41.5774 13.0549 44.5605 10.5054C47.8943 7.66317 51.4697 8.14927 51.4697 8.14927L56.7083 18.5173C56.7083 18.5185 53.9917 19.5626 53.2481 22.2895Z" fill="#FFA608"/>
<path d="M56.7032 18.521C56.7032 18.521 59.1769 17.5426 60.9653 18.211C62.7536 18.8794 63.8442 21.0618 65.5941 22.1246C67.3961 23.2195 68.9019 23.1836 70.8489 22.6231C72.2295 22.2262 74.3425 22.3428 75.4641 23.346C76.5151 24.286 78.0853 26.0505 78.0853 26.0505L83.2805 7.65822C83.2805 7.65822 81.7921 7.90746 79.5997 7.39161C76.779 6.72694 75.4071 4.2419 71.9011 4.74659C68.3963 5.25129 68.83 6.14908 66.2535 6.49381C63.6769 6.83855 59.5636 3.39371 55.8023 4.51347C51.601 5.76343 50.0642 9.03218 50.0642 9.03218L56.7032 18.521Z" fill="#FFA608"/>
<path d="M55.8183 18.2519C55.6783 18.2519 55.542 18.1787 55.4689 18.0473L50.3529 8.97142C50.2439 8.77797 50.312 8.53245 50.5054 8.42332C50.6975 8.3142 50.9441 8.38116 51.0531 8.57585L56.1691 17.6517C56.2781 17.8452 56.21 18.0907 56.0166 18.1998C55.9534 18.2345 55.8865 18.2519 55.8183 18.2519Z" fill="#0F0A1C"/>
<path d="M57.2982 38.6928C56.8248 38.6928 56.5112 38.606 56.4852 38.5985C56.272 38.5365 56.1494 38.3146 56.2101 38.1013C56.2708 37.8892 56.4914 37.7627 56.7058 37.826C56.7504 37.8384 57.7828 38.1112 58.8969 37.4441C59.6083 37.0175 59.814 36.0924 59.8165 36.0825C59.8624 35.8667 60.0743 35.7291 60.2924 35.7737C60.5093 35.8196 60.6481 36.0316 60.6022 36.2474C60.5923 36.2995 60.3271 37.5222 59.3096 38.1335C58.5574 38.5837 57.8274 38.6928 57.2982 38.6928Z" fill="#0F0A1C"/>
<path d="M69.094 33.2168C68.6206 33.2168 68.307 33.13 68.281 33.1225C68.0678 33.0605 67.9451 32.8385 68.0059 32.6253C68.0666 32.4132 68.2884 32.2867 68.5016 32.35C68.5462 32.3624 69.5798 32.6364 70.6915 31.968C71.3991 31.5427 71.6086 30.6164 71.611 30.6077C71.6557 30.3895 71.8713 30.2543 72.0857 30.2952C72.3026 30.3399 72.4426 30.5531 72.3968 30.7714C72.3869 30.8235 72.1216 32.0462 71.1054 32.6575C70.3544 33.1076 69.6244 33.2168 69.094 33.2168Z" fill="#0F0A1C"/>
<path d="M65.5432 40.6397C65.2086 40.6397 65.1144 40.5293 65.0438 40.4462C64.9719 40.3631 64.7525 40.1064 64.0325 36.2375C63.9916 36.0193 64.1354 35.8097 64.3535 35.7688C64.5666 35.7303 64.781 35.8717 64.8219 36.0899C65.107 37.6164 65.4652 39.3165 65.6325 39.8336C65.9894 39.8014 66.8619 39.5472 67.572 39.2905C67.7777 39.2148 68.0107 39.3227 68.0863 39.5311C68.1619 39.7394 68.0541 39.97 67.8459 40.0457C66.583 40.5045 65.9163 40.6397 65.5432 40.6397Z" fill="#0F0A1C"/>
<path d="M67.7357 47.0321C66.5893 47.0321 65.7615 46.7828 65.6983 46.763C65.4863 46.6973 65.3686 46.4728 65.4343 46.2608C65.5 46.05 65.7218 45.9272 65.9362 45.9954C65.9622 46.0016 68.5314 46.7692 70.7758 45.4423C72.6174 44.3536 73.1243 41.8623 73.1305 41.8375C73.1726 41.6193 73.3808 41.4779 73.6027 41.5201C73.8196 41.5622 73.9621 41.7743 73.9187 41.9925C73.8964 42.1091 73.3337 44.8645 71.1848 46.1355C69.9888 46.8399 68.7396 47.0321 67.7357 47.0321Z" fill="#0F0A1C"/>
<path d="M58.2833 30.1303C57.8706 29.5846 56.4813 29.7459 55.9769 29.9753C54.8888 30.47 53.8899 31.193 53.1203 32.1106C52.694 32.619 51.1461 34.6577 52.4957 35.0036C52.9047 35.109 53.3099 34.8474 53.6507 34.5994C54.5307 33.9583 55.4044 33.3097 56.2731 32.6525C56.837 32.2284 59.0406 31.131 58.2833 30.1303Z" fill="#A66161"/>
<path d="M67.6924 26.9161C68.7235 26.5664 69.7509 26.208 70.7758 25.8397C71.1736 25.6971 71.6161 25.5086 71.7598 25.1106C72.232 23.7986 69.6778 23.9338 69.0172 24.0008C67.825 24.1223 66.6674 24.5427 65.6462 25.1652C65.1728 25.4541 64.2582 26.5131 64.4776 27.1604C64.8779 28.3496 67.0231 27.143 67.6924 26.9161Z" fill="#A66161"/>
<path d="M71.4734 53.334L68.3231 60.6031L68.1297 61.0458L67.4469 61.4079L63.2121 63.635L62.409 64.0616L52.5007 69.2884L51.6976 69.7063L48.0726 71.6197L46.5457 72.4232L45.2519 73.1065C45.2519 73.1065 44.7536 72.8411 43.9989 72.4232C43.6618 72.2298 43.2751 72.0128 42.8575 71.7722C42.7695 71.7164 42.6803 71.668 42.5923 71.6197C42.3271 71.4585 42.0618 71.3059 41.7805 71.1373C41.5153 70.9761 41.2414 70.8161 40.9774 70.6462C39.1048 69.488 37.2322 68.1934 36.8307 67.406C35.9545 65.7332 37.2966 63.5222 39.0404 61.713C39.1284 61.6162 39.2176 61.5121 39.3056 61.4079C39.4989 61.1661 39.6749 60.9007 39.836 60.6044C40.3181 59.7438 40.68 58.6749 40.9774 57.4931C41.291 56.2543 41.5401 54.8878 41.7805 53.5126C41.845 53.143 41.9168 52.7723 41.9813 52.4027C42.1015 51.7356 42.2539 51.0598 42.4398 50.4001C42.5117 50.1272 42.5923 49.8619 42.6815 49.5965C43.5416 46.9589 45.0201 44.7715 47.6165 44.7963C48.2027 44.7963 49.7134 45.2229 51.6988 45.8813C51.9566 45.9694 52.2292 46.0587 52.5019 46.1541C55.2507 47.0867 58.7059 48.3738 61.9207 49.5953C62.6358 49.8681 63.3435 50.1421 64.0177 50.3988C66.2918 51.283 68.3095 52.0716 69.6678 52.6185H69.6752C70.798 53.0612 71.4734 53.334 71.4734 53.334Z" fill="#FFA608"/>
<path d="M98.275 69.3516C97.9862 69.7373 96.9253 70.3412 95.3576 71.0889C95.0998 71.2092 94.8346 71.3307 94.5545 71.4585C94.4417 71.5143 94.329 71.5626 94.2087 71.6197C93.6461 71.8776 93.0351 72.1417 92.3845 72.4232C90.1338 73.3966 87.4346 74.4978 84.6449 75.6399C84.3797 75.744 84.107 75.8569 83.8418 75.9697C82.7252 76.4199 81.5999 76.8787 80.4907 77.3363C78.1843 78.2849 75.9337 79.2335 73.9247 80.1189C73.6509 80.2392 73.3856 80.3607 73.1217 80.481C71.4015 81.261 69.8908 81.9852 68.7419 82.6275C68.5647 82.7242 68.3961 82.821 68.235 82.9164C67.9859 83.0615 67.7207 83.2302 67.448 83.4311C66.2347 84.2755 64.7885 85.5453 63.2133 87.0731C63.0447 87.2256 62.8836 87.3942 62.7151 87.548C62.7151 87.548 62.7151 87.548 62.7151 87.5555C62.611 87.6522 62.5143 87.7563 62.4102 87.8531C60.6665 89.5904 58.8013 91.5918 56.9621 93.6341C56.7205 93.8995 56.4875 94.1723 56.247 94.4377C54.9532 95.8935 53.6829 97.3568 52.5018 98.7394C52.2292 99.0606 51.9639 99.3743 51.6987 99.688C50.1074 101.578 48.6847 103.299 47.5929 104.649C47.3512 104.931 47.1343 105.204 46.9335 105.453C45.8801 106.755 45.2543 107.544 45.2543 107.544L41.7829 110.463L40.9798 111.13L35.595 115.657L34.6382 116.461L31.0702 119.452L30.2671 120.128L22.4879 126.665L21.5237 127.469L20.3587 128.45L19.5557 129.125L16.4053 131.77L11.6798 127.469L10.7961 126.665L6.4647 122.717C6.4647 122.717 8.02377 120.273 10.5074 116.461C10.6759 116.195 10.8445 115.93 11.0304 115.657C12.8943 112.787 15.2094 109.256 17.7487 105.453C17.926 105.188 18.1019 104.915 18.2878 104.649C18.6981 104.022 19.1231 103.387 19.5569 102.752C19.8221 102.35 20.0873 101.949 20.36 101.546C21.9352 99.1982 23.5661 96.8012 25.1983 94.4377C25.383 94.1723 25.5676 93.8995 25.7523 93.6341C27.2791 91.4306 28.7985 89.2593 30.2684 87.1934C30.5423 86.8238 30.8062 86.4531 31.0714 86.0835C31.7308 85.1746 32.3727 84.2817 33.0085 83.4298C33.2093 83.157 33.4026 82.8916 33.6034 82.6263C36.4166 78.8392 38.899 75.7267 40.7159 73.8778C40.8038 73.7897 40.8931 73.7004 40.9811 73.6124C41.2463 73.3396 41.5115 73.0742 41.7842 72.8163C41.913 72.6712 42.0407 72.5435 42.1783 72.422C42.4026 72.1963 42.6281 71.9793 42.8611 71.7709C42.9095 71.7065 42.9652 71.6581 43.0136 71.6184C45.7376 69.0218 48.6636 66.5528 51.7012 64.229C51.9664 64.0281 52.2316 63.8272 52.5043 63.6263C53.5007 62.8699 54.5219 62.1308 55.5419 61.4067C55.9199 61.1339 56.3053 60.8685 56.6994 60.6031C58.5881 59.2924 60.5004 58.0375 62.4127 56.8557C62.6866 56.6784 62.9505 56.5184 63.2158 56.3572C65.3858 55.0229 67.5398 53.7767 69.6689 52.6185H69.6763C70.4001 52.2167 71.1065 51.8385 71.8216 51.4603C72.2554 51.2346 72.6891 51.0015 73.1241 50.777C73.8789 50.3827 74.6349 49.9809 75.3909 49.5952C76.0898 49.2257 76.7975 48.8636 77.5039 48.5015C79.5934 47.4326 81.6829 46.3711 83.8443 45.4535C84.0289 45.3729 84.2223 45.301 84.4069 45.2204C84.4875 45.1881 84.5681 45.1559 84.6474 45.1237C86.1184 44.5049 88.1435 43.6356 89.8389 43.829C90.4821 43.8935 91.077 44.118 91.5826 44.5607C92.6348 45.4771 93.1417 46.9403 93.5432 48.2349C93.6795 48.6851 93.7923 49.1352 93.8964 49.594C93.9522 49.8594 94.0092 50.1322 94.0575 50.3976C94.2509 51.4032 94.3872 52.4238 94.5557 53.4295C94.7243 54.4984 94.9337 55.5599 95.2634 56.5978C95.2956 56.6945 95.3279 56.7987 95.3601 56.8954C95.7616 58.1416 96.2115 59.3717 96.6465 60.6019C96.7432 60.8672 96.8398 61.1326 96.9278 61.4054C97.2005 62.178 97.4582 62.9493 97.6987 63.7293C98.1138 65.1057 99.2875 68.0012 98.275 69.3516Z" fill="#FFA608"/>
<path d="M3.74181 128.043C3.56335 128.043 3.3824 127.983 3.23369 127.861C2.89039 127.579 2.84082 127.072 3.12091 126.728L7.07187 121.903C7.35195 121.561 7.86008 121.509 8.20337 121.791C8.54666 122.072 8.59624 122.578 8.31615 122.921L4.36519 127.747C4.20655 127.942 3.97604 128.043 3.74181 128.043Z" fill="#FFA608"/>
<path d="M6.4545 130.767C6.27604 130.767 6.0951 130.708 5.94638 130.585C5.60309 130.303 5.55351 129.797 5.8336 129.453L9.78456 124.628C10.0659 124.286 10.5715 124.233 10.9148 124.515C11.2581 124.796 11.3077 125.302 11.0276 125.646L7.07664 130.471C6.91801 130.667 6.68749 130.767 6.4545 130.767Z" fill="#FFA608"/>
<path d="M9.2875 133.18C9.10904 133.18 8.9281 133.121 8.77938 132.998C8.43609 132.717 8.38651 132.211 8.6666 131.866L12.6176 127.041C12.8976 126.699 13.4058 126.647 13.7491 126.928C14.0924 127.21 14.1419 127.715 13.8618 128.059L9.91088 132.884C9.75101 133.08 9.52049 133.18 9.2875 133.18Z" fill="#FFA608"/>
<path d="M96.8287 112.974L95.3576 113.56L94.5545 113.882L90.1103 115.659L88.1014 116.462L84.6462 117.845L83.8431 118.166L77.3825 120.748C77.3825 120.748 76.6513 119.035 75.5743 116.462C75.4702 116.204 75.3574 115.931 75.2447 115.659C74.8344 114.694 74.3932 113.624 73.9273 112.49C73.6695 111.863 73.3968 111.219 73.1242 110.561C72.4413 108.904 71.7262 107.168 71.0347 105.454C70.9306 105.189 70.8178 104.916 70.7137 104.651C69.8697 102.56 69.0741 100.534 68.3986 98.7642C67.8124 97.2278 67.1767 95.7807 66.5421 94.4377C66.4058 94.1649 66.2769 93.8995 66.148 93.6342C65.112 91.536 64.0833 89.7429 63.2145 88.3429C63.046 88.0614 62.8775 87.8047 62.7163 87.5555C62.7163 87.548 62.7163 87.548 62.7163 87.548C62.6122 87.3868 62.5069 87.2268 62.4115 87.0818C61.5192 85.7227 60.9404 84.9675 60.9404 84.9675L62.4115 84.0585L63.2145 83.56L63.4153 83.4311L64.7166 82.6275L73.1229 77.4094L73.926 76.9109L78.8845 73.8393L80.4919 77.3375L82.9111 82.6288L83.2804 83.4323L83.8431 84.655L84.6462 86.4084L87.9651 93.6379L88.3269 94.4414L93.0116 104.653L93.3809 105.457L94.5545 108.014L95.3576 109.767L96.8287 112.974Z" fill="#FFA608"/>
<path d="M80.0285 125.962C79.7113 125.962 79.4089 125.771 79.2825 125.457L76.9525 119.671C76.7865 119.26 76.986 118.791 77.3975 118.625C77.8089 118.46 78.2774 118.658 78.4434 119.07L80.7734 124.856C80.9394 125.268 80.7399 125.736 80.3284 125.903C80.2293 125.942 80.1289 125.962 80.0285 125.962Z" fill="#FFA608"/>
<path d="M83.7191 124.891C83.4006 124.891 83.0995 124.7 82.9731 124.386L80.6444 118.6C80.4783 118.188 80.6778 117.719 81.0893 117.553C81.5007 117.388 81.9692 117.586 82.1353 117.999L84.464 123.785C84.63 124.196 84.4305 124.665 84.0191 124.831C83.9211 124.872 83.8195 124.891 83.7191 124.891Z" fill="#FFA608"/>
<path d="M87.1954 123.564C86.8769 123.564 86.5758 123.373 86.4494 123.059L84.1207 117.274C83.9546 116.863 84.1541 116.394 84.5656 116.228C84.9771 116.063 85.4455 116.261 85.6116 116.673L87.9415 122.458C88.1076 122.869 87.9081 123.338 87.4966 123.504C87.3975 123.545 87.2958 123.564 87.1954 123.564Z" fill="#FFA608"/>
<path d="M90.9209 122.344C90.6099 122.344 90.3124 122.161 90.1823 121.856L87.726 116.124C87.5512 115.716 87.7396 115.243 88.1473 115.068C88.5551 114.893 89.0272 115.082 89.2032 115.49L91.6596 121.223C91.8343 121.631 91.6459 122.104 91.2382 122.278C91.1341 122.323 91.0275 122.344 90.9209 122.344Z" fill="#FFA608"/>
<path d="M94.1705 117.371L92.8717 114.338C92.697 113.929 92.2211 113.739 91.817 113.916C91.4093 114.091 91.2197 114.564 91.3944 114.972L92.9622 118.631C93.21 118.098 93.655 117.661 94.1705 117.371Z" fill="#FFA608"/>
<path d="M96.6428 60.6031H95.3564V56.8966C95.3241 56.7999 95.2919 56.6957 95.2597 56.599C94.93 55.5623 94.7218 54.5009 94.552 53.4307V60.6031H84.6437V50.3988H94.0538C94.0055 50.1334 93.9497 49.8606 93.8927 49.5953H84.6424V45.1249C84.5619 45.1571 84.4813 45.1894 84.402 45.2216C84.2173 45.3022 84.024 45.3741 83.8393 45.4547V49.5953H75.3847C74.6287 49.9809 73.8739 50.3827 73.118 50.777V60.6031H63.2096V50.3988H64.0127C63.3372 50.1421 62.6308 49.8681 61.9157 49.5953H52.4969V46.1541C52.2242 46.0574 51.9503 45.9694 51.6938 45.8813V49.5965H42.6777C42.5897 49.8619 42.5092 50.1272 42.436 50.4H51.6938V60.6044H41.7767V53.5126C41.5351 54.8878 41.286 56.2543 40.9736 57.4931V60.6044H39.8322C39.6711 60.902 39.4951 61.1673 39.3018 61.4079H40.9736V70.6475C41.2389 70.8161 41.5115 70.9773 41.7767 71.1385V61.4091H51.6938V71.6209H42.5885C42.6765 71.6693 42.7657 71.7176 42.8537 71.7734C42.6207 71.983 42.3951 72.2 42.1708 72.4245H51.6938V82.6288H41.7767V72.8188C41.5028 73.0767 41.2376 73.3421 40.9736 73.6149V82.6288H33.5984C33.3977 82.8941 33.2043 83.1595 33.0036 83.4323H40.9761V93.6366H31.0677V86.086C30.8025 86.4555 30.5373 86.8263 30.2647 87.1958V93.6366H25.7486C25.5639 93.902 25.3792 94.1748 25.1946 94.4402H30.2659V104.652H20.3575V101.548C20.0849 101.95 19.8196 102.352 19.5544 102.755V104.652H18.2854C18.1007 104.917 17.9235 105.19 17.7463 105.455H19.5544V115.66H11.0279C10.8432 115.933 10.6747 116.198 10.5049 116.463H19.5532V126.668H10.7912L11.6748 127.471H19.5507V129.128L20.3538 128.452V127.471H21.5188L22.483 126.668H20.3538V116.463H30.2622V120.13L31.0653 119.454V116.463H34.6333L35.59 115.66H31.0653V105.455H40.9736V111.132L41.7767 110.465V105.455H46.9274C47.1281 105.206 47.345 104.933 47.5867 104.652H41.7767V94.4402H51.6938V99.6905C51.959 99.3768 52.2242 99.0631 52.4969 98.7419V94.4402H56.2421C56.4825 94.1748 56.7155 93.902 56.9572 93.6366H52.4969V83.4323H62.4053V87.8543C62.5094 87.7576 62.606 87.6534 62.7101 87.5567C62.8712 87.806 63.0398 88.0639 63.2083 88.3441V83.4311H73.1167V93.6354H66.1406C66.2695 93.9008 66.3984 94.1661 66.5347 94.4389H73.1167V104.651H70.7062C70.8103 104.916 70.9231 105.189 71.0272 105.454H73.1167V110.561C73.3894 111.22 73.6633 111.863 73.9198 112.49V105.454H83.8369V115.659H75.2384C75.3512 115.931 75.464 116.205 75.5681 116.462H83.8369V118.167L84.6399 117.846V116.463H88.0952L90.1041 115.66H84.6399V105.455H93.3759L93.0066 104.652H84.6412V94.4402H88.322L87.9601 93.6366H84.6412V86.4072L83.8381 84.6538V93.6354H73.921V83.4311H83.2754L82.9061 82.6275H73.921V72.4232H83.8381V75.9697C84.1033 75.8569 84.3772 75.744 84.6412 75.6399V72.4232H92.3807C93.0314 72.1417 93.6424 71.8764 94.205 71.6197H84.6412V61.4079H94.5496V71.4597C94.8309 71.3307 95.0961 71.2104 95.3526 71.0902V61.4091H96.9191C96.8361 61.1339 96.7394 60.8685 96.6428 60.6031ZM30.2634 115.66H20.355V105.455H30.2634V115.66ZM40.9761 104.652H31.0677V94.4402H40.9761V104.652ZM51.6963 93.6354H41.7792V83.4311H51.6963V93.6354ZM73.1204 61.4079V71.6197H63.2121V61.4079H73.1204V61.4079ZM52.4993 50.3988H62.4077V60.6031H52.4993V50.3988ZM52.4993 61.4079H62.4077V71.6197H52.4993V61.4079ZM52.4993 82.6275V72.4232H62.4077V82.6275H52.4993ZM83.8418 94.4402V104.652H73.9248V94.4402H83.8418ZM73.1204 82.6275H63.2121V72.4232H73.1204V82.6275ZM83.8418 71.6197H73.9248V61.4079H83.8418V71.6197ZM83.8418 60.6031H73.9248V50.3988H83.8418V60.6031ZM94.5533 108.012V113.883L95.3564 113.562V109.766L94.5533 108.012Z" fill="white"/>
<path d="M78.136 78.5304C76.1283 77.9327 74.138 80.1549 74.138 80.1549C74.138 80.1549 74.599 79.0277 73.6398 77.3561C72.6805 75.6845 70.6381 75.0236 69.0877 76.3777C67.5361 77.7318 56.8147 91.6699 54.7413 93.4444C52.6679 95.2189 51.6319 93.2609 51.6319 93.2609C51.2229 91.81 54.2729 87.7018 56.2248 83.6592C58.1767 79.6167 54.693 78.0456 52.5936 79.0611C50.4942 80.078 41.488 91.6823 38.303 98.0375C35.1167 104.393 38.3377 109.761 38.3377 109.761C38.3377 109.761 43.2231 124.814 43.5416 125.031C43.8601 125.249 48.3229 132.534 54.3733 127.135C64.4056 118.185 80.9679 99.4239 82.4278 96.8372C83.8877 94.2517 80.8043 92.8368 80.8043 92.8368C80.8043 92.8368 83.154 89.5507 82.4365 87.4314C81.7053 85.2688 79.3097 85.1014 79.3097 85.1014C79.3097 85.1014 80.3309 83.3839 80.4907 82.0124C80.6506 80.6447 80.1437 79.1281 78.136 78.5304Z" fill="#FFC6A8"/>
<path d="M62.8481 95.0155C62.7613 95.0155 62.6733 94.9882 62.6002 94.93C62.4255 94.7923 62.3957 94.5406 62.5321 94.3657L73.4232 80.4909C73.5608 80.316 73.8136 80.2863 73.9871 80.4239C74.1619 80.5616 74.1916 80.8133 74.0553 80.9882L63.1641 94.863C63.0848 94.9634 62.9658 95.0155 62.8481 95.0155Z" fill="#362E4D"/>
<path d="M66.8547 99.1945C66.763 99.1945 66.6713 99.1635 66.5969 99.1002C66.4272 98.9576 66.4049 98.7034 66.5474 98.5335L78.1165 84.7579C78.259 84.5868 78.513 84.5657 78.6828 84.7083C78.8526 84.8509 78.8749 85.1051 78.7324 85.275L67.1633 99.0506C67.0828 99.1461 66.9687 99.1945 66.8547 99.1945Z" fill="#362E4D"/>
<path d="M71.6324 103.582C71.5395 103.582 71.4465 103.55 71.3709 103.484C71.2024 103.339 71.1838 103.086 71.3288 102.917L79.7252 93.1579C79.8702 92.9893 80.1243 92.9719 80.2916 93.1158C80.4601 93.2609 80.4787 93.5138 80.3337 93.6825L71.9385 103.442C71.858 103.535 71.7452 103.582 71.6324 103.582Z" fill="#362E4D"/>
<path d="M55.3003 126.299L50.7879 131.464L43.2342 140.105L25.4413 121.819L32.6826 114.172L38.3959 108.15L54.0188 117.3L55.3003 126.299Z" fill="#FFBA95"/>
<path d="M50.7879 131.464L43.233 140.105L25.4413 121.819L32.6814 114.172C35.6384 116.286 40.6217 120.026 43.523 123.121C45.926 125.695 48.6191 128.866 50.7879 131.464Z" fill="white"/>
<path d="M7.25922 137.198C7.25922 137.198 23.332 119.106 25.4413 117.899C27.5507 116.693 37.6338 126.798 42.016 131.77C46.3983 136.743 49.2822 140.105 49.2822 140.105L42.3172 148.355C42.3172 148.355 29.66 149.662 29.2584 149.662C28.8569 149.662 18.309 147.853 17.2035 147.049C16.0993 146.244 7.25922 137.198 7.25922 137.198Z" fill="#EE5E4E"/>
<path d="M70.9541 58.6748C72.9916 58.1912 74.8543 60.5225 74.8543 60.5225C74.8543 60.5225 74.4577 59.3717 75.5099 57.756C76.5621 56.1402 78.6379 55.5971 80.1102 57.0355C81.5826 58.474 91.5033 72.9949 93.4739 74.8834C95.4444 76.772 96.5883 74.876 96.5883 74.876C97.0778 73.4512 92.0833 70.0659 90.3619 65.9204C88.6405 61.7737 92.2073 60.4022 94.246 61.5344C96.2846 62.6678 106.804 73.8728 109.628 80.3967C112.452 86.9218 108.934 92.1002 108.934 92.1002C108.934 92.1002 103.21 106.853 102.879 107.054C102.549 107.254 97.6838 114.277 91.9458 108.546C82.4327 99.0432 66.9524 79.3798 65.6399 76.7162C64.3275 74.0526 67.4865 72.8138 67.4865 72.8138C67.4865 72.8138 65.3264 69.4012 66.1604 67.3254C67.0131 65.2074 69.4137 65.1752 69.4137 65.1752C69.4137 65.1752 68.4904 63.4031 68.4073 62.0242C68.3243 60.6428 68.9154 59.1572 70.9541 58.6748Z" fill="#FFC6A8"/>
<path d="M86.2918 76.054C86.1704 76.054 86.0514 75.9995 85.9721 75.8953L74.9 61.3707C74.7649 61.1946 74.7996 60.9416 74.9756 60.8077C75.1515 60.6725 75.4031 60.706 75.5395 60.8834L86.6116 75.408C86.7466 75.5853 86.7119 75.837 86.536 75.971C86.4628 76.028 86.3773 76.054 86.2918 76.054Z" fill="#362E4D"/>
<path d="M81.5564 80.6918C81.4399 80.6918 81.3246 80.641 81.2453 80.543L69.4916 66.0779C69.3515 65.9055 69.3775 65.6526 69.5498 65.5124C69.7208 65.3723 69.9749 65.3984 70.1149 65.5707L81.8687 80.0358C82.0087 80.2082 81.9827 80.4612 81.8104 80.6013C81.7361 80.6633 81.6456 80.6918 81.5564 80.6918Z" fill="#362E4D"/>
<path d="M76.8952 84.1044C76.7824 84.1044 76.6696 84.0573 76.5903 83.9643L67.7787 73.6893C67.6337 73.5206 67.6536 73.2664 67.8221 73.1226C67.9907 72.9787 68.2435 72.9986 68.3885 73.166L77.2001 83.441C77.3451 83.6096 77.3252 83.8639 77.1567 84.0077C77.0811 84.0722 76.9881 84.1044 76.8952 84.1044Z" fill="#362E4D"/>
<path d="M81.5934 97.6965C81.4744 97.6965 81.3567 97.6445 81.2774 97.5428L66.9942 79.334C66.8579 79.1591 66.8876 78.9062 67.0624 78.7697C67.2359 78.6333 67.4887 78.6619 67.6263 78.838L81.9095 97.0455C82.0458 97.2204 82.016 97.4733 81.8413 97.6097C81.7669 97.668 81.6802 97.6965 81.5934 97.6965Z" fill="#362E4D"/>
<path d="M108.712 91.0338L112.886 96.4763L119.867 105.587L98.452 119.447L92.3818 110.84L86.7713 102.869L99.6417 90.5229L108.712 91.0338Z" fill="#FFBA95"/>
<path d="M112.886 96.4763L119.869 105.587L98.4518 119.447L92.3816 110.84C95.035 108.355 99.5188 104.699 103.123 102.461C106.117 100.611 109.914 98.0946 112.886 96.4763Z" fill="white"/>
<path d="M119.492 99.6372C119.492 99.6372 108.931 105.978 101.496 111.941C94.0625 117.903 94.2087 116.501 95.3179 119.453C96.4259 122.406 101.365 131.118 101.864 131.235C102.362 131.351 125.759 119.857 126.592 118.979C127.425 118.101 131.039 115.205 130.667 114.287C130.295 113.371 119.492 99.6372 119.492 99.6372Z" fill="#EE5E4E"/>
<path d="M105.119 165.196C104.294 165.196 103.477 165.071 102.809 164.893C100.724 164.338 96.8916 162.479 96.7293 162.4C96.5867 162.33 96.4987 162.184 96.5037 162.025C96.5087 161.866 96.6066 161.726 96.7528 161.665C96.8891 161.608 100.124 160.282 100.936 160.038C102.377 159.607 104.261 159.153 106.05 159.472C107.448 159.721 109.432 160.744 109.165 162.536C109.038 163.382 108.621 164.043 107.924 164.5C107.152 165.009 106.13 165.196 105.119 165.196ZM97.9029 162.067C99.162 162.652 101.573 163.733 103.016 164.117C104.443 164.498 106.379 164.556 107.483 163.831C107.987 163.498 108.277 163.037 108.37 162.419C108.551 161.203 106.956 160.453 105.909 160.265C104.284 159.976 102.521 160.406 101.166 160.811C100.639 160.969 98.9439 161.646 97.9029 162.067Z" fill="white"/>
<path d="M97.2153 162.743C97.0665 162.743 96.9277 162.66 96.8596 162.526C96.7765 162.366 94.8172 158.581 94.2074 156.509C93.7737 155.036 93.5816 152.809 94.464 151.383C94.9039 150.674 95.5521 150.24 96.3936 150.091C98.1733 149.771 99.2502 151.731 99.5365 153.124C99.9033 154.905 99.4993 156.802 99.1052 158.257C98.8834 159.075 97.6441 162.345 97.5908 162.484C97.5338 162.631 97.3962 162.733 97.2388 162.742C97.2301 162.743 97.2227 162.743 97.2153 162.743ZM96.753 150.863C96.6811 150.863 96.6067 150.87 96.5311 150.883C95.9164 150.992 95.4629 151.295 95.1456 151.807C94.4491 152.931 94.5581 154.865 94.9758 156.282C95.3984 157.716 96.5411 160.099 97.1595 161.343C97.5524 160.29 98.1844 158.578 98.3282 158.046C98.6975 156.678 99.0792 154.901 98.7471 153.286C98.5475 152.309 97.8386 150.863 96.753 150.863Z" fill="white"/>
<path d="M126.883 190.815L67.6709 133.114L62.6246 138.299L121.837 195.999L126.883 190.815Z" fill="#362E4D"/>
<path d="M96.9944 161.684L91.9511 166.871L92.5267 167.431L97.5701 162.244L96.9944 161.684Z" fill="white"/>
<path d="M95.893 170.065H13.2401V195.997H95.893V170.065Z" fill="#362E4D"/>
<path d="M95.8931 182.63H13.2402V183.433H95.8931V182.63Z" fill="white"/>
<path d="M31.0668 170.065H30.2637V195.997H31.0668V170.065Z" fill="white"/>
<path d="M78.8698 170.065H78.0668V195.997H78.8698V170.065Z" fill="white"/>
<path d="M3.74323 141.921C3.65029 141.921 3.5561 141.889 3.47926 141.822C3.31195 141.677 3.2946 141.423 3.4396 141.256L13.4645 129.7C13.6107 129.531 13.8635 129.514 14.0321 129.66C14.1994 129.805 14.2168 130.059 14.0717 130.227L4.04687 141.783C3.96755 141.876 3.85601 141.921 3.74323 141.921Z" fill="#362E4D"/>
<path d="M138.553 118.602C138.487 118.602 138.42 118.586 138.36 118.552L132.136 115.114C131.941 115.008 131.871 114.762 131.978 114.569C132.086 114.374 132.333 114.304 132.524 114.411L138.748 117.848C138.942 117.955 139.013 118.201 138.905 118.394C138.832 118.528 138.694 118.602 138.553 118.602Z" fill="#362E4D"/>
<path d="M27.6509 167.012C27.5518 167.012 27.4514 166.975 27.3733 166.902C27.2122 166.75 27.206 166.494 27.3597 166.334L49.3279 143.233C50.0442 142.494 50.0579 141.327 49.3614 140.575L46.2234 137.187C46.0722 137.024 46.0834 136.769 46.2457 136.619C46.4093 136.468 46.6621 136.476 46.8133 136.64L49.9513 140.028C50.9378 141.094 50.9192 142.747 49.9079 143.79L27.9422 166.888C27.8628 166.97 27.7575 167.012 27.6509 167.012Z" fill="#362E4D"/>
<path d="M119.466 159.21C119.338 159.21 119.215 159.149 119.135 159.038L92.6237 120.785C92.2519 120.264 92.1069 119.625 92.2159 118.989C92.3262 118.353 92.677 117.801 93.2074 117.433L95.432 115.91C95.6141 115.785 95.8645 115.832 95.9909 116.016C96.1161 116.199 96.069 116.45 95.8856 116.575L93.6635 118.096C93.3152 118.34 93.081 118.707 93.0079 119.128C92.9347 119.551 93.0314 119.975 93.2805 120.324L119.796 158.58C119.922 158.762 119.876 159.013 119.694 159.139C119.626 159.187 119.545 159.21 119.466 159.21Z" fill="#362E4D"/>
<path d="M143.794 131.639C143.669 131.639 143.544 131.579 143.466 131.469L121.393 100.162C121.024 99.6397 120.298 99.512 119.774 99.8753L117.555 101.301C117.368 101.42 117.12 101.367 117 101.18C116.88 100.994 116.934 100.745 117.121 100.624L119.327 99.2069C120.201 98.5993 121.428 98.8163 122.05 99.6992L144.124 131.005C144.251 131.186 144.208 131.438 144.027 131.566C143.955 131.614 143.875 131.639 143.794 131.639Z" fill="#362E4D"/>
<path d="M69.9904 43.8949C72.4437 42.1261 72.9994 38.7022 71.2316 36.2475C69.4638 33.7927 66.0419 33.2367 63.5886 35.0055C61.1353 36.7743 60.5796 40.1982 62.3474 42.653C64.1152 45.1077 67.537 45.6638 69.9904 43.8949Z" fill="#ED695B"/>
<path opacity="0.26" d="M64.0059 35.6845C63.9117 35.2951 65.6629 34.3973 67.6297 34.7631C69.5953 35.1277 70.6611 36.6864 70.9783 37.9029C71.2956 39.1194 70.2595 39.6824 69.8567 39.5844C69.454 39.4877 68.931 37.2271 67.1364 37.2172C65.3407 37.2072 64.3133 37.4094 63.9489 36.891C63.5845 36.3727 64.0059 35.6845 64.0059 35.6845Z" fill="white"/>
<path d="M73.3221 1.97887C73.3221 1.97887 74.1599 2.76506 74.6259 3.89226C75.0919 5.01946 76.6472 11.9662 66.3373 21.0507C56.0274 30.1353 40.3946 30.5445 36.7658 29.7608C33.1371 28.9759 32.5906 26.0667 32.5906 26.0667L73.3221 1.97887Z" fill="#7F522D"/>
<path d="M62.498 6.09333C62.498 6.09333 69.898 0.906231 72.5637 1.40721C75.2283 1.90819 75.3274 14.6558 60.2077 22.8848C45.088 31.1137 35.4609 29.3541 33.007 26.9273C30.5544 24.5005 39.6659 18.7591 39.6659 18.7591L62.498 6.09333Z" fill="#ED695B"/>
<path d="M38.8419 15.8872C38.8419 15.8872 35.8068 8.86483 44.6704 2.46248C53.534 -3.93986 60.7159 4.16506 60.7159 4.16506C60.7159 4.16506 64.3075 9.56297 55.7413 15.6218C47.1751 21.6807 39.7416 17.2525 39.7416 17.2525L38.8419 15.8872Z" fill="#ED695B"/>
<path d="M62.4979 6.09334C62.4979 6.09334 65.2851 13.4555 55.2776 18.5322C45.2701 23.6089 39.6671 18.7591 39.6671 18.7591L38.8417 15.8872C38.8417 15.8872 44.1398 21.0607 53.312 16.0335C62.4843 11.0064 60.717 4.16507 60.717 4.16507L62.4979 6.09334Z" fill="#362E4D"/>
</svg>
