<svg width="202" height="159" viewBox="0 0 202 159" fill="none" xmlns="http://www.w3.org/2000/svg">
<path d="M183.847 119.435C192.932 105.966 198.497 90.9407 200.844 75.6915C203.412 58.9993 202.177 41.3342 192.272 26.2705C183.119 12.3512 166.855 2.43551 147.574 0.380041C138.227 -0.616195 128.675 0.366042 119.865 3.09344C110.912 5.86517 103.552 10.4182 96.8949 15.9699C90.8688 20.9965 84.5117 25.9567 75.4044 26.1189C70.288 26.2099 65.2853 25.0631 60.3096 24.2489C55.682 23.4918 51.0488 23.1593 46.3616 23.7251C28.0278 25.9381 14.2361 38.2265 7.6928 51.8157C4.08571 59.3073 2.20827 67.2924 1.18925 75.2809C0.10201 83.8026 -0.179397 92.4094 0.102006 100.972C0.245551 105.339 0.696082 110.448 1.38254 115.927C4.88018 143.833 24.4932 172.132 58.0299 175.531C59.9173 175.722 66.1579 176.222 68.0155 175.888L97.5529 170.585C108.543 168.423 137.273 157.71 146.766 152.689C162.388 144.428 174.876 132.736 183.847 119.435Z" fill="#FFE3E0"/>
</svg>
