<svg width="197" height="183" viewBox="0 0 197 183" fill="none" xmlns="http://www.w3.org/2000/svg">
<path d="M161.164 176.317H156.374C155.64 176.317 155.044 175.72 155.044 174.983V156.428C155.044 155.691 155.64 155.094 156.374 155.094H161.164C161.899 155.094 162.495 155.691 162.495 156.428V174.983C162.495 175.72 161.899 176.317 161.164 176.317Z" fill="#302016"/>
<path d="M153.205 151.007V164.691C153.205 165.114 155.629 165.455 158.619 165.455C161.61 165.455 164.034 165.114 164.034 164.691V151.007H153.205Z" fill="#7A593B"/>
<path d="M129.702 157.746C129.462 160.197 131.545 162.239 133.982 161.943C146.17 160.456 177.866 156.191 181.205 151.678C185.349 146.078 185.592 136.429 179.242 134.484C173.679 132.78 139.983 150.345 131.728 154.718C130.588 155.322 129.828 156.459 129.702 157.746Z" fill="#BD8958"/>
<path d="M180.138 116.463L152.193 103.295C151.711 103.068 151.166 103.02 150.652 103.157L95.7885 117.867C94.7885 118.135 94.0994 119.051 94.1163 120.089L94.6525 153.392C94.6551 153.529 94.6447 153.666 94.6214 153.801L94.1163 156.828C94.0968 156.945 94.0852 157.062 94.0839 157.18C93.9595 165.219 98.8572 176.869 100.611 180.774C100.975 181.586 101.78 182.106 102.667 182.106H121.622C123.044 182.106 124.111 180.802 123.833 179.403L121.012 165.193C120.784 164.048 121.461 162.918 122.576 162.584C128.61 160.781 147.529 154.897 165.432 146.87C184.003 138.543 182.266 122.492 181.39 118.075C181.252 117.37 180.789 116.77 180.138 116.463Z" fill="#FF8F27"/>
<path d="M96.0347 147.404C96.9051 139.138 106.036 135.348 112.352 131.824C119.645 127.755 126.936 123.686 134.229 119.616C134.775 119.312 134.286 118.473 133.741 118.777C125.71 123.257 110.087 127.847 102.057 132.329C95.8922 135.769 88.3066 139.619 87.475 147.512C87.4076 148.133 95.9699 148.02 96.0347 147.404Z" fill="#94551C"/>
<path d="M121.611 163.175C121.349 163.444 121.159 163.774 121.059 164.134C118.728 164.125 115.725 163.943 113.671 163.607C113.057 163.507 113.318 162.57 113.928 162.671C116.05 163.019 119.373 163.195 121.611 163.175Z" fill="#94551C"/>
<path d="M52.4163 45.5639H66.4242C66.4242 45.5639 64.6768 60.1309 75.8725 62.5888C84.9464 64.5817 95.5786 63.7554 95.5786 63.7554V77.8041C95.5786 77.8041 66.2455 85.3091 56.4267 72.5803C46.608 59.8516 52.4163 45.5639 52.4163 45.5639Z" fill="#543D27"/>
<path d="M95.5784 77.804L97.1704 143.361C97.1704 143.361 68.1572 149.445 51.5975 145.592C35.0378 141.739 25.2346 109.188 25.8978 100.02C26.5611 90.8523 44.9744 55.1136 52.1273 56.0438C59.2802 56.9752 95.5784 77.804 95.5784 77.804Z" fill="#7A593B"/>
<path d="M75.5745 65.3455L58.5718 141.863L94.6562 145.028V65.3455H75.5745Z" fill="#FFF3ED"/>
<path d="M80.1887 137.646H59.5098L60.217 134.466H80.1887C80.8117 134.466 80.8117 137.646 80.1887 137.646Z" fill="#302016"/>
<path d="M80.9635 127.786H61.7017L62.405 124.606H80.9622C81.5904 124.606 81.5904 127.786 80.9635 127.786Z" fill="#302016"/>
<path d="M81.4453 121.588H63.0786L63.7859 118.408H81.4453C82.071 118.408 82.0684 121.588 81.4453 121.588Z" fill="#302016"/>
<path d="M83.0114 108.961H65.8843L66.5915 105.78H83.0114C83.6344 105.78 83.6344 108.961 83.0114 108.961Z" fill="#302016"/>
<path d="M83.98 101.45H67.5537L68.1638 98.695H83.98C84.6031 98.695 84.6031 101.45 83.98 101.45Z" fill="#302016"/>
<path d="M85.2717 91.3693H69.791L70.3856 88.6944H85.2717C85.8948 88.6944 85.8948 91.3693 85.2717 91.3693Z" fill="#302016"/>
<path d="M86.085 85.9378H70.998L71.4411 83.9462H86.085C86.708 83.9462 86.708 85.9378 86.085 85.9378Z" fill="#302016"/>
<path d="M86.7302 80.5815H72.1899L72.6329 78.5899H86.7315C87.3546 78.5899 87.3546 80.5815 86.7302 80.5815Z" fill="#302016"/>
<path d="M86.8857 73.3532H73.7949L74.2379 71.3617H86.8857C87.5088 71.3617 87.5088 73.3532 86.8857 73.3532Z" fill="#302016"/>
<path d="M94.6576 77.6183V78.5901H72.6328L72.8453 77.6183H94.6576Z" fill="#EDD4C7"/>
<path d="M94.6578 73.3533V74.325H73.5786L73.7949 73.3533H94.6578Z" fill="#EDD4C7"/>
<path d="M94.6579 69.0533V70.025H74.5347L74.751 69.0533H94.6579Z" fill="#EDD4C7"/>
<path d="M94.6579 82.9758V83.9462H71.4414L71.6577 82.9758H94.6579Z" fill="#EDD4C7"/>
<path d="M94.658 87.7229V88.6946H70.3857L70.6021 87.7229H94.658Z" fill="#EDD4C7"/>
<path d="M94.6579 94.2898V95.2615H68.9297L69.1421 94.2898H94.6579Z" fill="#EDD4C7"/>
<path d="M94.6576 101.451V102.422H67.3374L67.5537 101.451H94.6576Z" fill="#EDD4C7"/>
<path d="M94.6578 108.961V109.932H65.668L65.8843 108.961H94.6578Z" fill="#EDD4C7"/>
<path d="M94.6575 117.436V118.408H63.7842L64.0005 117.436H94.6575Z" fill="#EDD4C7"/>
<path d="M94.6575 127.799V128.771H61.4824L61.6987 127.799H94.6575Z" fill="#EDD4C7"/>
<path d="M94.6577 137.647V138.618H59.2935L59.5098 137.647H94.6577Z" fill="#EDD4C7"/>
<path d="M3.77344 102.945L32.9369 49.2313C34.1649 46.9695 36.5263 45.5626 39.0937 45.5626H66.4242L34.718 103.469L3.77344 102.945Z" fill="#BD8958"/>
<path d="M3.77341 102.944H34.7724C34.7724 102.944 31.0586 136.637 56.1339 140.445C78.0331 143.769 97.1679 143.201 97.1679 143.201V174.291C97.1679 174.291 34.3747 190.899 12.6491 162.732C-9.07643 134.565 3.77341 102.944 3.77341 102.944Z" fill="#BD8958"/>
<path d="M35.4214 107.159H4.63234C4.30203 107.159 4.06886 106.831 4.17897 106.518C4.18026 106.514 4.18156 106.511 4.18286 106.507C4.25021 106.314 4.43156 106.187 4.63493 106.187H35.4214C35.4279 106.187 35.4344 106.187 35.4409 106.19C36.0484 106.209 36.0393 107.159 35.4214 107.159Z" fill="#7A593B"/>
<path d="M36.0691 104.837C36.0691 105.587 35.4629 106.195 34.7155 106.195C33.968 106.195 33.3618 105.587 33.3618 104.837C33.3618 104.088 33.968 103.48 34.7155 103.48C35.4629 103.48 36.0691 104.088 36.0691 104.837Z" fill="#9D6735"/>
<path d="M67.6793 85.7572C65.1352 95.2082 62.7907 104.711 60.6456 114.261C60.5083 114.87 61.4422 115.13 61.5795 114.52C63.7246 104.97 66.0692 95.4668 68.6133 86.0157C68.7765 85.4103 67.8425 85.1531 67.6793 85.7572Z" fill="#302016"/>
<path d="M50.7114 90.8874L59.5094 71.3617L63.1765 78.8849L52.5975 94.8484L50.7114 90.8874Z" fill="#EDD4C7"/>
<path d="M50.7114 90.8874L61.0133 112.519C61.0133 112.519 65.4719 104.376 64.2802 98.6938C64.2802 98.6938 68.5976 94.0546 67.2349 87.2057L59.5094 71.3604C59.5094 71.3604 60.2076 77.2674 55.7361 79.7332C55.7361 79.7345 56.2335 86.1443 50.7114 90.8874Z" fill="#FFF3ED"/>
<path d="M64.954 97.8298C64.5887 98.3507 64.3206 98.6495 64.2817 98.6911L55.7363 79.7344C55.7363 79.7318 56.2791 79.394 56.5317 79.2122L64.954 97.8298Z" fill="#EDD4C7"/>
<path d="M67.2559 46.3953C67.2559 46.8552 66.8841 47.2267 66.4255 47.2267C65.967 47.2267 65.5952 46.8539 65.5952 46.3953C65.5952 45.9354 65.967 45.5626 66.4255 45.5626C66.8841 45.5626 67.2559 45.9354 67.2559 46.3953Z" fill="#9D6735"/>
<path d="M67.1612 46.7824L35.8889 105.522L34.7153 103.48L65.7259 46.8383L67.1612 46.7824Z" fill="#9D6735"/>
<path d="M124.427 111.29C125.362 113.167 126.444 114.973 127.581 116.733C127.919 117.256 128.759 116.77 128.418 116.244C127.279 114.483 126.199 112.679 125.264 110.8C124.984 110.24 124.149 110.731 124.427 111.29Z" fill="#94551C"/>
<path d="M181.717 126.177C181.675 126.549 181.626 126.931 181.568 127.316C178.894 125.04 175.606 123.604 172.578 121.814C168.678 119.508 165.251 116.506 162.4 112.987C162.009 112.507 162.691 111.815 163.084 112.301C166.113 116.038 169.762 119.124 173.95 121.485C176.592 122.97 179.36 124.298 181.717 126.177Z" fill="#94551C"/>
<path d="M171.197 35.0955C167.132 37.5625 158.583 38.4069 158.583 38.4069C158.583 38.4069 155.193 41.4962 148.707 54.2509C142.223 67.0057 140.437 110.651 140.437 110.651C153.302 117.028 174.002 112.345 174.002 112.345C174.002 112.345 175.262 32.6284 171.197 35.0955Z" fill="white"/>
<path d="M105.216 59.7788C105.216 59.7788 98.9075 59.3177 94.2002 59.2917C88.4424 59.2605 85.7261 59.7788 79.6328 63.4917C75.612 65.9418 75.0628 67.9425 75.6587 69.0714C75.6587 69.0714 74.1353 70.5992 76.3206 72.1932C76.3206 72.1932 75.9644 73.8119 77.1315 74.5849C78.2986 75.3565 79.6898 74.6602 80.8828 74.112C82.0745 73.5638 88.8401 70.5992 88.8401 70.5992C88.8401 70.5992 84.7831 73.1896 84.9813 74.3861C85.1794 75.5813 86.2973 76.0048 87.8129 75.5813C89.3284 75.1578 96.6705 71.7957 96.6705 71.7957L109.108 71.7944L105.216 59.7788Z" fill="#FFA372"/>
<path d="M109.107 71.7969H100.438C100.574 67.8787 100.747 62.3926 100.848 59.5098C103.327 59.6423 105.217 59.7787 105.217 59.7787L109.107 71.7969Z" fill="white"/>
<path d="M163.474 35.3701C164.242 35.0186 164.697 34.8201 164.697 34.8201C164.697 34.8201 164.293 34.8823 163.474 35.3701Z" fill="#7A3F23"/>
<path d="M149.382 43.185C145.29 46.1795 141.913 57.9495 126.529 59.3396C119.707 59.9566 104.606 59.7358 104.606 59.7358L103.97 78.9367C103.97 78.9367 113.016 82.0273 127.97 81.2816C131.093 81.1257 137.074 79.6006 140.684 79.0471C140.684 79.0471 138.793 93.0126 140.684 99.39C142.575 105.767 149.034 104.775 149.034 104.177C149.034 103.58 143.8 91.8162 145.953 76.7698C146.847 64.8127 152.51 46.577 158.671 39.6683C160.894 37.1753 162.487 35.9607 163.475 35.3696C160.705 36.6414 153.846 39.9191 149.382 43.185Z" fill="#FF8F27"/>
<path d="M167.845 24.4624C172.301 19.9938 172.301 12.7488 167.845 8.2802C163.39 3.81163 156.166 3.81163 151.71 8.28021C147.255 12.7488 147.255 19.9938 151.71 24.4623C156.166 28.9309 163.39 28.9309 167.845 24.4624Z" fill="#FFA372"/>
<path d="M167.509 28.6393C167.782 23.6961 164.007 19.467 159.079 19.1932C154.15 18.9194 149.933 22.7047 149.66 27.6479C149.387 32.5911 153.161 36.8203 158.09 37.0941C163.019 37.3679 167.236 33.5825 167.509 28.6393Z" fill="#FFA372"/>
<path d="M148.707 19.1437C148.707 19.1437 149.752 23.9596 149.645 28.1492L161.982 26.3188L148.707 19.1437Z" fill="#FFA372"/>
<path d="M154.062 22.1005C154.061 22.0628 154.057 22.0239 154.047 21.9823C154.04 21.9407 154.03 21.9043 154.016 21.8706C153.45 19.7088 151.667 17.2938 149.135 17.8381C146.624 18.3785 145.826 21.4055 146.282 23.6179C146.736 25.8147 148.631 28.2492 151.13 27.7699C153.716 27.2762 154.38 24.3376 154.062 22.1005ZM150.69 26.8579C148.807 26.9917 147.547 24.9742 147.219 23.3607C146.877 21.6744 147.383 19.3854 149.22 18.8605C151.316 18.2616 152.694 20.513 153.114 22.2408C153.387 23.9738 152.905 26.7007 150.69 26.8579Z" fill="#472D1D"/>
<path d="M171.188 16.3701C171.188 16.3701 171.396 25.8315 173.383 33.4703C173.383 33.4703 163.47 41.4963 158.721 39.6099L157.939 35.2852L171.188 16.3701Z" fill="#FFA372"/>
<path d="M171.188 9.7771C171.188 9.7771 172.483 27.2814 172.316 28.4441C172.149 29.6068 168.837 29.308 167.777 26.2525C166.718 23.197 166.982 22.8982 165.592 21.0378C164.201 19.1775 162.876 19.31 162.346 16.8196C161.816 14.3279 159.522 11.6712 158.583 11.0398C157.643 10.4072 171.188 9.7771 171.188 9.7771Z" fill="#573E2F"/>
<path d="M174.517 36.066C174.517 36.066 186.983 48.3764 189.172 57.7963C190.795 64.7817 189.802 77.8014 186.887 96.4022C186.887 96.4022 192.584 122.177 196.558 131.477C193.451 134.234 188.683 133.848 186.057 130.627C184.867 129.167 183.421 127.62 181.719 126.177C175.196 120.646 148.944 114.032 151.65 68.6336C153.107 44.1868 173.243 32.9053 173.243 32.9053L174.517 36.066Z" fill="#FF8F27"/>
<path d="M119.269 94.2885L108.176 97.5714C108.176 97.5714 97.8257 96.4009 95.5783 96.5334C91.5446 96.7724 90.6106 100.054 92.2997 100.884C93.8697 101.656 95.9241 101.61 95.9241 101.61C95.9241 101.61 90.7142 104.202 87.38 106.474C84.0445 108.748 82.3942 110.077 82.2466 111.287C82.0678 112.748 84.2686 114.233 85.9189 113.877C85.9189 113.877 84.3839 115.216 84.0031 116.529C83.2647 119.077 86.3062 120.528 88.7816 119.004C88.7816 119.004 89.1611 121.913 92.1508 121.726C94.2946 121.592 95.9591 120.181 95.9591 120.181C95.9591 120.181 94.1314 122.025 95.4319 123.703C96.1793 124.668 98.6431 125.061 101.041 123.86C103.438 122.66 108.804 119.303 108.804 119.303L128.626 111.016L119.269 94.2885Z" fill="#FFA372"/>
<path d="M128.627 111.017L121.326 114.069L112.594 96.2644L119.269 94.2872L128.627 111.017Z" fill="white"/>
<path d="M159.778 64.0165C159.778 64.0165 154.711 77.6013 147.16 82.6497C139.61 87.6981 116.73 95.0381 116.73 95.0381L127.694 115.104C127.694 115.104 151.575 109.514 160.98 103.137C170.386 96.7594 181.983 74.0794 181.983 74.0794C181.983 74.0794 175.461 54.251 159.778 64.0165Z" fill="#FF8F27"/>
<path d="M171.188 9.77714C170.856 9.77714 168.539 12.3676 163.438 11.9025C158.338 11.4374 155.842 13.7693 153.437 17.0847C151.03 20.4 143.831 22.9307 140.785 23.1295C140.785 23.1295 139.32 20.7469 142.399 19.401C142.399 19.401 140.089 15.6141 143.666 13.4718C147.242 11.3296 147.689 11.5283 147.442 8.76383C147.193 5.99931 148.982 -0.154606 159.662 3.40757C159.662 3.40757 163.934 1.51476 167.238 3.58165C170.543 5.64984 171.188 9.77714 171.188 9.77714Z" fill="#302016"/>
<path d="M162.11 18.0602C162.11 18.0602 164.562 15.2165 166.812 16.9053C169.239 18.728 168.198 22.5292 166.14 24.1868C164.25 25.7107 162.11 18.0602 162.11 18.0602Z" fill="#FFA372"/>
<path d="M165.223 34.1485C165.223 34.1485 164.382 38.7565 158.662 39.2748L158.271 37.1131C161.137 36.9663 163.474 35.8841 165.223 34.1485Z" fill="#D47444"/>
<path d="M152.452 22.1681C152.452 21.9966 152.429 21.8264 152.382 21.664C152.334 21.4952 152.265 21.3367 152.16 21.199C152.039 21.0379 151.855 20.9093 151.653 20.8742C151.194 20.7923 150.859 21.2223 150.771 21.6329C150.769 21.6368 150.769 21.6407 150.768 21.6446C150.693 22.0148 150.778 22.3993 150.931 22.7319C150.993 22.867 151.078 22.9943 151.182 23.0983C151.273 23.1879 151.385 23.2594 151.508 23.2918C151.778 23.3646 152.068 23.2347 152.234 23.0086C152.372 22.8216 152.421 22.5695 152.443 22.3448C152.449 22.2863 152.452 22.2266 152.452 22.1681Z" fill="#3B111F"/>
<path d="M158.797 20.9534C158.797 20.7819 158.773 20.6117 158.727 20.4493C158.679 20.2804 158.61 20.1219 158.505 19.9842C158.383 19.8231 158.199 19.6945 157.997 19.6595C157.539 19.5776 157.203 20.0076 157.115 20.4181C157.114 20.422 157.114 20.4259 157.113 20.4298C157.038 20.8001 157.123 21.1846 157.276 21.5172C157.338 21.6523 157.422 21.7796 157.527 21.8835C157.618 21.9732 157.729 22.0446 157.852 22.0771C158.123 22.1499 158.413 22.02 158.579 21.7939C158.716 21.6068 158.766 21.3548 158.788 21.1301C158.794 21.0716 158.797 21.0118 158.797 20.9534Z" fill="#3B111F"/>
<path d="M163.711 19.7205C164.388 18.9748 165.359 18.7266 166.31 19.0488C166.901 19.2489 167.155 18.3109 166.567 18.1122C165.311 17.6874 163.918 18.0511 163.026 19.0345C162.607 19.4944 163.29 20.183 163.711 19.7205Z" fill="#D47444"/>
<path d="M164.551 18.928C165.149 19.7205 165.488 20.6909 164.829 21.5536C164.45 22.0498 165.29 22.5331 165.666 22.0433C166.52 20.9274 166.176 19.4815 165.387 18.437C165.014 17.9446 164.174 18.4292 164.551 18.928Z" fill="#D47444"/>
<path d="M153.415 29.1664L158.452 28.4246C158.452 28.4246 158.143 30.5343 156.229 30.8162C154.412 31.0839 153.415 29.1664 153.415 29.1664Z" fill="white"/>
<path d="M154.029 22.676C153.336 23.4477 152.797 24.4779 153.202 25.5263C153.575 26.4902 154.571 26.8436 155.535 26.8306C156.158 26.8228 156.159 25.851 155.535 25.8588C154.919 25.8666 154.233 25.7237 154.066 25.0313C153.912 24.3934 154.311 23.8114 154.714 23.3632C155.13 22.8994 154.447 22.2096 154.029 22.676Z" fill="#D47444"/>
<path d="M163.25 19.5711C163.25 19.5321 163.246 19.4905 163.236 19.4477C163.229 19.4035 163.218 19.3658 163.202 19.3308C162.582 17.0014 160.544 14.8228 157.936 15.3814C155.354 15.9349 154.199 18.8358 154.698 21.2392C155.196 23.6386 157.404 25.851 159.997 25.3054C162.62 24.7546 163.578 21.9628 163.25 19.5711ZM159.74 24.37C157.653 24.7701 156.01 22.8488 155.632 20.9832C155.264 19.1658 156.057 16.8819 158.003 16.3714C160.214 15.7894 161.832 17.7939 162.302 19.7075C162.597 21.5951 161.872 23.9608 159.74 24.37Z" fill="#472D1D"/>
<path d="M153.509 21.8291C154.076 21.629 154.644 21.4289 155.211 21.2289C155.795 21.0236 155.544 20.0844 154.953 20.2922C154.386 20.4923 153.819 20.6923 153.251 20.8924C152.667 21.099 152.92 22.0369 153.509 21.8291Z" fill="#472D1D"/>
<path d="M158.306 53.7808C160.266 52.9572 162.298 52.1647 164.395 51.7789C165.008 51.6658 164.748 50.7292 164.137 50.8422C162.04 51.228 160.008 52.0218 158.048 52.8441C157.481 53.0819 157.729 54.0224 158.306 53.7808Z" fill="#94551C"/>
<path d="M175.575 37.1546C171.174 41.2871 167.887 46.4043 164.684 51.5566C164.355 52.0879 163.518 51.5982 163.847 51.0681C167.102 45.8249 170.451 40.6661 174.909 36.4661C175.084 36.6388 175.307 36.8727 175.575 37.1546Z" fill="#94551C"/>
<path d="M158.176 53.799C160.165 53.9938 162.154 54.1874 164.143 54.3823C164.763 54.4433 164.758 53.4703 164.143 53.4105C162.154 53.2157 160.165 53.0221 158.176 52.8272C157.556 52.7662 157.561 53.7379 158.176 53.799Z" fill="#94551C"/>
<path d="M163.665 53.7924C161.593 57.7313 159.808 61.8093 158.323 66.0054C158.114 66.5952 159.049 66.8498 159.257 66.2639C160.714 62.1457 162.469 58.1484 164.501 54.2822C164.792 53.7301 163.956 53.239 163.665 53.7924Z" fill="#94551C"/>
<path d="M166.33 54.3888C160.929 62.1744 157.26 71.0343 151.522 78.59C151.502 78.0782 151.487 77.5598 151.477 77.0389C156.798 69.7456 160.35 61.3196 165.494 53.9003C165.846 53.3885 166.685 53.8743 166.33 54.3888Z" fill="#94551C"/>
<path d="M178.017 83.6331C175.14 88.1865 172.553 92.9633 169.14 97.1543C166.15 100.827 162.536 103.517 158.484 105.736C158.326 105.461 158.168 105.179 158.01 104.894C161.982 102.712 165.525 100.07 168.456 96.4684C171.815 92.3424 174.348 87.624 177.181 83.142C177.513 82.612 178.352 83.1017 178.017 83.6331Z" fill="#94551C"/>
<path d="M186.99 116.833C187.109 117.445 186.176 117.705 186.057 117.092C184.698 110.207 185.583 103.225 186.887 96.4009C186.887 96.4009 187.084 97.2856 187.426 98.7874C186.383 104.761 185.808 110.842 186.99 116.833Z" fill="#94551C"/>
<path d="M183.626 88.1319C183.095 93.6675 182.74 99.2147 182.562 104.774C182.543 105.398 183.51 105.398 183.531 104.774C183.709 99.216 184.064 93.6675 184.595 88.1319C184.654 87.5097 183.685 87.5136 183.626 88.1319Z" fill="#94551C"/>
<path d="M178.101 87.3356C179.578 85.2037 180.943 83.0056 182.201 80.7387C182.504 80.1918 181.669 79.7007 181.364 80.2489C180.106 82.5172 178.74 84.7153 177.264 86.8458C176.908 87.359 177.748 87.8462 178.101 87.3356Z" fill="#94551C"/>
<path d="M145.457 82.5574C145.444 82.9498 145.435 83.3382 145.435 83.7227C143.707 84.8179 141.886 85.5597 140 86.3729C140.022 86.004 140.045 85.6272 140.071 85.2752C141.947 84.4463 143.759 83.6903 145.457 82.5574Z" fill="#94551C"/>
<path d="M98.1392 105.171C93.5925 107.406 89.4759 110.336 85.8981 113.879C85.481 113.966 85.029 113.934 84.5898 113.821C88.3645 109.935 92.7725 106.731 97.6547 104.329C98.213 104.058 98.6975 104.896 98.1392 105.171Z" fill="#D47444"/>
<path d="M101.994 110.058C97.1663 112.672 92.8425 116.033 89.1261 120.055C88.858 119.521 88.7868 119.055 88.7803 119.005C88.7803 119.003 88.7803 119.003 88.7803 119.003C92.4746 115.078 96.7596 111.788 101.506 109.219C102.055 108.922 102.543 109.761 101.994 110.058Z" fill="#D47444"/>
<path d="M104.997 114.34C101.434 116.766 98.0834 119.467 94.9642 122.423C94.9448 121.358 95.7233 120.438 95.9163 120.228C95.9293 120.212 95.9383 120.202 95.9487 120.195C98.6482 117.779 101.503 115.545 104.506 113.501C105.026 113.152 105.511 113.993 104.997 114.34Z" fill="#D47444"/>
<path d="M86.0848 67.823C82.6625 68.9311 79.3969 70.4004 76.314 72.2205C76.3166 72.2049 76.3204 72.1945 76.3204 72.1945C76.007 71.9684 75.7686 71.7385 75.5938 71.5176C78.8192 69.5937 82.2428 68.049 85.827 66.8863C86.4241 66.6927 86.6754 67.632 86.0848 67.823Z" fill="#D47444"/>
<path d="M86.0047 63.9879C82.2132 64.9622 78.7196 66.6732 75.6548 69.0661C75.4994 68.7647 75.423 68.4049 75.4735 67.9905C78.5383 65.6819 81.9994 64.0139 85.7456 63.0486C86.3531 62.894 86.6083 63.832 86.0047 63.9879Z" fill="#D47444"/>
<path d="M143.136 111.794C138.154 113.579 133.103 115.156 128.127 116.957C127.539 117.167 127.287 116.228 127.871 116.017C132.473 114.356 137.142 112.883 141.76 111.257C142.212 111.447 142.671 111.629 143.136 111.794Z" fill="#94551C"/>
<path d="M146.299 53.8145C147.586 53.96 148.826 54.225 150.063 54.6135C150.659 54.8006 150.914 53.8626 150.321 53.6768C149.001 53.2637 147.672 52.9987 146.299 52.8441C145.68 52.7726 145.685 53.7444 146.299 53.8145Z" fill="#94551C"/>
<path d="M146.542 55.8606C147.757 55.3462 148.953 54.9175 150.237 54.6122C150.843 54.468 150.586 53.53 149.979 53.6755C148.612 54.0016 147.347 54.4745 146.053 55.0227C145.481 55.2643 145.975 56.1009 146.542 55.8606Z" fill="#94551C"/>
<path d="M145.816 68.5062C145.758 70.7147 145.909 72.8751 146.11 75.0356C146.049 75.6254 145.993 76.2048 145.952 76.7712C145.8 77.8365 145.684 78.8822 145.604 79.9124C145.6 79.906 145.6 79.8995 145.6 79.893C145.286 76.0645 144.747 72.3607 144.847 68.5062C144.957 64.1438 145.293 59.7749 145.812 55.4423C145.886 54.8265 146.855 54.8239 146.781 55.4423C146.262 59.7749 145.926 64.1438 145.816 68.5062Z" fill="#94551C"/>
<path d="M156.892 38.6213C152.259 42.6824 149.103 47.7632 146.766 53.4572C146.531 54.0302 145.594 53.7781 145.834 53.1987C147.785 48.4543 150.257 44.1153 153.664 40.4193C154.734 39.7905 155.829 39.1852 156.892 38.6213Z" fill="#94551C"/>
<path d="M142.345 69.0791C141.722 72.4153 141.163 75.7631 140.672 79.1187C140.679 79.0706 140.681 79.0472 140.681 79.0472C140.368 79.0953 140.035 79.1512 139.687 79.2122C140.187 75.7371 140.762 72.2724 141.411 68.8206C141.525 68.2048 142.461 68.4672 142.345 69.0791Z" fill="#94551C"/>
</svg>
