<svg width="185" height="196" viewBox="0 0 185 196" fill="none" xmlns="http://www.w3.org/2000/svg">
<path d="M168.455 133.007C176.735 118.008 181.807 101.275 183.946 84.2929C186.287 65.7038 185.161 46.0313 176.134 29.2558C167.792 13.7548 152.968 2.71227 135.395 0.423227C126.875 -0.686218 118.169 0.407638 110.14 3.44497C101.98 6.53167 95.2716 11.6021 89.2042 17.7846C83.7119 23.3825 77.9178 28.9063 69.6172 29.0869C64.954 29.1883 60.3944 27.9112 55.8593 27.0044C51.6417 26.1613 47.4189 25.7911 43.1468 26.4211C26.4368 28.8856 13.8668 42.5704 7.90302 57.7038C4.61543 66.0468 2.90428 74.9392 1.97552 83.8356C0.984576 93.3256 0.728094 102.91 0.984573 112.446C1.1154 117.31 1.52603 122.999 2.15168 129.101C5.33953 160.178 23.2153 191.692 53.7816 195.478C55.5018 195.691 61.1897 196.247 62.8827 195.875L89.8039 189.969C99.8208 187.562 126.006 175.631 134.658 170.04C148.896 160.841 160.279 147.82 168.455 133.007Z" fill="#FFE2C8"/>
</svg>
