<svg width="223" height="196" viewBox="0 0 223 196" fill="none" xmlns="http://www.w3.org/2000/svg">
<path d="M167.971 136.763L35.7541 154.341L17.2021 13.937L147.323 0L167.971 136.763Z" fill="#FFF1EE"/>
<path d="M119.32 104.679L118.341 103.419C118.341 103.419 115.818 100.735 110.964 100.542C106.105 100.349 103.517 100.363 102.754 99.6639C101.991 98.9607 101.968 99.4479 103.66 101.3C105.351 103.157 107.006 104.472 109.415 105.424C111.823 106.375 117.252 106.83 117.252 106.83L119.32 104.679Z" fill="#BD6BEF"/>
<path d="M139.945 110.498C140.281 108.085 141.269 106.931 142.919 107.032C143.816 107.069 144.523 107.189 145.038 107.396C148.26 108.83 152.586 110.425 158.014 112.19C160.708 113.284 162.841 114.566 164.408 116.037C167.562 118.689 171.087 121.811 174.985 125.4C176.364 126.738 177.325 127.777 177.867 128.526L178.189 128.949C179.021 130.075 179.683 131.211 180.179 132.351L185.424 150.475C186.178 152.773 187.217 155.067 188.536 157.356C191.961 163.079 196.952 168.567 203.507 173.821L179.085 192.796C175.794 184.623 172.875 177.811 170.338 172.355C169.534 170.916 168.527 169.671 167.313 168.618C165.976 167.349 163.245 165.198 159.122 162.16C158.254 161.374 157.527 160.537 156.948 159.641C156.134 158.505 155.1 156.547 153.841 153.762L150.352 142.698C150.154 142.417 149.97 142.311 149.8 142.376C149.065 143.217 148.421 143.667 147.865 143.727C147.12 143.828 146.21 143.663 145.13 143.231C142.083 141.824 140.106 140.179 139.196 138.285C138.608 136.897 138.396 135.775 138.562 134.906C138.483 134.129 139.155 133.219 140.575 132.176C139.596 130.53 139.118 128.581 139.136 126.32C139.357 125.033 140.143 123.81 141.494 122.656C142.772 121.843 146.505 123.64 152.692 128.053C148.536 123.217 146.463 120.974 146.482 121.319C145.801 120.841 143.328 119.632 139.063 117.706C138.654 117.503 138.102 117.113 137.408 116.534C135.928 115.081 135.16 113.674 135.11 112.328C135.229 110.705 136.842 110.098 139.945 110.498Z" fill="#EE8E77"/>
<path d="M222.606 142.937C222.684 143.267 144.606 116.29 122.832 108.761C123.181 107.754 123.632 106.462 123.944 105.529C145.59 113.661 222.528 142.606 222.606 142.937Z" fill="#2B0C0A"/>
<path d="M118.341 103.419C118.341 103.419 120.405 104.192 123.944 105.525C123.627 106.458 123.181 107.749 122.832 108.756C119.306 107.538 117.252 106.825 117.252 106.825L118.341 103.419Z" fill="#F5B166"/>
<path d="M178.391 135.302C177.886 134.626 177.173 133.932 176.259 133.224C173.096 131.422 171.124 130.144 170.343 129.395C169.341 128.43 168.564 127.602 168.012 126.904L162.515 119.416C162.046 118.846 161.297 118.216 160.276 117.517C160.125 117.292 157.95 116.056 153.758 113.808C152.09 112.939 151.023 112.461 150.568 112.378L150.338 112.387L150.334 112.544C149.318 112.847 148.771 113.091 148.693 113.275C148.408 113.514 148.173 113.803 147.994 114.148C147.631 114.833 147.479 115.72 147.534 116.814C147.778 118.299 148.178 119.429 148.739 120.202C149.203 120.992 149.948 121.87 150.973 122.831L155.004 125.718C155.647 126.205 156.052 126.554 156.217 126.766C157.298 127.85 158.433 129.786 159.623 132.567C160.322 134.368 160.759 135.784 160.934 136.809C161.779 143.838 162.542 148.613 163.227 151.137C164.004 154.267 165.089 156.749 166.482 158.588C166.909 159.121 167.277 159.526 167.58 159.792C168.329 160.546 169.097 161.185 169.874 161.709C171.432 162.757 173.05 163.35 174.728 163.488C176.852 163.461 178.139 163.304 178.598 163.028C180.042 162.275 181.094 161.208 181.761 159.829C182.423 157.972 182.703 156.763 182.602 156.207C182.496 152.309 182.299 149.436 182.023 147.579C181.775 145.695 181.407 143.396 180.915 140.689C180.391 138.749 179.674 137.122 178.755 135.798L178.391 135.302Z" fill="#EE8E77"/>
<path opacity="0.9843" d="M157.638 131.532C157.652 131.546 157.665 131.56 157.675 131.574C157.799 131.735 157.789 131.965 157.642 132.112C157.481 132.277 157.013 132.691 156.24 133.362C156.176 133.426 156.079 133.532 155.946 133.684C155.335 134.525 154.889 135.21 154.613 135.734L153.634 137.917L153.193 139.204C153.055 139.544 152.903 140.284 152.733 141.443C152.701 141.668 152.494 141.82 152.269 141.787C152.159 141.774 152.067 141.714 152.007 141.636C151.943 141.553 151.91 141.438 151.924 141.328C152.099 140.128 152.264 139.333 152.421 138.942L152.866 137.637L152.88 137.6L153.878 135.375L153.887 135.352C154.186 134.787 154.659 134.061 155.303 133.173L155.326 133.146C155.487 132.962 155.606 132.833 155.689 132.755C156.461 132.089 156.911 131.689 157.054 131.537C157.215 131.376 157.472 131.372 157.638 131.532Z" fill="#DF6E60"/>
<path opacity="0.9843" d="M140.607 132.231C140.957 132.631 141.55 133.137 142.386 133.757C142.579 133.863 142.74 133.936 142.901 134.01C143.37 134.162 143.724 134.286 144.013 134.391C144.128 134.405 144.229 134.401 144.303 134.378C145.448 134.065 146.027 133.224 146.054 131.85C145.664 129.395 144.919 127.106 143.825 124.996C143.719 124.794 143.797 124.55 144 124.444C144.179 124.352 144.39 124.403 144.51 124.555C144.524 124.573 144.537 124.596 144.551 124.619C145.687 126.807 146.459 129.179 146.868 131.73L146.873 131.799C146.863 133.348 146.289 134.387 145.163 134.925C146.266 135.49 147.043 135.968 147.456 136.345C148.339 137.145 149.024 137.931 149.511 138.708C149.966 139.434 150.251 140.151 150.361 140.859C150.426 141.452 150.389 141.985 150.274 142.477C150.127 142.325 149.989 142.27 149.856 142.321C149.653 142.555 149.456 142.753 149.263 142.927C149.525 142.362 149.626 141.718 149.548 140.988C149.451 140.39 149.208 139.774 148.812 139.14C148.366 138.427 147.727 137.696 146.9 136.947C146.486 136.57 145.631 136.065 144.34 135.426C144.303 135.407 144.266 135.38 144.234 135.352C144.16 135.32 143.99 135.251 143.738 135.159C143.269 135.067 142.69 134.842 141.991 134.483L141.936 134.451C141.021 133.78 140.368 133.219 139.978 132.769C139.95 132.737 139.932 132.714 139.918 132.691C140.111 132.525 140.318 132.351 140.552 132.176C140.566 132.19 140.575 132.208 140.589 132.222L140.607 132.231Z" fill="#DF6E60"/>
<g opacity="0.9843">
<path d="M148.334 113.353L148.279 113.422C147.401 114.879 147.212 116.322 147.718 117.761C148.178 119.089 148.835 120.303 149.69 121.406C149.906 121.682 150.131 121.948 150.37 122.21L150.402 122.243C151.648 123.341 153.17 124.366 154.967 125.322C154.985 125.405 155.008 125.483 155.054 125.548C155.073 125.607 155.128 125.768 155.201 126.016L155.224 126.081L155.587 126.807C156.254 127.979 156.608 128.613 156.658 128.728C156.668 128.761 156.686 128.788 156.704 128.816C156.824 128.986 156.957 129.206 157.113 129.468L157.136 129.505C157.357 129.799 157.509 130.015 157.592 130.144L158.028 130.838L158.047 130.866C158.341 131.261 158.506 131.491 158.543 131.551C158.874 132.107 159.067 132.438 159.127 132.548C159.076 132.424 159.081 132.314 159.15 132.213C159.099 132.332 159.09 132.465 159.145 132.585L159.83 134.106L160.423 135.637C160.529 135.922 160.602 136.207 160.644 136.497C160.653 136.57 160.685 136.635 160.726 136.685C160.749 136.717 160.786 136.731 160.818 136.754C160.998 137.402 161.172 138.106 161.333 138.901C161.388 139.701 161.692 141.507 162.248 144.306L162.597 147.152C162.602 147.175 163.392 151.578 163.392 151.578C163.457 152.364 164.133 153.904 165.41 156.189C165.42 156.207 165.433 156.225 165.443 156.239C165.567 156.395 165.787 156.446 165.967 156.345C166.164 156.235 166.233 155.986 166.123 155.789C164.882 153.569 164.238 152.134 164.201 151.486L164.197 151.436L163.406 147.041L163.057 144.21L163.052 144.182C162.492 141.342 162.184 139.544 162.138 138.8L162.128 138.744C161.912 137.683 161.683 136.745 161.434 135.931C161.421 135.881 161.398 135.839 161.365 135.798C161.352 135.78 161.329 135.775 161.31 135.761C161.273 135.623 161.232 135.485 161.182 135.352C161.182 135.348 160.579 133.808 160.579 133.808C160.57 133.789 159.913 132.328 159.913 132.328C159.894 132.286 159.885 132.259 159.867 132.226C159.821 132.135 159.614 131.776 159.251 131.16C159.246 131.151 159.242 131.146 159.237 131.137C159.187 131.054 159.012 130.811 158.713 130.406C158.704 130.397 158.276 129.717 158.276 129.717C158.185 129.574 158.033 129.354 157.808 129.055C157.656 128.797 157.523 128.591 157.408 128.416C157.33 128.246 156.966 127.593 156.314 126.448C156.309 126.444 155.974 125.773 155.974 125.773C155.941 125.681 155.923 125.626 155.9 125.557C155.951 125.52 155.992 125.474 156.024 125.414C156.038 125.387 156.047 125.359 156.061 125.327C156.093 125.235 156.116 125.088 156.134 124.895C156.134 124.863 156.139 124.844 156.144 124.826C156.134 124.817 156.061 124.895 156.061 124.895L156.157 124.785C156.194 124.725 156.24 124.656 156.3 124.573L156.488 124.334C156.612 124.164 156.695 124.049 156.75 123.985C156.806 123.916 156.865 123.838 156.939 123.759C157.068 123.608 157.072 123.392 156.953 123.24C156.939 123.222 156.92 123.199 156.897 123.18C156.727 123.033 156.47 123.052 156.323 123.222C156.24 123.318 156.167 123.401 156.107 123.479C156.047 123.557 155.96 123.672 155.849 123.824L155.661 124.063C155.569 124.187 155.5 124.283 155.454 124.366C155.445 124.385 155.431 124.403 155.422 124.426C155.399 124.477 155.376 124.545 155.353 124.619C153.602 123.686 152.135 122.698 150.945 121.645C150.724 121.401 150.522 121.158 150.324 120.91C149.52 119.875 148.904 118.74 148.476 117.494C148.063 116.322 148.21 115.136 148.918 113.927C149.649 113.141 150.242 112.865 150.683 113.086C151.354 113.376 152.797 114.258 155.036 115.752L155.073 115.775L160.244 118.492C160.979 118.961 161.402 119.246 161.512 119.342C161.54 119.379 161.586 119.416 161.637 119.443C161.747 119.517 162.087 119.875 162.652 120.51C162.662 120.519 166.918 126.067 166.918 126.067L166.932 126.085C168.633 128.039 169.837 129.262 170.554 129.758C173.284 131.601 175.164 132.3 176.199 131.859C176.406 131.771 176.502 131.528 176.415 131.321C176.401 131.289 176.383 131.257 176.36 131.229C176.249 131.086 176.052 131.031 175.877 131.105C175.114 131.431 173.491 130.756 171.014 129.082C170.352 128.623 169.198 127.446 167.552 125.557L163.287 119.999L163.268 119.976C162.652 119.287 162.257 118.882 162.092 118.768C161.949 118.634 161.48 118.312 160.676 117.798L160.644 117.779L155.445 115.049C153.183 113.541 151.712 112.64 151.018 112.341C150.246 111.955 149.341 112.291 148.334 113.353ZM155.063 125.552C155.082 125.575 155.091 125.584 155.1 125.598C155.096 125.598 155.086 125.584 155.077 125.571C155.073 125.561 155.068 125.557 155.063 125.552Z" fill="#DF6E60"/>
</g>
<path d="M163.563 150.356C163.563 150.356 161.954 138.515 160.957 135.798C159.959 133.081 158.189 130.241 158.189 130.241C158.189 130.241 157.578 130.999 155.592 133.495C153.602 135.991 152.706 139.374 152.706 139.374C152.706 139.374 152.388 138.8 153.639 137.912C154.884 137.025 157.045 136.437 158.217 138.363C159.389 140.289 163.466 151.923 163.466 151.923L163.563 150.356Z" fill="#DF6E60"/>
<path d="M143.319 129.455L140.23 130.379C140.23 130.379 140.809 133.15 142.138 133.84C142.988 134.281 143.71 133.513 143.926 132.98C144.307 132.052 143.319 129.455 143.319 129.455Z" fill="#DF6E60"/>
<path d="M145.342 139.324C145.342 139.324 147.713 140.004 148.141 141.562C148.504 142.895 147.189 143.511 146.146 143.258C145.098 143.006 144.032 142.38 144.032 142.38L145.342 139.324Z" fill="#DF6E60"/>
<path d="M99.2745 173.734C97.6381 156.474 81.0903 156.809 71.0834 130.443C59.932 101.057 23.1866 94.7639 8.15568 112.263C-12.8463 136.713 9.97134 176.138 43.0762 189.859C76.1811 203.575 101.067 192.612 99.2745 173.734ZM64.1885 147.142C62.5935 156.156 49.6724 153.573 51.4283 144.807C53.5335 136.901 65.0481 139.062 64.1885 147.142Z" fill="#DFD4D0"/>
<path d="M46.4362 126.697C40.4146 131.643 31.3317 125.874 33.2025 118.34C34.77 111.312 44.5838 109.648 48.3208 115.991C50.4628 119.512 49.6217 124.159 46.4362 126.697Z" fill="#CDB0A1"/>
<path d="M24.2392 133.739C15.2482 140.436 5.4252 127.543 14.1358 120.671C22.6947 114.552 32.4671 126.628 24.2392 133.739Z" fill="#CDB0A1"/>
<path d="M27.4475 157.296C18.3324 164.04 8.69324 150.939 17.3441 144.228C26.0271 138.064 35.6386 150.314 27.4475 157.296Z" fill="#CDB0A1"/>
<path d="M44.3034 174.704C35.2067 181.498 25.2642 168.154 34.508 161.415C43.1772 155.775 52.3613 167.832 44.3034 174.704Z" fill="#CDB0A1"/>
<path d="M66.0317 185.023C57.0636 191.803 46.9235 178.579 56.2363 171.734C64.8871 166.085 74.0987 178.142 66.0317 185.023Z" fill="#CDB0A1"/>
<path d="M88.4447 181.714C79.4951 188.448 69.3182 175.384 78.6493 168.425C87.2956 162.789 96.5164 174.796 88.4447 181.714Z" fill="#CDB0A1"/>
<path d="M52.7521 115.72C52.104 114.704 48.5968 113.362 46.7995 113.9C46.0089 113.697 44.2392 115.109 43.6094 115.426C41.665 116.483 38.5807 115.343 37.5143 117.568C37.3074 118.358 37.5832 120.758 39.1645 120.785L43.0302 121.282C43.7795 121.438 44.4138 122.275 43.5726 122.973C43.3796 123.107 42.5706 123.451 41.141 124.008C40.2079 124.555 40.971 125.607 41.5042 126.145C42.1983 126.72 42.874 127.051 43.5313 127.138L47.1442 126.724C51.2904 126.03 51.6167 126.163 53.152 124.688L54.3517 122.151C54.3931 119.508 54.4758 117.963 52.7521 115.72Z" fill="#2B0C0A"/>
<path d="M59.376 122.1C59.1599 121.82 58.8152 121.512 58.521 121.282L58.2406 121.351C58.1119 121.204 57.9878 121.144 57.8453 121.149C55.3356 121.273 55.2298 124.716 57.119 125.796C57.997 126.508 58.9899 125.396 59.4357 125.001C60.4516 124.173 60.0885 123.01 59.376 122.1Z" fill="#2B0C0A"/>
<path d="M56.8937 118.436C57.5878 120.027 60.3412 118.79 58.576 117.149L57.8958 116.979C57.5648 116.612 57.0362 117.062 56.8385 117.306C56.6593 117.655 56.765 118.101 56.8937 118.436Z" fill="#2B0C0A"/>
<path d="M21.449 119.742C19.6655 119.494 17.5143 120.767 18.3187 122.564C19.1369 123.571 19.5414 124.155 19.5322 124.311C19.6701 125.23 19.4219 126.384 18.3693 126.476C16.7926 126.219 15.7124 126.186 15.124 126.375C13.6945 126.885 12.7292 127.469 13.2073 128.48C14.0071 129.781 14.8988 131.018 16.2318 131.528C16.7467 131.937 20.2631 131.611 20.3688 133.27C18.475 135.927 22.0741 136.639 23.9725 135.835C24.8735 135.531 25.6871 135.007 26.3996 134.359L29.6356 130.48C29.9849 129.377 29.7643 128.499 29.9849 126.996C29.9803 126.835 29.939 126.651 29.8562 126.435L28.7622 123.709C27.6039 122.086 27.0201 121.512 25.8388 120.703L26.2709 121.144C24.2759 120.202 22.6671 119.737 21.449 119.742Z" fill="#DA892E"/>
<path d="M35.6203 152.341C35.51 151.109 33.8184 149.91 33.4737 149.11C32.9451 148.623 32.6279 148.099 32.0442 147.51L28.7116 144.766L28.4036 144.568C27.1763 144.008 24.7861 144.104 23.1405 144.302C21.7064 144.789 20.5158 145.911 19.477 147.763C18.4152 149.386 19.6379 151.79 20.0837 152.976C20.3963 153.693 21.8029 154.704 23.0118 155.274C23.5358 155.426 25.5997 155.729 26.2478 156.428C27.2912 157.444 28.5185 158.05 29.8975 157.103C30.4215 156.878 30.6836 155.104 31.488 154.594C33.3082 153.734 35.8364 155.329 35.6203 152.341Z" fill="#FFF1EE"/>
<path d="M33.06 160.445C33.5334 161.374 33.7265 161.691 34.0069 162.959C34.4665 163.98 35.464 164.656 35.942 165.267C36.9809 166.094 38.4012 165.396 39.4171 164.83C39.9135 164.334 39.8032 164.072 39.7664 163.116C39.6745 161.888 39.27 161.617 38.0335 160.638C38.0243 160.638 38.153 160.896 38.153 160.896C37.5647 160.27 36.7465 158.979 35.8731 158.652C34.8159 158.174 32.6003 159.153 33.06 160.445Z" fill="#BD6BEF"/>
<path d="M50.8581 169.491C50.6282 169.009 50.1778 167.763 50.1778 167.763C49.4653 165.979 48.0357 165.184 45.9075 165.065C45.5857 165.019 45.2916 165.336 44.8411 166.062C43.5403 168.884 44.0689 168.88 41.9498 169.983C41.1408 170.369 39.9549 169.932 39.1873 169.753C37.7209 169.726 36.9671 171.56 35.8547 171.385C34.7239 171.22 34.5722 170.902 33.4874 170.061C33.0324 169.937 32.4026 169.831 32.3107 169.891C31.2948 171.684 32.2647 173.467 34.4665 176.032C38.4334 178.386 42.8599 179.498 47.6175 175.972C49.2447 174.681 50.0215 172.097 50.8948 169.868C50.9224 169.804 50.9086 169.68 50.8581 169.491Z" fill="#BD6BEF"/>
<path d="M69.764 176.883C69.4974 175.798 68.7436 175.232 68.1138 174.194C67.3462 172.507 64.9376 171.371 63.5034 171.334C61.4533 171.656 58.9022 172.842 58.6816 174.768C58.1116 176.51 59.7756 176.667 59.7204 177.958C58.6356 180.188 61.0121 183.024 63.1403 181.341C63.4805 180.836 63.7471 179.76 63.8206 179.765C64.8227 178.004 67.3232 179.59 68.3437 179.052C69.3365 178.855 70.0306 177.88 69.764 176.883Z" fill="#577F67"/>
<path d="M89.6903 176.313C89.3134 175.145 88.3343 173.706 87.0518 173.895C86.5094 173.541 85.8797 173.647 85.3557 173.996C84.6708 174.764 83.6871 176.303 82.5333 176.253C80.851 175.95 79.4904 175.09 78.6722 176.63C78.5573 179.163 79.7478 180.197 82.2208 181.208C84.4363 182.201 86.3761 180.923 88.3389 179.857C89.2444 179.383 89.75 176.731 89.6903 176.313Z" fill="#F1553C"/>
<path d="M86.4958 172.001C86.7486 172.7 86.6935 172.92 87.3692 173.32C87.8748 173.559 88.8539 173.922 89.171 173.1C89.3503 172.249 89.3733 171.284 88.4907 170.971C88.1138 170.434 87.5852 170.355 87.0336 170.236C85.8615 170.287 85.935 171.141 86.4958 172.001Z" fill="#F1553C"/>
<path d="M104.019 64.0217L104.915 64.7756C105.223 64.2791 105.499 63.9574 105.751 63.8057C106.046 63.5805 106.395 63.3874 106.804 63.2173L113.028 61.4982C114.333 61.0569 115.441 60.5743 116.356 60.0503C117.726 59.278 118.824 58.5334 119.647 57.8209C119.895 57.66 120.571 57.0165 121.67 55.8949C122.102 55.4307 122.52 54.9388 122.924 54.4194C125.77 50.618 127.512 47.7359 128.151 45.7823C129.488 41.0846 129.636 37.6647 128.601 35.5135C127.903 35.0814 126.914 35.1917 125.636 35.849L125.145 36.1202L120.608 39.1448L113.961 42.698C112.426 43.7047 110.996 45.0285 109.672 46.6649C108.28 48.3289 107.029 50.7881 105.926 54.0333C105.779 54.47 105.623 55.1227 105.457 55.9868L104.019 64.0217Z" fill="#577F67"/>
<path d="M92.6506 96.5796L92.7104 96.29C92.8758 95.3753 92.9494 94.672 92.931 94.1802C92.8299 93.0586 92.7793 91.8175 92.7701 90.4477C92.7655 89.7215 92.8069 88.8619 92.8988 87.8736C92.8666 87.4369 92.8069 87.129 92.7287 86.9497C92.0071 85.8327 90.5913 85.6535 88.4861 86.4027C87.2634 86.7796 86.1372 87.2715 85.1075 87.869L81.5452 90.2179C80.1846 91.2108 79.086 92.1715 78.2402 93.1C76.305 94.9708 74.8387 98.0276 73.8366 102.266C73.4689 104.045 73.2758 105.741 73.2483 107.345C73.2161 108.375 73.2621 110.88 73.3816 114.856C73.4459 116.014 73.5654 116.887 73.7355 117.471C73.8182 117.765 73.9148 117.986 74.0251 118.138C74.3239 118.391 74.5169 118.455 74.6043 118.335C75.0455 118.119 75.4822 117.77 75.9143 117.283C77.8541 114.635 79.0032 113.183 79.348 112.93C83.3746 109.905 86.0499 107.685 87.3783 106.26C89.1342 104.215 90.265 102.689 90.7706 101.677C91.1521 100.997 91.4877 100.284 91.7772 99.5398C92.0255 99.0066 92.315 98.0184 92.6506 96.5796Z" fill="#577F67"/>
<path d="M110.229 79.733L110.155 79.7835C109.962 79.9306 109.852 80.1375 109.824 80.4133L110.946 81.4383C111.589 81.7831 112.017 82.0681 112.233 82.2887C112.32 82.3439 112.532 82.5645 112.876 82.9506C115.069 86.4119 116.549 88.5861 117.321 89.4732C118.562 90.9166 119.992 92.0703 121.61 92.9345C122.727 93.5274 123.977 93.9182 125.365 94.102C125.733 94.2077 127.526 94.1526 130.743 93.9503C131.939 94.2261 133.63 94.718 135.804 95.4259C136.2 95.5086 136.604 95.5775 137.018 95.6235C138.705 95.8212 139.891 95.7246 140.576 95.3339C141.261 94.8926 141.141 94.0974 140.208 92.9529C139.514 92.0795 138.121 90.5167 136.025 88.2643C134.246 85.75 132.651 83.6815 131.24 82.0543C130.298 81.1349 129.181 80.3122 127.889 79.5859C126.372 78.8412 125.457 78.4551 125.149 78.4321C123.977 78.092 122.69 77.9311 121.279 77.9587C120.553 77.9633 119.831 78.0184 119.114 78.1196C116.14 78.9332 113.175 79.471 110.229 79.733Z" fill="#577F67"/>
<path d="M52.3985 62.8496L52.4169 62.8772C52.4721 62.9462 52.5365 63.0151 52.6054 63.0841L55.8782 64.6193L56.2275 64.8492C56.4712 65.0192 56.7378 65.2169 57.0273 65.4513C58.6591 66.913 59.8589 67.9473 60.6173 68.5403C60.9023 68.7839 61.4355 69.1424 62.2123 69.6159C63.8487 70.5903 65.5035 71.2201 67.1813 71.5097C68.5051 71.7119 69.8519 71.6843 71.2171 71.4223L71.9342 71.2752C75.0185 70.3191 76.7606 69.8181 77.156 69.7721C78.3189 69.6067 79.1877 69.6664 79.7622 69.9422L80.3966 69.5607C79.753 68.4483 79.1831 67.5842 78.6774 66.9636C77.4869 65.2904 75.3081 63.3691 72.1364 61.2086C70.1139 59.9676 68.2661 59.2367 66.5883 59.0252C65.2415 58.7908 63.8212 58.7265 62.3318 58.8322L54.5314 60.1652C53.3546 60.51 52.6238 60.9328 52.3388 61.4431C52.017 61.9119 52.0308 62.3808 52.3985 62.8496Z" fill="#577F67"/>
<path d="M97.7395 43.1439L98.1211 43.9759C99.1231 46.1179 100.001 47.6118 100.75 48.4576L101.78 47.9474L102.97 46.7936L104.019 45.5939C104.667 44.7803 105.223 43.9345 105.678 43.0611C106.593 41.3098 107.117 39.4344 107.255 37.4395C107.346 36.5202 107.296 35.4124 107.103 34.1161C106.97 33.0773 106.593 31.8684 105.981 30.4802C106.013 30.448 105.214 29.1426 103.577 26.5777C103.357 26.1961 102.98 25.2952 102.451 23.8748C102.263 23.4749 102.097 23.19 101.964 23.0107C101.66 22.6705 101.44 22.5142 101.302 22.5418C100.999 22.528 100.764 22.6613 100.599 22.9417C100.406 23.2405 100.217 23.7324 100.038 24.4035C99.4173 26.7937 98.8565 29.2299 98.3555 31.7167C97.1742 35.0263 96.5904 36.966 96.6042 37.536C96.3789 39.1632 96.7559 41.0294 97.7395 43.1439Z" fill="#577F67"/>
<path d="M60.4609 42.5601L60.5069 42.6612C60.8102 43.2864 61.8675 44.863 63.6739 47.3912C64.7128 48.8299 65.6873 50.002 66.602 50.9122C67.3558 51.7074 68.4866 52.4704 69.9805 53.1967C70.6884 53.5276 71.4422 53.7805 72.242 53.9459C74.6323 54.4516 77.4224 54.2217 80.6125 53.2564V52.1073C80.7274 51.3534 80.7688 50.6502 80.7274 49.9974C80.7412 49.8182 80.6677 49.3585 80.5068 48.6185C80.4378 48.3473 80.3321 48.0577 80.1942 47.7497C78.8796 45.0423 76.8525 43.3323 74.1129 42.6245C73.9014 42.5693 73.69 42.5187 73.4739 42.4728C71.5158 42.2246 69.6863 41.9488 67.9902 41.65C65.1127 41.1076 63.1959 40.6939 62.2444 40.4089L61.8353 40.3905C61.5779 40.3905 61.3527 40.4181 61.1596 40.4732C60.7229 40.6525 60.5023 40.7904 60.4885 40.8869C60.1437 41.3512 60.1391 41.9074 60.4609 42.5601Z" fill="#577F67"/>
<path d="M76.282 38.1152L76.6175 38.7909L76.9944 39.4207C77.261 39.8252 77.5506 40.1929 77.8724 40.5284C78.1942 40.864 78.5389 41.1674 78.9158 41.4386C79.2928 41.7098 79.6973 41.9488 80.1247 42.151L80.7913 42.436L81.5589 42.0315C82.0507 41.6776 82.4552 41.2639 82.7678 40.7996L83.1723 40.0642L83.4389 39.246L83.5722 38.3496V37.3706L83.4343 36.3087L83.1631 35.1688L82.7586 33.9461C82.2622 32.9578 81.66 31.9511 80.9521 30.9261C80.5982 30.4113 80.2213 29.8919 79.8168 29.3678C78.7595 28.0486 78.0976 27.2534 77.8264 26.9776L77.3668 26.5409C77.0726 26.2697 76.8014 26.0445 76.5532 25.8606C76.3049 25.6768 76.0751 25.5389 75.8729 25.4423C75.5005 25.2355 75.142 25.2309 74.8019 25.4285C74.6686 25.5251 74.5858 25.8055 74.5536 26.2651C74.5169 26.6145 74.5444 27.3683 74.6456 28.5221C74.7927 29.5425 75.0317 30.9261 75.3672 32.6774L75.7212 36.3547C75.7809 36.8282 75.9694 37.4165 76.282 38.1152Z" fill="#577F67"/>
<path opacity="0.9843" d="M78.6408 52.3785C78.696 52.498 78.7879 52.6037 78.912 52.6681C80.2772 53.3944 81.7895 54.4378 83.4443 55.7984C84.7359 57.0073 85.7472 58.1656 86.4689 59.2734C86.6527 59.5538 87.0342 59.6366 87.3146 59.4481C87.5675 59.2826 87.6594 58.9563 87.5399 58.6851C87.5261 58.6575 87.5123 58.6253 87.4939 58.5977C86.7079 57.398 85.6277 56.1569 84.2487 54.8745L84.2211 54.8515C82.502 53.4403 80.9253 52.3509 79.4866 51.5833C79.1878 51.4224 78.8201 51.5373 78.6592 51.8361C78.5673 52.0108 78.5627 52.213 78.6408 52.3785Z" fill="#2C523B"/>
<path opacity="0.9843" d="M98.8522 55.8122C98.9533 56.042 99.1969 56.1937 99.4589 56.1707C99.7945 56.1431 100.047 55.849 100.015 55.5088C99.9278 54.4838 99.9508 53.7161 100.075 53.2105L100.084 53.1645C100.121 52.9393 100.176 52.7095 100.24 52.4659C100.856 50.402 101.187 49.239 101.229 48.9678C101.376 48.43 101.5 47.7038 101.606 46.7936C101.619 46.6787 101.601 46.5684 101.555 46.4719C101.468 46.2834 101.288 46.1409 101.068 46.1133C100.732 46.0765 100.429 46.3156 100.392 46.6511C100.291 47.5199 100.176 48.2002 100.043 48.6828C100.034 48.715 100.029 48.7472 100.024 48.7794C99.9921 48.9954 99.675 50.1124 99.0682 52.1303C98.9947 52.4061 98.9349 52.6589 98.8935 52.9071C98.7373 53.5461 98.7051 54.447 98.8016 55.6053C98.8062 55.6835 98.8246 55.7478 98.8522 55.8122Z" fill="#2C523B"/>
<path opacity="0.9843" d="M100.139 78.1563C99.9598 78.2667 99.8403 78.4689 99.8449 78.6942C99.854 79.0297 100.134 79.2963 100.475 79.2871C101.559 79.2549 102.989 79.3285 104.772 79.5078C105.131 79.5537 105.724 79.6778 106.551 79.8755C108.247 80.3995 109.309 80.6891 109.737 80.7442C110.785 80.9557 111.654 81.043 112.338 81.0063C112.444 81.0017 112.541 80.9695 112.623 80.9189C112.812 80.804 112.931 80.5926 112.918 80.3627C112.899 80.0272 112.61 79.7698 112.315 79.7882H112.274C111.686 79.8203 110.914 79.7422 109.948 79.5445L109.907 79.5353C109.544 79.4848 108.532 79.209 106.882 78.6988L106.846 78.6896C105.963 78.4781 105.319 78.3494 104.92 78.2988C103.072 78.115 101.587 78.0414 100.452 78.0736C100.327 78.069 100.226 78.1012 100.139 78.1563Z" fill="#2C523B"/>
<path opacity="0.9843" d="M83.5124 73.2334C83.7055 73.2839 83.9169 73.238 84.0778 73.0955C84.3306 72.8702 84.349 72.4841 84.1238 72.2313C83.2596 71.2752 82.7172 70.7144 82.4874 70.5489C81.2601 69.5607 80.4235 68.9953 79.9731 68.8482C79.9639 68.8436 79.9501 68.8436 79.9409 68.839C79.6283 68.7562 79.3019 68.9309 79.2054 69.2435C79.1043 69.5653 79.279 69.91 79.6007 70.0111C79.9087 70.1077 80.612 70.6041 81.7152 71.4958C81.7336 71.5142 81.7565 71.528 81.7795 71.5418C81.9358 71.6521 82.4139 72.1532 83.2183 73.0449C83.2964 73.1414 83.4021 73.2058 83.5124 73.2334Z" fill="#2C523B"/>
<path opacity="0.9843" d="M98.4844 79.1354C98.5257 79.186 98.5717 79.2274 98.6315 79.2642C98.9164 79.448 99.2934 79.3607 99.4772 79.0757C99.6335 78.8321 99.8542 78.2759 100.144 77.4025C101.311 73.546 102.088 71.1097 102.488 70.0801C103.895 66.4534 104.851 64.3297 105.361 63.7184C105.549 63.4885 105.545 63.1622 105.366 62.9415C105.343 62.9094 105.315 62.8818 105.283 62.8588C105.025 62.6428 104.639 62.6795 104.423 62.937C103.83 63.6494 102.805 65.8834 101.348 69.6388C100.939 70.696 100.148 73.1552 98.9808 77.021C98.7234 77.7932 98.5487 78.2621 98.443 78.4184C98.3005 78.6482 98.3235 78.9332 98.4844 79.1354Z" fill="#2C523B"/>
<path d="M86.9054 89.1285L86.9789 89.2847C87.2547 90.0386 87.7971 90.7189 88.6107 91.3256C89.3508 91.9646 90.3298 92.4058 91.5525 92.6403C92.0122 92.7184 92.6052 92.7138 93.3314 92.6311C95.7539 91.9278 96.9766 91.6244 96.9995 91.7118C97.2661 91.6612 98.4429 92.0335 100.521 92.8195C101.159 92.9528 101.624 93.0126 101.918 93.0034C103.003 92.9023 103.968 92.5345 104.805 91.9002C106.482 90.5258 107.719 88.7929 108.523 86.7106C108.647 86.0303 108.693 85.5661 108.661 85.3224C108.358 83.5757 108.229 82.2841 108.275 81.4613C108.289 81.089 108.854 79.7146 109.967 77.3335C110.059 77.0485 110.137 76.6165 110.192 76.0327C110.307 74.9341 110.127 73.7849 109.654 72.5898C109.199 71.6107 108.624 70.912 107.93 70.4892C107.889 70.4432 107.576 70.2961 106.988 70.0479C104.874 69.7261 103.389 69.4043 102.543 69.0826C102.497 69.1975 101.311 68.1771 98.9945 66.0258C98.1855 65.5478 97.4822 65.3088 96.8846 65.3134C96.2825 65.203 95.4551 65.4237 94.3979 65.9799L91.148 68.4988C88.2384 69.2343 86.1239 69.9927 84.8093 70.7741C84.1382 71.4682 83.5682 72.314 83.1086 73.3161C82.5891 74.4055 82.4099 75.5822 82.5707 76.8509C82.6627 77.6921 82.9431 78.5424 83.3981 79.4112C83.6418 79.8525 84.3634 80.6523 85.5723 81.806C85.8619 82.183 86.0596 82.5369 86.1607 82.8633C86.2572 83.1345 86.317 83.4516 86.3492 83.824C86.2894 84.9685 86.2894 86.1223 86.3538 87.2852C86.5422 88.177 86.7261 88.7929 86.9054 89.1285Z" fill="#BD6BEF"/>
<path d="M63.164 89.8686L63.2008 89.9421C63.6834 90.8109 64.4786 91.4222 65.591 91.7853C66.7356 92.1255 68.1421 92.0428 69.8107 91.5371C69.8383 91.482 70.2704 91.8497 71.107 92.6495C71.277 92.7552 71.4977 92.8334 71.7689 92.8748C72.0309 92.9391 72.4262 92.9161 72.9502 92.8104C73.4007 92.6127 73.9477 92.2726 74.5958 91.7808C75.2485 91.2843 76.1494 90.1857 77.3032 88.485C77.625 87.7495 78.126 86.32 78.8109 84.1963C79.0039 83.4563 79.1143 82.445 79.1372 81.1626C79.0361 80.0548 78.7327 78.8872 78.2271 77.6645C77.248 75.734 76.154 74.1757 74.9405 72.9944C74.1867 72.167 72.8445 71.1879 70.9047 70.0571C69.9578 69.5607 68.9603 69.2343 67.9123 69.0688C67.0297 69.0872 66.2483 69.1838 65.5588 69.363C64.2534 69.0275 63.3616 68.8712 62.879 68.8942C62.5802 68.9631 62.2539 69.124 61.8999 69.3722C61.6057 69.625 61.3621 69.9836 61.1645 70.4432C61.0679 70.6915 60.93 71.3028 60.76 72.2819C60.737 72.3738 60.6772 72.4933 60.5853 72.645L57.9606 74.4515C57.5147 75.0123 57.3309 75.5547 57.4044 76.0741C57.478 76.8555 57.9284 77.6094 58.7604 78.3402C59.2798 78.7815 59.7855 79.1584 60.2865 79.471C60.6956 79.7422 61.7069 80.2478 63.3249 80.9879C63.6282 81.1534 63.7983 81.3142 63.8305 81.4751C63.9086 81.6682 63.8994 81.8796 63.8075 82.1095C63.1732 82.8771 62.7871 83.5896 62.64 84.2469C62.6262 84.5319 62.64 84.7433 62.6813 84.8812C63.0813 85.6489 63.2697 86.0993 63.2421 86.2418C63.0215 87.676 62.9066 88.5769 62.902 88.94C62.9847 89.3721 63.0721 89.6801 63.164 89.8686Z" fill="#D58FFF"/>
<path d="M79.909 55.6743L80.0101 55.8719C80.2078 56.2902 80.5663 56.7361 81.0949 57.2141L82.929 58.423C83.453 59.9721 83.8805 61.0155 84.2022 61.5487C84.9974 62.56 85.6548 63.1667 86.1834 63.3598C86.7717 63.608 87.3233 63.7505 87.8336 63.7873C88.4587 63.7551 89.5435 63.5161 91.088 63.0702L94.3929 63.3874C94.4665 63.4058 94.8296 63.3368 95.4869 63.1759C96.0707 62.9507 96.4706 62.6933 96.6775 62.3991L96.9579 61.944L97.8588 59.7606C97.9921 59.4894 98.1622 59.2412 98.3644 59.0114C98.746 58.6391 99.6331 57.9358 101.026 56.9107C101.752 56.1707 102.198 55.6651 102.35 55.3893C102.865 54.3918 103.15 53.4587 103.205 52.5899C103.241 52.1394 103.223 51.689 103.159 51.2431C103.191 51.0179 102.979 50.3468 102.529 49.2252C102.157 48.5357 101.908 48.1266 101.775 48.0025C101.283 47.4463 100.254 46.4304 98.6954 44.9687C97.1739 42.2981 96.2454 40.8777 95.9098 40.7076C94.6825 39.6596 93.3771 39.2919 91.9935 39.6045C91.4143 39.7516 90.8535 40.0044 90.3157 40.3629C88.6196 41.8614 87.7508 42.5739 87.7003 42.4957C87.6037 42.6152 86.2753 43.1393 83.7196 44.0816C83.4208 44.2149 82.929 44.4815 82.2441 44.886C81.5638 45.3043 80.98 45.8329 80.502 46.4718C79.67 47.6715 79.2379 49.1057 79.2011 50.7651C79.1414 51.6844 79.1873 52.6359 79.339 53.6242C79.3758 53.9459 79.5642 54.6308 79.909 55.6743Z" fill="#D58FFF"/>
<path d="M87.0659 52.7784L87.1257 52.9025C87.3647 53.307 87.6497 53.6426 87.9807 53.9092C88.3116 54.1988 88.7529 54.4286 89.2953 54.5987C89.5022 54.6538 89.6998 54.686 89.8975 54.6906C90.0262 54.6906 90.1227 54.64 90.1871 54.5343C90.1595 54.5481 90.2652 54.5665 90.495 54.5803L90.8398 54.5435C91.3408 54.4102 91.6764 54.2631 91.8418 54.116C92.2326 53.7943 92.4348 53.5874 92.4578 53.4863C92.8163 52.59 93.0094 51.9648 93.037 51.6201C93.1013 51.2431 93.1105 50.8662 93.0691 50.4801C92.991 49.9975 92.9312 49.7079 92.8853 49.6113C92.8255 49.4183 92.752 49.2206 92.66 49.023C92.4486 48.646 92.2096 48.3703 91.943 48.1864C91.8143 48.0807 91.5431 47.9703 91.1248 47.8508C90.4583 47.7267 89.8699 47.8416 89.3735 48.2002C89.1298 48.3473 88.9046 48.6139 88.6977 49.0138C88.5598 49.2712 88.4174 49.74 88.2657 50.4249C88.2381 50.5123 88.1921 50.6226 88.1232 50.7605C88.0174 50.8938 87.7325 51.1006 87.2682 51.3856C87.1211 51.5419 87.0292 51.6614 86.9924 51.7396C86.8729 52.0246 86.9005 52.3693 87.0659 52.7784Z" fill="#FEFEFE"/>
<path d="M92.9636 79.2688L92.982 79.3101C93.1383 79.6227 93.3267 79.8663 93.5474 80.041L95.1056 81.1166L96.5766 82.4588L96.7834 82.6059C96.9305 82.7024 97.073 82.7852 97.2109 82.8587C97.2844 82.9093 97.4913 82.9874 97.836 83.0886C98.0888 83.1529 98.3738 83.1621 98.7002 83.1115C98.8427 83.0932 99.0449 83.0334 99.3023 82.9323C99.5138 82.8174 99.7574 82.6473 100.038 82.4266C100.327 82.1371 100.548 81.7739 100.7 81.3372C101.008 80.257 100.911 79.1538 100.406 78.0231C100.309 77.8024 100.203 77.5956 100.079 77.3979C100.038 77.2876 99.8172 77.0164 99.4219 76.5843C99.0863 76.2534 98.691 75.9684 98.2359 75.7294C98.0751 75.642 97.905 75.5639 97.7303 75.5041C97.5556 75.4444 97.3764 75.3984 97.1925 75.3616L96.9121 75.3203C96.5352 75.2835 96.1353 75.2973 95.7124 75.3708C95.3309 75.4444 94.9953 75.5317 94.7103 75.6328C94.6414 75.6558 94.5035 75.7294 94.2966 75.8581C94.1358 75.9684 93.9841 76.0925 93.8462 76.2442L93.1659 77.0946C92.7338 77.8622 92.6694 78.5839 92.9636 79.2688Z" fill="#FEFEFE"/>
<path opacity="0.9843" d="M73.8875 77.8852C73.8829 77.876 73.8783 77.8622 73.8738 77.853C73.8646 77.83 73.8508 77.8071 73.8324 77.7841C73.8002 77.7427 73.7588 77.7059 73.7129 77.6737C73.5658 77.5726 73.336 77.5221 73.0234 77.5129H72.9912C70.4768 77.7059 68.6658 77.7427 67.558 77.6186C66.5605 77.5404 65.678 77.2646 64.892 76.8004C64.1059 76.3269 63.5589 75.7891 63.251 75.1778C63.2326 75.1456 63.2188 75.1134 63.205 75.0859C63.1498 74.9663 63.1131 74.8376 63.0809 74.6997C63.0257 73.7528 62.9016 72.976 62.7132 72.3646C62.6764 72.2222 62.6212 72.0797 62.5569 71.9372C62.4236 71.643 62.2443 71.3534 62.0099 71.0592C61.8168 70.8202 61.5134 70.5812 61.1871 70.3973C61.1595 70.4616 61.1227 70.5444 61.086 70.6501C61.0538 70.7558 61.0078 70.9673 61.0078 71.0041C61.2376 71.1419 61.3985 71.2798 61.5318 71.4407C61.7341 71.6935 61.8904 71.9418 62.0007 72.1854C62.0512 72.3049 62.0972 72.4198 62.1248 72.5347C62.3041 73.1139 62.419 73.8585 62.4741 74.7779L62.4787 74.8238C62.5155 75.0077 62.5707 75.1778 62.6442 75.3341C62.6626 75.3754 62.681 75.4168 62.704 75.4582C63.0671 76.1707 63.6876 76.7958 64.5748 77.3244C65.4435 77.8392 66.418 78.138 67.4982 78.2253C68.6474 78.3494 70.4906 78.3173 73.0372 78.1196C72.8671 78.2253 72.6097 78.3357 72.2695 78.4644C69.6541 79.0298 68.2061 79.3975 67.9211 79.5676C67.1627 79.8985 66.7306 80.2846 66.6341 80.7305C66.5789 81.0385 66.6111 81.3097 66.7214 81.5625C66.8133 81.7693 66.9604 81.9578 67.1627 82.1325C67.4707 82.4496 68.1004 82.7438 69.0519 83.0288C69.1254 83.0978 69.1806 83.1667 69.2128 83.2449C69.2174 83.254 69.2174 83.2586 69.222 83.2678C69.2587 83.4149 69.2587 83.562 69.2312 83.7137C68.8772 85.2766 68.6428 86.4349 68.5371 87.1842C68.4681 87.6162 68.4497 88.1081 68.4773 88.6597C68.583 89.6434 68.7807 90.4432 69.0657 91.0775C69.2496 91.4866 69.4702 91.8267 69.723 92.0979C69.8379 92.2221 70.031 92.2267 70.1551 92.1117C70.2516 92.0198 70.2746 91.8773 70.224 91.7624C70.2102 91.7302 70.1919 91.7026 70.1689 91.6797C69.9574 91.4544 69.7736 91.1694 69.6219 90.8293C69.3645 90.2593 69.1898 89.5192 69.0887 88.6137C69.0657 88.1127 69.0795 87.6668 69.1438 87.2853C69.2496 86.5498 69.4748 85.4053 69.8287 83.8562C69.8793 83.6034 69.8747 83.3644 69.8241 83.1345L69.8149 83.107C69.8011 83.0702 69.7874 83.0334 69.7736 83.0012C69.6816 82.7944 69.5345 82.6243 69.3323 82.4956C69.3093 82.4818 69.2817 82.468 69.2541 82.4588C68.3624 82.1968 67.8062 81.944 67.5902 81.705L67.5626 81.6774C67.4385 81.5717 67.3465 81.4522 67.2868 81.3281C67.2224 81.1856 67.2041 81.0293 67.2316 80.8592C67.2914 80.6248 67.5994 80.3904 68.1556 80.1559C68.2015 80.1375 68.2429 80.1054 68.2751 80.064C68.6152 79.9261 69.985 79.5951 72.3936 79.0757L72.435 79.0619C73.1981 78.7769 73.6531 78.5195 73.8094 78.2897C73.9059 78.1564 73.9289 78.0231 73.8875 77.8852Z" fill="#FEFEFE"/>
<g opacity="0.9843">
<path d="M67.7877 85.9154C67.8382 85.8603 67.8704 85.8189 67.8888 85.7775C67.9026 85.7546 67.9164 85.7224 67.9302 85.6856C67.9348 85.6672 67.9393 85.6488 67.9439 85.6213C67.9715 85.6121 67.9899 85.5937 67.9945 85.5799C68.0037 85.5615 68.0129 85.5477 68.0221 85.5293C68.0313 85.5063 68.0359 85.4925 68.0359 85.4879C68.0497 85.5201 68.0543 85.5477 68.0589 85.5753C68.0589 85.5891 68.0589 85.6029 68.0589 85.6167C68.0543 85.6488 68.0497 85.6626 68.0451 85.6764C68.0451 85.681 68.0221 85.7178 68.0221 85.7178C68.0037 85.7408 67.9899 85.7637 67.9715 85.7867C67.9531 85.8097 67.9348 85.8281 67.9164 85.8465C67.898 85.8649 67.8796 85.8787 67.8566 85.8925L67.8244 85.9108L67.7923 85.9292C67.7877 85.9154 67.7877 85.9154 67.7877 85.9154ZM66.4408 86.1223L66.4592 86.1637C66.5098 86.2694 66.5971 86.3797 66.7258 86.49C66.7948 86.5406 66.8683 86.5865 66.9419 86.6233C67.0154 86.6601 67.0936 86.6923 67.1717 86.7152L67.2912 86.7428C67.6314 86.798 67.9531 86.7428 68.2519 86.5819C68.3393 86.536 68.4174 86.4808 68.4909 86.4165L68.5921 86.3153C68.7208 86.1591 68.8035 86.0028 68.8495 85.8419C68.8908 85.704 68.9092 85.5661 68.9 85.4328C68.9 85.3133 68.8633 85.1708 68.7851 85.0053C68.7024 84.8352 68.5829 84.6881 68.422 84.5548C68.3301 84.4813 68.2381 84.4215 68.1462 84.3756L68.0037 84.3158C67.7095 84.2101 67.4015 84.2239 67.0752 84.3572C66.9787 84.3986 66.8959 84.4537 66.8224 84.5181L66.7212 84.6238C66.6569 84.6973 66.6063 84.7847 66.565 84.8812C66.5236 84.9777 66.4914 85.088 66.473 85.203L66.45 85.3868C66.4179 85.442 66.3903 85.5293 66.3765 85.6626C66.3719 85.7775 66.3719 85.8465 66.3765 85.8695C66.3811 85.9568 66.4041 86.0395 66.4408 86.1223Z" fill="#FEFEFE"/>
</g>
<g opacity="0.9843">
<path d="M67.7926 85.2904L67.8156 85.3041C67.8202 85.3041 67.7926 85.2904 67.7926 85.2904ZM67.2272 85.5661C67.241 85.5983 67.2594 85.6259 67.287 85.6535C67.3514 85.7178 67.4203 85.7776 67.503 85.8236C67.595 85.8833 67.6915 85.9201 67.788 85.9431L67.8294 85.9477C67.8616 85.9523 67.8892 85.9523 67.9121 85.9523C67.9857 85.9523 68.05 85.9339 68.1052 85.9017C68.1604 85.8879 68.2063 85.8557 68.2477 85.819C68.2937 85.7776 68.3304 85.7224 68.358 85.6581C68.3672 85.6351 68.3718 85.6075 68.3764 85.5799C68.3856 85.511 68.3764 85.4512 68.3534 85.4007C68.3212 85.3317 68.2661 85.2766 68.1833 85.2306C68.165 85.2214 68.1512 85.2122 68.1374 85.2076C68.073 85.18 68.0133 85.1662 67.9535 85.1662C67.8892 85.1662 67.834 85.18 67.7788 85.203L67.7375 85.226C67.6134 85.1065 67.4203 85.1019 67.3008 85.2214C67.1951 85.3133 67.1721 85.4512 67.2272 85.5661Z" fill="#FEFEFE"/>
</g>
<path opacity="0.9843" d="M65.0388 82.0865L65.0802 82.1738C65.2365 82.4634 65.4525 82.684 65.7375 82.8403C66.0271 82.9966 66.3213 83.0472 66.6292 82.992C67.0383 82.9001 67.3371 82.73 67.5256 82.4864C67.5715 82.4312 67.6037 82.3806 67.6313 82.3301L67.6681 82.2519C67.6865 82.2014 67.7003 82.1508 67.7095 82.0957C67.7232 81.9945 67.7095 81.8888 67.6589 81.7739C67.6083 81.6728 67.5302 81.613 67.4199 81.5946C67.3049 81.5854 67.213 81.6222 67.1441 81.7049C67.1395 81.59 67.1165 81.4935 67.0751 81.4245C67.0429 81.351 66.9464 81.2039 66.7855 80.9787C66.8683 80.9327 66.9234 80.8546 66.9418 80.7396C66.951 80.6431 66.9188 80.5512 66.8361 80.4776C66.7074 80.3949 66.6063 80.3397 66.5327 80.3076C66.4454 80.2662 66.3626 80.2386 66.2799 80.2156C66.1144 80.1697 65.9581 80.1559 65.8064 80.1789C65.5996 80.211 65.4111 80.303 65.2319 80.4547L65.1216 80.5742C65.0572 80.6569 65.002 80.7534 64.9653 80.8592C64.9285 80.9649 64.9009 81.0844 64.8871 81.2131L64.8779 81.4383C64.8825 81.5211 64.9009 81.6452 64.9423 81.8153C64.9699 81.9072 65.002 81.9991 65.0388 82.0865Z" fill="#FEFEFE"/>
<path opacity="0.9843" d="M63.858 78.3034L63.9362 78.4597C64.097 78.7539 64.2993 78.9608 64.5475 79.0803C64.8371 79.2136 65.1175 79.2274 65.3933 79.1308C65.4852 79.0987 65.5726 79.0573 65.6553 79.0021L65.784 78.9102C65.8667 78.8412 65.9495 78.7631 66.0276 78.6758L66.115 78.5379C66.1931 78.4 66.2391 78.2713 66.2529 78.1518C66.262 78.092 66.262 78.0322 66.2529 77.9771C66.2529 77.9357 66.2299 77.8668 66.1885 77.7794C66.115 77.6461 66.0092 77.5404 65.8805 77.4669C65.8483 77.4485 65.7932 77.4393 65.7105 77.4439C65.6553 77.4577 65.6231 77.4669 65.6139 77.4761C65.5955 77.4852 65.5726 77.499 65.5588 77.5128C65.499 77.4715 65.3703 77.4025 65.1772 77.3198C65.0256 77.2554 64.8877 77.2232 64.7681 77.214C64.7773 77.0807 64.7498 76.9796 64.6808 76.9015C64.5797 76.8003 64.4786 76.7682 64.3774 76.7958C64.2763 76.8187 64.1568 76.9107 64.0235 77.067L63.9362 77.1819C63.8856 77.26 63.8442 77.3473 63.812 77.4347C63.7201 77.7151 63.7385 78.0047 63.858 78.3034Z" fill="#FEFEFE"/>
<path opacity="0.9843" d="M68.0173 85.0007C68.0403 85.0513 68.0724 85.0927 68.1184 85.1249C68.2563 85.2214 68.4493 85.1892 68.5459 85.0513C68.5735 85.0099 68.6056 84.9686 68.6424 84.9272L68.9688 84.5641C69.0101 84.5181 69.0239 84.4997 69.0239 84.4997C69.1986 84.2929 69.2951 84.1734 69.3181 84.1458C69.3687 84.086 69.4652 83.9849 69.6215 83.8332C69.7134 83.7413 69.7364 83.6034 69.6858 83.4931C69.672 83.4609 69.6491 83.4287 69.6215 83.4011C69.502 83.2816 69.3089 83.2816 69.1894 83.4011C69.0285 83.562 68.9228 83.6723 68.8722 83.7321C68.8355 83.7689 68.7205 83.9114 68.5183 84.155C68.5137 84.1642 68.1827 84.5319 68.1827 84.5319C68.1322 84.5916 68.0862 84.6468 68.0494 84.7066C67.9851 84.7939 67.9759 84.9088 68.0173 85.0007Z" fill="#FEFEFE"/>
<path d="M135.859 68.7057C135.721 68.5448 135.473 68.3472 135.114 68.1081C134.779 67.9702 133.905 67.722 132.499 67.3635C132.356 67.3313 132.016 66.9866 131.464 66.3154C131.35 66.2235 131.161 66.127 130.894 66.0305C130.233 65.9017 129.424 65.9799 128.467 66.2649C128.219 66.2603 128.022 66.1821 127.875 66.0351C127.741 65.9431 127.654 65.7225 127.622 65.3777C127.576 63.5988 127.507 62.4681 127.419 61.9854C127.328 61.4017 127.18 60.7857 126.978 60.1376C126.633 59.0896 126.119 58.3771 125.429 58.0048C124.979 57.7336 124.409 57.6922 123.719 57.8806L121.03 59.586C120.855 59.609 120.722 59.6182 120.626 59.6044C119.66 59.3791 119.044 59.2596 118.778 59.255C118.277 59.255 117.849 59.3378 117.505 59.5079C117.137 59.7331 116.861 59.9721 116.682 60.2203C116.475 60.657 116.268 61.5396 116.061 62.868C115.629 63.4288 115.234 64.1137 114.866 64.9135C114.604 65.9385 114.517 66.9866 114.599 68.053C114.88 70.2777 115.252 71.9003 115.716 72.9162C116.328 74.4974 117.33 76.1154 118.723 77.7748C119.651 78.7171 120.603 79.4526 121.586 79.9858C122.777 80.4684 123.751 80.7626 124.505 80.8775C126.725 81.0844 128.238 81.1809 129.042 81.1763C131.06 80.781 132.425 80.3811 133.138 79.9766C133.841 79.5721 134.374 79.2044 134.728 78.8688C135.031 78.4275 135.206 78.0736 135.252 77.807C135.316 77.5404 135.335 77.3106 135.303 77.1129C134.898 76.0327 134.728 75.4903 134.788 75.4857C135.905 74.1527 136.535 72.8886 136.668 71.7027C136.774 70.5351 136.521 69.5607 135.914 68.7792L135.859 68.7057Z" fill="#D58FFF"/>
<path opacity="0.9843" d="M120.626 73.8631C120.617 73.8539 120.608 73.8493 120.603 73.8401C120.585 73.8217 120.571 73.7987 120.557 73.7758C120.534 73.7298 120.516 73.6792 120.502 73.6241C120.47 73.4494 120.506 73.2196 120.626 72.93L120.64 72.9024C121.807 70.6638 122.547 69.0137 122.874 67.9472C123.191 67.0003 123.287 66.0764 123.168 65.1709C123.044 64.2608 122.759 63.5483 122.322 63.0243C122.299 62.9967 122.276 62.9691 122.253 62.9461C122.166 62.8496 122.065 62.7623 121.945 62.6795C121.099 62.2566 120.428 61.8383 119.941 61.4246C119.826 61.3327 119.716 61.2316 119.61 61.1121C119.394 60.8776 119.196 60.5926 119.017 60.2617C118.875 59.9905 118.774 59.6182 118.728 59.2458C118.796 59.2458 118.888 59.2412 118.999 59.255C119.109 59.2642 119.321 59.3102 119.353 59.324C119.389 59.5906 119.454 59.7882 119.55 59.9767C119.702 60.2617 119.872 60.5007 120.051 60.6984C120.139 60.7949 120.231 60.8776 120.323 60.9512C120.787 61.3419 121.426 61.7418 122.249 62.1555L122.285 62.1785C122.437 62.2842 122.575 62.4037 122.694 62.5324C122.727 62.5646 122.754 62.6014 122.782 62.6335C123.297 63.2449 123.623 64.0631 123.765 65.0881C123.899 66.0902 123.793 67.1015 123.448 68.1311C123.113 69.2343 122.354 70.9213 121.178 73.1874C121.343 73.0725 121.545 72.8794 121.798 72.6174C123.343 70.434 124.248 69.2481 124.519 69.0504C125.126 68.4804 125.645 68.2368 126.091 68.3242C126.395 68.3977 126.634 68.531 126.822 68.7287C126.974 68.8941 127.093 69.1056 127.172 69.3584C127.342 69.7629 127.369 70.4616 127.254 71.4499C127.291 71.5464 127.332 71.6199 127.388 71.6843C127.392 71.6889 127.397 71.6981 127.406 71.7027C127.53 71.7946 127.659 71.8498 127.81 71.882C129.387 72.1669 130.545 72.4106 131.272 72.6082C131.695 72.7139 132.154 72.8886 132.651 73.1322C133.51 73.6149 134.172 74.1113 134.646 74.6215C134.949 74.9479 135.174 75.2834 135.326 75.6282C135.395 75.7845 135.321 75.9638 135.17 76.0327C135.046 76.0879 134.908 76.0511 134.82 75.9592C134.797 75.9362 134.779 75.904 134.765 75.8718C134.641 75.5914 134.453 75.311 134.195 75.0352C133.768 74.5756 133.161 74.1205 132.37 73.6746C131.92 73.454 131.506 73.2977 131.125 73.2012C130.408 73.0081 129.268 72.7691 127.7 72.4841C127.447 72.4289 127.227 72.337 127.038 72.1945L127.015 72.1761C126.988 72.1486 126.96 72.121 126.933 72.0934C126.776 71.9279 126.68 71.7257 126.643 71.4912C126.638 71.4637 126.638 71.4315 126.643 71.4039C126.753 70.48 126.739 69.8732 126.602 69.5744L126.588 69.5377C126.537 69.3768 126.468 69.2481 126.372 69.147C126.266 69.032 126.128 68.9539 125.963 68.9125C125.724 68.8758 125.388 69.0642 124.951 69.4871C124.915 69.5239 124.869 69.5469 124.823 69.5607C124.565 69.8181 123.719 70.9488 122.299 72.9622L122.272 72.9989C121.711 73.5873 121.292 73.9045 121.021 73.9596C120.865 73.9918 120.736 73.9596 120.626 73.8631Z" fill="#FEFEFE"/>
<g opacity="0.9843">
<path d="M130.408 71.4085C130.417 71.4177 130.389 71.4407 130.389 71.4407L130.357 71.4591C130.334 71.4729 130.316 71.4821 130.288 71.4959C130.265 71.5051 130.238 71.5143 130.215 71.5235C130.187 71.5327 130.16 71.5372 130.132 71.5418L130.086 71.551C130.072 71.5464 130.059 71.5464 130.045 71.5418C130.013 71.5327 129.999 71.5281 129.985 71.5189C129.962 71.5051 129.934 71.4867 129.911 71.4637C129.916 71.4637 129.93 71.4683 129.957 71.4683C129.976 71.4683 129.999 71.4683 130.017 71.4637C130.031 71.4637 130.054 71.4545 130.086 71.4453C130.1 71.4407 130.123 71.4499 130.141 71.4499C130.183 71.4499 130.219 71.4499 130.242 71.4499C130.288 71.4453 130.339 71.4361 130.394 71.4131C130.408 71.4085 130.408 71.4085 130.408 71.4085ZM131.125 70.2502C131.065 70.1858 130.996 70.1307 130.918 70.0893C130.9 70.0755 130.84 70.0479 130.73 70.0112C130.601 69.9698 130.509 69.9606 130.458 69.9836C130.449 69.9744 130.27 69.9192 130.27 69.9192C130.155 69.8917 130.04 69.8779 129.934 69.8779C129.829 69.8779 129.728 69.8917 129.636 69.9192L129.498 69.9744C129.41 70.0158 129.328 70.0755 129.25 70.1445C129.001 70.3927 128.868 70.6731 128.85 70.9811V71.1373C128.854 71.2431 128.877 71.3534 128.909 71.4637C128.969 71.6614 129.056 71.836 129.181 71.9739C129.305 72.1072 129.42 72.1992 129.53 72.2451C129.649 72.3049 129.783 72.3417 129.925 72.3554C130.091 72.3784 130.27 72.3646 130.463 72.3049L130.592 72.2543C130.679 72.213 130.757 72.1624 130.835 72.1026C131.102 71.8912 131.277 71.6154 131.359 71.2798L131.378 71.1603C131.387 71.0822 131.392 70.9994 131.382 70.9167C131.378 70.834 131.364 70.7512 131.346 70.6639C131.295 70.503 131.231 70.3789 131.153 70.2916L131.125 70.2502Z" fill="#FEFEFE"/>
</g>
<g opacity="0.9843">
<path d="M129.829 71.1695L129.834 71.1971C129.834 71.1971 129.829 71.1695 129.829 71.1695ZM129.962 70.6777C129.806 70.742 129.732 70.9213 129.801 71.0776C129.797 71.0822 129.76 71.1097 129.76 71.1097C129.714 71.1465 129.682 71.1971 129.659 71.2522C129.636 71.312 129.622 71.3763 129.622 71.4407C129.622 71.4545 129.622 71.4683 129.622 71.4821C129.631 71.5832 129.663 71.6613 129.714 71.7165C129.755 71.7579 129.806 71.79 129.87 71.8084C129.893 71.8176 129.921 71.8222 129.948 71.8222C130.022 71.8268 130.086 71.813 130.141 71.7854C130.192 71.7625 130.238 71.7303 130.279 71.6935C130.325 71.6521 130.367 71.6016 130.399 71.5326C130.408 71.5142 130.417 71.4867 130.426 71.4545L130.436 71.4131C130.454 71.312 130.454 71.2109 130.44 71.1005C130.426 71.004 130.403 70.9167 130.367 70.8339C130.353 70.8018 130.335 70.7696 130.312 70.7466C130.22 70.6593 130.086 70.6271 129.962 70.6777Z" fill="#FEFEFE"/>
</g>
<path opacity="0.9843" d="M127.962 67.3773C127.898 67.3083 127.829 67.244 127.751 67.1842C127.613 67.0831 127.503 67.0141 127.429 66.9774L127.218 66.8946C127.094 66.8533 126.974 66.8303 126.859 66.8257C126.744 66.8211 126.638 66.8303 126.533 66.8579L126.381 66.913C126.17 67.0187 126.013 67.1566 125.903 67.3313C125.825 67.46 125.774 67.6117 125.751 67.7818C125.742 67.8645 125.733 67.9565 125.738 68.053C125.738 68.1311 125.747 68.246 125.774 68.3977C125.816 68.5034 125.88 68.5678 125.977 68.6C126.091 68.6276 126.183 68.6092 126.257 68.5494C126.399 68.7838 126.501 68.9309 126.551 68.9907C126.602 69.055 126.675 69.1148 126.781 69.1608C126.68 69.1929 126.606 69.2619 126.574 69.3722C126.547 69.4779 126.57 69.5745 126.643 69.6618C126.73 69.7491 126.822 69.8089 126.919 69.8319C126.969 69.8457 127.02 69.8549 127.075 69.8549H127.158C127.213 69.8503 127.277 69.8411 127.346 69.8181C127.645 69.7399 127.916 69.5331 128.165 69.1929C128.335 68.9355 128.408 68.6413 128.376 68.315C128.344 67.9932 128.224 67.7082 128.017 67.4508L127.962 67.3773Z" fill="#FEFEFE"/>
<path opacity="0.9843" d="M124.947 64.8078C124.717 64.578 124.46 64.4493 124.17 64.4217C124.078 64.4125 123.986 64.4171 123.89 64.4355L123.747 64.4722C123.55 64.5366 123.421 64.6101 123.357 64.6929C123.288 64.7756 123.279 64.8813 123.334 65.0146C123.375 65.1112 123.462 65.1755 123.587 65.2169C123.545 65.3318 123.527 65.4697 123.522 65.6352C123.522 65.8466 123.536 65.9937 123.559 66.0719C123.527 66.0719 123.508 66.0857 123.49 66.0995C123.481 66.104 123.458 66.1316 123.421 66.1776C123.384 66.2465 123.37 66.3017 123.375 66.3385C123.393 66.4856 123.449 66.6235 123.541 66.743C123.605 66.8165 123.66 66.8625 123.697 66.8809C123.747 66.9085 123.798 66.9314 123.858 66.9498C123.973 66.982 124.111 66.9912 124.267 66.9728L124.428 66.9452C124.543 66.9085 124.648 66.8625 124.74 66.8119L124.874 66.7292C124.956 66.674 125.03 66.6097 125.094 66.5361C125.292 66.3201 125.388 66.0581 125.379 65.7409C125.365 65.4651 125.255 65.1985 125.048 64.9365L124.947 64.8078Z" fill="#FEFEFE"/>
<path opacity="0.9843" d="M129.19 71.1695C129.121 71.1833 129.052 71.2016 128.988 71.2246C128.979 71.2292 128.51 71.3855 128.51 71.3855C128.197 71.4774 128.023 71.528 127.977 71.5464C127.903 71.5694 127.761 71.6245 127.549 71.7119C127.393 71.7762 127.319 71.9555 127.379 72.1118C127.393 72.1486 127.411 72.1761 127.439 72.2037C127.522 72.2956 127.659 72.3278 127.779 72.2773C127.981 72.1945 128.11 72.144 128.165 72.1256C128.216 72.1072 128.363 72.0612 128.625 71.9877C128.625 71.9877 128.648 71.9831 128.694 71.9693C128.708 71.9647 129.167 71.8084 129.167 71.8084C129.218 71.7946 129.268 71.7808 129.319 71.767C129.484 71.7303 129.59 71.5694 129.553 71.4039C129.54 71.3487 129.517 71.2982 129.48 71.2614C129.406 71.1879 129.296 71.1465 129.19 71.1695Z" fill="#FEFEFE"/>
<path d="M174.251 196C174.251 196 170.642 187.317 172.72 184.876C174.798 182.431 183.03 183.083 189.934 177.623C196.843 172.162 194.251 167.239 198.856 166.968C203.462 166.696 220.295 184.876 220.295 184.876C220.295 184.876 208.56 190.581 196.986 193.311C185.411 196.046 174.251 196 174.251 196Z" fill="#2B0C0A"/>
</svg>
