<svg width="24" height="25" viewBox="0 0 24 25" fill="none" xmlns="http://www.w3.org/2000/svg">
<path fill-rule="evenodd" clip-rule="evenodd" d="M17.0303 7.46967C17.3232 7.76256 17.3232 8.23744 17.0303 8.53033L8.53033 17.0303C8.23744 17.3232 7.76256 17.3232 7.46967 17.0303C7.17678 16.7374 7.17678 16.2626 7.46967 15.9697L15.9697 7.46967C16.2626 7.17678 16.7374 7.17678 17.0303 7.46967Z" fill="white"/>
<path fill-rule="evenodd" clip-rule="evenodd" d="M6.75 8C6.75 7.58579 7.08579 7.25 7.5 7.25H16.5C16.9142 7.25 17.25 7.58579 17.25 8V17C17.25 17.4142 16.9142 17.75 16.5 17.75C16.0858 17.75 15.75 17.4142 15.75 17V8.75H7.5C7.08579 8.75 6.75 8.41421 6.75 8Z" fill="white"/>
</svg>
