<svg width="630" height="770" viewBox="0 0 630 770" fill="none" xmlns="http://www.w3.org/2000/svg">
<mask id="mask0_130_4091" style="mask-type:alpha" maskUnits="userSpaceOnUse" x="0" y="0" width="630" height="770">
<rect width="630" height="770" rx="12" fill="#D9D9D9"/>
</mask>
<g mask="url(#mask0_130_4091)">
<path fill-rule="evenodd" clip-rule="evenodd" d="M617.842 629.014C611.092 636.427 606.072 646.399 600.75 654.844C593.361 666.571 583.786 680.11 582.089 694.409C580.864 704.728 588.053 716.895 599.775 714.69C607.608 713.216 615.294 706.282 620.218 700.376C632.541 685.595 640.287 664.797 648.444 647.419C650.918 642.148 653.377 636.809 655.983 631.603C657.416 628.741 659.406 625.951 659.759 622.696C660.501 615.864 657.191 606.44 651.47 602.258C645.878 598.171 641.016 597.278 635.034 601.247C633.865 602.021 632.129 603.016 631.439 604.279L617.842 629.014Z" fill="#FFB4A6"/>
<path fill-rule="evenodd" clip-rule="evenodd" d="M510.104 572.406C514.014 565.88 521.835 565.88 525.744 569.144C529.656 572.406 529.656 578.933 525.744 585.459C523.007 590.353 515.969 595.248 510.104 598.51C504.239 595.248 497.2 590.353 494.464 585.459C490.554 578.933 490.554 572.408 494.464 569.144C498.372 565.88 506.193 565.88 510.104 572.406Z" fill="#D13942"/>
<path fill-rule="evenodd" clip-rule="evenodd" d="M447.387 675.29C456.96 678.272 466.334 684.336 475.196 688.931C487.501 695.31 502.608 702.149 511.302 713.626C517.577 721.91 517.529 736.042 506.301 740.067C498.798 742.756 488.661 740.661 481.427 738.057C463.32 731.536 446.122 717.512 430.296 706.645C425.494 703.35 420.674 699.986 415.794 696.814C413.11 695.069 409.983 693.67 408.03 691.041C403.937 685.52 402.027 675.716 404.847 669.216C407.604 662.861 411.347 659.632 418.515 660.032C419.916 660.109 421.915 660.089 423.149 660.829L447.387 675.29Z" fill="#FFB4A6"/>
<path fill-rule="evenodd" clip-rule="evenodd" d="M578.841 604.899C586.796 608.308 595.299 611.698 603.474 613.895C614.826 616.943 628.324 621.208 639.429 619.713C647.444 618.635 653.666 611.21 647.665 603.274C643.656 597.969 635.703 593.803 629.536 591.411C614.1 585.423 604.546 585.722 588.604 584.635C579.184 583.993 558.441 583.645 553.655 582.771C551.023 582.291 552.511 592.637 553.695 592.891L578.841 604.899Z" fill="#FFB4A6"/>
<path fill-rule="evenodd" clip-rule="evenodd" d="M461.169 636.633C456.056 643.615 450.462 650.86 444.54 656.912C436.319 665.314 426.87 675.851 416.549 680.217C409.101 683.366 399.967 680.142 401.095 670.254C401.849 663.648 406.574 656.015 410.665 650.816C420.906 637.808 429.282 633.202 442.454 624.155C450.237 618.808 467.917 607.953 471.593 604.767C473.614 603.014 477.596 612.679 476.708 613.499L461.169 636.633Z" fill="#FFB4A6"/>
<path fill-rule="evenodd" clip-rule="evenodd" d="M551.446 588.035C551.79 587.363 551.828 586.502 551.967 585.507C552.39 582.472 551.673 579.345 549.916 576.803C549.422 576.089 548.673 575.511 548.281 574.738C547.909 574.004 548.838 572.766 549.568 572.64C551.21 572.356 553.65 575.899 554.63 576.982C557.939 580.637 562.998 583.465 562.696 588.981C562.608 590.607 562.535 591.758 561.311 592.868L554.311 590.718L554.067 593.198C553.056 592.684 551.992 592.055 550.893 591.767C549.127 591.303 545.146 592.111 544.002 590.113C543.467 589.176 545.6 588.908 546.075 588.85C547.899 588.624 549.66 588.277 551.446 588.035Z" fill="#FFB4A6"/>
<path fill-rule="evenodd" clip-rule="evenodd" d="M476.172 608.174C475.535 607.771 475.062 607.049 474.438 606.264C472.531 603.866 471.554 600.81 471.774 597.726C471.836 596.861 472.187 595.981 472.131 595.117C472.077 594.297 470.646 593.703 469.955 593.965C468.398 594.556 468.1 598.848 467.807 600.279C466.819 605.109 463.903 610.119 466.969 614.713C467.874 616.068 468.519 617.022 470.139 617.354L475.07 611.942L476.542 613.953C477.151 612.997 477.747 611.914 478.546 611.105C479.83 609.806 483.669 608.476 483.635 606.175C483.619 605.095 481.648 605.95 481.208 606.143C479.527 606.877 477.834 607.474 476.172 608.174Z" fill="#FFB4A6"/>
<path fill-rule="evenodd" clip-rule="evenodd" d="M593.701 803.951C582.711 815.415 517.492 820.113 517.086 817.377C514.627 800.799 498.585 766.829 492.487 751.042C491.128 747.518 484.78 746.785 481.683 745.451C472.798 741.623 463.782 737.977 455.035 733.847C452.841 732.812 446.742 731.417 445.505 728.937C444.737 727.397 448.542 720.071 449.127 718.719C452.797 710.249 455.406 701.496 457.779 692.587C458.073 691.481 458.802 687.658 459.712 684.988C459.83 683.75 460.045 682.393 460.614 681.973C461.3 681.467 463.4 682.807 464.013 683.053C467.135 684.308 470.287 685.487 473.381 686.815C482.138 690.575 490.946 695.141 500.299 697.031C505.152 695.729 510.963 693.702 513.225 693.088C521.656 690.799 530.119 688.312 538.652 686.2C547.081 683.707 555.64 681.573 564.072 679.284C566.334 678.67 572.371 677.478 577.217 676.149C584.33 669.789 589.62 661.395 595.273 653.723C597.269 651.012 599.393 648.402 601.452 645.74C601.855 645.218 602.989 642.999 603.838 643.09C604.542 643.164 605.412 644.227 606.141 645.235C608.275 647.077 610.837 650.007 611.652 650.812C618.204 657.299 624.882 663.53 632.331 668.981C633.52 669.851 640.507 674.246 640.622 675.964C640.81 678.727 636.253 683.016 634.884 685.019C629.426 693.007 623.491 700.709 617.762 708.506C615.766 711.223 610.662 715.067 611.269 718.793C613.994 735.497 618.815 764.723 621.236 781.307C625.524 810.714 595.329 802.252 593.701 803.951Z" fill="#43B6B4"/>
<path fill-rule="evenodd" clip-rule="evenodd" d="M528.056 640.261C531.417 638.36 535.336 637.535 539.061 638.363C543.894 639.438 548.473 642.994 552.415 646.147C552.397 643.25 552.494 640.403 554.072 637.819C555.385 635.669 557.836 634.715 560.033 636.249C561.337 637.161 562.196 638.595 562.677 640.088C564.739 646.507 559.772 652.44 554.631 655.712C554.333 656.74 554.083 657.789 553.899 658.87C552.786 665.397 552.042 673.455 554.146 679.678C555.171 682.708 560.2 679.908 560.753 679.945C563.535 680.125 558.876 698.209 545.819 702.168C531.529 706.5 517.875 691.732 520.309 690.963C521.941 690.448 528.297 689.327 527.432 686.617C525.432 680.359 521.653 674.283 517.391 669.213C516.686 668.375 515.939 667.597 515.163 666.86C509.073 666.637 501.789 664.031 500.321 657.451C499.98 655.919 499.995 654.249 500.661 652.803C501.78 650.368 504.376 649.949 506.596 651.141C509.264 652.574 510.788 654.98 512.237 657.488C514.042 652.774 516.195 647.39 519.821 644.019C522.077 641.922 524.986 640.69 528.056 640.261Z" fill="#FC9797"/>
<path fill-rule="evenodd" clip-rule="evenodd" d="M521.744 616.165C521.965 616.076 522.19 615.994 522.414 615.918C525.482 614.889 528.746 615.028 531.931 615.299C537.61 615.785 542.61 617.07 546.241 621.877C549.732 626.5 550.012 631.396 550.498 636.543C550.916 636.76 551.372 636.971 551.868 637.172C552.059 637.249 552.417 639.827 552.849 641.949C553.134 643.348 554.031 650.149 554.3 651.959C554.724 654.824 554.535 657.659 554.109 660.5C554.054 660.865 553.996 661.217 553.934 661.558C553.743 664.99 553.627 666.131 549.997 671.861C549.129 673.233 545.317 679.55 540.607 680.375C539.36 681.157 528.372 679.37 526.953 678.574C520.896 675.179 519.339 674.347 517.303 671.197C517.134 670.997 516.964 670.791 516.791 670.575C514.987 668.339 513.389 665.99 512.307 663.303C511.623 661.607 508.958 655.285 508.496 653.934C507.794 651.886 506.801 649.482 506.925 649.318C507.246 648.898 507.528 648.494 507.777 648.101C505.606 643.447 503.403 639.1 504.073 633.382C504.775 627.399 508.438 623.76 513.091 620.471C515.701 618.626 518.445 616.855 521.613 616.191C521.654 616.182 521.698 616.173 521.744 616.165Z" fill="#FFB4A6"/>
<path fill-rule="evenodd" clip-rule="evenodd" d="M507.424 651.007C508.331 653.98 511.252 657.582 513.003 659.973C514.924 662.596 516.666 665.444 519.061 667.677C524.839 673.068 534.712 676.241 542.153 672.31C543.799 671.44 545.41 670.048 546.476 668.522C547.401 667.198 547.704 665.702 548.35 664.254C550.313 659.853 551.705 655.246 552.445 650.483C552.883 647.655 552.41 644.937 552.507 642.107C552.552 640.794 553.012 638.526 554.285 640.659C556.755 644.796 557.085 650.412 556.938 655.084C556.647 664.333 553.692 675.779 545.042 680.822C541.27 683.022 536.301 683.819 532.011 683.762C529.004 683.722 526.103 683.084 523.309 681.988C520.031 680.702 516.933 679.091 514.246 676.811L507.424 651.007C507.367 650.819 507.318 650.633 507.277 650.451L507.424 651.007Z" fill="#FFAA9A"/>
<path fill-rule="evenodd" clip-rule="evenodd" d="M512.969 647.719C514.628 647.002 516.471 646.57 518.23 646.203C519.364 645.967 520.507 645.773 521.627 645.477C522.202 645.325 522.91 645.144 523.337 644.696C523.833 644.176 523.367 643.385 522.835 643.111C521.904 642.63 520.587 642.832 519.615 643.038C517.634 643.458 515.869 644.264 514.199 645.395C513.356 645.965 512.53 646.52 511.856 647.292L512.969 647.719ZM546.544 638.594C544.75 638.814 542.942 639.374 541.238 639.947C540.14 640.317 539.056 640.726 537.939 641.038C537.366 641.197 536.664 641.401 536.07 641.229C535.378 641.031 535.38 640.114 535.701 639.607C536.261 638.722 537.499 638.229 538.442 637.915C540.365 637.276 542.294 637.08 544.308 637.209C545.322 637.274 546.316 637.335 547.288 637.661L546.544 638.594Z" fill="#142645"/>
<path fill-rule="evenodd" clip-rule="evenodd" d="M520.698 647.165C521.496 646.949 522.353 647.534 522.606 648.471C522.861 649.409 522.418 650.346 521.619 650.563C520.82 650.78 519.964 650.194 519.711 649.256C519.456 648.321 519.899 647.382 520.698 647.165Z" fill="black"/>
<path fill-rule="evenodd" clip-rule="evenodd" d="M538.909 642.52C538.111 642.737 537.668 643.675 537.923 644.612C538.177 645.55 539.032 646.135 539.831 645.919C540.63 645.702 541.073 644.763 540.818 643.827C540.565 642.888 539.708 642.303 538.909 642.52Z" fill="black"/>
<path fill-rule="evenodd" clip-rule="evenodd" d="M503.141 618.286C501.894 615.936 502.423 613.473 505.12 612.2C507.563 611.047 510.642 610.703 513.36 611.155C514.925 610.944 516.505 610.835 518.078 610.794C520.599 610.729 523.196 610.474 525.711 610.641C527.42 610.755 529.136 610.979 530.841 611.304C535.758 611.467 540.56 613.03 544.916 615.582C548.333 617.583 550.999 620.568 552.785 624.085C553.434 625.361 554.022 626.598 554.174 628.002C554.811 629.674 555.177 631.48 555.423 633.175C555.579 634.247 555.981 635.626 555.708 636.693C555.603 637.106 555.188 637.271 554.897 637.517C554.347 637.983 553.916 638.403 553.643 639.099C553.229 640.157 553.56 641.244 553.455 642.34C553.425 642.654 553.276 643.342 552.863 643.33C552.617 643.323 552.515 643.015 552.438 642.826C552.268 642.406 552.112 641.978 551.983 641.543C551.503 639.936 550.939 637.85 549.558 636.804C549.068 636.433 548.481 636.182 547.972 635.84C547.402 635.456 546.855 635.036 546.33 634.586C542.966 634.374 539.678 633.414 536.748 631.559C536.111 631.155 535.482 630.676 534.889 630.134C534.157 631.013 533.224 631.754 532.362 632.453C529.733 634.582 526.979 636.612 523.809 637.852C521.2 638.872 518.5 639.619 515.801 640.358C514.578 640.693 513.37 641.041 512.139 641.266C512.081 641.634 511.996 641.996 511.914 642.328C511.605 643.591 511.18 644.819 510.623 645.977C510.356 646.531 509.977 647.043 509.742 647.612C509.079 649.212 509.646 651.297 510.045 652.927C510.153 653.368 510.234 653.815 510.3 654.262C510.33 654.464 510.397 654.782 510.189 654.913C509.837 655.132 509.361 654.614 509.176 654.358C508.532 653.465 508.268 652.36 507.375 651.656C506.789 651.194 506.205 651.048 505.494 650.924C505.12 650.859 504.677 650.925 504.378 650.624C503.604 649.84 503.252 648.447 502.844 647.443C501.927 645.186 501.107 642.609 501.11 640.109C501.034 640.085 500.96 640.059 500.884 640.035C496.498 638.564 490.713 634.689 491.551 629.318C491.77 627.923 492.405 626.567 493.121 625.364C493.83 624.171 494.732 623.106 495.76 622.173C497.787 620.345 500.376 619.043 503.141 618.286Z" fill="#142645"/>
<path fill-rule="evenodd" clip-rule="evenodd" d="M518.392 652.521C520.975 651.82 523.64 653.347 524.342 655.93C525.044 658.513 523.516 661.178 520.933 661.88C518.35 662.581 515.684 661.054 514.983 658.471C514.282 655.888 515.809 653.223 518.392 652.521Z" fill="#FC9797"/>
<path fill-rule="evenodd" clip-rule="evenodd" d="M542.914 646.049C545.497 645.347 548.162 646.875 548.864 649.458C549.566 652.042 548.038 654.707 545.455 655.409C542.872 656.11 540.206 654.582 539.505 651.999C538.803 649.416 540.331 646.749 542.914 646.049Z" fill="#FC9797"/>
<path fill-rule="evenodd" clip-rule="evenodd" d="M530.636 661.707C531.483 661.947 532.335 662.205 533.225 662.18C535.247 662.126 537.515 660.978 538.31 659.021C538.375 658.86 538.298 658.678 538.138 658.613C537.978 658.548 537.796 658.625 537.731 658.786C537.026 660.519 534.999 661.507 533.208 661.556C532.381 661.579 531.592 661.328 530.806 661.107C530.639 661.06 530.466 661.157 530.419 661.324C530.372 661.488 530.469 661.66 530.636 661.707Z" fill="black"/>
<path fill-rule="evenodd" clip-rule="evenodd" d="M530.611 650.846C530.625 650.912 530.657 651.067 530.673 651.132C530.735 651.39 530.908 651.626 531.107 651.845C531.339 652.098 531.61 652.325 531.836 652.522C531.983 652.651 531.998 652.875 531.869 653.022C531.74 653.17 531.518 653.185 531.369 653.056C530.851 652.603 530.147 651.989 529.982 651.296C529.958 651.193 529.911 651.047 529.899 650.912C529.883 650.752 529.911 650.6 529.983 650.48C530.106 650.28 530.334 650.175 530.596 650.109C530.661 650.092 530.728 650.077 530.791 650.054C530.852 650.033 530.914 650.01 530.932 649.931C530.989 649.683 530.901 649.377 530.802 649.069C530.678 648.681 530.523 648.293 530.459 647.982C530.422 647.791 530.546 647.603 530.737 647.565C530.928 647.527 531.116 647.651 531.154 647.842C531.225 648.197 531.427 648.655 531.548 649.092C531.647 649.451 531.689 649.798 531.622 650.089C531.54 650.444 531.321 650.614 531.054 650.712C530.948 650.752 530.832 650.777 530.723 650.806C530.69 650.815 530.658 650.824 530.628 650.835C530.626 650.839 530.619 650.842 530.611 650.846Z" fill="black"/>
<g clip-path="url(#clip0_130_4091)">
<path fill-rule="evenodd" clip-rule="evenodd" d="M65.0958 610.187C63.6203 608.713 60.6315 609.014 58.7554 609.048C53.6594 609.145 48.58 610.125 43.6963 611.508C24.345 616.988 13.9976 629.966 14 649.856C14 654.176 14.6034 658.481 15.8173 662.634C20.4206 678.377 34.8291 699.413 54.3053 693.525C57.789 692.471 61.0487 690.803 64.054 688.802C67.6107 686.432 70.7409 683.506 73.3548 680.165C85.5996 664.511 88.5648 638.723 84.3551 619.793L65.0958 610.187Z" fill="#2C2C2C"/>
<path fill-rule="evenodd" clip-rule="evenodd" d="M117 640.078C105.906 651.031 90.9787 667.29 87.9758 680.36C87.2121 683.683 89.4796 686.839 90.5874 690.131C90.7618 690.649 92.044 693.244 91.7966 693.723C91.3558 694.574 86.3707 695.464 85.4609 695.757C78.9248 697.855 71.7759 698.75 64.9688 699.461C60.4079 699.937 55.8094 700.883 51.2202 701C50.803 701.011 46.7254 700.503 46.7324 700.45C46.9139 699.247 57.2495 675.593 57.2896 665.749C57.3037 662.468 74.8448 653.912 73.7935 650.797L117 640.078Z" fill="#FFB4A6"/>
</g>
<path fill-rule="evenodd" clip-rule="evenodd" d="M96.913 660.889C96.7952 662.283 95.8279 663.786 95.0742 664.905C93.3188 667.51 91.1738 669.876 88.857 671.989C87.9889 672.781 87.1025 673.55 86.1991 674.299C86.1219 674.363 85.3886 675.076 85.2652 674.886C84.9324 674.373 85.111 673.012 85.0743 672.439C84.93 670.159 84.871 667.881 84.9243 665.596C85.0364 660.786 85.5912 655.93 86.4202 651.191C86.902 648.443 87.4827 645.387 88.9334 642.952C89.3693 642.222 90.2518 641.679 90.7949 641L96.913 660.889Z" fill="#FC9797"/>
<path fill-rule="evenodd" clip-rule="evenodd" d="M77.3899 633.545C76.7048 633.161 76.0083 632.799 75.2779 632.499C74.421 632.148 73.398 632.012 72.5015 631.782C70.8746 631.361 69.3175 631.036 67.6302 631.287C66.4939 631.455 65.1614 631.763 64.1894 632.403C62.5606 633.477 61.8226 635.428 61.9887 637.342C62.1208 638.861 62.957 640.284 63.8101 641.506C65.8466 644.424 68.4285 646.653 71.454 648.514C71.8693 648.768 72.2996 649.023 72.7356 649.282C72.8601 649.508 72.9885 649.735 73.1225 649.961C74.3606 652.064 75.7252 653.989 77.7466 655.408C81.5988 658.111 86.5268 658.743 91.0717 659.313C93.3479 659.598 95.7543 659.876 97.9909 659.366C99.229 659.274 100.477 659.021 101.669 658.877C103.262 658.685 104.812 658.411 106.386 658.134C107.811 657.884 109.31 657.779 110.701 657.369C112.431 656.858 114.228 656.069 115.719 655.04C118.095 653.402 117.705 649.903 116.636 647.591C116.131 646.498 115.493 645.445 115.274 644.32C116.095 643.31 116.886 642.161 117.367 641.007C117.497 640.696 117.933 640.094 117.86 639.754C117.854 639.726 117.125 639.881 117.084 639.89C116.548 640.005 116.063 640.041 115.515 640.09C114.6 640.173 113.683 640.284 112.762 640.352C113.394 639.958 114 639.505 114.598 639.078C115.625 638.348 116.644 637.65 117.497 636.729C117.573 636.647 118.313 636.113 118.231 635.976C118.02 635.617 117.193 635.611 116.837 635.379C116.068 634.881 115.461 633.971 114.893 633.26C114.56 632.844 114.239 632.463 113.953 632.063C115.427 631.021 116.838 629.589 117.667 628.22C118.012 627.65 117.88 627.979 118.229 627.429C118.477 627.039 118.715 627.037 118.915 625.94C118.964 625.668 118.256 625.542 118.101 625.5C117.512 625.348 117.337 625.329 116.748 625.176C115.206 624.778 113.853 624.319 112.511 623.449C110.776 622.326 108.877 621.218 107.59 619.549C107.42 619.331 107.266 619.106 107.122 618.879C106.828 617.979 106.679 617.166 106.475 616.218C105.724 612.704 104.487 609.222 103.289 605.785C102.273 602.867 100.56 599.862 98.1419 597.756C95.3938 595.362 90.4941 594.188 86.9741 593.645C85.2547 593.379 83.6051 593.741 81.9385 594.002C81.5384 594.03 81.1383 594.087 80.7457 594.16C80.7193 594.162 80.691 594.166 80.6645 594.168L80.6702 594.173C80.5362 594.2 80.4041 594.226 80.272 594.255C75.6988 595.232 74.0171 599.549 73.2716 603.737C73.0319 605.081 72.6827 606.426 72.6204 607.799C72.5733 608.846 72.6752 609.886 72.6884 610.928C72.7375 614.659 73.2206 618.494 74.1436 622.116C75.0571 625.699 76.0404 629.334 77.1955 632.841C77.2748 633.069 77.3371 633.307 77.3899 633.545ZM112.601 643.829L112.59 643.835L112.596 643.812L112.601 643.829Z" fill="#FFB4A6"/>
<path fill-rule="evenodd" clip-rule="evenodd" d="M92.3732 624.058C93.6567 622.773 95.2176 621.684 96.7256 620.687C97.6976 620.046 98.6923 619.44 99.6303 618.747C100.112 618.392 100.706 617.96 100.938 617.383C101.208 616.713 100.48 616.146 99.8794 616.088C98.8319 615.984 97.675 616.662 96.8426 617.215C95.1477 618.343 93.7982 619.753 92.6564 621.429C92.0807 622.275 91.5145 623.099 91.1729 624.071L92.3732 624.058Z" fill="#2C2C2C"/>
<path fill-rule="evenodd" clip-rule="evenodd" d="M91.1558 592.923C92.6619 601.938 87.2847 610.884 79.7011 616.531C77.7156 618.009 75.4545 619.243 72.9518 620.14C72.3346 620.361 70.9436 621.042 70.1565 620.795C69.5658 620.61 69.3884 619.577 69.2619 619.198C68.6164 617.267 68.2805 615.297 68.0823 613.339C67.3387 605.988 70.1603 597.451 76.417 592.393L91.1558 592.923Z" fill="#2C2C2C"/>
<path fill-rule="evenodd" clip-rule="evenodd" d="M69.334 629.715C70.6344 629.494 72.1707 630.577 73.156 631.262C74.949 632.51 76.4702 634.033 77.731 635.811C78.2236 636.506 78.6955 637.213 79.1428 637.936C79.4033 638.357 79.6467 638.905 80.0638 639.203C80.5508 639.55 81.4756 638.827 81.8512 638.55C81.989 638.448 82.2872 638.289 82.3231 638.097C82.3835 637.759 81.9456 637.274 81.7852 637.023C81.2454 636.187 80.7037 635.352 80.1979 634.494C79.5486 633.391 78.9748 632.251 78.3897 631.115C78.1368 630.625 77.7858 630.1 77.6253 629.566C77.4725 629.054 77.5102 628.465 77.4517 627.939C77.3498 627.003 77.229 626.07 77.1138 625.136C76.8213 622.773 76.525 620.467 75.7889 618.19C75.4567 617.165 75.1132 615.99 74.3337 615.201L69.334 629.715Z" fill="#2C2C2C"/>
<path fill-rule="evenodd" clip-rule="evenodd" d="M168.208 658.858C158.191 661.906 148.362 668.172 139.076 672.91C126.183 679.485 110.361 686.524 101.203 698.446C94.5936 707.051 94.5483 721.808 106.243 726.089C114.058 728.948 124.658 726.831 132.23 724.16C151.182 717.477 169.236 702.951 185.836 691.714C190.872 688.305 195.928 684.827 201.047 681.548C203.861 679.746 207.137 678.306 209.193 675.573C213.505 669.837 215.568 659.613 212.667 652.807C209.831 646.152 205.944 642.755 198.457 643.123C196.994 643.194 194.907 643.159 193.612 643.923L168.208 658.858Z" fill="#FFB4A6"/>
<path fill-rule="evenodd" clip-rule="evenodd" d="M-51.4036 711.245C-43.1368 704.82 -32.3484 700.402 -23.1247 695.547C-10.3168 688.807 4.55595 679.938 19.5778 679.333C30.419 678.895 42.5021 687.367 39.2558 699.392C37.0853 707.427 29.2431 714.865 22.6957 719.512C6.30744 731.142 -15.9714 737.516 -34.7246 744.597C-40.4132 746.745 -46.1717 748.872 -51.8018 751.161C-54.8972 752.42 -57.9623 754.266 -61.3804 754.37C-68.5544 754.587 -78.0952 750.376 -81.9832 744.082C-85.7844 737.927 -86.3186 732.793 -81.702 726.888C-80.7998 725.734 -79.6259 724.007 -78.2537 723.392L-51.4036 711.245Z" fill="#FFB4A6"/>
<path fill-rule="evenodd" clip-rule="evenodd" d="M203.698 607.788C199.744 615.914 195.783 624.613 193.082 633.031C189.333 644.717 184.209 658.582 185.211 670.241C185.934 678.655 193.367 685.515 201.945 679.655C207.679 675.739 212.422 667.651 215.227 661.34C222.246 645.54 222.414 635.562 224.345 618.988C225.487 609.195 226.889 587.578 228.038 582.629C228.671 579.908 217.805 580.944 217.482 582.165L203.698 607.788Z" fill="#FFB4A6"/>
<path fill-rule="evenodd" clip-rule="evenodd" d="M102.915 622.992C102.181 623.145 101.735 623.981 101.916 624.856C102.099 625.732 102.843 626.321 103.577 626.168C104.311 626.015 104.757 625.179 104.576 624.303C104.391 623.426 103.647 622.839 102.915 622.992Z" fill="black"/>
<path fill-rule="evenodd" clip-rule="evenodd" d="M95.2345 629.39C92.9337 631.617 92.8733 635.292 95.1005 637.593C97.3276 639.894 101.002 639.954 103.303 637.727C105.604 635.5 105.664 631.825 103.437 629.524C101.21 627.223 97.5352 627.165 95.2345 629.39Z" fill="#FC9797"/>
<path fill-rule="evenodd" clip-rule="evenodd" d="M60.8914 670.747C64.8549 671.317 68.8241 672.113 72.5706 672.323C78.4838 672.655 89.1476 671.577 94.706 672.917C101.384 674.527 110.815 680.04 117.019 680.593C123.995 681.214 129.21 677.464 134.674 673.765C138.252 671.341 141.48 667.791 141.965 668.272C143.994 670.282 147.661 685.927 148.655 689.419C150.566 696.121 151.866 702.984 153.74 709.684C154.295 711.666 156.054 715.412 154.891 717.445C154.018 718.975 134.332 726.769 131.624 728.018C124.697 731.213 117.672 734.352 110.568 737.37C109.416 740.767 108.344 744 107.289 746.747C103.26 757.237 98.6186 767.459 94.3701 777.859C93.5792 779.795 86.8752 798.724 85.7296 798.943C85.101 799.063 84.3461 799.039 83.4892 798.894C82.8305 800.305 82.1378 801.425 81.447 801.912C77.8251 804.454 67.2141 801.695 63.2619 800.785C53.338 798.499 42.8648 796.113 33.9997 790.887C27.7845 787.224 22.4998 782.158 16.5148 778.149C7.41944 772.057 -4.60707 770.15 -15.1803 768.242C-16.7015 767.969 -26.4009 766.934 -26.5122 764.941C-26.633 762.784 -19.1325 753.556 -17.7302 751.458C-13.8214 745.607 -10.2674 739.522 -6.28686 733.722C-3.94459 730.311 -1.44567 727.006 0.960762 723.643C-4.04085 719.025 -8.51776 713.791 -12.402 708.138C-13.8987 705.96 -21.5503 694.683 -20.8085 692.293C-20.2725 690.563 -5.54133 682.449 -3.19718 680.858C4.75632 675.461 18.238 663.901 28.194 663.543C34.0639 663.331 42.4137 666.6 48.276 667.802C52.3943 668.648 56.824 669.38 60.8914 670.747Z" fill="#43B6B4"/>
<path fill-rule="evenodd" clip-rule="evenodd" d="M75.6408 617.028C77.2847 615.889 78.8098 614.491 80.3121 613.177C84.0416 609.916 92.7255 600.165 91.7724 594.416C91.3685 591.984 89.1282 590.242 87.0973 589.162C73.6855 582.033 53.2789 589.649 41.6544 598.518C36.196 602.681 31.3756 607.692 26.0607 612.041C21.9198 615.431 17.5467 618.721 12.7168 621.067C1.84915 626.346 -15.262 625.925 -22.889 636.606C-28.8098 644.897 -26.4071 657.788 -23.7912 666.813C-17.5477 688.356 -0.391188 706.485 23.4693 704.307C28.1085 703.884 32.7515 702.955 37.1114 701.29C41.8639 699.475 46.6202 697.282 50.4667 693.901C54.9606 689.949 65.5262 670.358 63.3293 668.893C57.25 664.841 55.1455 640.575 48.6548 637.321C44.4987 635.235 41.2486 633.078 41.2958 628.033L75.6408 617.028Z" fill="#2C2C2C"/>
<path fill-rule="evenodd" clip-rule="evenodd" d="M202.5 554.221C201.315 544.823 208.976 538.814 215.314 539.004C221.652 539.195 226.667 545.588 227.852 554.985C228.932 561.883 225.798 572.085 222.562 579.789C214.308 581.101 203.654 581.716 197.212 579.025C188.368 575.639 183.351 569.246 184.674 563.044C185.993 556.844 193.654 550.835 202.5 554.221Z" fill="#D13942"/>
<path fill-rule="evenodd" clip-rule="evenodd" d="M219.023 578.268C219.759 577.989 220.393 577.351 221.197 576.677C223.651 574.624 225.289 571.702 225.71 568.501C225.829 567.602 225.654 566.63 225.891 565.757C226.118 564.928 227.705 564.62 228.358 565.036C229.827 565.966 229.234 570.42 229.234 571.945C229.234 577.094 231.165 582.83 227.067 586.886C225.857 588.083 224.997 588.922 223.272 588.922L219.361 582.352L217.434 584.102C217.011 582.996 216.628 581.764 215.979 580.769C214.937 579.172 211.289 577.007 211.806 574.659C212.047 573.559 213.888 574.846 214.295 575.135C215.864 576.237 217.47 577.204 219.023 578.268Z" fill="#FFB4A6"/>
<path fill-rule="evenodd" clip-rule="evenodd" d="M510.198 174.286C513.676 166.268 519.807 158.711 524.617 151.459C531.294 141.391 538.632 128.937 549.39 122.472C557.155 117.808 569.398 119.169 571.838 129.276C573.469 136.03 570.705 144.619 567.773 150.646C560.432 165.729 546.671 179.326 535.776 192.026C532.471 195.879 529.107 199.743 525.902 203.675C524.139 205.838 522.634 208.419 520.172 209.864C515.007 212.898 506.331 213.639 500.962 210.587C495.712 207.603 493.264 204.058 494.279 197.882C494.477 196.677 494.646 194.942 495.403 193.941L510.198 174.286Z" fill="#FFB4A6"/>
<path fill-rule="evenodd" clip-rule="evenodd" d="M474.148 166.993C480.97 170.215 488.096 173.804 494.253 177.872C502.803 183.518 513.385 189.862 518.827 197.974C522.755 203.828 521.505 212.178 512.857 212.849C507.078 213.298 499.763 210.515 494.638 207.873C481.81 201.261 476.484 194.853 466.562 185.077C460.699 179.299 448.486 165.965 445.15 163.345C443.316 161.905 450.928 156.899 451.777 157.524L474.148 166.993Z" fill="#FFB4A6"/>
<path fill-rule="evenodd" clip-rule="evenodd" d="M697.996 205.502C698.206 207.155 690.402 209.472 689.193 209.929C680.803 213.098 671.219 216.486 664.677 222.865C660.373 227.061 656.802 232.022 652.255 235.971C645.768 241.605 645.428 254.027 634.293 261.409C629.024 264.902 608.794 228.075 608.393 227.449C603.33 219.557 571.524 180.264 566.627 172.264C566.278 171.695 565.924 171.096 565.562 170.473C560.179 175.95 554.59 181.454 553.342 181.838C552.566 182.078 547.098 178.864 546.328 178.449C538.787 174.384 531.791 169.015 524.831 164.04C523.371 162.998 519.617 160.871 518.211 158.645C517.274 157.932 516.649 157.338 516.594 156.99C516.024 153.413 526.813 138.371 529.018 135.142C532.984 129.333 537.051 123.573 541.523 118.139C543.201 116.099 544.888 113.555 546.917 111.825C550.1 109.113 566.106 106.223 570.299 105.34C572.031 104.975 582.942 102.043 586.394 102.061C586.778 101.851 587.16 101.641 587.545 101.429C591.482 98.7414 595.974 96.7878 599.881 94.4978C607.96 89.764 615.023 81.4707 618.702 80.8864C633.053 78.6061 647.491 66.472 656.201 63.3568C660.569 61.7937 662.271 118.999 657.275 126.105C655.298 129.993 650.938 136.704 648.341 140.174C650.828 142.569 653.151 145.151 655.124 147.987L697.996 205.502Z" fill="#43B6B4"/>
<path fill-rule="evenodd" clip-rule="evenodd" d="M448.49 134.549C453.074 129.328 460.101 130.612 463.078 134.185C466.056 137.759 464.984 143.621 460.4 148.842C457.138 152.789 450.01 156.032 444.205 158.001C439.473 154.107 433.953 148.555 432.297 143.708C429.854 137.204 430.926 131.342 434.974 129.051C439.021 126.761 446.048 128.045 448.49 134.549Z" fill="#D13942"/>
<path fill-rule="evenodd" clip-rule="evenodd" d="M448.744 155.792C448.118 155.996 447.373 155.911 446.497 155.893C443.826 155.839 441.231 154.794 439.285 152.932C438.738 152.408 438.343 151.684 437.731 151.241C437.151 150.82 435.956 151.45 435.748 152.061C435.279 153.434 437.994 156.022 438.79 157.015C441.482 160.365 443.224 165.109 448.011 165.607C449.424 165.754 450.423 165.851 451.547 164.948L450.657 158.628L452.825 158.758C452.522 157.816 452.126 156.815 452.029 155.828C451.873 154.244 453.115 150.928 451.552 149.67C450.819 149.08 450.294 150.88 450.179 151.281C449.739 152.818 449.198 154.287 448.744 155.792Z" fill="#FFB4A6"/>
<path fill-rule="evenodd" clip-rule="evenodd" d="M553.859 90.5699C556.475 91.4297 559.424 92.8793 561.524 94.6543C562.479 95.4615 563.184 96.5664 564.015 97.4954C564.782 98.3538 564.624 97.8194 565.278 98.7733C566.226 100.155 566.428 100.712 567.284 102.096C567.904 103.1 576.008 112.176 577.221 114.428C577.424 114.806 577.38 121.997 580.57 122.053C595.074 122.306 595.955 99.0821 595.928 98.7664C595.868 98.0312 595.088 97.1797 594.711 96.5968C593.712 95.0531 592.651 93.5522 591.555 92.0763C590.48 90.6308 589.378 89.2075 588.25 87.805C586.469 85.5911 578.087 76.5418 576.152 74.4595L553.859 90.5699Z" fill="#FFB4A6"/>
<path fill-rule="evenodd" clip-rule="evenodd" d="M556.815 99.4239C558.433 97.9383 560.235 96.6604 561.87 95.19C564.491 92.8335 566.845 90.2264 569.06 87.4629C570.095 86.1725 571.109 84.8544 572.249 83.661C572.448 83.4519 573.002 82.7375 573.359 82.7915C573.542 82.8192 573.272 83.8534 573.254 83.9448C572.994 85.2795 572.703 86.6045 572.403 87.9295C571.737 90.8633 571.119 93.8138 569.758 96.4928C568.776 98.427 567.374 99.9362 566.09 101.629L556.815 99.4239Z" fill="#FC9797"/>
<path fill-rule="evenodd" clip-rule="evenodd" d="M566.491 66.9249C565.751 65.1181 564.381 63.4705 563.054 62.2133C557.391 56.8538 549.536 55.9691 542.517 58.9527C539.498 60.2362 535.059 62.3227 534.638 66.0249C534.371 68.3703 535.237 71.3831 536.724 73.2259C537.685 74.4166 538.954 75.3872 540.157 76.33C540.236 76.6831 540.277 77.0445 540.272 77.4155C540.259 78.1438 540.054 78.8748 539.833 79.5629C539.657 80.107 539.455 80.6415 539.278 81.1856C539.117 81.6799 538.945 82.17 538.789 82.6657C538.268 84.3147 536.511 88.1983 539.458 88.3921C539.835 88.417 540.216 88.4018 540.593 88.3547C541.293 88.2689 541.979 88.093 542.654 87.8951C543.089 87.7677 543.521 87.6278 543.952 87.4811C544.309 88.3063 547.27 87.8051 547.363 88.5693C547.444 89.2353 549.498 92.1802 550.28 91.9171C549.145 92.5665 548.944 96.2867 549.878 96.2397C550.088 96.5581 550.231 96.9305 550.289 97.3362C550.542 99.1292 550.171 100.889 551.089 102.56C551.369 103.07 551.763 103.654 552.307 103.911C552.925 104.203 553.691 103.961 554.286 103.731C555.803 103.146 557.11 102.178 558.264 101.044C560.295 99.0475 562.154 96.8821 564.086 94.7914C566.527 92.1497 570.837 86.8387 570.837 86.8387C571.842 85.8889 572.715 84.8339 573.158 83.4507C573.784 81.4985 573.122 79.1642 572.62 77.2355C574.241 75.7984 575.573 74.166 576.717 72.236C577.937 70.1785 579.062 67.9536 579.678 65.6317C580.692 61.8187 578.514 56.3069 573.801 57.3674C569.471 58.3435 566.569 62.6107 566.491 66.9249Z" fill="#FFB4A6"/>
<path fill-rule="evenodd" clip-rule="evenodd" d="M553.176 73.7852C555.743 74.1562 557.528 76.5418 557.157 79.1087C556.786 81.6756 554.4 83.4603 551.833 83.0892C549.266 82.7182 547.481 80.3326 547.853 77.7657C548.222 75.1974 550.608 73.4141 553.176 73.7852Z" fill="#FC9797"/>
<path fill-rule="evenodd" clip-rule="evenodd" d="M533.92 45.6195C534.563 44.2973 535.264 42.9903 535.992 41.6376C538.432 37.1116 541.424 32.2574 546.43 30.236C548.069 29.5742 549.952 29.4565 551.696 29.3291C555.499 29.0508 559.333 29.1934 563.142 29.2446C565.303 29.2737 567.445 28.8611 569.609 29.0494C572.533 29.3028 575.526 30.4353 578.064 32.0012C580.131 33.059 582.031 34.4173 583.763 36.087C591.075 43.1357 593.882 53.5197 592.022 63.235C592.037 64.0685 591.992 64.902 591.882 65.7285C591.595 67.8676 590.903 69.9347 590.155 71.9492C589.622 73.3822 583.27 79.9255 582.64 81.3198C582.37 81.9193 578.005 79.8909 576.338 79.2084C575.043 78.6781 572.637 77.2257 572.637 77.2257C572.637 77.2257 574.035 75.7373 574.197 75.5463C574.702 74.9509 575.223 74.3777 575.67 73.7325C576.336 72.7717 576.886 71.7443 577.501 70.7516C577.956 70.0164 578.72 68.2664 578.774 68.0989C579.018 67.3387 579.274 66.4859 579.402 65.7022C579.498 65.1027 579.629 64.524 579.641 63.9148L579.079 60.5531C578.79 59.7612 578.383 59.026 577.841 58.4486C577.46 58.0416 577.015 57.7564 576.53 57.557C575.724 57.4767 574.916 57.4172 574.106 57.3839C573.095 57.5168 572.081 57.8201 571.292 58.3434C570.481 58.882 569.834 59.667 569.175 60.3718C568.828 60.7428 568.496 61.1222 568.188 61.5195C567.389 63.2059 566.869 65.0293 566.498 66.8708C566.496 67.0189 566.496 67.1684 566.498 67.3166C566.608 68.0629 566.726 68.8077 566.859 69.5512C566.913 69.8517 567.108 70.3667 567.076 70.7225C567.821 71.8814 568.653 72.9876 569.483 74.098C569.755 74.44 570.03 74.782 570.304 75.1212C571.593 76.7162 573.022 78.1367 573.269 80.1498C573.681 81.1869 573.92 82.2917 573.647 83.2346C573.465 83.8673 572.993 84.4004 572.592 84.9071C571.828 85.8763 570.964 86.7693 570.106 87.6596C569.714 88.2037 569.311 88.7381 568.907 89.2698C567.625 90.9534 566.381 92.6563 565.001 94.2638C562.305 97.4039 559.478 100.479 556.188 103.006C555.147 103.806 553.126 105.305 551.885 104.025C550.973 103.083 550.573 101.551 550.218 100.331C549.566 98.0893 549.101 95.9155 547.999 93.8401C547.11 92.1648 543.939 88.1621 544.254 87.7454C544.802 87.0171 545.422 86.6489 546.202 86.2224C547.343 85.5994 549.579 84.7728 550.717 84.1442C554.52 82.0439 557.227 84.7783 562.321 78.7321C563.351 77.5095 563.477 74.5674 564.138 72.942L564.497 71.1296C564.494 71.0147 564.486 70.8998 564.473 70.7848C564.435 70.699 564.4 70.6201 564.368 70.5661C563.99 69.8946 563.605 69.2259 563.232 68.5516C562.048 66.4111 560.926 64.2152 559.845 62.0014C558.998 62.1287 558.145 62.2063 557.278 62.3101C554.523 62.641 551.683 62.821 549.011 61.9003C547.332 61.3215 545.878 60.3316 544.504 59.2323C540.491 61.8546 536.222 64.9158 531.351 63.8899C524.899 62.5302 521.954 53.0849 526.533 48.2958C528.383 46.3644 531.137 45.7081 533.92 45.6195Z" fill="#2C2C2C"/>
<path fill-rule="evenodd" clip-rule="evenodd" d="M548.84 68.5102C547.481 68.8895 546.151 69.5347 544.903 70.1758C544.099 70.5898 543.311 71.0328 542.486 71.4052C542.062 71.5963 541.544 71.8345 541.065 71.7721C540.509 71.7002 540.402 70.9913 540.591 70.5634C540.919 69.8144 541.817 69.2897 542.508 68.9366C543.916 68.2167 545.384 67.8401 546.952 67.7044C547.743 67.6365 548.517 67.5659 549.305 67.703L548.84 68.5102Z" fill="#2C2C2C"/>
<path fill-rule="evenodd" clip-rule="evenodd" d="M543.517 74.0131C544.07 73.7653 544.761 74.1017 545.058 74.7649C545.354 75.4267 545.143 76.1661 544.59 76.4139C544.036 76.6617 543.345 76.3253 543.049 75.6621C542.752 75.0003 542.961 74.261 543.517 74.0131Z" fill="black"/>
<path fill-rule="evenodd" clip-rule="evenodd" d="M212.094 174.013C218.83 170.239 225.718 174.184 227.515 179.031C229.312 183.878 226.021 189.625 219.284 193.4C214.403 196.329 205.736 197.088 198.924 197.002C195.405 191.168 191.675 183.307 191.733 177.615C191.583 169.896 194.874 164.149 199.964 163.247C205.054 162.347 211.943 166.294 212.094 174.013Z" fill="#D13942"/>
<path fill-rule="evenodd" clip-rule="evenodd" d="M107.331 160.946C103.915 153.123 97.9113 145.757 93.1967 138.685C86.651 128.868 79.4559 116.722 68.9342 110.435C61.3406 105.897 49.3863 107.256 47.0275 117.131C45.4503 123.731 48.1692 132.114 51.0481 137.992C58.2524 152.705 71.7239 165.95 82.3933 178.329C85.6293 182.083 88.9252 185.85 92.0642 189.683C93.7906 191.791 95.2662 194.307 97.6728 195.713C102.724 198.663 111.2 199.366 116.436 196.373C121.557 193.447 123.939 189.979 122.934 183.951C122.737 182.774 122.568 181.08 121.826 180.105L107.331 160.946Z" fill="#FFB4A6"/>
<path fill-rule="evenodd" clip-rule="evenodd" d="M129.444 100.515C121.311 97.9249 113.363 92.7133 105.844 88.7541C95.4019 83.2579 82.5783 77.3569 75.2386 67.5398C69.9408 60.4556 70.0577 48.4244 79.6362 45.0577C86.0373 42.808 94.6556 44.6453 100.801 46.901C116.181 52.5481 130.746 64.5778 144.161 73.9117C148.229 76.7429 152.316 79.6311 156.454 82.3577C158.728 83.8564 161.384 85.0643 163.03 87.3139C166.486 92.0347 168.062 100.39 165.626 105.909C163.244 111.304 161.644 111.91 155.544 111.532C154.352 111.461 129.444 100.515 129.444 100.515Z" fill="#FFB4A6"/>
<path fill-rule="evenodd" clip-rule="evenodd" d="M152.525 174.904C145.162 174.655 137.37 174.589 130.204 175.37C120.257 176.455 108.233 177.238 99.8824 181.851C93.8568 185.181 91.2117 192.992 98.4222 197.437C103.24 200.408 110.837 201.258 116.468 201.253C130.563 201.239 138.05 198.054 151.034 193.996C158.706 191.598 175.27 185.472 179.337 184.687C181.573 184.256 177.198 176.507 176.181 176.672L152.525 174.904Z" fill="#FFB4A6"/>
<path fill-rule="evenodd" clip-rule="evenodd" d="M173.252 139.958C168.551 134.285 163.735 128.159 159.971 122.012C154.746 113.478 148.012 103.484 146.557 94.0567C145.506 87.2525 150.07 80.3837 157.995 83.3704C163.292 85.3661 168.611 90.8562 172.05 95.3154C180.659 106.476 182.717 114.348 187.445 127.102C190.239 134.639 195.522 151.491 197.388 155.188C198.414 157.221 189.608 158.498 189.116 157.593L173.252 139.958Z" fill="#FFB4A6"/>
<path fill-rule="evenodd" clip-rule="evenodd" d="M178.855 179.149C178.929 179.788 179.308 180.415 179.68 181.185C180.814 183.534 182.798 185.412 185.244 186.383C185.932 186.655 186.734 186.71 187.377 187.073C187.986 187.417 187.912 188.734 187.455 189.168C186.426 190.143 183.025 188.786 181.819 188.483C177.749 187.457 172.83 187.841 170.439 183.793C169.732 182.599 169.242 181.75 169.585 180.386L175.558 178.604L174.559 176.732C175.518 176.618 176.569 176.561 177.484 176.247C178.955 175.742 181.393 173.29 183.145 174.165C183.967 174.576 182.584 175.773 182.273 176.039C181.09 177.056 180.006 178.135 178.855 179.149Z" fill="#FFB4A6"/>
<path fill-rule="evenodd" clip-rule="evenodd" d="M193.544 158.252C194.001 157.801 194.689 157.547 195.462 157.178C197.816 156.055 200.538 155.83 203.054 156.601C203.76 156.818 204.422 157.276 205.151 157.396C205.842 157.51 206.608 156.436 206.522 155.812C206.33 154.407 202.826 153.339 201.695 152.822C197.878 151.077 194.278 147.703 189.882 149.366C188.585 149.857 187.67 150.211 187.085 151.491L190.632 156.616L188.682 157.453C189.359 158.141 190.144 158.843 190.661 159.661C191.492 160.976 191.861 164.415 193.778 164.825C194.675 165.018 194.345 163.219 194.269 162.817C193.98 161.283 193.808 159.765 193.544 158.252Z" fill="#FFB4A6"/>
<path fill-rule="evenodd" clip-rule="evenodd" d="M19.9077 -14.0844C23.4099 -16.5525 26.1395 -18.1205 27.2813 -17.9927C30.0833 -17.6773 41.2974 -6.18924 51.2529 4.43098C71.067 17.0531 99.9087 37.7073 104.383 53.8684L93.5323 46.6103L68.5451 99.4375L87.522 107.84C89.1285 116.391 92.1936 124.66 94.6186 132.995C94.911 133.999 97.4252 141.101 96.6359 141.971C95.031 143.737 83.2075 145.567 80.6486 146.138C76.928 146.967 73.1904 147.721 69.4175 148.276C67.1925 148.604 50.4036 151.232 48.771 149.543C47.3231 148.046 45.9182 134.253 45.6889 132.234C45.1642 127.624 44.815 122.994 44.5272 118.359C40.1526 115.345 35.8858 112.143 31.6128 109.187C13.4974 96.6494 -4.22242 83.5518 -22.0208 70.5712C-25.5229 68.0154 -45.2031 54.3085 -44.9984 49.5969C-44.4583 37.2057 -18.5986 18.6272 -10.3757 11.0059C-8.32309 9.10253 2.34021 -0.382126 11.8849 -7.9957L9.27213 -9.74368C11.3694 -11.387 13.8944 -14.0444 16.6364 -14.5629C17.4596 -14.7184 18.5875 -14.5229 19.9077 -14.0844Z" fill="#43B6B4"/>
<path fill-rule="evenodd" clip-rule="evenodd" d="M93.7258 116.976C92.3332 118.053 90.7961 118.911 88.8865 119.241C83.1625 120.23 76.0921 119.107 71.002 116.366C64.6117 112.926 63.7469 104.086 58.3507 101.67C55.5225 100.404 51.9127 100.999 48.8999 100.667C44.1652 100.144 32.0663 97.4448 30.1875 92.2455C29.3151 89.8328 29.649 86.9692 29.8982 84.4765C31.1154 72.3591 37.0764 72.7392 40.9555 63.7439C42.6588 59.794 41.9895 55.1224 44.4945 51.4818C50.1431 43.2758 61.8543 45.3854 69.9341 41.8802C78.574 38.1334 78.0755 29.0073 90.0775 28.4765C103.354 27.8902 113.921 36.5578 124.252 43.4866C129.818 47.2196 135.307 45.6747 139.652 48.4182C142.749 50.3755 143.914 55.6871 145.827 58.5722C147.635 61.3004 150.394 63.1761 152.44 65.7011C156.836 71.122 156.975 76.9661 155.902 83.0086C157.953 88.0171 157.287 94.0612 154.293 99.1851C150.44 105.779 143.62 113.501 135.93 115.454C132.491 116.326 128.882 115.971 125.405 115.552C123.569 115.331 121.406 115.003 119.435 114.34C115.876 117.36 111.173 119.352 105.52 119.721C101.262 119.995 97.5002 118.374 93.7258 116.976Z" fill="#142645"/>
<path fill-rule="evenodd" clip-rule="evenodd" d="M114.42 85.1783C114.037 83.2426 113.974 81.0253 112.26 79.402C109.867 77.137 106.031 77.2955 104.722 80.0451C102.064 85.6276 104.772 91.6532 108.689 96.5263L114.42 85.1783Z" fill="#FC9797"/>
<path fill-rule="evenodd" clip-rule="evenodd" d="M142.148 69.3188C142.352 69.3881 142.554 69.4635 142.754 69.545C145.465 70.6437 147.649 72.6132 149.701 74.6259C153.362 78.2111 156.096 81.9256 155.882 87.1387C155.676 92.1503 148.607 102.515 147.699 104.142C147.101 105.214 146.968 107.753 144.88 109.955C139.53 115.597 130.126 122.943 121.63 122.154C119.356 121.943 110.873 110.923 110.342 109.589C108.073 103.897 108.044 96.8573 108.819 94.4892C109.308 92.9935 111.053 87.3541 111.501 86.2109C112.18 84.4767 112.855 82.3425 113.037 82.3087C113.497 82.221 113.925 82.121 114.318 82.0086C115.457 77.7372 116.4 73.6457 120.115 70.319C124 66.8384 128.607 66.5861 133.702 67.1308C136.559 67.437 139.467 67.8678 142.042 69.2619C142.075 69.2788 142.111 69.2988 142.148 69.3188Z" fill="#FFB4A6"/>
<path fill-rule="evenodd" clip-rule="evenodd" d="M136.479 110.681C134.603 112.497 134.554 115.492 136.369 117.368C138.185 119.244 141.181 119.293 143.057 117.477C144.932 115.662 144.982 112.666 143.166 110.79C141.352 108.914 138.354 108.865 136.479 110.681Z" fill="#FC9797"/>
<path fill-rule="evenodd" clip-rule="evenodd" d="M131.29 63.7283L132.304 62.6143C134.829 62.982 136.837 63.8652 138.674 65.1301C150.119 66.3703 158.597 75.5349 158.331 87.5461C158.22 92.5315 157.653 97.7924 152.892 100.57C150.018 102.247 147.402 98.1694 147.188 95.8044C146.629 89.6618 148.799 82.4899 145.937 76.7028C144.835 74.4762 142.864 72.6621 140.656 72.399C138.539 73.8207 136.805 75.6149 134.283 76.5412C130.464 77.9445 126.406 76.7812 122.431 76.3381C121.29 79.7156 119.719 83.133 116.884 85.0826C112.501 88.1 109.24 84.6118 108.046 80.508C107.737 79.4432 107.304 78.0476 107.494 76.9166L111.824 75.6795C112.454 73.5715 113.818 71.6404 115.238 70.0401C117.321 67.692 120.017 65.8456 122.975 64.7823C124.763 64.1391 126.675 63.776 128.571 63.676C129.473 63.6283 130.387 63.6421 131.29 63.7283Z" fill="#142645"/>
<path fill-rule="evenodd" clip-rule="evenodd" d="M133.497 69.3893L135.576 65.9965C138.007 66.2011 140.512 66.4966 142.761 67.5013C148.632 70.1218 148.796 77.2245 145.531 82.0345C141.606 87.817 132.506 88.9357 127.43 84.238C125.802 85.8721 123.972 87.2708 121.918 88.3217C119.684 89.4665 116.723 90.3082 114.251 89.4358C110.078 87.9647 106.151 78.5647 106.477 74.481L133.497 69.3893Z" fill="#142645"/>
<path fill-rule="evenodd" clip-rule="evenodd" d="M133.366 104.666C132.901 105.551 132.64 106.599 132.615 107.594C132.603 108.093 132.646 108.584 132.731 109.073C132.748 109.17 132.781 109.293 132.795 109.415C132.801 109.462 132.817 109.51 132.792 109.547C132.738 109.625 132.641 109.65 132.544 109.673C132.386 109.709 132.217 109.713 132.086 109.721C131.858 109.733 131.627 109.736 131.4 109.733C131.081 109.729 130.752 109.719 130.439 109.661C130.273 109.63 130.113 109.744 130.081 109.916C130.049 110.089 130.156 110.253 130.323 110.284C130.669 110.349 131.03 110.361 131.381 110.366C131.623 110.369 131.866 110.366 132.107 110.352C132.304 110.341 132.571 110.329 132.798 110.255C133.001 110.189 133.177 110.076 133.292 109.905C133.383 109.772 133.42 109.607 133.414 109.433C133.408 109.265 133.358 109.085 133.335 108.951C133.257 108.505 133.217 108.056 133.229 107.602C133.252 106.705 133.486 105.76 133.905 104.963C133.986 104.809 133.931 104.617 133.783 104.535C133.632 104.452 133.446 104.511 133.366 104.666Z" fill="black"/>
<path fill-rule="evenodd" clip-rule="evenodd" d="M124.699 112.566C126.181 115.086 129.175 116.536 132.01 115.854C132.208 115.807 132.334 115.602 132.291 115.399C132.248 115.194 132.053 115.068 131.856 115.116C129.323 115.725 126.652 114.417 125.329 112.164C125.224 111.986 124.998 111.932 124.825 112.043C124.652 112.155 124.596 112.389 124.699 112.566Z" fill="black"/>
<path fill-rule="evenodd" clip-rule="evenodd" d="M119.214 95.3476C120.737 95.6 122.26 96.1416 123.694 96.6909C124.617 97.0448 125.53 97.4341 126.472 97.7403C126.955 97.8973 127.547 98.0942 128.061 97.9696C128.658 97.825 128.689 97.0418 128.434 96.5971C127.987 95.8216 126.947 95.3569 126.153 95.0553C124.534 94.4398 122.894 94.2044 121.171 94.2444C120.301 94.2644 119.452 94.2813 118.61 94.5229L119.214 95.3476ZM147.555 104.318C146.166 103.647 144.607 103.212 143.118 102.837C142.159 102.595 141.189 102.387 140.243 102.095C139.758 101.944 139.16 101.766 138.811 101.367C138.406 100.905 138.832 100.247 139.297 100.031C140.108 99.6545 141.226 99.873 142.05 100.084C143.727 100.513 145.204 101.266 146.59 102.289C147.289 102.806 147.975 103.309 148.523 103.991L147.555 104.318Z" fill="#142645"/>
<path fill-rule="evenodd" clip-rule="evenodd" d="M125.124 99.033C125.832 99.2577 126.193 100.113 125.93 100.944C125.667 101.775 124.879 102.267 124.172 102.043C123.464 101.818 123.102 100.963 123.365 100.132C123.628 99.3023 124.416 98.8099 125.124 99.033Z" fill="black"/>
<path fill-rule="evenodd" clip-rule="evenodd" d="M141.426 104.55C140.718 104.326 139.931 104.818 139.666 105.649C139.403 106.48 139.764 107.337 140.472 107.56C141.18 107.785 141.968 107.292 142.231 106.462C142.494 105.632 142.134 104.775 141.426 104.55Z" fill="black"/>
<path fill-rule="evenodd" clip-rule="evenodd" d="M112.774 101.224C110.898 103.04 110.849 106.036 112.664 107.911C114.48 109.787 117.476 109.836 119.352 108.021C121.227 106.205 121.276 103.209 119.461 101.333C117.645 99.4578 114.649 99.4101 112.774 101.224Z" fill="#FC9797"/>
<path fill-rule="evenodd" clip-rule="evenodd" d="M-31.9833 302.778C-32.4612 279.341 -22.6214 261.647 -7.44896 258.51C7.66325 255.387 28.112 266.693 28.8111 289.904C48.8056 278.219 69.1833 289.651 74.5387 304.175C79.9157 318.756 70.1618 336.499 50.0922 348.492C35.6049 357.739 9.86403 360.726 -10.3685 361L-10.5699 360.888C-21.0416 343.512 -32.1354 320.01 -31.9833 302.778ZM-10.2412 360.533C9.89068 360.249 35.4529 357.288 49.8473 348.098L49.8532 348.094C69.6928 336.237 79.4201 318.748 74.1052 304.334C68.7993 289.945 48.5154 278.665 28.7084 290.503L28.3589 290.309C27.8869 267.177 7.61783 255.87 -7.35516 258.965C-22.3528 262.066 -31.9932 279.602 -31.5213 302.773V302.779C-31.6743 319.901 -20.6526 343.237 -10.2412 360.533Z" fill="#2C2C2C"/>
<path fill-rule="evenodd" clip-rule="evenodd" d="M303.934 113.436C291.585 102.122 287.294 88.309 293.157 78.9204C298.997 69.5693 314.926 64.5772 327.267 75.665C331.09 59.5675 347.05 54.6742 357.198 59.0704C367.386 63.4838 371.745 77.2765 368.045 93.5649C365.678 105.613 354.525 120.39 344.687 130.982L344.529 131.031C330.384 127.873 312.765 122.014 303.934 113.436ZM344.508 130.686C354.291 120.141 365.37 105.469 367.72 93.4969L367.721 93.4919C371.379 77.3899 367.138 63.7361 357.067 59.3732C347.013 55.0179 331.178 59.9375 327.526 76.0133L327.253 76.0982C315.065 64.9325 299.224 69.8313 293.438 79.0962C287.643 88.3769 291.951 102.009 304.159 113.194L304.163 113.197C312.936 121.722 330.434 127.536 344.508 130.686Z" fill="#2C2C2C"/>
<path fill-rule="evenodd" clip-rule="evenodd" d="M309.173 589.593C306.742 577.31 310.272 567.088 317.96 564.028C325.618 560.98 337.425 565.025 339.951 577.168C349.381 569.163 361.162 573.281 365.329 580.422C369.513 587.592 366.033 597.831 356.592 606.005C349.832 612.215 336.571 616.18 325.955 618.205L325.839 618.165C318.715 610 310.695 598.67 309.173 589.593ZM325.979 617.948C336.541 615.926 349.71 611.992 356.427 605.82L356.429 605.817C365.762 597.737 369.252 587.633 365.116 580.546C360.987 573.471 349.27 569.425 339.953 577.493L339.751 577.423C337.352 565.301 325.64 561.239 318.052 564.258C310.452 567.284 307.012 577.404 309.415 589.547L309.416 589.55C310.927 598.57 318.894 609.819 325.979 617.948Z" fill="#2C2C2C"/>
<path fill-rule="evenodd" clip-rule="evenodd" d="M26.6875 343.557C31.3477 331.023 44.5534 328.6 52.2471 333.086C59.9941 337.603 62.1936 349.151 57.6714 361.971C54.632 371.461 44.3099 382.336 35.4341 389.957L35.2084 390C24.1972 386.138 10.6691 379.772 4.42559 372.038C-4.39597 361.741 -6.49587 350.174 -0.89909 343.134C4.66023 336.141 17.8393 333.577 26.6875 343.557ZM35.236 389.516C44.027 381.952 54.2278 371.213 57.2337 361.825L57.2356 361.818C61.6681 349.253 59.6096 337.916 52.0164 333.488C44.445 329.073 31.4088 331.554 26.9892 344.083C26.9616 344.161 26.8945 344.218 26.8137 344.234C26.7328 344.249 26.65 344.22 26.5958 344.157C17.9734 334.094 4.93233 336.544 -0.538262 343.425C-6.02462 350.325 -3.86951 361.644 4.77754 371.736L4.78149 371.741C10.957 379.393 24.3244 385.677 35.236 389.516Z" fill="#2C2C2C"/>
<path fill-rule="evenodd" clip-rule="evenodd" d="M588.335 359.171C598.638 350.646 611.286 355.15 615.706 362.882C620.156 370.668 616.287 381.768 605.961 390.61C598.584 397.308 584.207 401.565 572.709 403.728L572.493 403.652C564.887 394.802 556.355 382.525 554.815 372.705C552.324 359.376 556.289 348.309 564.656 345.011C572.967 341.735 585.662 346.103 588.335 359.171ZM572.758 403.246C584.154 401.091 598.357 396.892 605.654 390.264L605.66 390.259C615.781 381.594 619.667 370.747 615.305 363.115C610.955 355.506 598.425 351.136 588.333 359.777C588.27 359.831 588.184 359.847 588.106 359.82C588.028 359.792 587.971 359.726 587.955 359.645C585.519 346.619 573.001 342.219 564.823 345.443C556.621 348.676 552.828 359.556 555.271 372.619L555.272 372.626C556.794 382.341 565.228 394.466 572.758 403.246Z" fill="#2C2C2C"/>
</g>
<defs>
<clipPath id="clip0_130_4091">
<rect width="103" height="92" fill="white" transform="translate(14 609)"/>
</clipPath>
</defs>
</svg>
