<svg width="67" height="58" viewBox="0 0 67 58" fill="none" xmlns="http://www.w3.org/2000/svg">
<path d="M20.0917 32.1198C18.5046 32.1198 17.0264 32.3949 15.6953 32.9751C15.6462 32.8089 15.6031 32.6464 15.5657 32.4874C15.4735 31.6222 15.4275 30.7577 15.4275 29.8937C15.4275 27.344 16.0804 25.0035 17.3955 22.8328C18.894 20.5414 20.7394 18.548 22.94 16.8475L22.962 16.8305L22.9836 16.8128C25.2438 14.9636 27.5262 13.5491 29.829 12.5479L31.8442 11.6717L30.7827 9.74758L28.182 5.03385L27.3179 3.46766L25.6654 4.15229C17.8109 7.40629 11.8257 11.9028 7.87259 17.7162C3.96871 23.4572 2 29.7531 2 36.558C2 41.4795 3.29564 45.9338 5.91183 49.858L5.93136 49.8873L5.9519 49.9159C8.8582 53.9595 13.0688 55.95 18.3037 55.95C22.105 55.95 25.353 54.768 27.8451 52.2759C30.2962 49.8247 31.5191 46.7619 31.5191 43.2222C31.5191 39.8848 30.3339 37.0716 27.8738 35.0215C25.589 33.1176 22.9753 32.1198 20.0917 32.1198ZM51.7874 32.1198C50.2003 32.1198 48.7222 32.3949 47.3911 32.9751C47.342 32.8089 47.2989 32.6464 47.2614 32.4874C47.1692 31.6222 47.1232 30.7577 47.1232 29.8937C47.1232 27.344 47.7761 25.0035 49.0912 22.8328C50.5897 20.5414 52.4351 18.548 54.6358 16.8475L54.6578 16.8305L54.6794 16.8128C56.9395 14.9636 59.2219 13.5491 61.5247 12.5479L63.54 11.6717L62.4784 9.74758L59.8778 5.03385L59.0137 3.46766L57.3611 4.15229C49.5067 7.40629 43.5215 11.9028 39.5683 17.7162L41.2222 18.8408L39.5683 17.7162C35.6645 23.4572 33.6958 29.7531 33.6958 36.558C33.6958 41.4795 34.9914 45.9338 37.6076 49.858L37.6271 49.8873L37.6477 49.9159C40.554 53.9595 44.7645 55.95 49.9995 55.95C53.8008 55.95 57.0487 54.768 59.5408 52.2759C61.992 49.8247 63.2149 46.7619 63.2149 43.2222C63.2149 39.8848 62.0296 37.0716 59.5695 35.0215C57.2848 33.1176 54.6711 32.1198 51.7874 32.1198Z" fill="#43B6B4" stroke="white" stroke-width="4"/>
</svg>
