<svg width="1415" height="1600" viewBox="0 0 1415 1600" fill="none" xmlns="http://www.w3.org/2000/svg">
<circle opacity="0.6" cx="777" cy="1198" r="375.5" stroke="url(#paint0_linear_6_2)" stroke-width="53"/>
<path opacity="0.59" d="M669.5 327.5C669.5 161.262 804.262 26.5 970.5 26.5C1136.74 26.5 1271.5 161.262 1271.5 327.5C1271.5 493.738 1136.74 628.5 970.5 628.5C804.262 628.5 669.5 493.738 669.5 327.5Z" stroke="url(#paint1_linear_6_2)" stroke-width="53"/>
<path opacity="0.59" d="M26.5 593C26.5 400.529 182.529 244.5 375 244.5C567.471 244.5 723.5 400.529 723.5 593C723.5 785.471 567.471 941.5 375 941.5C182.529 941.5 26.5 785.471 26.5 593Z" stroke="url(#paint2_linear_6_2)" stroke-width="53"/>
<circle opacity="0.3" cx="772" cy="784" r="327.5" transform="rotate(45 772 784)" stroke="url(#paint3_linear_6_2)"/>
<circle opacity="0.23" cx="772" cy="784" r="384.5" transform="rotate(45 772 784)" stroke="url(#paint4_linear_6_2)"/>
<circle opacity="0.21" cx="772" cy="784" r="453.5" transform="rotate(45 772 784)" stroke="url(#paint5_linear_6_2)"/>
<defs>
<linearGradient id="paint0_linear_6_2" x1="777" y1="796" x2="777" y2="1600" gradientUnits="userSpaceOnUse">
<stop stop-color="#39A7AF"/>
<stop offset="1" stop-color="#43B3BB"/>
</linearGradient>
<linearGradient id="paint1_linear_6_2" x1="970.5" y1="655" x2="970.5" y2="3.24042e-05" gradientUnits="userSpaceOnUse">
<stop stop-color="#39A7AF"/>
<stop offset="1" stop-color="#43B3BB"/>
</linearGradient>
<linearGradient id="paint2_linear_6_2" x1="375" y1="968" x2="375" y2="218" gradientUnits="userSpaceOnUse">
<stop stop-color="#39A7AF"/>
<stop offset="1" stop-color="#43B3BB"/>
</linearGradient>
<linearGradient id="paint3_linear_6_2" x1="772" y1="456" x2="772" y2="1112" gradientUnits="userSpaceOnUse">
<stop stop-color="white" stop-opacity="0"/>
<stop offset="1" stop-color="white"/>
</linearGradient>
<linearGradient id="paint4_linear_6_2" x1="772" y1="399" x2="772" y2="1169" gradientUnits="userSpaceOnUse">
<stop stop-color="white" stop-opacity="0"/>
<stop offset="1" stop-color="white"/>
</linearGradient>
<linearGradient id="paint5_linear_6_2" x1="772" y1="330" x2="772" y2="1238" gradientUnits="userSpaceOnUse">
<stop stop-color="white" stop-opacity="0"/>
<stop offset="1" stop-color="white"/>
</linearGradient>
</defs>
</svg>
