<svg width="145" height="196" viewBox="0 0 145 196" fill="none" xmlns="http://www.w3.org/2000/svg">
<path d="M109.76 300.975C96.1266 257.017 69.6269 172.544 66.9275 167.463C63.9847 161.923 58.7715 161.459 58.5488 161.442L58.797 157.783C59.0984 157.802 66.2365 158.344 70.1649 165.742C73.6992 172.395 111.648 294.685 113.262 299.889L109.76 300.975Z" fill="#4D4D4D"/>
<path d="M72.3834 118.495L8.24219 299.821L11.6989 301.044L75.8401 119.717L72.3834 118.495Z" fill="#4D4D4D"/>
<path d="M42.4718 187.717C42.4718 187.717 41.7135 189.065 42.4718 190.859H72.7052C72.7052 190.859 73.4032 189.025 72.617 187.717H42.4718Z" fill="#323232"/>
<path d="M68.9855 187.717C68.9855 187.717 68.2271 189.064 68.9855 190.859H106.658C106.658 190.859 107.356 189.025 106.57 187.717H68.9855Z" fill="#282828"/>
<path d="M9.71011 87.9033C9.71011 87.9033 7.07104 88.9283 7.01074 90.5354C6.95276 92.1449 9.49676 91.7205 10.2389 91.4538C10.9833 91.1894 9.71011 87.9033 9.71011 87.9033Z" fill="#1A1A1A"/>
<path d="M0.0703125 57.8762C0.0703125 57.8762 1.09765 53.5396 4.5739 45.3812C8.05246 37.2228 10.8608 32.1394 15.0073 31.337C19.1537 30.5346 32.4442 32.4966 32.4442 32.4966L45.2801 38.1202C45.2801 38.1202 55.2125 43.4308 57.142 45.3812C59.9735 48.2452 60.3562 53.5303 60.8432 58.7574C61.3905 64.6385 61.8612 70.501 62.1094 73.8892C62.1882 74.9559 53.9997 76.7486 54.1342 77.1497C54.2687 77.5509 51.5253 104.505 52.1955 106.511C52.8634 108.517 9.12386 104.637 9.12386 104.637L8.45597 67.0503L7.38689 60.2277L0.0703125 57.8762Z" fill="#E74854"/>
<path d="M61.7771 69.5849C61.7563 69.3183 61.7331 69.0492 61.7122 68.7756C59.4511 68.2863 57.1251 68.1031 54.8061 68.2515C53.6813 68.3234 52.5612 68.4741 51.4551 68.6944C50.9588 68.7918 51.1698 69.5502 51.6638 69.4528C54.9986 68.7849 58.4655 68.8405 61.7771 69.5849Z" fill="#BB272D"/>
<path d="M19.7404 48.637C17.9385 53.4421 16.336 58.3191 14.933 63.254C14.7938 63.741 15.5522 63.9497 15.6913 63.4627C17.0943 58.5278 18.6991 53.6508 20.4987 48.8458C20.6749 48.3727 19.9143 48.1663 19.7404 48.637Z" fill="#BB272D"/>
<path d="M15.4406 56.1439C15.821 56.4732 16.3798 55.9212 15.9972 55.5873C12.6485 52.6839 8.07534 51.2553 3.66916 51.8235C3.05693 51.9023 2.44471 52.0183 1.86958 52.2247C1.74204 52.5795 1.62145 52.9204 1.50781 53.2428C2.14555 52.8787 2.89228 52.7163 3.61582 52.6166C4.62693 52.4751 5.6589 52.4543 6.67928 52.5262C8.72004 52.6723 10.7376 53.2474 12.5534 54.1889C13.5877 54.7269 14.5594 55.3809 15.4406 56.1439Z" fill="#BB272D"/>
<path d="M45.8571 38.431C45.4559 39.8781 45.1289 41.3692 44.3428 42.661C43.9555 43.2987 43.4569 43.8854 42.8261 44.2912C42.4968 44.5023 42.1165 44.7017 41.7176 44.7203C41.2515 44.7411 40.848 44.4629 40.4839 44.2078C39.1365 43.2639 38.0373 41.9977 37.0656 40.6828C36.0128 39.2589 35.0504 37.7678 34.0601 36.2998C33.1998 35.0243 32.3208 33.7442 31.6112 32.376C31.3538 32.3412 31.0407 32.2971 30.6836 32.2508C31.377 33.6816 32.2489 35.0151 33.1395 36.3369C34.2294 37.9533 35.2869 39.6021 36.4534 41.1675C37.5155 42.5914 38.7028 43.9411 40.1801 44.9475C40.9709 45.4855 41.7802 45.6618 42.6777 45.2652C43.4499 44.9243 44.09 44.3446 44.6002 43.6813C45.6901 42.2598 46.0983 40.5158 46.569 38.816C46.2884 38.6652 46.0519 38.5354 45.8571 38.431Z" fill="#BB272D"/>
<path d="M14.4434 31.4762C16.563 34.8713 18.5295 38.3638 20.3245 41.9421C21.0712 43.4286 21.7878 44.9313 22.4765 46.4456C22.6157 46.7518 23.0679 46.4851 22.9287 46.1813C20.6027 41.0678 17.9451 36.1097 14.9767 31.3417C14.7982 31.3788 14.6196 31.4252 14.4434 31.4762Z" fill="#BB272D"/>
<path d="M57.4541 45.7313C56.4708 48.1315 55.2881 50.4459 53.9106 52.6467C53.3262 53.5813 52.7047 54.4927 52.0554 55.3808C51.8559 55.6522 52.3105 55.9142 52.5076 55.6452C54.6481 52.7186 56.4314 49.5415 57.8275 46.1974C57.7092 46.0374 57.584 45.882 57.4541 45.7313Z" fill="#BB272D"/>
<path d="M56.8042 72.8317C56.8042 72.8317 61.8133 72.7552 62.0939 73.9518C62.3745 75.1461 56.7022 76.7486 56.0412 76.7741C55.3803 76.7973 56.8042 72.8317 56.8042 72.8317Z" fill="#1A1A1A"/>
<path d="M82.0791 107.715C80.8384 107.063 80.2772 104.804 79.2382 104.078C66.1774 94.9529 60.2082 90.6905 59.9415 89.3525C58.3692 81.4886 56.8061 72.8293 56.8061 72.8293C56.8061 72.8293 46.8319 72.7087 45.5077 78.5086C44.4201 83.2766 47.9149 92.4206 49.1255 96.3815C50.1342 99.6838 54.9463 102.367 58.7796 104.09C61.3491 105.245 65.2938 107.146 73.0534 110.356C74.2291 111.882 76.998 114.649 76.998 114.649L82.0791 107.715Z" fill="#EA956B"/>
<path d="M79.215 108.38C78.8741 108.26 78.5355 108.132 78.2015 107.998C78.1227 107.965 78.0438 107.933 77.965 107.9C77.9464 107.893 77.9302 107.886 77.9117 107.879C77.9093 107.877 77.8977 107.873 77.8769 107.866C77.8398 107.849 77.805 107.835 77.7679 107.819C77.5986 107.747 77.4316 107.671 77.2646 107.594C77.0791 107.508 76.8333 107.534 76.7266 107.736C76.6362 107.91 76.6686 108.181 76.8681 108.274C77.5684 108.596 78.2804 108.886 79.0062 109.141C79.201 109.208 79.4446 109.065 79.4886 108.867C79.5396 108.645 79.4237 108.455 79.215 108.38Z" fill="#DD825C"/>
<path d="M61.3358 89.9486C60.0626 88.9978 58.7779 88.0609 57.4839 87.1379C57.2543 86.9732 56.9018 87.0961 56.7673 87.3257C56.6142 87.5878 56.7232 87.8777 56.9551 88.0423C58.2492 88.9653 59.5339 89.9022 60.8071 90.853C61.0343 91.0223 61.3915 90.8901 61.5236 90.6652C61.6813 90.3961 61.5631 90.1179 61.3358 89.9486Z" fill="#DD825C"/>
<path d="M47.6997 198.028C47.6997 198.028 42.236 202.731 41.8534 203.491C41.4731 204.254 46.5564 211.879 47.5721 212.642C48.5879 213.405 49.4784 213.533 50.3689 214.041C51.2594 214.549 51.3847 215.947 51.5122 216.71C51.6397 217.473 39.1842 217.218 37.533 217.09C35.8818 216.963 28.5096 202.856 27.3663 201.077C26.223 199.299 33.848 195.231 35.3716 193.96C36.8976 192.689 40.3275 189.385 40.3275 189.385L47.6997 198.028Z" fill="#EA956B"/>
<path d="M50.3694 214.041C49.4788 213.533 48.5907 213.405 47.5726 212.642C46.5569 211.879 41.4735 204.254 41.8538 203.491C41.9559 203.285 42.4313 202.793 43.0667 202.183C42.9229 201.812 42.0069 199.558 40.7871 198.726C39.4559 197.817 37.3363 198.06 37.0349 198.12C36.8099 198.164 35.88 195.358 35.4185 193.923C35.4046 193.935 35.3883 193.948 35.3721 193.962C33.8462 195.233 26.2212 199.301 27.3668 201.079C28.51 202.858 35.8823 216.965 37.5334 217.092C39.1846 217.22 51.6402 217.473 51.5126 216.712C51.3851 215.947 51.2599 214.548 50.3694 214.041Z" fill="#6C4E4E"/>
<path d="M62.9525 19.1946C63.0522 19.3871 65.3226 18.8003 65.9882 18.2113C66.656 17.6246 66.2386 15.4308 66.2386 15.4308C66.2386 15.4308 67.6996 15.4053 67.5767 13.5431C67.4306 11.3539 65.1 9.11833 63.4998 7.98896C63.9938 7.66429 64.6547 7.04279 64.1747 6.04328C63.5949 4.83506 61.953 2.75951 55.3252 1.97799C55.3252 1.97799 55.6058 0.929786 54.5669 0.152906C53.4653 -0.670354 48.6208 2.06844 47.9158 2.71777C47.9158 2.71777 45.5435 2.04061 43.999 3.02852C42.7908 3.80076 44.0477 5.34524 44.0477 5.34524C44.0477 5.34524 39.5093 7.5182 37.2622 12.9332C36.3044 15.2429 37.7144 15.3682 38.4356 15.4679C38.4356 15.4679 36.5038 19.1296 37.2181 21.7015C37.9347 24.2733 40.1679 25.0873 41.1999 24.6814C42.2342 24.2802 62.9525 19.1946 62.9525 19.1946Z" fill="#4A3333"/>
<path d="M41.4149 25.9963C41.7024 26.0265 39.1816 30.2819 37.0203 31.4507C35.5523 32.2438 32.3984 32.5105 32.3984 32.5105C32.3984 32.5105 37.8528 41.3762 40.7331 43.2686C43.6133 45.1632 45.1277 39.0247 45.2784 38.1157C45.4291 37.2066 48.0056 34.0991 48.9147 32.5082C49.8237 30.922 41.4149 25.9963 41.4149 25.9963Z" fill="#E8936B"/>
<path d="M41.7306 26.1843C41.1903 27.1212 40.6778 28.0882 40.4876 29.1596C40.2835 30.3145 40.6128 31.4949 41.0627 32.5547C41.4894 33.5588 42.0762 34.5143 42.7742 35.3538C43.5372 36.2745 44.4253 37.0861 45.3993 37.7841C45.9327 36.6061 48.0987 33.9485 48.9173 32.5153C49.7197 31.1053 43.2426 27.0957 41.7306 26.1843Z" fill="#1A1A1A"/>
<path d="M64.0525 16.9336C63.5075 18.9582 58.7419 32.2045 55.0036 34.4587C53.0695 35.6251 49.1619 34.3195 47.4412 33.4429C42.1375 30.7389 38.8352 28.7097 40.8342 22.7823C40.8342 22.7823 36.8061 19.4521 39.3686 16.2518C40.6951 14.5937 42.7521 15.0854 43.6009 16.2657C44.1574 17.0403 44.2015 18.2787 44.2015 18.2787C44.2015 18.2787 45.2219 16.7783 46.7849 15.5724C47.8772 14.7305 50.1127 12.7709 51.0427 11.3447C53.8441 12.8637 55.4813 9.17411 61.1096 12.6156C61.476 12.8405 62.8072 13.7821 62.9417 14.1925C63.111 14.712 63.5075 16.0663 64.0525 16.9336Z" fill="#E8936B"/>
<path d="M50.8424 18.7261C50.7474 18.6217 50.6291 18.5544 50.4992 18.5034C50.4528 18.4849 50.4065 18.4802 50.3578 18.471C50.3091 18.4617 50.2627 18.4547 50.214 18.4571C49.9658 18.4663 49.7432 18.5568 49.5577 18.7214C49.502 18.7701 49.458 18.8327 49.4139 18.8884C49.393 18.9162 49.3745 18.9464 49.3582 18.9765C49.3258 19.0438 49.291 19.1133 49.2701 19.1852C49.2469 19.2594 49.2377 19.3383 49.2261 19.4171C49.2098 19.5331 49.2237 19.6514 49.2377 19.7673C49.2377 19.7696 49.2377 19.7719 49.24 19.7719C49.2377 19.7928 49.2353 19.8137 49.2377 19.8346C49.2446 19.9389 49.2539 19.9992 49.2887 20.092C49.3049 20.136 49.3188 20.1778 49.3443 20.2172C49.4209 20.3355 49.502 20.4213 49.6203 20.5001C49.7362 20.5767 49.8615 20.6068 49.996 20.6277C50.0447 20.6346 50.0864 20.63 50.1351 20.623C50.1885 20.6184 50.2372 20.6138 50.2882 20.5975C50.4389 20.5488 50.5456 20.4885 50.6685 20.3865C50.7474 20.3192 50.8146 20.2311 50.8726 20.1453C50.9306 20.0572 50.9746 19.9575 51.014 19.8601C51.0372 19.8044 51.0511 19.7441 51.0627 19.6838C51.0813 19.5818 51.0998 19.4844 51.0929 19.3824C51.0859 19.2826 51.079 19.1806 51.0465 19.0855C50.9955 18.9487 50.9445 18.8374 50.8424 18.7261Z" fill="#1A1A1A"/>
<path d="M60.795 22.7707C60.7532 22.7266 60.6999 22.6872 60.6512 22.6501C60.5978 22.6106 60.5329 22.5874 60.4749 22.5619C60.4541 22.5527 60.4309 22.5434 60.4077 22.5387C60.3427 22.5248 60.2755 22.5109 60.2082 22.5063C60.141 22.504 60.0691 22.5132 60.0042 22.5248C59.9671 22.5318 59.9299 22.5434 59.8952 22.5573C59.8488 22.555 59.8024 22.5573 59.7583 22.5689C59.6215 22.6083 59.5125 22.6849 59.4337 22.8031C59.3479 22.9353 59.2667 23.0721 59.218 23.2229C59.2087 23.2507 59.2018 23.2785 59.1971 23.3064C59.1855 23.3713 59.1693 23.4385 59.1693 23.5035C59.167 23.5707 59.1763 23.6403 59.1855 23.7075C59.1902 23.7354 59.1948 23.7609 59.2041 23.7864C59.2482 23.9255 59.2992 24.0253 59.3943 24.1366C59.436 24.1853 59.4916 24.2247 59.5427 24.2641C59.596 24.3035 59.6633 24.3267 59.7236 24.3522C59.763 24.3685 59.8047 24.3731 59.8465 24.3801C59.8928 24.387 59.9346 24.3963 59.981 24.394C60.0459 24.3893 60.1155 24.387 60.1781 24.3685C60.243 24.3499 60.3056 24.3244 60.3659 24.2966C60.4494 24.2595 60.5283 24.1969 60.5978 24.1412C60.6697 24.0832 60.7254 24.009 60.7834 23.9371C60.8181 23.8931 60.8483 23.849 60.8738 23.8003C60.9179 23.7168 60.9619 23.6264 60.9805 23.5336C60.9944 23.4687 61.0106 23.3991 61.0106 23.3319C61.0106 23.2646 61.006 23.1904 60.9874 23.1232C60.9503 22.9863 60.8877 22.8704 60.795 22.7707Z" fill="#1A1A1A"/>
<path d="M53.5939 25.8596L53.5034 25.8178C53.4362 25.797 53.3666 25.7946 53.2971 25.8109C53.086 25.8364 52.875 25.8642 52.664 25.8897C52.6106 25.9013 52.5642 25.9222 52.5248 25.957C52.4807 25.9825 52.446 26.0196 52.4205 26.066C52.3694 26.1472 52.3463 26.2677 52.3718 26.3628C52.3996 26.4602 52.4552 26.5553 52.548 26.6063L52.6384 26.6481C52.7057 26.6689 52.7753 26.6713 52.8448 26.655C53.0559 26.6295 53.2669 26.6017 53.4779 26.5762C53.5313 26.5646 53.5777 26.5437 53.6171 26.5089C53.6611 26.4834 53.6959 26.4463 53.7214 26.3999C53.7725 26.3188 53.7957 26.1982 53.7701 26.1031C53.7423 26.0057 53.6843 25.9106 53.5939 25.8596Z" fill="#D35C48"/>
<path d="M60.8923 19.8554C60.9271 19.8855 60.9642 19.9157 60.999 19.9458C61.0152 19.962 61.0338 19.976 61.05 19.9922C61.0918 20.0316 61.0848 20.0247 61.0292 19.9713C61.0639 19.9899 61.101 20.0409 61.1289 20.0687C61.1613 20.1012 61.1938 20.1336 61.2263 20.1684C61.3561 20.3006 61.4837 20.4328 61.6136 20.5627C61.8802 20.834 62.1469 21.1077 62.416 21.379C62.5134 21.4787 62.6177 21.5529 62.7615 21.5691C62.8914 21.5831 63.0537 21.5436 63.1534 21.4555C63.3482 21.2816 63.434 20.9268 63.2299 20.7181C62.954 20.4375 62.678 20.1568 62.402 19.8762C62.1122 19.5817 61.8315 19.271 61.5138 19.0089C61.3005 18.835 60.9341 18.8953 60.781 19.1226C60.614 19.3684 60.6651 19.6698 60.8923 19.8554Z" fill="#4A3333"/>
<path d="M49.6366 16.3839C50.8031 16.0871 51.9951 15.9688 53.1986 16.0314C53.4816 16.0453 53.7297 15.7972 53.7343 15.5212C53.7413 15.2314 53.5071 14.9994 53.2242 14.9855C51.9348 14.9183 50.6338 15.0505 49.3838 15.3682C49.1102 15.4378 48.9339 15.7276 49.0035 16.0036C49.0684 16.2772 49.3606 16.4535 49.6366 16.3839Z" fill="#4A3333"/>
<path d="M48.5092 14.1066C48.4257 14.3316 47.4215 16.7689 45.9652 17.5945C44.5111 18.4201 44.147 25.5604 44.6966 27.0121C45.2463 28.4638 48.1056 26.5947 49.0217 26.1054C49.9354 25.6137 55.7283 28.1716 56.1759 28.6146C56.6235 29.0575 56.2687 31.5157 56.5864 31.9911C56.9041 32.4665 57.085 32.3552 57.085 32.3552C57.085 32.3552 55.8536 34.709 54.7451 35.2447C53.6342 35.7827 50.0907 35.0383 46.6701 33.6492C43.2496 32.2601 41.0511 30.2356 40.5572 28.4291C40.0609 26.6225 43.7806 17.3579 44.3952 16.1822C45.0097 15.0041 48.5092 14.1066 48.5092 14.1066Z" fill="#4A3333"/>
<path d="M50.1109 27.7171L54.626 29.628C54.626 29.628 53.2207 30.9058 52.5969 30.9637C51.9731 31.0194 50.2454 30.5973 49.9508 30.1219C49.6563 29.6442 50.1109 27.7171 50.1109 27.7171Z" fill="white"/>
<path d="M75.4853 148.069C75.4853 148.069 79.764 152.899 80.8678 157.315C81.9717 161.73 82.1108 166.561 78.521 174.151C75.4552 180.635 55.465 199.612 49.7092 205.001C48.7282 205.919 46.2074 203.672 43.9603 200.386C41.7757 197.193 39.3129 193.51 38.0884 191.402C35.6047 187.124 44.2988 179.121 47.6104 175.394C50.922 171.667 56.3045 164.631 56.9933 163.664C57.6844 162.697 54.9363 160.619 54.9363 160.619L75.4853 148.069Z" fill="#43B6B4"/>
<path d="M50.6878 199.115C48.2041 196.868 46.1842 194.157 44.7325 191.142C45.3123 188.647 45.3633 188.116 45.9129 185.616C46.6944 182.049 47.3368 178.45 48.0673 174.872C47.9119 175.051 47.7588 175.224 47.6104 175.391C44.2988 179.118 35.6047 187.121 38.0884 191.4C39.1181 193.174 41.0243 196.061 42.9051 198.835C43.2321 197.32 44.1087 193.849 44.4565 192.339C45.899 195.092 47.8261 197.582 50.1335 199.669C50.5069 200.008 51.0658 199.454 50.6878 199.115Z" fill="#218583"/>
<path d="M5.89289 98.0837C5.89289 98.0837 4.61973 105.667 4.97455 113.466C5.54271 125.919 20.2246 174.663 20.0228 177.27C19.8211 179.879 19.2204 231.041 19.4199 232.447C19.6216 233.852 35.8735 233.852 37.4783 233.451C39.0831 233.05 43.4985 181.885 44.3009 173.659C45.1033 165.433 42.5152 147.131 42.5152 147.131C42.5152 147.131 53.9319 160.014 54.936 160.617C55.9402 161.22 75.2022 151.788 76.204 149.58C77.2081 147.373 57.9137 118.06 57.545 115.472C54.3354 93.0003 55.1448 74.7425 55.3372 66.1134C55.5831 55.1443 51.3624 41.499 51.3624 41.499C51.3624 41.499 48.2294 38.6141 46.7892 38.8623C46.7892 38.8623 48.8045 47.1181 48.8045 51.9347C48.8045 52.7812 30.8852 49.3049 30.6371 48.8086C30.389 48.3124 27.2861 32.8467 26.1381 31.6361C25.8158 31.2975 21.1963 30.8987 21.2635 31.1862C21.4745 32.0883 23.9629 40.2583 24.9949 53.0594C25.1873 55.4481 21.725 79.9001 19.5173 83.4459C18.4737 85.1202 14.0165 88.564 11.2986 89.865C8.26527 91.3167 7.01067 90.5375 7.01067 90.5375C7.01067 90.5375 6.02508 96.6111 5.89289 98.0837Z" fill="#43B6B4"/>
<path d="M49.0759 57.5653C49.0667 57.3426 48.9206 57.1131 48.691 57.0597C46.3325 56.5171 43.9509 56.0973 41.5506 55.7912C40.3911 55.6428 39.227 55.5106 38.0767 55.3019C36.9172 55.0909 32.3208 54.089 30.89 53.8664C30.6094 53.8223 30.3659 54.0867 30.3659 54.3905C30.3659 54.6502 30.621 54.8195 30.89 54.9146C32.1771 55.3668 36.3166 56.0208 37.4274 56.2411C39.7487 56.7003 42.1188 56.8742 44.4494 57.2731C45.653 57.4795 46.8497 57.723 48.0393 57.9897C48.1344 60.7748 48.1182 63.5646 47.9721 66.3475C47.935 67.078 47.8886 67.8085 47.8329 68.539C47.8121 68.8335 47.8097 69.1443 47.7541 69.4341C47.6938 69.7356 47.5152 69.833 47.2462 69.9536C45.8942 70.5566 41.4857 72.8246 40.1175 73.3951C39.8763 73.4948 39.6351 73.6339 39.3731 73.5528C39.0739 73.4623 38.784 73.2745 38.5057 73.133C37.9422 72.8478 31.7017 69.4179 31.2796 68.9564C31.057 68.7129 30.9758 68.5344 30.9851 68.1981C30.9944 67.834 31.0222 67.4699 31.0431 67.1058C31.2239 63.7896 31.4512 60.478 31.7272 57.1687C31.7828 56.4962 30.7346 56.5008 30.679 57.1687C30.4169 60.3273 30.1966 63.4881 30.0204 66.6513C29.9995 67.02 29.9809 67.3888 29.9601 67.7575C29.9392 68.1401 29.8905 68.5483 30.0204 68.9193C30.2314 69.5246 30.8552 69.949 31.5556 70.4383C32.6501 71.2036 36.8175 73.4484 37.4297 73.7615C37.9979 74.0514 38.6217 74.4758 39.2501 74.601C39.9714 74.7424 40.7181 74.2717 41.3628 74.0027C42.0863 73.7012 45.3516 71.8691 46.801 71.2662C47.4086 71.0134 48.2295 70.8117 48.582 70.1994C48.9182 69.6174 48.8626 68.8011 48.909 68.1517C49.1594 64.6291 49.2128 61.0949 49.0759 57.5653Z" fill="#218583"/>
<path d="M60.8575 166.333L55.5075 160.983C55.0298 160.505 54.29 161.248 54.7677 161.723L60.1177 167.073C60.5955 167.551 61.3352 166.811 60.8575 166.333Z" fill="#218583"/>
<path d="M22.0654 93.6984C22.0468 98.4988 22.0283 103.299 22.012 108.1C19.4332 110.354 16.8545 112.608 14.2757 114.862C13.7678 115.307 14.5099 116.045 15.0178 115.604L22.4689 109.092C22.6103 108.967 22.7796 108.849 22.9072 108.71C23.0788 108.524 23.0602 108.313 23.0626 108.079C23.0649 107.666 23.0649 107.251 23.0672 106.838C23.0695 105.989 23.0741 105.138 23.0765 104.289C23.0834 102.634 23.0881 100.978 23.095 99.3244C23.102 97.4506 23.1089 95.5768 23.1159 93.7053C23.1159 93.0235 22.07 93.0235 22.0654 93.6984Z" fill="#218583"/>
<path d="M58.7347 118.039C58.032 116.747 57.596 115.841 57.545 115.472C57.5172 115.279 57.4917 115.089 57.4662 114.897C56.5571 113.747 55.6248 112.557 54.9639 111.247C54.2381 109.809 54.2427 108.227 54.1801 106.655L53.9806 101.551L53.7557 95.7925C53.7302 95.12 52.682 95.1177 52.7075 95.7925C52.8443 99.3036 52.9811 102.817 53.118 106.328C53.1806 107.963 53.1504 109.653 53.7905 111.189C54.4027 112.657 55.4161 113.944 56.3809 115.196C57.1322 116.17 57.9184 117.118 58.7347 118.039Z" fill="#218583"/>
<path d="M69.9088 164.738C65.8644 159.831 61.8037 154.937 57.8103 149.989C53.8563 145.086 49.9766 140.123 46.2823 135.022C44.2045 132.153 42.1846 129.242 40.2459 126.279C40.0627 125.998 39.6081 126.26 39.7937 126.543C43.2676 131.847 46.992 136.979 50.8532 142.006C54.6819 146.988 58.6405 151.869 62.6293 156.723C64.9298 159.522 67.2349 162.314 69.54 165.109C69.7534 165.369 70.1221 164.995 69.9088 164.738Z" fill="#218583"/>
<path d="M70.5041 166.609C70.2699 166.366 69.8988 166.737 70.1331 166.98C70.4902 167.349 70.3279 167.975 69.929 168.249C69.4211 168.596 68.7811 168.453 68.257 168.232C67.8071 168.045 67.2992 167.836 66.84 168.114C66.5687 168.279 66.4296 168.557 66.3994 168.865C66.3345 169.54 66.7821 170.224 66.6406 170.888C66.5432 171.347 66.0724 171.275 65.7246 171.161C65.2909 171.02 64.8503 170.825 64.3865 170.934C63.4774 171.147 63.2571 172.226 62.9116 172.947C62.6402 173.513 62.2228 173.984 61.7984 174.438C61.3137 174.958 60.8267 175.475 60.3421 175.994C58.4358 178.03 56.5296 180.064 54.6233 182.1C52.448 184.422 50.2751 186.743 48.0998 189.064C47.8702 189.31 48.239 189.681 48.4709 189.435C52.462 185.175 56.4554 180.913 60.4464 176.653C60.9381 176.129 61.4297 175.602 61.9213 175.078C62.3434 174.628 62.7794 174.178 63.1156 173.657C63.4078 173.207 63.5609 172.703 63.7882 172.223C63.9876 171.804 64.2682 171.375 64.7923 171.43C65.2724 171.481 65.6967 171.785 66.1884 171.783C66.5617 171.783 66.9073 171.579 67.0696 171.24C67.3827 170.584 66.9769 169.819 66.9212 169.153C66.8748 168.592 67.2041 168.39 67.7537 168.587C68.3428 168.798 68.8553 169.053 69.5023 168.954C70.0542 168.87 70.5366 168.545 70.7476 168.019C70.9401 167.534 70.8705 166.989 70.5041 166.609Z" fill="#218583"/>
<path d="M33.4601 159.573C32.769 155.061 32.2334 150.527 31.5307 146.016C31.3568 144.901 31.1736 143.785 30.9741 142.672C30.8721 142.106 30.7677 141.54 30.6564 140.975C30.5567 140.464 30.4987 139.912 30.3178 139.423C29.9514 138.428 28.9844 138.514 28.1124 138.646C26.9598 138.823 25.805 138.983 24.6501 139.129C21.9762 139.463 19.2908 139.713 16.6007 139.88C15.949 136.817 15.3275 133.748 14.7362 130.673C13.9199 126.418 13.1638 122.151 12.4681 117.872C12.4148 117.541 11.9092 117.682 11.9626 118.011C13.1569 125.344 14.5274 132.647 16.0719 139.912C14.379 140.012 12.6861 140.079 10.9909 140.112C10.817 140.114 10.643 140.117 10.4668 140.119C10.534 140.386 10.6013 140.65 10.6709 140.917C16.0882 140.861 20.6404 140.362 22.3496 140.179C23.4372 140.063 24.5225 139.933 25.6078 139.79C26.656 139.65 27.7043 139.444 28.7548 139.34C29.1884 139.298 29.4946 139.358 29.6175 139.815C29.7497 140.302 29.8262 140.81 29.9236 141.306C30.13 142.373 30.3201 143.444 30.4987 144.516C30.5219 144.662 30.5451 144.808 30.5683 144.954C29.3415 145.717 27.8712 145.93 26.4705 146.167C24.8263 146.445 23.1775 146.677 21.5194 146.86C18.4768 147.199 15.4133 147.378 12.3522 147.401C12.4218 147.66 12.489 147.922 12.5586 148.182C17.1178 148.136 21.6724 147.744 26.176 147.009C27.7019 146.758 29.3322 146.554 30.7051 145.791C31.3173 149.664 31.802 153.555 32.3586 157.438C32.514 158.514 32.674 159.59 32.8433 160.666C32.9291 161.213 33.0195 161.76 33.1123 162.307C33.1517 162.539 33.2259 162.794 33.212 163.031C33.1958 163.295 33.0102 163.442 32.827 163.608C31.3475 164.94 29.7659 166.155 28.1078 167.254C27.2799 167.801 26.4334 168.318 25.5684 168.805C25.144 169.044 24.7312 169.306 24.2837 169.499C23.8129 169.701 23.7456 169.784 23.4697 169.791C23.2192 169.807 22.9688 169.749 22.7229 169.696C21.1553 169.346 19.5876 168.993 18.0222 168.643C18.0988 168.933 18.173 169.218 18.2472 169.499C19.249 169.724 20.2485 169.949 21.2504 170.171C21.8139 170.299 22.3797 170.452 22.9502 170.545C23.2076 170.586 23.4488 170.586 23.6854 170.547C24.1561 172.198 24.6338 173.849 25.1232 175.496C25.2182 175.818 25.7238 175.681 25.6287 175.357C25.1394 173.71 24.6617 172.059 24.1909 170.408C24.2674 170.378 24.344 170.348 24.4205 170.311C25.3667 169.863 26.2804 169.323 27.1732 168.778C28.9473 167.699 30.6378 166.486 32.2334 165.158C32.6369 164.821 33.0381 164.48 33.4253 164.126C33.7871 163.794 34.0213 163.425 33.9935 162.92C33.9657 162.372 33.8219 161.818 33.7315 161.278C33.6364 160.71 33.5482 160.142 33.4601 159.573Z" fill="#218583"/>
<path d="M35.0244 228.92C36.221 228.859 37.4153 228.773 38.6096 228.662C38.6491 228.402 38.6885 228.136 38.7302 227.86C33.4127 228.361 28.051 228.358 22.7358 227.83C22.6987 227.825 22.6639 227.823 22.6268 227.818C22.6268 227.816 22.6268 227.816 22.6268 227.813C23.0419 220.768 23.4593 213.725 23.8744 206.68C24.2895 199.639 24.7 192.599 25.1221 185.558C25.1754 184.651 25.2357 183.74 25.4352 182.852C25.5349 182.411 25.6833 181.994 25.8387 181.572C25.9662 181.221 26.0613 180.857 25.9894 180.482C25.8572 179.777 25.2427 179.35 24.8739 178.777C24.7116 178.524 24.6838 178.265 24.8044 177.982C24.8763 177.815 25.0803 177.483 25.2821 177.669C25.5302 177.896 25.9013 177.525 25.6531 177.298C25.2775 176.954 24.8136 177.07 24.5168 177.453C24.2153 177.84 24.1017 178.401 24.3174 178.854C24.598 179.443 25.2357 179.823 25.4444 180.452C25.5673 180.823 25.4259 181.189 25.296 181.537C25.143 181.94 25.0131 182.346 24.9203 182.771C24.5562 184.44 24.5632 186.196 24.4635 187.896L24.1388 193.376L22.8378 215.42C22.5943 219.534 22.3531 223.648 22.1096 227.762C21.2006 227.665 20.2938 227.547 19.3871 227.419C19.3871 227.69 19.3848 227.955 19.3848 228.208C24.5609 228.929 29.8019 229.179 35.0244 228.92Z" fill="#218583"/>
<path d="M44.4357 152.442C43.7237 147.691 42.9979 142.944 42.2558 138.196C41.516 133.473 40.7623 128.749 39.9924 124.029C39.5541 121.349 39.1111 118.668 38.6636 115.987C38.6172 115.709 38.2716 115.551 38.0189 115.621C37.722 115.702 37.6061 115.985 37.6525 116.265C38.4433 121.003 39.2201 125.743 39.9785 130.488C40.7345 135.209 41.4766 139.933 42.2024 144.662C42.6152 147.347 43.021 150.035 43.4246 152.721C43.4663 153.001 43.8188 153.154 44.0693 153.087C44.3707 153.004 44.4774 152.723 44.4357 152.442Z" fill="#DDE5E5"/>
<path d="M4.84204 56.0813C4.84204 56.0813 0.716463 55.9375 0.0694495 57.8763C-0.447697 59.4254 2.00353 61.378 4.75392 61.5914C7.32574 61.7885 4.84204 56.0813 4.84204 56.0813Z" fill="#1A1A1A"/>
<path d="M36.455 67.2894C36.455 67.2894 44.799 66.6887 45.6269 66.2365C46.4548 65.7843 45.5526 64.1308 45.9283 63.8317C46.304 63.5302 47.2803 62.7046 46.6055 61.726C45.9283 60.7497 47.0554 60.4482 46.907 59.3211C46.7562 58.1941 45.7799 58.419 45.8541 57.7419C45.9283 57.0647 46.3805 56.0884 45.8541 55.6362C45.3277 55.1863 43.76 55.2698 42.5448 55.1329C41.3413 54.9961 42.1413 52.7443 42.517 52.0672C42.8927 51.39 42.7652 49.6855 41.9373 49.0849C41.1094 48.4842 40.5505 48.6327 40.1748 49.3098C39.7991 49.987 39.9498 49.987 39.5741 51.114C39.1985 52.2411 36.9838 53.7578 36.1582 54.5833C35.3303 55.4112 35.0311 56.7632 34.2032 57.2154C33.3753 57.6677 14.8253 66.7653 13.9997 66.9902L14.7465 63.885C14.7465 63.885 15.3865 62.0437 13.6751 60.0076C10.9038 56.7122 5.67436 56.0814 4.84878 56.0814C4.84878 56.0814 -0.20674 70.5987 0.319683 76.387C0.846106 82.1753 4.83022 84.506 11.5207 82.1753C18.2042 79.8447 35.6271 67.5909 36.455 67.2894Z" fill="#EA956B"/>
<path d="M14.9866 65.7867C11.5336 66.9995 8.38662 68.1335 5.09589 69.3232C4.30974 69.6084 4.62744 70.6937 5.42751 70.3923C8.702 69.1539 11.9069 67.9364 15.1489 66.6169C15.6104 66.429 15.4643 65.6174 14.9866 65.7867Z" fill="#DD825C"/>
<path d="M100.347 120.228L96.885 119.018C96.8965 118.985 98.0259 115.75 98.6637 113.605C99.0023 112.46 98.7866 111.785 98.6567 111.643C96.7041 111.409 81.832 111.664 79.084 112.237C78.1563 113.531 76.0994 118.807 75.7956 119.832C75.8048 119.797 75.8559 119.614 75.8559 119.37H72.1895C72.1895 118.881 72.7646 117.258 73.8986 114.544C75.6727 110.298 76.4635 109.514 77.0641 109.113C77.5743 108.775 78.3442 108.26 88.5155 107.986C88.9074 107.975 98.1512 107.731 99.5565 108.081C100.533 108.325 101.358 108.965 101.88 109.881C102.608 111.156 102.715 112.849 102.182 114.649C101.518 116.88 100.394 120.094 100.347 120.228Z" fill="#4D4D4D"/>
<path d="M78.9679 108.427C80.1181 108.758 81.0388 108.638 82.4232 108.315C83.3161 108.107 83.8819 108.288 85.1226 108.176C86.3633 108.065 86.6578 107.655 86.7598 107.325C87.1286 106.126 86.4537 105.468 85.8717 105.519C85.0855 105.586 83.5665 105.217 82.2145 104.872C81.0851 104.584 80.4613 103.677 77.9869 103.209C75.204 102.685 76.7369 107.784 78.9679 108.427Z" fill="#EA956B"/>
<path d="M86.5504 111.578C86.5504 111.578 86.1979 112.675 85.2726 113.12C84.3473 113.563 82.2532 111.785 81.808 110.528C81.365 109.271 82.571 108.826 83.6447 109.454C84.7161 110.082 86.3208 111.571 86.3208 111.571L86.5504 111.578Z" fill="#EA956B"/>
<path d="M84.2622 112.972C84.2622 112.972 83.3022 114.303 82.4511 114.303C81.6 114.303 81.1941 114.043 80.677 114.415C80.1598 114.783 79.9743 114.452 79.3088 114.82C78.6432 115.189 78.1191 116.031 77.3631 115.164C76.4981 114.171 76.5143 113.005 76.8738 112.752C77.3422 112.422 77.9405 112.749 77.9405 112.749C77.9405 112.749 77.2611 111.959 77.4837 111.07C77.7063 110.182 78.5899 110.711 78.8102 110.342C79.0328 109.974 78.8658 109.403 79.6427 109.146C80.4196 108.888 81.8226 109.83 82.6714 110.753C83.5225 111.678 84.2622 112.972 84.2622 112.972Z" fill="#EA956B"/>
<path d="M97.0983 118.493L32.957 299.82L36.4137 301.042L100.555 119.716L97.0983 118.493Z" fill="#4D4D4D"/>
<path d="M135.999 300.975C122.365 257.017 95.8652 172.544 93.1658 167.463C90.223 161.922 85.0097 161.459 84.7871 161.442L85.0352 157.783C85.3367 157.801 92.4747 158.344 96.4032 165.742C99.9374 172.395 137.886 294.685 139.5 299.889L135.999 300.975Z" fill="#4D4D4D"/>
</svg>
