<svg width="185" height="196" viewBox="0 0 185 196" fill="none" xmlns="http://www.w3.org/2000/svg">
<path d="M167.563 133.007C175.843 118.008 180.916 101.275 183.054 84.2929C185.395 65.7038 184.269 46.0313 175.242 29.2558C166.9 13.7548 152.076 2.71227 134.503 0.423227C125.984 -0.686218 117.278 0.407638 109.248 3.44497C101.089 6.53167 94.38 11.6021 88.3126 17.7846C82.8203 23.3825 77.0262 28.9063 68.7256 29.0869C64.0624 29.1883 59.5028 27.9112 54.9677 27.0044C50.7501 26.1613 46.5273 25.7911 42.2552 26.4211C25.5452 28.8856 12.9752 42.5704 7.01142 57.7038C3.72383 66.0468 2.01268 74.9392 1.08391 83.8356C0.0929745 93.3256 -0.163507 102.91 0.0929714 112.446C0.223801 117.31 0.634428 122.999 1.26008 129.101C4.44793 160.178 22.3237 191.692 52.89 195.478C54.6102 195.691 60.2981 196.247 61.9911 195.875L88.9123 189.969C98.9292 187.562 125.115 175.631 133.766 170.04C148.005 160.841 159.387 147.82 167.563 133.007Z" fill="#C4FFFE"/>
</svg>
