<svg width="166" height="41" viewBox="0 0 166 41" fill="none" xmlns="http://www.w3.org/2000/svg">
<path fill-rule="evenodd" clip-rule="evenodd" d="M44.8972 1.43488C44.9005 3.48802 45.306 4.83562 46.1964 5.75407C47.2163 6.806 48.3371 7.55716 48.6223 7.37964C48.7693 7.28803 48.8085 7.31457 48.726 7.44923C48.5579 7.72288 49.3098 8.14534 49.6325 7.95859C49.7644 7.88211 49.8044 7.89489 49.7213 7.98689C49.4866 8.24678 50.6032 8.65411 50.9016 8.41742C51.0841 8.27253 51.1204 8.29809 51.0382 8.51394C50.9182 8.82867 52.4214 9.44674 55.1559 10.2065L56.5355 10.5901L56.1674 9.8407C55.7963 9.08502 54.853 8.53399 54.3882 8.80115C54.2664 8.87133 54.233 8.85502 54.314 8.76498C54.3952 8.67514 53.8188 8.24069 53.0333 7.79974C52.2479 7.3588 51.2256 6.68844 50.7617 6.31002C50.2977 5.93159 49.82 5.65145 49.7 5.68743C49.5801 5.7236 49.5487 5.68586 49.6301 5.60388C49.8314 5.4012 48.9879 4.52128 48.7402 4.6754C48.6319 4.74283 48.5987 4.70784 48.6664 4.59736C48.8228 4.34239 48.139 3.70309 47.9222 3.90144C47.833 3.98283 47.8089 3.96081 47.8687 3.85269C48.0049 3.60539 47.5267 3.14066 47.3243 3.32387C47.2419 3.39858 47.2282 3.36457 47.2936 3.24878C47.359 3.13279 46.846 2.35431 46.1537 1.51902L44.8949 0L44.8972 1.43488ZM119.889 0.451755C119.76 0.581501 119.655 0.737984 119.655 0.799318C119.655 0.86085 119.132 1.47793 118.493 2.1709C117.855 2.86406 117.378 3.50591 117.434 3.59752C117.49 3.68913 117.464 3.75145 117.375 3.73592C116.988 3.66829 116.89 3.77425 117.103 4.03178C117.263 4.2264 117.269 4.34809 117.122 4.4395C117.006 4.51125 116.925 4.4971 116.94 4.40785C117.032 3.87785 116.788 4.01684 115.6 5.17218C114.872 5.8793 113.709 6.82075 113.013 7.26464C112.318 7.70833 111.641 8.16343 111.509 8.27607C111.377 8.38852 111.201 8.47403 111.119 8.46597C111.036 8.45791 110.573 8.64015 110.09 8.87114C109.494 9.15599 109.11 9.50611 108.896 9.96003L108.581 10.6292L109.091 10.5067C109.372 10.4393 109.725 10.2858 109.876 10.1655C110.027 10.0451 110.18 9.96887 110.218 9.996C110.255 10.0231 110.307 10.0391 110.334 10.0316C110.361 10.0241 110.607 9.98775 110.882 9.95079C111.698 9.8407 115.556 8.25189 115.556 8.02582C115.556 7.91101 115.611 7.87307 115.679 7.94129C115.862 8.12529 116.561 7.69713 116.429 7.48186C116.367 7.38043 116.438 7.34465 116.588 7.40244C116.835 7.49779 119.098 5.954 119.376 5.50028C119.44 5.3955 119.376 5.159 119.232 4.97441C119.001 4.67717 119.008 4.66774 119.292 4.89106C119.569 5.10966 119.643 5.05757 119.844 4.49789C120.064 3.88355 120.372 0.215851 120.203 0.215851C120.159 0.215851 120.018 0.322008 119.889 0.451755ZM45.6999 2.43079C45.507 2.62344 45.4848 2.60083 45.5905 2.3207C45.6639 2.12686 45.7731 2.01776 45.8332 2.07831C45.8933 2.13866 45.8334 2.2973 45.6999 2.43079ZM115.753 3.95472C114.949 4.70961 114.381 5.32709 114.49 5.32709C114.598 5.32709 115.298 4.70784 116.043 3.95098C116.789 3.19413 117.358 2.57665 117.307 2.57862C117.256 2.58078 116.557 3.20003 115.753 3.95472ZM49.5579 4.32057C51.9418 6.64421 54.5518 8.16775 57.4584 8.93208C58.0479 9.08718 59.7049 9.21791 61.3965 9.24268C66.1393 9.31228 68.3991 9.85957 70.8519 11.5331C72.4937 12.6533 72.5814 12.7305 73.4004 13.7803C74.8056 15.5814 75.0574 16.2286 74.4181 16.3972C74.2304 16.4468 74.45 16.4829 74.9061 16.4776C75.7742 16.4676 75.8891 16.3725 75.5034 15.984C75.3758 15.8554 75.2545 15.6362 75.2342 15.4971C75.1398 14.8487 73.619 12.9841 72.0947 11.6475C71.2406 10.8985 69.5976 10.0017 69.4157 10.1851C69.3489 10.2523 69.2943 10.1989 69.2943 10.0664C69.2943 9.93388 69.2064 9.88002 69.0991 9.94686C68.9917 10.0137 68.9039 9.99089 68.9039 9.89614C68.9039 9.71036 67.1678 9.11176 66.1261 8.93817C65.7751 8.87959 63.7312 8.76007 61.5841 8.67219C57.3958 8.50097 56.2308 8.2861 54.1169 7.2953C52.502 6.53825 51.0687 5.56417 49.8651 4.40588C49.3242 3.88532 48.7094 3.33685 48.4988 3.18705C48.288 3.03725 48.7646 3.54739 49.5579 4.32057ZM113.263 6.06743C112.808 6.36309 112.435 6.67547 112.434 6.76177C112.433 6.84807 112.828 6.6448 113.311 6.31002C113.794 5.97523 114.189 5.66148 114.189 5.61253C114.189 5.47374 114.143 5.49635 113.263 6.06743ZM45.3805 6.11343C45.449 6.38374 45.5273 6.73759 45.5544 6.89977C45.6854 7.67963 45.9294 8.2627 46.0846 8.16598C46.1793 8.10701 46.199 8.21061 46.1283 8.39618C46.0416 8.62364 46.0735 8.68772 46.2259 8.59277C46.37 8.50313 46.4127 8.55503 46.3438 8.73569C46.1732 9.18371 47.3338 10.3471 48.4217 10.8185C49.7744 11.4045 51.936 11.9418 53.5811 12.1008C56.5666 12.3896 57.0282 12.3963 56.9128 12.1498C56.8519 12.0195 56.751 11.7704 56.6888 11.5966C56.5755 11.2803 53.0564 10.0957 52.5563 10.2054C52.4222 10.2349 52.3123 10.1763 52.3123 10.075C52.3123 9.97398 52.1028 9.83814 51.8467 9.77347C51.5908 9.70879 50.7782 9.37518 50.0412 9.03194C49.3041 8.6889 48.6352 8.42253 48.5548 8.44022C48.4744 8.45791 48.4084 8.384 48.4084 8.27588C48.4084 8.16775 48.326 8.07929 48.2253 8.07929C47.8884 8.07929 45.9152 6.61079 45.5837 6.11343L45.2562 5.62196L45.3805 6.11343ZM118.386 7.10324C117.634 7.72524 116.963 8.20039 116.895 8.15891C116.827 8.11762 116.651 8.23223 116.505 8.41407C116.279 8.6948 116.28 8.71957 116.513 8.57803C116.695 8.46755 116.742 8.48504 116.653 8.63012C116.579 8.75024 116.399 8.80214 116.253 8.74552C116.106 8.6889 115.41 8.9138 114.705 9.24544C114.001 9.57727 113.333 9.84856 113.221 9.84856C113.11 9.84856 113.018 9.94233 113.018 10.0567C113.018 10.1712 112.941 10.2172 112.847 10.1586C112.753 10.1002 112.292 10.1761 111.822 10.3274C111.353 10.4788 110.459 10.7562 109.836 10.9439C108.971 11.2044 108.635 11.4161 108.418 11.839L108.134 12.3928L109.454 12.3012C110.179 12.2508 111.037 12.1612 111.359 12.102C111.681 12.0429 112.12 11.9949 112.335 11.9955C112.949 11.9974 116.141 11.2074 116.141 11.0534C116.141 10.9774 116.327 10.9011 116.553 10.884C116.78 10.8667 117.116 10.7151 117.301 10.5472C117.485 10.3791 117.739 10.2417 117.864 10.2417C117.99 10.2417 118.093 10.1668 118.093 10.0752C118.093 9.98362 118.272 9.70132 118.49 9.44772C118.708 9.19432 118.841 8.86662 118.785 8.71937C118.729 8.57233 118.764 8.50215 118.862 8.56348C119.139 8.73589 119.324 7.89745 119.076 7.59588C118.911 7.39556 118.914 7.29118 119.09 7.18187C119.233 7.09243 119.274 7.11857 119.194 7.24891C119.122 7.36627 119.148 7.51528 119.252 7.58016C119.418 7.68376 119.971 6.15255 119.814 6.0228C119.78 5.99489 119.137 6.48105 118.386 7.10324ZM47.7195 6.28289C47.5544 6.4492 47.0309 6.48714 47.1301 6.32555C47.1796 6.24495 47.3557 6.17889 47.5214 6.17889C47.6871 6.17889 47.7763 6.22568 47.7195 6.28289ZM111.847 6.99807C111.709 7.16556 111.554 7.25992 111.502 7.20782C111.45 7.15573 111.046 7.29943 110.603 7.52708C110.16 7.75453 109.753 7.94305 109.7 7.94581C109.646 7.94856 109.207 8.07359 108.724 8.22358C108.184 8.39127 106.146 8.56584 103.442 8.67593C99.8476 8.82219 98.7896 8.93247 97.6836 9.2761C96.076 9.77563 94.084 10.7531 94.084 11.0424C94.084 11.1555 93.9962 11.1932 93.8888 11.1264C93.7815 11.0595 93.6936 11.0882 93.6936 11.1901C93.6936 11.2921 93.5092 11.424 93.2835 11.4834C93.0228 11.5522 92.9271 11.6788 93.021 11.8315C93.1063 11.9705 93.0872 12.0212 92.9759 11.9518C92.7075 11.7849 90.8826 13.6902 91.0499 13.9629C91.1261 14.0868 91.0773 14.1595 90.9385 14.1292C90.6998 14.0769 89.5926 15.8401 89.6145 16.2376C89.6205 16.3457 89.668 16.3286 89.7203 16.1995C89.7724 16.0705 89.933 16.0105 90.0775 16.0662C90.3101 16.1562 90.5087 15.8444 90.5943 15.2547C90.6102 15.1466 90.7868 14.9425 90.9871 14.8012C91.1873 14.66 91.3513 14.4379 91.3513 14.3079C91.3513 14.1778 91.5344 13.9564 91.7581 13.8157C91.9974 13.6651 92.1188 13.4392 92.053 13.2666C91.9916 13.1054 92.0132 13.0181 92.1009 13.0728C92.1885 13.1274 92.5215 12.933 92.8409 12.6407C93.5847 11.9595 94.7256 11.2046 95.9482 10.5844C97.5618 9.7656 99.5241 9.42964 103.551 9.28259C105.591 9.20828 107.388 9.06753 107.544 8.97002C107.7 8.87251 108.068 8.76616 108.361 8.73392C108.987 8.66472 111.134 7.71364 111.229 7.46319C111.265 7.36824 111.362 7.33246 111.444 7.38377C111.641 7.50624 112.369 6.9674 112.216 6.81288C112.151 6.74722 111.985 6.83057 111.847 6.99807ZM56.997 9.57963C56.997 9.64804 57.1789 10.0001 57.4012 10.3624C57.9015 11.1777 58.8634 11.8895 59.2587 11.7368C59.4273 11.6715 59.5033 11.7061 59.4353 11.817C59.279 12.0718 60.2077 12.4423 61.1937 12.5188C61.6231 12.552 62.0184 12.5911 62.072 12.6059C62.1257 12.6204 63.7726 12.6342 65.732 12.6363C67.6913 12.6385 69.2943 12.7004 69.2943 12.774C69.2943 12.988 70.5014 13.3869 70.7381 13.2511C70.8564 13.1831 70.888 13.2002 70.8082 13.2888C70.7284 13.3775 70.842 13.5764 71.0606 13.7305C71.3938 13.9655 71.5123 13.9684 71.7914 13.7482C72.0813 13.5196 72.0943 13.5245 71.8917 13.7868C71.6973 14.0386 71.8345 14.2252 72.7227 14.9171C73.3077 15.3732 73.8267 15.7461 73.8761 15.7461C73.9255 15.7461 73.7972 15.4585 73.5911 15.1072C73.0711 14.221 71.5203 12.725 71.2778 12.876C71.1679 12.9444 71.0145 12.8968 70.9368 12.7702C70.8486 12.6265 70.88 12.5927 71.0208 12.6804C71.1447 12.7574 71.2462 12.7268 71.2462 12.6124C71.2462 12.498 71.1646 12.4042 71.0649 12.4042C70.9653 12.4042 70.7614 12.2809 70.6118 12.1305C70.2246 11.7403 68.5845 10.9388 67.4399 10.5799C66.0199 10.1348 63.0714 9.83441 60.603 9.88336C59.4191 9.90695 58.3432 9.85918 58.2119 9.7774C58.0772 9.69365 57.9729 9.72589 57.9729 9.85092C57.9729 9.97949 57.8435 9.94292 57.6663 9.76423C57.3553 9.45126 56.997 9.35238 56.997 9.57963ZM107.922 9.54169C107.708 9.75715 106.51 9.87176 104.598 9.85977C102.394 9.84601 98.8798 10.1484 98.5052 10.3841C98.3817 10.4617 98.1129 10.5516 97.9075 10.5836C97.7024 10.6158 97.2257 10.8342 96.8482 11.0692C96.4654 11.3076 96.2353 11.377 96.3276 11.2266C96.4186 11.0782 96.0171 11.2369 95.435 11.5791C94.8529 11.9214 94.401 12.2978 94.4305 12.4156C94.46 12.5335 94.4075 12.5823 94.3136 12.5239C94.0831 12.3804 93.2656 13.1667 93.4067 13.3965C93.4694 13.4988 93.3706 13.522 93.1818 13.449C92.9269 13.3505 92.8746 13.3963 92.9666 13.6378C93.0503 13.8571 93.004 13.9244 92.8186 13.8526C92.541 13.7453 91.1128 15.5165 91.2701 15.7731C91.3156 15.8472 91.6568 15.6366 92.0284 15.3054C92.3999 14.9741 92.6669 14.6429 92.6218 14.5694C92.5766 14.4959 92.646 14.4355 92.7762 14.4355C92.9062 14.4355 93.3749 14.2053 93.8174 13.924C95.6466 12.761 95.8896 12.7079 99.5495 12.6713C101.428 12.6527 103.009 12.6242 103.063 12.6082C103.117 12.5923 103.512 12.552 103.941 12.5188C104.902 12.4445 105.857 12.0739 105.71 11.8331C105.649 11.7348 105.765 11.6978 105.965 11.7507C106.396 11.8642 107.48 10.9673 108.003 10.0644C108.294 9.56115 108.242 9.22008 107.922 9.54169ZM117.898 9.7715C117.898 9.93408 117.519 10.0261 117.432 9.88454C117.375 9.79273 117.457 9.71744 117.614 9.71744C117.77 9.71744 117.898 9.74182 117.898 9.7715ZM47.0448 11.4266C47.5681 12.4598 48.5938 13.613 48.8486 13.4543C48.9663 13.3812 48.9969 13.4199 48.9202 13.545C48.7416 13.8359 49.8431 14.4005 50.2992 14.2519C50.5944 14.1556 50.6045 14.1715 50.3603 14.3484C50.1478 14.5021 50.8971 14.5379 53.0931 14.4791C54.7571 14.4343 56.4504 14.3954 56.8558 14.3923C57.8757 14.3844 58.0219 14.2493 57.6964 13.6153C57.4284 13.0932 57.3524 13.073 54.7503 12.8259C51.6617 12.5325 49.3662 12.0016 47.7756 11.2125L46.6546 10.6563L47.0448 11.4266ZM117.898 10.986C117.629 11.1677 117.366 11.3621 117.312 11.4179C117.259 11.4737 117.083 11.5404 116.922 11.5661C116.761 11.5917 115.795 11.8378 114.775 12.1132C113.755 12.3886 112.613 12.6477 112.237 12.6892C111.861 12.7307 111.027 12.8312 110.383 12.9124C109.739 12.9935 109.048 13.038 108.849 13.011C108.177 12.9202 107.621 13.1779 107.391 13.6865C107.067 14.4011 107.071 14.4054 108 14.3478C108.46 14.3193 108.928 14.3523 109.038 14.4212C109.262 14.5601 113.314 14.627 114.384 14.5094C115.51 14.3856 116.617 13.6857 116.626 13.0922C116.628 12.9841 116.717 12.8943 116.824 12.8927C117.209 12.8866 117.532 12.5557 117.425 12.2758C117.366 12.1189 117.4 12.0425 117.502 12.106C117.604 12.1695 117.869 11.8646 118.09 11.4281C118.31 10.9919 118.468 10.6396 118.439 10.6451C118.41 10.6508 118.166 10.8042 117.898 10.986ZM57.9197 12.2359C58.11 12.6299 58.3452 12.9037 58.4424 12.8445C58.5394 12.7852 58.5601 12.8323 58.4883 12.9495C58.2948 13.2646 59.4041 14.8047 60.1353 15.2358C60.8628 15.6648 63.1142 15.7255 64.6149 15.3567C65.4376 15.1544 68.8082 15.0846 69.671 15.2521C69.8884 15.2942 70.644 15.6064 71.3501 15.9457C72.3705 16.4364 72.6912 16.5148 72.914 16.3288C73.2515 16.0465 73.0779 15.6752 72.6803 15.8287C72.5245 15.8891 72.449 15.8537 72.5122 15.7505C72.662 15.5067 71.2359 14.4528 69.9212 13.8359C69.0747 13.4386 68.8356 13.396 68.5925 13.599C68.3507 13.8013 68.3072 13.7956 68.3562 13.5678C68.4055 13.3368 67.6933 13.2656 64.2192 13.1544C59.5583 13.0049 59.051 12.9658 58.8246 12.7378C58.7385 12.6511 58.841 12.6346 59.0524 12.7012C59.264 12.7679 59.1734 12.6696 58.8513 12.483C58.5293 12.2963 58.2476 12.1801 58.2253 12.2247C58.2031 12.2693 58.0475 12.129 57.8794 11.9127C57.6464 11.6131 57.6561 11.69 57.9197 12.2359ZM106.911 12.08C105.731 13.0529 104.599 13.2811 101.152 13.2408C98.992 13.2157 98.0133 13.2694 98.0984 13.4083C98.1675 13.5208 98.0469 13.5013 97.8306 13.3653C97.5142 13.1663 97.271 13.1663 96.5901 13.3657C95.3487 13.729 94.0667 14.3793 94.1912 14.5822C94.2507 14.6793 94.1852 14.7152 94.0454 14.662C93.9056 14.6087 93.396 14.9156 92.9129 15.3439C92.0491 16.1096 92.0433 16.1226 92.5672 16.1309C92.8602 16.1356 93.754 15.9182 94.5535 15.6478C96.3018 15.0567 98.23 15.0034 101.064 15.4678C103.31 15.8358 104.455 15.7267 105.32 15.0618C106.093 14.4679 106.851 13.2817 106.658 12.9672C106.578 12.8367 106.6 12.7889 106.709 12.8569C106.816 12.923 107.047 12.6713 107.224 12.2974C107.401 11.9237 107.526 11.621 107.501 11.6249C107.475 11.6288 107.21 11.8335 106.911 12.08ZM48.6036 14.7449C48.6036 14.843 49.0424 15.3207 49.5788 15.8065C50.731 16.8498 51.9687 17.2337 53.4969 17.0222C54.0444 16.9463 54.7267 16.8559 55.0128 16.8215C55.9931 16.7031 57.4305 16.3845 58.0454 16.1489C58.3056 16.0493 58.5714 16.0212 58.636 16.0864C58.7008 16.1515 58.7537 16.1047 58.7537 15.9824C58.7537 15.8602 58.5755 15.664 58.3579 15.5466C58.1402 15.4292 58.0098 15.2553 58.0682 15.1601C58.1268 15.065 58.0852 14.9315 57.9761 14.8635C57.867 14.7956 57.7778 14.8214 57.7778 14.9209C57.7778 15.0205 57.5488 15.0577 57.2691 15.0038C56.9568 14.9439 56.694 15.0113 56.5888 15.1786C56.4945 15.3286 56.4161 15.3628 56.4145 15.2547C56.4126 15.131 55.1145 15.0581 52.9168 15.0581C50.6457 15.0581 49.4597 15.1269 49.5296 15.2547C49.5887 15.3628 49.4449 15.2521 49.2102 15.0089C48.7484 14.5303 48.6036 14.4672 48.6036 14.7449ZM116.459 14.705C116.383 14.7813 116.083 14.8753 115.792 14.9138C115.501 14.9523 115.237 15.0575 115.205 15.1475C115.173 15.2376 114.997 15.2802 114.814 15.2423C114.631 15.2045 112.821 15.1326 110.792 15.0829C107.19 14.9944 107.093 15.0025 106.748 15.4182C106.324 15.9294 106.281 16.2201 106.65 16.0774C106.798 16.0202 106.996 16.0477 107.09 16.1383C107.183 16.2292 107.54 16.3463 107.882 16.3988C108.224 16.4515 108.576 16.5386 108.663 16.5926C108.75 16.6465 109.348 16.7444 109.992 16.8099C110.637 16.8755 111.413 16.9813 111.718 17.0452C112.41 17.1903 114.037 16.9587 113.9 16.7348C113.844 16.6438 113.954 16.6103 114.145 16.6605C114.372 16.7202 114.895 16.377 115.658 15.6681C116.299 15.072 116.773 14.5804 116.71 14.5755C116.648 14.5706 116.535 14.6289 116.459 14.705ZM93.3033 15.6691C93.3033 15.8317 92.9242 15.9237 92.8373 15.7821C92.7809 15.6903 92.8627 15.615 93.0191 15.615C93.1754 15.615 93.3033 15.6394 93.3033 15.6691ZM64.512 16.0328C63.2776 16.3003 60.6499 16.3125 60.0713 16.0536C59.5273 15.81 59.6721 16.167 60.5232 17.1669C61.7488 18.6071 62.3238 18.6865 65.2656 17.8221C67.6911 17.1095 69.0618 16.9697 70.2535 17.3139C70.801 17.4722 70.9612 17.4462 71.1675 17.1665C71.5103 16.7014 71.2187 16.4476 69.8931 16.0579C68.6296 15.6864 66.1641 15.675 64.512 16.0328ZM96.036 15.9292C96.036 16.0575 95.9523 16.1104 95.8498 16.0465C95.595 15.8881 94.6009 16.1546 94.8018 16.3276C94.8902 16.4037 95.4894 16.6084 96.1336 16.7821C96.7777 16.9561 98.4027 17.4163 99.7447 17.8048C101.087 18.1934 102.404 18.4708 102.673 18.4211C102.941 18.3715 103.233 18.3244 103.321 18.3163C103.41 18.3082 103.915 17.8614 104.444 17.323C105.437 16.3125 105.711 15.7642 105.043 16.1242C104.608 16.3587 100.934 16.2952 100.534 16.0461C100.07 15.7577 96.036 15.6526 96.036 15.9292ZM57.2898 17.0495C56.0161 17.4218 55.5406 17.4842 53.1089 17.5964C51.9428 17.6501 50.9016 17.6062 50.6689 17.4934C50.2641 17.2972 50.4011 17.4352 51.5649 18.3953C52.071 18.8129 52.7023 19.1186 52.7056 18.9475C52.7074 18.8626 52.7841 18.9131 52.8762 19.0596C53.0718 19.3706 55.4231 19.613 55.9597 19.3777C56.1543 19.2922 56.3796 19.2363 56.4602 19.2534C56.5408 19.2707 56.6066 19.2184 56.6068 19.1372C56.6068 19.0563 56.8457 18.9759 57.1375 18.9587C57.4293 18.9416 57.6985 18.8361 57.7356 18.724C57.7727 18.6122 57.9435 18.5748 58.1152 18.6411C58.3393 18.7278 58.3823 18.6882 58.2677 18.5013C58.1635 18.3318 58.1834 18.288 58.3245 18.3759C58.4438 18.4502 58.8572 18.378 59.2433 18.2155L59.945 17.9202L59.508 17.3245C59.021 16.6612 58.7377 16.6263 57.2898 17.0495ZM105.634 17.33L105.18 17.9094L106.103 18.308C106.611 18.5272 107.166 18.735 107.338 18.77C107.51 18.8048 107.87 18.9247 108.138 19.0364C108.476 19.177 108.704 19.1758 108.881 19.0323C109.069 18.8797 109.12 18.8964 109.076 19.0954C109.011 19.3922 110.62 19.7303 110.789 19.4553C110.841 19.3708 111.014 19.3523 111.173 19.414C111.517 19.5469 112.628 19.1209 112.628 18.8561C112.628 18.7547 112.705 18.7197 112.799 18.7783C112.961 18.8793 114.775 17.6108 114.775 17.3965C114.775 17.341 114.675 17.3576 114.554 17.433C114.241 17.6275 110.886 17.8463 110.997 17.665C111.048 17.5826 110.798 17.5148 110.443 17.514C110.088 17.5133 109.067 17.3363 108.175 17.1209C107.282 16.9054 106.448 16.734 106.32 16.7399C106.193 16.746 105.884 17.0116 105.634 17.33ZM66.1711 18.2157C63.9621 18.9501 62.6092 19.2279 62.018 19.0686C61.7256 18.99 61.4865 18.9601 61.4865 19.0022C61.4865 19.0445 61.9266 19.4294 62.4644 19.8575C63.2543 20.4864 63.6016 20.6362 64.2699 20.6372C65.2057 20.6384 66.1711 20.3223 66.1711 20.0144C66.1711 19.9014 66.2256 19.8638 66.2922 19.9309C66.3589 19.9979 66.9517 19.7771 67.6097 19.44C68.3763 19.0476 69.1161 18.8211 69.6683 18.8103C70.1424 18.8009 70.5582 18.7048 70.5923 18.5966C70.8783 17.6906 68.3944 17.4765 66.1711 18.2157ZM89.3018 18.1119C87.9473 18.3898 87.0082 18.8732 87.1419 19.2241C87.2348 19.4679 87.2034 19.4885 86.9994 19.3181C86.6791 19.0504 85.8037 19.5815 86.0104 19.9183C86.0904 20.0488 86.0502 20.075 85.9065 19.9857C85.6128 19.8027 84.2675 21.1955 84.4502 21.4933C84.5249 21.615 84.4884 21.6476 84.3643 21.5704C84.1119 21.4133 83.6649 22.1507 83.8396 22.4356C83.905 22.5421 83.8258 22.6807 83.6636 22.7434C83.3321 22.8716 82.671 24.6772 82.8492 24.9676C82.9124 25.0708 82.875 25.2106 82.7658 25.2786C82.3132 25.5603 82.4612 26.1379 84.8812 33.5372C85.058 34.0778 85.2466 34.5643 85.3003 34.6184C85.3539 34.6725 85.3979 34.8051 85.3979 34.9133C85.3979 35.3322 85.9411 36.9662 86.0566 36.8949C86.1238 36.8534 86.19 37.0541 86.204 37.3407C86.2179 37.6275 86.414 38.3496 86.6397 38.9452C87.034 39.9862 87.0978 40.0477 88.2735 40.5179C89.3699 40.9565 89.7708 41.0066 92.1321 40.9994C94.8984 40.9907 96.6639 40.6418 97.3288 39.9724C97.5031 39.7969 97.7968 39.6419 97.9817 39.6282C98.4527 39.5932 99.5772 38.7544 99.4441 38.5373C99.3836 38.4386 99.4857 38.4166 99.6709 38.4882C99.9258 38.5867 99.9781 38.5409 99.8862 38.2995C99.8029 38.0807 99.8489 38.013 100.032 38.0838C100.61 38.3071 100.729 37.4225 100.676 33.2969L100.623 29.2123H96.2312H91.8393V30.8833V32.5542L93.4985 32.5822C94.411 32.5977 95.1797 32.6639 95.2064 32.7296C95.2332 32.7955 95.2552 33.6498 95.2552 34.6284V36.4077L94.5709 36.6957C93.5351 37.1315 91.7766 37.256 90.7657 36.9648C90.2826 36.8259 89.7556 36.7358 89.5946 36.7651C89.4335 36.7944 89.3625 36.7561 89.4366 36.6802C89.5108 36.6041 89.357 36.3092 89.0951 36.0246C88.0242 34.8616 87.9401 34.4432 87.8727 29.9442C87.82 26.4398 87.863 25.6008 88.1366 24.771C88.5704 23.4558 89.6404 22.3418 90.7657 22.0341C91.9533 21.7094 93.7491 22.0302 94.2995 22.6656C94.833 23.2815 95.4408 24.5927 95.4461 25.139C95.4504 25.5847 95.4647 25.5868 97.92 25.5322C100.312 25.4789 100.392 25.4632 100.456 25.0348C100.493 24.7916 100.426 24.5925 100.308 24.5925C100.19 24.5925 100.141 24.4665 100.2 24.3124C100.34 23.945 99.9758 22.6133 99.6272 22.2176C99.4767 22.0465 99.3904 21.8696 99.4353 21.8242C99.7582 21.499 97.0258 18.7382 96.627 18.9865C96.541 19.0399 96.3669 18.9578 96.2398 18.8036C95.6638 18.1048 91.406 17.6802 89.3018 18.1119ZM99.528 18.8821C99.9096 19.2656 100.297 19.5552 100.388 19.5255C100.48 19.4958 100.508 19.5477 100.451 19.6409C100.29 19.903 100.898 20.6608 101.269 20.66C101.737 20.659 102.909 19.9041 102.777 19.6885C102.716 19.5894 102.769 19.4445 102.895 19.3663C103.05 19.2694 103.072 19.3122 102.962 19.4999C102.873 19.6519 102.992 19.6077 103.225 19.4017C103.458 19.1956 103.649 19.0106 103.649 18.9906C103.649 18.9703 103.254 19.0142 102.772 19.0879C102.289 19.1616 101.848 19.175 101.791 19.1176C101.734 19.0602 101.045 18.8266 100.261 18.5988L98.8343 18.1844L99.528 18.8821ZM72.4174 18.493C72.4174 18.7985 72.3782 18.9381 72.1121 19.5796C71.9774 19.9039 71.857 20.2348 71.8443 20.3148C71.8316 20.3946 71.7809 20.5715 71.7319 20.708C71.1525 22.3141 70.6817 24.0745 70.7858 24.2442C70.8693 24.3804 70.8234 24.3989 70.6577 24.2957C70.474 24.1814 70.4326 24.2227 70.5146 24.438C70.5781 24.6047 70.5517 24.8202 70.4557 24.9169C70.3598 25.0134 70.2484 25.2674 70.208 25.4813C70.1678 25.6954 70.0233 26.1357 69.8871 26.4601C69.7508 26.7844 69.6277 27.2844 69.6132 27.5712C69.5988 27.8578 69.5359 28.0609 69.4734 28.0223C69.2837 27.9052 68.6776 30.0826 68.8272 30.3442C68.9037 30.4785 68.8906 30.5188 68.7981 30.4339C68.5945 30.2471 68.0936 31.8487 68.2623 32.1473C68.3275 32.2631 68.3066 32.2896 68.2156 32.2063C68.0852 32.087 66.6037 36.2271 66.2972 37.5672C66.2601 37.7294 66.1793 37.9948 66.1177 38.1569C65.9242 38.6659 65.5776 39.8507 65.4934 40.2907C65.4142 40.7049 65.4593 40.7126 67.9904 40.7126H70.5679L70.9427 39.3948C71.1486 38.6702 71.3329 37.9403 71.3518 37.773C71.4193 37.1766 71.8263 36.3875 72.0709 36.3786C72.2077 36.3735 73.6676 36.3774 75.3149 36.3875C77.1079 36.3981 78.4069 36.3242 78.5518 36.2031C78.722 36.0607 78.7946 36.0727 78.7966 36.2434C78.7981 36.3769 79.0376 37.2821 79.3288 38.2552C79.6201 39.2283 79.9029 40.1792 79.9574 40.3685C80.0452 40.6744 80.3499 40.7126 82.6991 40.7126C85.0289 40.7126 85.328 40.6758 85.2235 40.4016C85.1584 40.2305 85.1051 40.0043 85.1051 39.8985C85.1051 39.7929 85.0182 39.7605 84.912 39.8265C84.8027 39.8946 84.768 39.8185 84.8318 39.651C84.8939 39.4884 84.8734 39.2405 84.7863 39.1002C84.6993 38.9598 84.6104 38.7274 84.5888 38.5839C84.5673 38.4402 84.4857 38.1748 84.4076 37.9942C84.3296 37.8133 84.2331 37.4885 84.1935 37.2723C84.1539 37.0561 83.8267 35.9945 83.4664 34.9133C83.1063 33.832 82.2628 31.2224 81.5923 29.114C80.9218 27.0056 80.2824 25.0594 80.1711 24.7891C80.0599 24.5188 79.9365 24.1038 79.8967 23.8669C79.857 23.63 79.6941 23.1218 79.5346 22.7375C79.3751 22.3532 79.2352 21.972 79.2236 21.8904C79.2119 21.8088 79.1171 21.5209 79.0126 21.2505C78.9084 20.9802 78.7886 20.5776 78.7466 20.3559C78.7044 20.1341 78.55 19.6034 78.4034 19.1764L78.1368 18.4001L75.2772 18.3456C73.416 18.3102 72.4174 18.3617 72.4174 18.493ZM53.5727 18.6814C53.6345 18.782 53.6103 18.9108 53.5192 18.9676C53.428 19.0244 53.3533 18.942 53.3533 18.7846C53.3533 18.4531 53.4149 18.4242 53.5727 18.6814ZM57.4038 19.5397C55.1161 20.3107 55.0175 20.3651 55.647 20.5094C57.0188 20.8238 59.2605 20.7143 60.2216 20.2861L61.1322 19.8805L60.5435 19.2876C60.2198 18.9617 59.9263 18.7012 59.8911 18.7089C59.856 18.7166 58.7367 19.0903 57.4038 19.5397ZM67.5375 18.7692C67.5375 18.8099 67.3837 18.9648 67.1959 19.1133C66.8863 19.3576 66.8795 19.3507 67.1221 19.039C67.3773 18.7114 67.5375 18.6074 67.5375 18.7692ZM105.187 18.8424C105.174 18.9234 105.174 19.0563 105.187 19.1372C105.2 19.2182 105.144 19.266 105.064 19.243C104.983 19.22 104.726 19.3258 104.493 19.4777C104.108 19.728 104.098 19.7765 104.387 19.9889C104.638 20.1738 104.81 20.1613 105.202 19.9299C105.662 19.6576 105.671 19.6592 105.322 19.9499C105.115 20.1225 105.006 20.324 105.079 20.398C105.247 20.5668 106.758 20.7034 108.04 20.6661C109.104 20.635 110.592 20.3352 110.041 20.2631C109.502 20.1927 109.419 20.1707 109.212 20.0447C109.002 19.9175 107.763 19.6676 107.477 19.695C107.381 19.704 107.25 19.6315 107.184 19.5338C107.079 19.3771 105.55 18.6949 105.304 18.6949C105.252 18.6949 105.2 18.7614 105.187 18.8424ZM69.4895 19.4929C69.4895 19.6073 69.4069 19.6496 69.3058 19.5868C69.2049 19.5239 68.5082 19.7488 67.7581 20.0868C66.7163 20.5558 66.4181 20.7776 66.4961 21.0249C66.5711 21.2627 66.5504 21.2818 66.4179 21.0964C66.2205 20.8204 65.5213 20.9869 65.6945 21.2688C65.753 21.3644 65.6867 21.4003 65.5469 21.3486C65.4072 21.2971 64.9133 21.3695 64.4497 21.5096L63.6065 21.7644L64.4497 22.1873C65.8916 22.9103 66.073 22.8757 67.3505 21.6359C68.028 20.9781 68.653 20.5692 69.2099 20.4192C69.9741 20.2134 70.426 19.7038 70.119 19.3944C69.9314 19.2057 69.4895 19.2747 69.4895 19.4929ZM53.4835 20.5422C53.4835 20.6836 54.55 21.4159 54.8559 21.4845C55.0052 21.5181 55.2857 21.6858 55.4791 21.8572C56.1114 22.4179 57.2494 22.6583 59.7789 22.7654C61.7191 22.8476 62.3406 22.8114 62.5979 22.6013C62.8823 22.3689 62.904 22.3725 62.7552 22.6266C62.612 22.8714 62.6336 22.88 62.8821 22.6776C63.0468 22.5433 63.2401 22.4763 63.3115 22.5284C63.3832 22.5806 63.3642 22.5291 63.2698 22.4141C63.1751 22.2991 62.2741 22.1641 61.2673 22.114C59.0264 22.0027 58.1596 21.9174 57.7778 21.7711C57.6167 21.7094 56.7426 21.4721 55.8352 21.2439C54.9279 21.0156 54.0275 20.7436 53.8344 20.6396C53.6414 20.5356 53.4835 20.4917 53.4835 20.5422ZM60.6229 20.9065C60.4437 21.1497 60.3453 21.2464 60.4041 21.1214C60.4851 20.9492 60.3331 20.9492 59.7787 21.1214L59.0465 21.3488L60.2177 21.488C60.8618 21.5647 61.6364 21.5785 61.9387 21.5187L62.4884 21.4102L61.8519 20.9372C61.0715 20.3573 61.0279 20.3563 60.6229 20.9065ZM103.198 20.962C102.553 21.5334 102.734 21.582 105.064 21.4642C105.793 21.4273 105.838 21.4 105.436 21.2378C105.185 21.1361 104.886 21.1114 104.772 21.1823C104.658 21.2533 104.619 21.222 104.686 21.1131C104.753 21.004 104.587 20.8135 104.317 20.6895C103.72 20.4156 103.851 20.3836 103.198 20.962ZM110.676 20.8318C110.193 21.0082 109.753 21.1965 109.7 21.2505C109.646 21.3046 109.34 21.3775 109.019 21.4127C108.698 21.4479 108.391 21.5364 108.336 21.6093C108.281 21.6822 108.016 21.7524 107.748 21.7652C107.479 21.7778 106.276 21.9172 105.073 22.0748C103.871 22.2325 102.932 22.2883 102.986 22.1991C103.147 21.9368 102.411 22.0255 102.034 22.3139C101.709 22.562 101.715 22.5858 102.131 22.6982C103.511 23.0705 108.896 22.6728 108.617 22.2191C108.557 22.1214 108.642 22.0929 108.804 22.1558C109.085 22.2643 111.319 21.0435 111.561 20.6492C111.623 20.5476 111.648 20.4748 111.614 20.4878C111.581 20.5008 111.159 20.6557 110.676 20.8318ZM69.0991 21.088C68.8307 21.1886 68.2402 21.6362 67.787 22.0827C67.0975 22.7617 67.0017 22.9447 67.2014 23.2028C67.4071 23.469 67.3966 23.4773 67.1247 23.2634C66.8694 23.0629 66.7079 23.0686 66.2773 23.2937C65.771 23.5583 65.7649 23.5779 66.1516 23.7016C66.3751 23.7731 66.6603 23.768 66.7852 23.6902C66.9265 23.6023 66.9597 23.6345 66.8729 23.7757C66.7882 23.9141 66.8715 24.0086 67.0868 24.0179C67.281 24.0261 67.5867 24.0615 67.7659 24.0963C68.3335 24.207 68.8369 23.6619 69.2874 22.4483C69.8018 21.0632 69.7703 20.8365 69.0991 21.088ZM68.4055 23.2331C68.3427 23.3355 68.2082 23.3676 68.1065 23.3043C68.0048 23.241 67.973 23.1055 68.0358 23.0031C68.0987 22.9007 68.2332 22.8686 68.3349 22.9319C68.4366 22.9952 68.4684 23.1307 68.4055 23.2331ZM57.3874 23.3709C57.3874 23.6169 57.9472 23.8453 58.1857 23.6969C58.2835 23.6361 58.3633 23.6766 58.3633 23.7869C58.3633 24.0584 60.2058 24.5925 61.1417 24.5925C62.1228 24.5925 64.6096 24.0222 64.6096 23.7973C64.6096 23.4271 63.7513 23.1761 62.8743 23.2897C61.5817 23.4574 58.1316 23.4714 57.729 23.3108C57.541 23.2357 57.3874 23.2628 57.3874 23.3709ZM101.892 23.4621C101.892 23.5431 101.975 23.6096 102.076 23.6096C102.177 23.6096 102.228 23.7769 102.189 23.9813C102.108 24.4052 102.717 24.5925 104.176 24.5925C104.923 24.5925 107.374 23.8085 107.787 23.4376C107.862 23.3699 106.567 23.3147 104.908 23.3147C103.25 23.3147 101.892 23.3811 101.892 23.4621ZM75.5028 23.9096C75.4427 23.9701 75.3336 23.861 75.2602 23.6672C75.1544 23.387 75.1767 23.3644 75.3695 23.5571C75.503 23.6906 75.563 23.8492 75.5028 23.9096ZM64.5828 24.4883C64.4011 24.6713 61.9623 25.2346 61.4109 25.221C60.564 25.2 61.0535 25.5204 62.1696 25.7176C63.2862 25.9147 64.8868 25.6716 64.681 25.3362C64.6004 25.2047 64.64 25.1779 64.7831 25.2672C64.9119 25.3472 65.2516 25.2581 65.5381 25.069C66.0285 24.7455 66.0365 24.7164 65.6759 24.5744C65.2268 24.3977 64.713 24.3572 64.5828 24.4883ZM75.6334 24.9931C75.5786 25.0828 75.9649 26.6437 76.4919 28.4619C77.0191 30.2801 77.4819 31.9006 77.5202 32.0628C77.5787 32.3099 77.2182 32.3667 75.2965 32.4131C74.0352 32.4436 73.003 32.4151 73.003 32.35C73.003 32.2849 73.4861 30.5632 74.0765 28.5242C74.667 26.4852 75.1501 24.7692 75.1501 24.7109C75.1501 24.6525 75.2813 24.6556 75.4417 24.7175C75.6022 24.7797 75.6885 24.9035 75.6334 24.9931ZM68.1231 24.9857C67.8729 25.1485 67.8799 25.1768 68.1719 25.1793C68.3597 25.1809 68.5135 25.0938 68.5135 24.9857C68.5135 24.7458 68.4914 24.7458 68.1231 24.9857ZM102.282 25.3838C102.282 25.7858 102.352 25.8145 103.087 25.7152C104.178 25.5678 104.554 25.1823 103.606 25.1823C103.218 25.1823 102.761 25.1286 102.591 25.0629C102.366 24.976 102.282 25.0631 102.282 25.3838ZM65.4749 25.8011C64.9453 26.1076 64.3408 26.3592 64.1313 26.3602C63.6356 26.3622 63.9428 26.6413 64.7326 26.9063C65.2811 27.0903 65.4546 27.0369 66.4319 26.3832L67.5205 25.6553L66.9791 25.4494C66.5201 25.2749 66.2908 25.3285 65.4749 25.8011ZM66.9519 26.7475L66.2687 27.3192L66.7567 27.5028C67.4153 27.7505 67.6669 27.6207 67.9142 26.9065C68.174 26.1558 68.1744 26.164 67.8791 26.1705C67.745 26.1735 67.3277 26.4329 66.9519 26.7475ZM117.414 26.9441C117.358 27.0361 117.146 27.0675 116.944 27.0143C116.741 26.961 116.516 27.0135 116.444 27.131C116.372 27.2486 116.141 27.3447 115.929 27.3447C115.23 27.3447 113.852 28.9663 113.492 30.2129C113.082 31.6342 113.179 35.3068 113.656 36.4262C114.035 37.3169 115.085 38.3704 116.08 38.8591C117.171 39.395 119.634 39.3518 120.875 38.775C121.384 38.5377 121.802 38.2426 121.802 38.1192C121.802 37.9957 121.861 37.9541 121.932 38.0264C122.004 38.0986 122.224 38.0113 122.42 37.832C122.728 37.5513 122.778 37.185 122.778 35.1777V32.8491H120.533H118.288V33.9303V35.0116H119.313H120.338V35.8986C120.338 36.5734 120.255 36.8119 119.993 36.8956C119.804 36.9562 119.686 37.0657 119.731 37.139C119.776 37.2123 119.272 37.2428 118.611 37.207C117.951 37.1711 117.218 37.1312 116.983 37.1186C116.749 37.1058 116.596 37.0317 116.644 36.954C116.691 36.8762 116.615 36.6947 116.474 36.551C116.332 36.4071 116.149 36.1124 116.066 35.8962C115.949 35.5923 115.907 32.1396 115.998 30.3342C116.005 30.1944 116.311 29.8142 116.679 29.4893C117.264 28.9719 117.477 28.9038 118.395 28.9414C119.08 28.9693 119.479 29.079 119.547 29.2581C119.605 29.4087 119.742 29.4757 119.853 29.4067C119.964 29.3377 120.033 29.3542 120.007 29.4435C119.981 29.5325 120.058 29.8799 120.178 30.2155C120.385 30.7975 120.445 30.8259 121.49 30.8341C122.092 30.8388 122.624 30.7773 122.674 30.6971C122.825 30.4512 122.383 29.114 122.15 29.114C122.03 29.114 121.988 29.0576 122.056 28.9888C122.273 28.7706 121.388 27.7051 121.086 27.8214C120.932 27.8812 120.856 27.847 120.919 27.7456C120.981 27.6441 120.876 27.4768 120.685 27.374C119.965 26.9861 117.581 26.6728 117.414 26.9441ZM149.99 26.98C149.931 27.076 149.796 27.1006 149.69 27.0345C149.584 26.9684 149.275 26.9708 149.003 27.0396C148.651 27.1283 148.543 27.2559 148.628 27.479C148.722 27.7279 148.691 27.7465 148.479 27.5692C148.137 27.2828 146.871 28.0978 146.91 28.5801C146.924 28.7572 146.844 28.8834 146.731 28.8606C146.414 28.7965 146.138 29.9882 146.285 30.7822C146.459 31.713 147.789 33.1361 148.348 32.9889C148.563 32.9321 148.692 32.9622 148.635 33.0557C148.509 33.2618 149.268 33.664 150.631 34.1124C152.014 34.5677 152.582 35.0572 152.677 35.8754C152.744 36.4502 152.672 36.5978 152.189 36.8858C151.526 37.2796 150.133 37.303 149.365 36.933C149.04 36.7763 148.751 36.4132 148.616 35.9921C148.4 35.3178 148.376 35.3055 147.201 35.2479L146.006 35.1895V35.8431C146.006 36.9135 147.026 38.1312 148.467 38.7823C149.486 39.2425 151.795 39.4001 152.545 39.0606C152.76 38.9635 153.05 38.8601 153.189 38.8312C153.68 38.7294 154.816 37.7191 155.019 37.2039C155.295 36.5042 155.272 35.0648 154.978 34.709C154.848 34.551 154.812 34.4218 154.897 34.4218C154.983 34.4218 154.844 34.1981 154.589 33.9246C154.334 33.651 154.007 33.4731 153.862 33.5291C153.717 33.5851 153.65 33.5474 153.712 33.4452C153.775 33.3431 153.626 33.1289 153.381 32.9692C152.784 32.5802 149.716 31.465 149.708 31.6342C149.705 31.7077 149.579 31.6041 149.429 31.4042C149.278 31.2041 149.075 31.0905 148.977 31.1514C148.659 31.3492 148.945 29.6178 149.287 29.2713C149.504 29.0517 149.985 28.9221 150.691 28.8938C151.281 28.8702 151.837 28.7552 151.925 28.6382C152.027 28.5042 152.056 28.5345 152.003 28.7208C151.958 28.883 152.083 29.2266 152.281 29.4845C152.48 29.7425 152.643 30.0784 152.643 30.2312C152.643 30.447 152.914 30.4958 153.863 30.4504C155.002 30.3957 155.086 30.3592 155.135 29.9003C155.247 28.8582 153.631 27.2578 152.234 27.0278C150.996 26.824 150.097 26.8049 149.99 26.98ZM160.141 26.9403C159.372 27.1255 159.05 27.327 159.182 27.5413C159.239 27.6345 159.183 27.7746 159.057 27.8529C158.919 27.9386 158.881 27.9103 158.959 27.7819C159.032 27.6646 159.007 27.5163 158.904 27.4524C158.802 27.3886 158.646 27.4646 158.559 27.6215C158.472 27.7782 158.316 27.8906 158.213 27.8714C157.98 27.8275 157.16 29.0324 157.007 29.6442C156.662 31.0313 157.677 32.5137 159.537 33.3367C160.162 33.6131 160.622 33.7554 160.559 33.6528C160.495 33.5499 160.535 33.4092 160.647 33.3396C160.759 33.27 160.838 33.2859 160.822 33.3752C160.746 33.8189 160.903 33.9852 161.595 34.194C162.778 34.5512 163.378 35.1246 163.378 35.899C163.378 36.263 163.29 36.6157 163.183 36.6825C163.076 36.7494 162.988 36.8925 162.988 37.0006C162.988 37.1087 163.061 37.1516 163.151 37.096C163.24 37.0403 163.313 37.1221 163.313 37.2778C163.313 37.4909 163.249 37.5074 163.054 37.3443C162.911 37.2251 162.179 37.1298 161.427 37.1327C160.192 37.1372 160.022 37.0895 159.67 36.6379C159.455 36.3631 159.279 35.9288 159.279 35.6731C159.279 35.2315 159.215 35.2081 158.001 35.2081H156.722L156.798 35.9682C156.91 37.1003 157.818 38.282 158.708 38.4546C158.953 38.5021 159.208 38.6313 159.276 38.7418C159.469 39.0553 161.574 39.3785 162.472 39.2325C163.571 39.0536 164.755 38.5045 165.263 37.9379C166.378 36.6941 166.207 34.6754 164.892 33.5413C164.069 32.8322 160.977 31.5748 160.505 31.7573C160.356 31.8147 160.286 31.7781 160.349 31.6759C160.412 31.5739 160.258 31.3551 160.007 31.1897C159.639 30.9468 159.568 30.7565 159.633 30.194C159.734 29.3206 160.28 28.9174 161.363 28.9174C162.468 28.9174 163.064 29.2203 163.324 29.9147C163.53 30.4639 163.593 30.4901 164.728 30.4901C165.742 30.4901 165.916 30.4382 165.916 30.1362C165.916 29.9416 165.806 29.6632 165.672 29.5176C165.475 29.3045 165.479 29.2819 165.688 29.4016C165.881 29.5121 165.869 29.3957 165.639 28.9492C164.834 27.3807 162.243 26.4341 160.141 26.9403ZM3.79986 27.2195C3.75868 27.3424 3.502 28.0992 3.22931 28.9015C2.95662 29.7035 2.77646 30.4032 2.82896 30.4561C2.88147 30.509 2.8276 30.6698 2.70911 30.8135C2.59082 30.9572 2.54652 31.2133 2.61112 31.3824C2.68784 31.5839 2.65036 31.6415 2.50221 31.5493C2.35113 31.4553 2.31736 31.5172 2.4007 31.7357C2.46922 31.9155 2.4497 32.0628 2.35737 32.0628C2.26504 32.0628 2.13641 32.2757 2.07161 32.536C2.00661 32.7962 1.89437 33.1646 1.82195 33.3545C1.72416 33.6117 1.76125 33.6628 1.96757 33.5549C2.14656 33.4611 2.13582 33.502 1.93731 33.6701C1.60509 33.9514 1.10793 35.2101 1.26623 35.3694C1.31952 35.423 1.28731 35.5634 1.19498 35.6815C1.02438 35.8993 0.600225 37.1192 0.483889 37.7264C0.448949 37.909 0.402492 38.0809 0.381021 38.1078C0.359354 38.1347 0.330661 38.2381 0.317192 38.3372C0.303724 38.4363 0.226817 38.5837 0.146396 38.6647C0.0657808 38.7459 0 38.8723 0 38.9458C0 39.0972 2.45653 39.0948 2.59512 38.9433C2.6445 38.8892 2.8235 38.3584 2.99273 37.7638L3.30055 36.6825L5.09049 36.7201C6.07486 36.7407 6.98896 36.7995 7.1215 36.8508C7.25423 36.9019 7.46934 37.3706 7.59973 37.8919C7.73012 38.4133 7.93995 38.9059 8.06624 38.9867C8.30731 39.1412 10.5405 39.2022 10.5405 39.0544C10.5405 39.0074 10.4392 38.7198 10.3153 38.4155C10.1915 38.1111 10.0666 37.7449 10.0377 37.6016C9.86985 36.7683 7.49803 29.585 7.35768 29.4851C7.26477 29.4191 7.19626 29.2864 7.20524 29.1903C7.24271 28.7904 6.97217 27.7379 6.83183 27.7379C6.74829 27.7379 6.69226 27.5832 6.7071 27.3939C6.73052 27.0972 6.53708 27.0461 5.30443 27.0229C4.38877 27.0058 3.84788 27.0764 3.79986 27.2195ZM13.2852 30.6375C13.275 32.6649 13.1702 34.8256 13.0521 35.4395C12.8315 36.5874 12.7993 36.6202 11.4677 37.0511C11.2022 37.1371 11.1261 37.382 11.1261 38.1508C11.1261 39.2372 11.1415 39.2466 12.5374 39.0142C12.9633 38.9435 13.2141 38.8094 13.1417 38.6913C13.0714 38.5768 13.113 38.5487 13.2375 38.6262C13.5272 38.8065 14.4776 38.1735 14.315 37.9085C14.2434 37.7917 14.2826 37.7612 14.4056 37.8379C14.5385 37.9206 14.8331 37.5336 15.1678 36.8363C15.7019 35.723 15.7132 35.6279 15.7132 32.2128C15.7132 30.2949 15.7425 28.8132 15.7782 28.92C15.8141 29.0267 16.5 29.114 17.3025 29.114C18.4128 29.114 18.7292 29.0552 18.6251 28.8683C18.55 28.7332 18.6384 28.7641 18.8215 28.9371C19.119 29.2184 19.1523 29.7757 19.136 34.1957L19.1176 39.1399H20.3922H21.6667V33.0457V26.9515H17.4852H13.3037L13.2852 30.6375ZM23.6186 33.0441V39.1399H24.7595C25.6402 39.1399 25.9785 39.053 26.2426 38.7591C26.4308 38.5497 26.5257 38.2822 26.4536 38.1644C26.3814 38.0468 26.4228 37.9749 26.5456 38.0046C26.6683 38.0343 27.6547 36.5314 28.737 34.6648C29.8196 32.7982 30.7411 31.3071 30.7848 31.3511C30.8285 31.395 30.8578 33.1656 30.8498 35.2854L30.8354 39.1399H32.1115H33.3877L33.3727 33.0457L33.3579 26.9515L32.2456 26.9545C31.0229 26.9578 30.8744 27.0202 30.3903 27.7326C30.0087 28.2942 29.9595 28.6099 30.2855 28.4073C30.4262 28.3196 30.4577 28.3534 30.3694 28.4971C30.2917 28.6237 30.1508 28.6791 30.0563 28.6202C29.9619 28.5614 29.7891 28.6927 29.6726 28.9119C29.5561 29.1311 29.5244 29.3106 29.6025 29.3106C29.6804 29.3106 29.5824 29.4299 29.3843 29.5756C29.1577 29.7425 29.0827 29.9357 29.1821 30.0975C29.2748 30.2487 29.2625 30.3063 29.1522 30.2377C29.0491 30.1734 28.7501 30.5092 28.4878 30.9835C27.3217 33.0911 26.277 34.8055 26.2038 34.7318C26.16 34.6878 26.1347 32.9706 26.1476 30.9161C26.164 28.2909 26.1042 27.1389 25.9465 27.0408C25.8231 26.9639 25.6455 27.0231 25.5518 27.1721C25.4579 27.3211 25.38 27.3467 25.3783 27.2291C25.3767 27.1116 24.9801 27.0003 24.497 26.9818L23.6186 26.9484V33.0441ZM35.5255 33.0457V39.1399H36.9024H38.2793L38.22 36.4952C38.1825 34.8244 38.229 33.9193 38.3461 34.0379C38.6307 34.3255 42.4243 34.2748 42.7225 33.9795C42.8592 33.8444 42.9541 33.8222 42.9338 33.9303C42.9134 34.0385 42.907 35.2549 42.9199 36.6334L42.9429 39.1399H44.2144H45.4861L45.4344 33.0949L45.3829 27.0498L44.1838 26.9918L42.9847 26.9338L42.9546 29.4421C42.938 30.8217 42.9066 31.9672 42.885 31.9879C42.7852 32.0824 42.1126 32.1076 40.259 32.086L38.2582 32.0628V29.8184C38.2582 28.2069 38.1895 27.546 38.0142 27.4749C37.8267 27.3986 37.8292 27.3722 38.0258 27.3602C38.1663 27.3518 38.227 27.2562 38.1606 27.1481C38.0943 27.04 37.4743 26.9515 36.7828 26.9515H35.5255V33.0457ZM50.6467 27.2195C50.6055 27.3424 50.3488 28.0992 50.0761 28.9015C49.8034 29.7035 49.6233 30.4032 49.6758 30.4561C49.7283 30.509 49.6744 30.6698 49.5559 30.8135C49.4376 30.9572 49.3933 31.2133 49.458 31.3824C49.5347 31.5839 49.4972 31.6415 49.349 31.5493C49.198 31.4553 49.1642 31.5172 49.2475 31.7357C49.316 31.9155 49.2965 32.0628 49.2042 32.0628C49.1119 32.0628 48.9832 32.2757 48.9184 32.536C48.8534 32.7962 48.7412 33.1646 48.6688 33.3545C48.571 33.6117 48.6081 33.6628 48.8144 33.5549C48.9934 33.4611 48.9827 33.502 48.7841 33.6701C48.4519 33.9514 47.9548 35.2101 48.1131 35.3694C48.1663 35.423 48.1341 35.5634 48.0418 35.6815C47.8712 35.8993 47.4471 37.1192 47.3307 37.7264C47.2958 37.909 47.2493 38.0809 47.2278 38.1078C47.2062 38.1347 47.1775 38.2381 47.164 38.3372C47.1506 38.4363 47.0736 38.5837 46.9932 38.6647C46.9128 38.7459 46.8468 38.8723 46.8468 38.9458C46.8468 39.0972 49.3034 39.0948 49.4419 38.9433C49.4913 38.8892 49.6703 38.3584 49.8396 37.7638L50.1474 36.6825L51.9373 36.7201C52.9217 36.7407 53.8358 36.7995 53.9683 36.8508C54.1011 36.9019 54.3162 37.3706 54.4466 37.8919C54.5769 38.4133 54.7868 38.9059 54.9131 38.9867C55.1541 39.1412 57.3874 39.2022 57.3874 39.0544C57.3874 39.0074 57.2861 38.7198 57.1621 38.4155C57.0384 38.1111 56.9134 37.7449 56.8845 37.6016C56.7167 36.7683 54.3449 29.585 54.2045 29.4851C54.1116 29.4191 54.0431 29.2864 54.0521 29.1903C54.0895 28.7904 53.819 27.7379 53.6787 27.7379C53.5951 27.7379 53.5391 27.5832 53.5539 27.3939C53.5773 27.0972 53.3839 27.0461 52.1512 27.0229C51.2356 27.0058 50.6947 27.0764 50.6467 27.2195ZM124.73 31.4337C124.73 34.6577 124.795 35.9821 124.964 36.1518C125.093 36.2815 125.134 36.3877 125.056 36.3877C124.979 36.3877 125.053 36.656 125.221 36.9839C125.399 37.3299 125.618 37.5233 125.744 37.4449C125.869 37.3671 125.907 37.3987 125.833 37.5192C125.617 37.8711 127.249 38.9116 128.391 39.1505C128.98 39.2733 129.868 39.3146 130.365 39.2419C131.549 39.0691 133.37 38.1837 133.241 37.844C133.179 37.6818 133.247 37.6273 133.426 37.6965C133.601 37.764 133.709 37.6849 133.709 37.4899C133.709 37.3161 133.777 37.174 133.861 37.174C134.324 37.174 134.467 35.7501 134.43 31.5049L134.392 27.0498L133.185 26.9916L131.978 26.9335L131.96 31.2171C131.943 35.0644 131.901 35.5828 131.553 36.3069L131.166 37.1129L129.767 37.1223C128.817 37.1288 128.281 37.0435 128.095 36.8563C127.945 36.7046 127.746 36.6273 127.655 36.6843C127.563 36.7413 127.48 34.6504 127.469 32.0378C127.459 29.4252 127.404 27.2118 127.347 27.1194C127.291 27.0272 126.678 26.9515 125.987 26.9515H124.73V31.4337ZM136.58 27.074C136.504 27.1509 136.441 29.897 136.441 33.1768V39.1399H140.54H144.64V38.0435V36.9471L141.721 37.0114C139.877 37.0521 138.871 37.0069 138.988 36.889C139.264 36.6118 139.218 34.1576 138.93 33.8256C138.796 33.6705 138.764 33.6056 138.858 33.6809C138.953 33.7564 139.205 33.7241 139.419 33.6089C139.703 33.4554 139.77 33.4589 139.67 33.6227C139.57 33.7849 140.109 33.8305 141.647 33.7898L143.761 33.7338V32.7508V31.7679H141.282C139.715 31.7679 138.871 31.6991 138.988 31.5811C139.235 31.3327 139.227 29.4521 138.977 29.1549C138.869 29.0261 138.837 28.961 138.905 29.0104C138.974 29.0597 139.205 29.0061 139.419 28.8909C139.698 28.7399 139.77 28.7418 139.674 28.8977C139.58 29.0507 140.287 29.114 142.091 29.114H144.64V28.0538V26.9936L140.679 26.9641C138.501 26.9478 136.656 26.9973 136.58 27.074ZM150.886 27.2254C150.886 27.2678 150.75 27.3553 150.583 27.4198C150.409 27.4868 150.331 27.4538 150.399 27.3426C150.514 27.1556 150.886 27.0662 150.886 27.2254ZM152.141 27.7188C152.09 27.7705 151.896 27.6534 151.711 27.4585C151.389 27.12 151.393 27.1157 151.804 27.3644C152.041 27.5077 152.192 27.6671 152.141 27.7188ZM117.703 28.4472C117.703 28.6097 117.324 28.7017 117.237 28.5602C117.18 28.4684 117.262 28.3931 117.418 28.3931C117.575 28.3931 117.703 28.4175 117.703 28.4472ZM118.951 28.4914C119.007 28.5816 118.928 28.6554 118.776 28.6554C118.625 28.6554 118.546 28.5816 118.601 28.4914C118.656 28.4014 118.735 28.3276 118.776 28.3276C118.817 28.3276 118.896 28.4014 118.951 28.4914ZM116.336 29.4175C116.336 29.4403 116.219 29.5569 116.076 29.6766C115.881 29.8392 115.816 29.8286 115.816 29.6351C115.816 29.4926 115.933 29.376 116.076 29.376C116.219 29.376 116.336 29.3947 116.336 29.4175ZM5.95248 32.1611C6.2519 33.2423 6.50624 34.2461 6.51795 34.3917C6.53357 34.5869 6.22341 34.6575 5.33761 34.6607C4.00462 34.6652 3.58163 34.5179 3.88145 34.1543C4.11432 33.8716 4.8994 31.0798 4.74597 31.0798C4.68605 31.0798 4.72353 30.9694 4.82932 30.8341C4.93512 30.6991 5.00422 30.3849 4.98275 30.136C4.89725 29.1464 5.41959 30.2375 5.95248 32.1611ZM52.7993 32.1611C53.0987 33.2423 53.3531 34.2461 53.3648 34.3917C53.3804 34.5869 53.0702 34.6575 52.1844 34.6607C50.8514 34.6652 50.4285 34.5179 50.7283 34.1543C50.9612 33.8716 51.7462 31.0798 51.5928 31.0798C51.5329 31.0798 51.5704 30.9694 51.6761 30.8341C51.7819 30.6991 51.851 30.3849 51.8296 30.136C51.7441 29.1464 52.2664 30.2375 52.7993 32.1611ZM162.87 32.6197C162.925 32.7099 162.847 32.7837 162.695 32.7837C162.543 32.7837 162.465 32.7099 162.52 32.6197C162.575 32.5297 162.654 32.4559 162.695 32.4559C162.736 32.4559 162.815 32.5297 162.87 32.6197ZM28.6937 33.12C28.6937 33.1607 28.5401 33.3156 28.3521 33.464C28.0425 33.7084 28.0357 33.7015 28.2783 33.3897C28.5334 33.0622 28.6937 32.9582 28.6937 33.12ZM26.829 36.601C26.7661 36.7034 26.6316 36.7354 26.5299 36.6721C26.4282 36.6088 26.3964 36.4734 26.4593 36.371C26.5221 36.2685 26.6566 36.2365 26.7583 36.2998C26.86 36.3631 26.8918 36.4985 26.829 36.601ZM89.6838 37.1604C89.7456 37.2611 89.7214 37.3899 89.6303 37.4467C89.5391 37.5035 89.4644 37.4211 89.4644 37.2637C89.4644 36.9322 89.526 36.9033 89.6838 37.1604ZM13.9363 37.7309C13.9916 37.8212 13.9129 37.8949 13.7613 37.8949C13.6096 37.8949 13.5309 37.8212 13.5862 37.7309C13.6414 37.6409 13.7203 37.5672 13.7613 37.5672C13.8022 37.5672 13.8811 37.6409 13.9363 37.7309ZM121.216 38.0799C121.216 38.2425 120.837 38.3345 120.75 38.1929C120.694 38.1011 120.776 38.0258 120.932 38.0258C121.088 38.0258 121.216 38.0502 121.216 38.0799Z" fill="white"/>
</svg>
