<svg width="24" height="24" viewBox="0 0 24 24" fill="none" xmlns="http://www.w3.org/2000/svg">
<path fill-rule="evenodd" clip-rule="evenodd" d="M3 4.75C2.86193 4.75 2.75 4.86193 2.75 5V19C2.75 19.1381 2.86192 19.25 3 19.25H21C21.1381 19.25 21.25 19.1381 21.25 19V5C21.25 4.86192 21.1381 4.75 21 4.75H3ZM1.25 5C1.25 4.0335 2.0335 3.25 3 3.25H21C21.9665 3.25 22.75 4.03351 22.75 5V19C22.75 19.9665 21.9665 20.75 21 20.75H3C2.03351 20.75 1.25 19.9665 1.25 19V5Z" fill="#43B6B4"/>
<path fill-rule="evenodd" clip-rule="evenodd" d="M1.25 8C1.25 7.58579 1.58579 7.25 2 7.25H22C22.4142 7.25 22.75 7.58579 22.75 8C22.75 8.41421 22.4142 8.75 22 8.75H2C1.58579 8.75 1.25 8.41421 1.25 8Z" fill="#43B6B4"/>
<path fill-rule="evenodd" clip-rule="evenodd" d="M12.75 16C12.75 15.5858 13.0858 15.25 13.5 15.25H18C18.4142 15.25 18.75 15.5858 18.75 16C18.75 16.4142 18.4142 16.75 18 16.75H13.5C13.0858 16.75 12.75 16.4142 12.75 16Z" fill="#43B6B4"/>
<path fill-rule="evenodd" clip-rule="evenodd" d="M22 4.25C22.4142 4.25 22.75 4.58579 22.75 5V13C22.75 13.4142 22.4142 13.75 22 13.75C21.5858 13.75 21.25 13.4142 21.25 13V5C21.25 4.58579 21.5858 4.25 22 4.25Z" fill="#43B6B4"/>
<path fill-rule="evenodd" clip-rule="evenodd" d="M2 4.25C2.41421 4.25 2.75 4.58579 2.75 5V13C2.75 13.4142 2.41421 13.75 2 13.75C1.58579 13.75 1.25 13.4142 1.25 13V5C1.25 4.58579 1.58579 4.25 2 4.25Z" fill="#43B6B4"/>
</svg>
