<svg width="40" height="41" viewBox="0 0 40 41" fill="none" xmlns="http://www.w3.org/2000/svg">
<path fill-rule="evenodd" clip-rule="evenodd" d="M5.78262 6.2828C6.27078 5.79465 7.06223 5.79465 7.55039 6.2828L34.2171 32.9495C34.7052 33.4376 34.7052 34.2291 34.2171 34.7172C33.7289 35.2054 32.9374 35.2054 32.4493 34.7172L5.78262 8.05057C5.29447 7.56242 5.29447 6.77096 5.78262 6.2828Z" fill="#1C1B1E"/>
<path fill-rule="evenodd" clip-rule="evenodd" d="M34.2171 6.2828C34.7052 6.77096 34.7052 7.56242 34.2171 8.05057L7.55039 34.7172C7.06223 35.2054 6.27078 35.2054 5.78262 34.7172C5.29447 34.2291 5.29447 33.4376 5.78262 32.9495L32.4493 6.2828C32.9374 5.79465 33.7289 5.79465 34.2171 6.2828Z" fill="#1C1B1E"/>
</svg>
