<svg width="26" height="31" viewBox="0 0 26 31" fill="none" xmlns="http://www.w3.org/2000/svg">
<path d="M24.1429 0H1.85714C0.835714 0 0 0.862188 0 1.9375V29.0625C0 30.1281 0.835714 31 1.85714 31H17.6429L26 22.2812V1.9375C26 0.862188 25.1736 0 24.1429 0Z" fill="#FF5F49"/>
<path d="M19.4948 22.2812C18.4734 22.2812 17.6377 23.1531 17.6377 24.2188V31L25.9948 22.2812H19.4948Z" fill="#AD3423"/>
<path d="M21.6411 15.3352C21.2604 15.1318 20.7311 15.0349 20.0161 15.0349C19.0133 15.0349 17.964 15.1124 16.8868 15.2674C15.4475 13.7853 13.9711 11.7024 12.8847 9.60994C13.4418 7.63369 13.7204 5.24087 12.894 4.30118C12.6433 4.02025 12.309 3.86523 11.9283 3.86523C11.269 3.86523 10.9161 4.16555 10.7304 4.41743C9.90397 5.55087 10.9904 8.14713 11.7704 9.69713C11.659 10.0556 11.5383 10.414 11.4083 10.7627C10.8604 12.2352 9.72753 15.2674 8.45538 17.883C6.24538 18.9487 3.73828 20.5471 3.73828 21.6321C3.73828 23.1434 4.86182 23.2596 5.21468 23.2596C6.02254 23.2596 7.2204 22.7171 9.28183 18.5612C11.5754 17.4956 14.1104 16.6915 16.4875 16.2943C17.8711 17.6312 19.1061 18.2996 20.1647 18.2996C21.0004 18.2996 22.2725 17.234 22.2725 16.3137C22.2818 15.8971 22.0497 15.558 21.6411 15.3352ZM5.21468 22.3199C5.09396 22.3199 4.79681 22.3199 4.79681 21.6321C4.82467 21.3512 5.73472 20.4503 7.694 19.3556C6.15258 22.1553 5.36325 22.3199 5.21468 22.3199ZM11.6218 4.93087C11.659 4.87274 11.724 4.81462 11.9283 4.81462C11.9561 4.81462 11.9932 4.81463 12.0582 4.88244C12.374 5.24088 12.4761 6.42275 12.1604 8.089C11.4547 6.384 11.3526 5.2893 11.6218 4.93087ZM15.6704 15.4709C13.7668 15.839 11.7983 16.4396 9.93184 17.2146L9.95966 17.1662L9.93184 17.1759C11.009 14.8121 11.9282 12.3418 12.4111 11.0534C12.4204 11.034 12.4297 11.0146 12.4297 10.9952L12.4575 11.0534L12.4668 11.0049C13.4047 12.6324 14.5375 14.2018 15.6704 15.4515H15.6426L15.6704 15.4709ZM20.1647 17.3502C19.5426 17.3502 18.7068 16.9143 17.769 16.1006C18.5397 16.0134 19.2918 15.9746 20.0161 15.9746C20.7311 15.9746 21.214 16.1006 21.2232 16.2846C21.2418 16.6915 20.4433 17.3309 20.1647 17.3502Z" fill="white"/>
</svg>
