<svg width="180" height="52" viewBox="0 0 180 52" fill="none" xmlns="http://www.w3.org/2000/svg">
<path fill-rule="evenodd" clip-rule="evenodd" d="M6.77177 24.9164C7.84778 19.2682 13.156 11.5996 19.9427 12.0162C20.9974 12.0809 22.4209 12.5681 23.1662 13.3846C22.9523 12.9189 22.4823 12.4738 22.2079 12.3211C24.0294 11.3632 24.1543 10.3398 23.4226 8.75917C22.4808 7.13397 21.5456 4.23546 22.4059 2.45191C22.7885 1.65851 23.7932 -0.000183105 23.7932 -0.000183105C23.7932 -0.000183105 27.7207 1.10462 28.4286 3.08971C30.6804 5.23701 33.7579 8.43621 37.6606 12.6869C37.861 12.9048 37.8823 13.2627 37.7245 13.7607C37.7025 13.6031 37.585 13.451 37.3716 13.3041C36.2195 12.8712 34.9432 11.5548 33.4436 10.0082C31.3603 7.85958 28.8461 5.26646 25.6351 3.98013C25.4069 4.34804 24.9966 4.3855 24.4036 4.09229C24.1244 4.00718 23.9237 4.0384 23.7932 4.1774C23.7076 4.26834 23.6562 4.41213 23.6387 4.60961C23.6005 5.04182 23.7016 5.32274 23.8801 5.71C24.2127 6.43191 24.6817 6.95485 25.1643 7.49299L25.1644 7.49303L25.1645 7.49312L25.1645 7.49315C25.4136 7.77089 25.6663 8.05268 25.9058 8.36796C27.6259 10.6557 26.6617 14.3098 23.9469 18.7145C22.7191 20.7542 20.7162 22.3328 17.9388 23.4511C17.9557 23.531 17.972 23.6057 17.9877 23.6755C18.2522 23.8447 18.5234 23.9614 18.7525 23.9614C19.1152 23.9614 19.5339 23.9053 19.9827 23.8452C20.5009 23.7757 21.0592 23.7009 21.6175 23.7009C22.0858 23.7009 22.1331 23.9641 22.1852 24.2537C22.249 24.6085 22.3199 25.0032 23.1802 25.0032C23.6889 25.0032 24.1143 24.9601 24.4457 24.9265L24.4457 24.9265C24.9288 24.8775 25.2123 24.8487 25.2638 25.0032C24.8298 25.4373 23.649 26.2534 22.3989 26.045C21.544 25.9025 21.4685 25.4483 21.405 25.066C21.3524 24.7495 21.3081 24.4823 20.8362 24.4823C20.0027 24.4823 18.7525 24.8296 18.2316 25.0032L17.0376 23.9584L16.8761 23.8435C16.4982 23.9715 16.091 24.0864 15.688 24.1994L16.1695 26.8264H25.0034V29.4309H30.7333H38.026L40.1096 29.4309V30.9936L39.5887 30.9936V31.5466C39.5887 31.9257 39.4106 32.2828 39.1079 32.511L38.8196 32.7283C38.6983 32.8196 38.627 32.9627 38.627 33.1145C38.627 33.1417 38.6248 33.1683 38.6205 33.1943C39.1887 33.4282 39.5887 33.9873 39.5887 34.6399V44.0162C39.5887 44.6622 39.1967 45.2166 38.6377 45.4546C38.6618 45.5999 38.7262 45.7364 38.8249 45.8479L39.1079 46.1678C39.4177 46.518 39.5887 46.9694 39.5887 47.437V47.6625H40.1096V50.7879H38.026H30.7333H26.5661V51.8298H14.0644V50.7879H9.37627H2.08362H0V47.6625H0.520904V47.437C0.520904 46.9694 0.691925 46.518 1.00174 46.1678L1.28468 45.8479C1.38335 45.7364 1.44782 45.5999 1.47193 45.4546C0.912862 45.2166 0.520904 44.6622 0.520904 44.0162V34.6399C0.520904 33.9873 0.920915 33.4282 1.48912 33.1943C1.48481 33.1683 1.48257 33.1417 1.48257 33.1145C1.48257 32.9627 1.41127 32.8196 1.29002 32.7283L1.00174 32.511C0.698954 32.2828 0.520904 31.9257 0.520904 31.5466L0.520904 30.9936L0 30.9936V29.4309L2.08362 29.4309H9.37627H15.6271V27.8133L15.5974 27.8139C15.3773 26.7722 15.1251 25.6543 14.8139 24.4374C14.0067 24.6334 13.1535 24.7908 12.2541 24.9318C11.6946 25.0196 11.206 25.0804 10.7647 25.1352L10.7645 25.1352C9.25481 25.3229 8.29893 25.4417 6.9501 26.3388C7.41201 25.1721 8.81718 23.1221 10.0027 21.3926C10.1731 21.144 10.3389 20.9021 10.4968 20.6703C9.13176 21.9998 7.89017 23.4151 6.77177 24.9164ZM25.4341 6.65047C25.3022 6.47895 25.2203 6.4615 25.1599 6.48252C25.0163 6.5327 25.1509 6.80626 25.2098 6.92587L25.2201 6.94684C25.3267 7.16649 25.4197 7.35944 25.4993 7.52633C25.4386 7.45685 25.378 7.3882 25.3175 7.31955L25.3173 7.3193C24.7492 6.67569 23.5919 5.32941 23.8751 4.39805C23.9441 4.17105 24.1109 4.18681 24.303 4.24251C24.6303 4.40373 24.916 4.47288 25.1595 4.4506C25.3743 4.43084 25.5518 4.34488 25.6918 4.19312C28.7876 5.49568 31.2379 8.04593 33.2741 10.1651C34.5099 11.4512 35.5961 12.5817 36.6039 13.204C33.3307 12.3954 27.3072 9.08554 25.4341 6.65047ZM29.1706 34.6399C29.1706 33.9873 29.5706 33.4282 30.1388 33.1943C30.1345 33.1683 30.1323 33.1417 30.1323 33.1145C30.1323 32.9627 30.061 32.8196 29.9397 32.7283L29.6514 32.511C29.3487 32.2828 29.1706 31.9257 29.1706 31.5466V30.9936L27.087 30.9936L27.083 30.9936C25.8362 30.9955 25.5243 31.8622 25.5243 32.2959V46.3951L25.5386 46.3736C25.5386 46.7869 25.8239 47.5964 26.9415 47.6625H29.1706V47.437C29.1706 46.9694 29.3416 46.518 29.6514 46.1678L29.9344 45.8479C30.0331 45.7364 30.0975 45.5999 30.1216 45.4546C29.5626 45.2166 29.1706 44.6622 29.1706 44.0162V34.6399ZM15.1062 46.555C15.0382 46.9676 14.726 47.5526 13.8589 47.6625H10.939V47.437C10.939 46.9694 10.768 46.518 10.4581 46.1678L10.1752 45.8479C10.0765 45.7364 10.0121 45.5999 9.98796 45.4546C10.547 45.2166 10.939 44.6622 10.939 44.0162V34.6399C10.939 33.9873 10.539 33.4282 9.97076 33.1943C9.97507 33.1683 9.97731 33.1417 9.97731 33.1145C9.97731 32.9627 10.0486 32.8196 10.1699 32.7283L10.4581 32.511C10.7609 32.2828 10.939 31.9257 10.939 31.5466V30.9936H13.2975C13.3661 31.0026 13.4514 31.0075 13.5552 31.0075C14.7592 31.0075 15.0875 31.8183 15.1062 32.2605V46.555ZM36.4633 47.6625H32.296V47.437C32.296 46.9694 32.125 46.518 31.8152 46.1678L31.5323 45.8479C31.4336 45.7364 31.3691 45.5999 31.345 45.4546C31.9041 45.2166 32.296 44.6622 32.296 44.0162V34.6399C32.296 33.9873 31.896 33.4282 31.3278 33.1943C31.3321 33.1683 31.3344 33.1417 31.3344 33.1145C31.3344 32.9627 31.4057 32.8196 31.5269 32.7283L31.8152 32.511C32.118 32.2828 32.296 31.9257 32.296 31.5466V30.9936H36.4633V31.5466C36.4633 31.9257 36.6413 32.2828 36.9441 32.511L37.2324 32.7283C37.3536 32.8196 37.4249 32.9627 37.4249 33.1145C37.4249 33.1417 37.4272 33.1683 37.4315 33.1943C36.8633 33.4282 36.4633 33.9873 36.4633 34.6399V44.0162C36.4633 44.6622 36.8552 45.2166 37.4143 45.4546C37.3902 45.5999 37.3257 45.7364 37.227 45.8479L36.9441 46.1678C36.6343 46.518 36.4633 46.9694 36.4633 47.437V47.6625ZM3.64633 47.6625V47.437C3.64633 46.9694 3.47531 46.518 3.16549 46.1678L2.88256 45.8479C2.78388 45.7364 2.71941 45.5999 2.6953 45.4546C3.25437 45.2166 3.64633 44.6622 3.64633 44.0162V34.6399C3.64633 33.9873 3.24632 33.4282 2.67811 33.1943C2.68242 33.1683 2.68466 33.1417 2.68466 33.1145C2.68466 32.9627 2.75596 32.8196 2.87721 32.7283L3.16549 32.511C3.46828 32.2828 3.64633 31.9257 3.64633 31.5466L3.64633 30.9936H7.81356V31.5466C7.81356 31.9257 7.99161 32.2828 8.29439 32.511L8.58267 32.7283C8.70392 32.8196 8.77523 32.9627 8.77523 33.1145C8.77523 33.1417 8.77747 33.1683 8.78177 33.1943C8.21357 33.4282 7.81356 33.9873 7.81356 34.6399V44.0162C7.81356 44.6622 8.20552 45.2166 8.76458 45.4546C8.74047 45.5999 8.676 45.7364 8.57733 45.8479L8.29439 46.1678C7.98458 46.518 7.81356 46.9694 7.81356 47.437V47.6625H3.64633ZM26.5661 3.38569C26.8538 3.38569 27.087 3.15248 27.087 2.86479C27.087 2.5771 26.8538 2.34388 26.5661 2.34388C26.2784 2.34388 26.0452 2.5771 26.0452 2.86479C26.0452 3.15248 26.2784 3.38569 26.5661 3.38569ZM30.2124 34.6399C30.2124 34.3522 30.4456 34.119 30.7333 34.119C31.021 34.119 31.2542 34.3522 31.2542 34.6399V43.4953C31.2542 43.783 31.021 44.0162 30.7333 44.0162C30.4456 44.0162 30.2124 43.783 30.2124 43.4953V34.6399ZM2.08362 34.119C1.79593 34.119 1.56271 34.3522 1.56271 34.6399V43.4953C1.56271 43.783 1.79593 44.0162 2.08362 44.0162C2.3713 44.0162 2.60452 43.783 2.60452 43.4953V34.6399C2.60452 34.3522 2.3713 34.119 2.08362 34.119ZM37.5051 34.6399C37.5051 34.3522 37.7383 34.119 38.026 34.119C38.3137 34.119 38.5469 34.3522 38.5469 34.6399V43.4953C38.5469 43.783 38.3137 44.0162 38.026 44.0162C37.7383 44.0162 37.5051 43.783 37.5051 43.4953V34.6399ZM9.37627 34.119C9.08858 34.119 8.85537 34.3522 8.85537 34.6399V43.4953C8.85537 43.783 9.08858 44.0162 9.37627 44.0162C9.66396 44.0162 9.89717 43.783 9.89717 43.4953V34.6399C9.89717 34.3522 9.66396 34.119 9.37627 34.119Z" fill="white"/>
<path d="M51.3125 32.7254H50.9817L51.3299 29H51.6607C51.6723 29.0232 51.6839 29.0464 51.6955 29.0696C51.7187 29.0928 51.7419 29.1219 51.7651 29.1567C51.8116 29.2031 51.8754 29.2495 51.9566 29.2959C52.0379 29.3308 52.1365 29.3482 52.2526 29.3482C52.4847 29.3482 52.653 29.3366 52.7574 29.3134C52.8735 29.2901 52.9721 29.2611 53.0534 29.2263C53.0766 29.2147 53.0998 29.2089 53.123 29.2089C53.1462 29.1973 53.1694 29.1857 53.1926 29.1741C53.3203 29.1277 53.5002 29.087 53.7323 29.0522C53.9644 29.0174 54.3532 29 54.8987 29C55.9316 29 56.8136 29.2379 57.5448 29.7137C58.2875 30.178 58.6589 30.8453 58.6589 31.7157C58.6589 31.8782 58.6299 32.0813 58.5719 32.325C58.5138 32.5687 58.3804 32.8183 58.1715 33.0736C57.9626 33.3289 57.6492 33.5784 57.2314 33.8222C56.8252 34.0543 56.2681 34.2516 55.5602 34.4141V34.5185C56.477 34.6694 57.2778 35.0233 57.9626 35.5804C58.6473 36.1375 58.9897 36.828 58.9897 37.652C58.9897 38.5341 58.6067 39.2768 57.8407 39.8803C57.0747 40.4722 55.8793 40.7682 54.2546 40.7682C53.3145 40.7682 52.4557 40.5477 51.6781 40.1066C50.9005 39.6656 50.5117 39.0389 50.5117 38.2265C50.5117 37.7623 50.622 37.4083 50.8425 37.1646C51.063 36.9093 51.3415 36.7816 51.6781 36.7816C51.9914 36.7816 52.2468 36.8745 52.4441 37.0601C52.6414 37.2342 52.7574 37.4315 52.7922 37.652C52.8038 37.6636 52.8096 37.6811 52.8096 37.7043C52.8096 37.7275 52.8096 37.7507 52.8096 37.7739C52.8096 37.8435 52.8038 37.9248 52.7922 38.0176C52.7806 38.0989 52.7516 38.1801 52.7052 38.2613C52.6704 38.3426 52.6182 38.418 52.5485 38.4876C52.4789 38.5573 52.386 38.6269 52.27 38.6965C52.2468 38.7082 52.212 38.7256 52.1655 38.7488C52.1307 38.772 52.0959 38.7894 52.0611 38.801C51.9798 38.8474 51.9044 38.9055 51.8348 38.9751C51.7767 39.0331 51.7477 39.1144 51.7477 39.2188C51.7477 39.2652 51.7535 39.3175 51.7651 39.3755C51.7883 39.4219 51.8174 39.4741 51.8522 39.5322C51.9914 39.7643 52.27 39.979 52.6878 40.1763C53.1172 40.362 53.6395 40.4548 54.2546 40.4548C54.9509 40.4548 55.5486 40.2575 56.0476 39.8629C56.5467 39.4567 56.7962 38.7256 56.7962 37.6694C56.7962 36.8338 56.6685 36.2071 56.4132 35.7893C56.1579 35.3715 55.8793 35.0756 55.5776 34.9015C55.3803 34.797 55.1888 34.7274 55.0031 34.6926C54.829 34.6578 54.684 34.6404 54.5679 34.6404L53.0534 34.6578V34.3096L54.4983 34.2922C55.0786 34.2922 55.5022 34.1471 55.7691 33.857C56.036 33.5668 56.2159 33.2477 56.3088 32.8995C56.3784 32.6674 56.419 32.4469 56.4306 32.238C56.4422 32.0175 56.448 31.8434 56.448 31.7157C56.448 31.5997 56.4422 31.4778 56.4306 31.3502C56.4306 31.2225 56.4248 31.089 56.4132 30.9498C56.3552 30.5552 56.2043 30.1954 55.9606 29.8704C55.7169 29.5339 55.2642 29.3656 54.6027 29.3656C53.5466 29.3656 52.7748 29.6731 52.2874 30.2882C51.7999 30.8917 51.475 31.7041 51.3125 32.7254Z" fill="white"/>
<path d="M60.2946 36.8861C60.2946 35.8416 60.6486 34.9305 61.3566 34.1529C62.0761 33.3753 62.9755 32.9866 64.0549 32.9866C65.1574 32.9866 66.0627 33.3869 66.7706 34.1877C67.4785 34.9769 67.8325 35.8764 67.8325 36.8861C67.8325 37.8958 67.4785 38.7952 66.7706 39.5844C66.0627 40.3736 65.1574 40.7682 64.0549 40.7682C62.9523 40.7682 62.0471 40.3794 61.3391 39.6018C60.6428 38.8126 60.2946 37.9074 60.2946 36.8861ZM62.2618 35.6326C62.2502 35.8532 62.2444 36.0737 62.2444 36.2942C62.2444 36.5031 62.2444 36.7178 62.2444 36.9383C62.2444 38.1221 62.3546 39.0099 62.5751 39.6018C62.7957 40.1937 63.2947 40.4896 64.0723 40.4896C64.7686 40.4896 65.2445 40.2169 65.4998 39.6714C65.7551 39.126 65.8828 38.2091 65.8828 36.9209C65.8828 36.9093 65.8828 36.9035 65.8828 36.9035C65.8828 36.8919 65.8828 36.8803 65.8828 36.8687C65.8828 35.975 65.7899 35.1568 65.6042 34.4141C65.4301 33.6597 64.9195 33.2825 64.0723 33.2825C64.0375 33.2825 64.0026 33.2825 63.9678 33.2825C63.9446 33.2825 63.9156 33.2883 63.8808 33.2999C63.4862 33.3347 63.1264 33.532 62.8015 33.8918C62.4765 34.24 62.2966 34.8203 62.2618 35.6326Z" fill="white"/>
<path d="M73.6394 33.474H72.8734C72.1074 33.474 71.6548 33.5726 71.5155 33.7699C71.3879 33.9556 71.3182 34.1993 71.3066 34.5011L71.1673 38.9751C71.1557 39.4741 71.0571 39.8977 70.8714 40.2459C70.6857 40.5941 70.2795 40.7682 69.6528 40.7682C69.293 40.7682 68.9681 40.6695 68.6779 40.4722C68.3994 40.2749 68.2601 39.9906 68.2601 39.6192C68.2601 39.3058 68.353 39.0621 68.5387 38.888C68.736 38.7024 68.9449 38.6095 69.1654 38.6095C69.3975 38.6095 69.6006 38.6675 69.7747 38.7836C69.9604 38.8996 70.0532 39.0853 70.0532 39.3407C70.0532 39.3871 70.0532 39.4335 70.0532 39.4799C70.0532 39.5147 70.0416 39.5554 70.0184 39.6018C70.0184 39.6134 70.0126 39.625 70.001 39.6366C70.001 39.6366 69.9952 39.6424 69.9836 39.654C69.9836 39.6656 69.9778 39.6772 69.9662 39.6888C69.9545 39.712 69.9429 39.7295 69.9313 39.7411C69.9313 39.7527 69.9313 39.7701 69.9313 39.7933C69.9313 39.8165 69.9313 39.8397 69.9313 39.8629C69.9313 39.8745 69.9313 39.8919 69.9313 39.9151C69.9429 39.9848 69.9604 40.0428 69.9836 40.0892C70.0068 40.1357 70.0532 40.1589 70.1228 40.1589C70.4942 40.1589 70.7089 40.0254 70.7669 39.7585C70.8366 39.4799 70.8772 39.1434 70.8888 38.7488L71.0107 34.5011C71.0107 34.4547 71.0107 34.4082 71.0107 34.3618C71.0107 34.3154 71.0107 34.269 71.0107 34.2226C70.9991 34.0369 70.9294 33.8686 70.8018 33.7177C70.6857 33.5552 70.4362 33.474 70.0532 33.474H69.6876V33.178H76.4421V33.474H75.3454V40.2981H76.4421V40.5941H72.5426V40.2981H73.6394V33.474Z" fill="white"/>
<path d="M77.1761 36.8861C77.1761 35.8416 77.5301 34.9305 78.2381 34.1529C78.9576 33.3753 79.8571 32.9866 80.9364 32.9866C82.0389 32.9866 82.9442 33.3869 83.6521 34.1877C84.3601 34.9769 84.714 35.8764 84.714 36.8861C84.714 37.8958 84.3601 38.7952 83.6521 39.5844C82.9442 40.3736 82.0389 40.7682 80.9364 40.7682C79.8338 40.7682 78.9286 40.3794 78.2207 39.6018C77.5243 38.8126 77.1761 37.9074 77.1761 36.8861ZM79.1433 35.6326C79.1317 35.8532 79.1259 36.0737 79.1259 36.2942C79.1259 36.5031 79.1259 36.7178 79.1259 36.9383C79.1259 38.1221 79.2361 39.0099 79.4567 39.6018C79.6772 40.1937 80.1762 40.4896 80.9538 40.4896C81.6501 40.4896 82.126 40.2169 82.3813 39.6714C82.6366 39.126 82.7643 38.2091 82.7643 36.9209C82.7643 36.9093 82.7643 36.9035 82.7643 36.9035C82.7643 36.8919 82.7643 36.8803 82.7643 36.8687C82.7643 35.975 82.6714 35.1568 82.4857 34.4141C82.3117 33.6597 81.801 33.2825 80.9538 33.2825C80.919 33.2825 80.8842 33.2825 80.8493 33.2825C80.8261 33.2825 80.7971 33.2883 80.7623 33.2999C80.3677 33.3347 80.0079 33.532 79.683 33.8918C79.358 34.24 79.1781 34.8203 79.1433 35.6326Z" fill="white"/>
<path d="M92.3836 33.178L92.5403 35.9982H92.1747C92.0122 35.1858 91.7395 34.5533 91.3565 34.1007C90.9851 33.6365 90.4454 33.4276 89.7375 33.474V40.2981H90.8342V40.5941H86.9347V40.2981H88.0314V33.474C87.219 33.4276 86.6678 33.6365 86.3776 34.1007C86.0875 34.5649 85.8438 35.1278 85.6465 35.7893C85.6349 35.8241 85.6233 35.859 85.6117 35.8938C85.6117 35.9286 85.6059 35.9634 85.5942 35.9982H85.2287L85.3853 33.178H92.3836Z" fill="white"/>
<path d="M93.0546 36.8861C93.0546 35.8416 93.4086 34.9305 94.1165 34.1529C94.8361 33.3753 95.7355 32.9866 96.8149 32.9866C97.9174 32.9866 98.8226 33.3869 99.5306 34.1877C100.239 34.9769 100.593 35.8764 100.593 36.8861C100.593 37.8958 100.239 38.7952 99.5306 39.5844C98.8226 40.3736 97.9174 40.7682 96.8149 40.7682C95.7123 40.7682 94.8071 40.3794 94.0991 39.6018C93.4028 38.8126 93.0546 37.9074 93.0546 36.8861ZM95.0218 35.6326C95.0102 35.8532 95.0044 36.0737 95.0044 36.2942C95.0044 36.5031 95.0044 36.7178 95.0044 36.9383C95.0044 38.1221 95.1146 39.0099 95.3351 39.6018C95.5556 40.1937 96.0547 40.4896 96.8323 40.4896C97.5286 40.4896 98.0044 40.2169 98.2598 39.6714C98.5151 39.126 98.6428 38.2091 98.6428 36.9209C98.6428 36.9093 98.6428 36.9035 98.6428 36.9035C98.6428 36.8919 98.6428 36.8803 98.6428 36.8687C98.6428 35.975 98.5499 35.1568 98.3642 34.4141C98.1901 33.6597 97.6795 33.2825 96.8323 33.2825C96.7975 33.2825 96.7626 33.2825 96.7278 33.2825C96.7046 33.2825 96.6756 33.2883 96.6408 33.2999C96.2462 33.3347 95.8864 33.532 95.5614 33.8918C95.2365 34.24 95.0566 34.8203 95.0218 35.6326Z" fill="white"/>
<path d="M104.119 39.0099L107.078 34.0137V33.474H106.103V33.178H109.881V33.474H108.784V40.2981H109.881V40.5941H106.103V40.2981H107.078V34.6055L104.119 39.6018V40.2981H105.094V40.5941H101.316V40.2981H102.413V33.474H101.316V33.178H105.094V33.474H104.119V39.0099ZM105.616 32.1858C104.804 32.1858 104.159 32.0059 103.684 31.6461C103.208 31.2747 102.97 30.8163 102.97 30.2708C102.97 30.0039 103.057 29.8008 103.231 29.6615C103.405 29.5223 103.591 29.4352 103.788 29.4004C103.823 29.4004 103.858 29.4004 103.893 29.4004C103.939 29.3888 103.98 29.383 104.014 29.383C104.293 29.383 104.508 29.4758 104.658 29.6615C104.809 29.8356 104.885 30.0387 104.885 30.2708C104.885 30.3056 104.879 30.3579 104.867 30.4275C104.856 30.4855 104.833 30.5494 104.798 30.619C104.763 30.7002 104.699 30.7757 104.606 30.8453C104.525 30.9149 104.403 30.9614 104.241 30.9846C104.229 30.9846 104.217 30.9846 104.206 30.9846C104.194 30.9846 104.183 30.9904 104.171 31.002C104.113 31.002 104.055 31.0252 103.997 31.0716C103.951 31.1064 103.927 31.1877 103.927 31.3153C103.927 31.4662 104.067 31.5997 104.345 31.7157C104.635 31.8202 104.96 31.8782 105.32 31.8898C105.366 31.8898 105.413 31.8898 105.459 31.8898C105.506 31.8898 105.552 31.8898 105.599 31.8898C105.645 31.8898 105.691 31.8898 105.738 31.8898C105.784 31.8898 105.831 31.8898 105.877 31.8898C105.935 31.8898 105.993 31.8898 106.051 31.8898C106.109 31.8782 106.167 31.8666 106.225 31.855C106.481 31.8318 106.719 31.7738 106.939 31.6809C107.16 31.5881 107.27 31.4662 107.27 31.3153C107.27 31.1761 107.241 31.0948 107.183 31.0716C107.136 31.0368 107.084 31.0136 107.026 31.002C107.014 31.002 107.003 31.002 106.991 31.002C106.98 30.9904 106.968 30.9846 106.956 30.9846C106.922 30.973 106.881 30.9614 106.835 30.9498C106.788 30.9381 106.742 30.9207 106.695 30.8975C106.602 30.8511 106.515 30.7815 106.434 30.6886C106.353 30.5842 106.312 30.4449 106.312 30.2708C106.312 30.0387 106.388 29.8356 106.539 29.6615C106.701 29.4758 106.922 29.383 107.2 29.383C107.223 29.383 107.247 29.383 107.27 29.383C107.293 29.383 107.31 29.383 107.322 29.383C107.554 29.4062 107.763 29.4874 107.949 29.6267C108.134 29.766 108.227 29.9807 108.227 30.2708C108.227 30.8975 107.989 31.3618 107.513 31.6635C107.049 31.9536 106.533 32.1219 105.964 32.1684C105.906 32.18 105.848 32.1858 105.79 32.1858C105.732 32.1858 105.674 32.1858 105.616 32.1858Z" fill="white"/>
<path d="M118.284 29.5223V40.2459H119.502V40.5941H114.993V40.2459H116.334V29.5223H114.993V29.1915H126.709V29.5223H125.369V40.2459H126.709V40.5941H122.201V40.2459H123.419V29.5223H118.284Z" fill="white"/>
<path d="M134.419 38.5225L134.714 38.714C134.285 39.3871 133.821 39.8977 133.322 40.2459C132.823 40.5941 132.237 40.7682 131.564 40.7682C130.6 40.7682 129.736 40.4316 128.97 39.7585C128.204 39.0853 127.821 38.1279 127.821 36.8861C127.821 35.8416 128.151 34.9305 128.813 34.1529C129.486 33.3753 130.322 32.9866 131.32 32.9866C131.505 32.9866 131.714 33.004 131.946 33.0388C132.179 33.0736 132.411 33.1374 132.643 33.2303C133.107 33.416 133.542 33.7583 133.948 34.2574C134.355 34.7448 134.587 35.4818 134.645 36.4683H129.77L129.788 37.6694C129.788 37.7739 129.788 37.8842 129.788 38.0002C129.799 38.1163 129.811 38.2323 129.823 38.3484C129.869 38.8706 130.003 39.3465 130.223 39.7759C130.444 40.2053 130.867 40.42 131.494 40.42C131.9 40.42 132.353 40.3039 132.852 40.0718C133.351 39.8281 133.873 39.3117 134.419 38.5225ZM129.77 36.1897H132.834C132.858 35.4005 132.794 34.7216 132.643 34.1529C132.504 33.5726 132.092 33.2825 131.407 33.2825C130.966 33.2825 130.635 33.3869 130.415 33.5959C130.194 33.7931 130.037 34.0137 129.945 34.2574C129.875 34.4199 129.828 34.5765 129.805 34.7274C129.794 34.8783 129.788 35.0001 129.788 35.093L129.77 36.1897Z" fill="white"/>
<path d="M140.536 33.474H139.77C139.004 33.474 138.552 33.5726 138.413 33.7699C138.285 33.9556 138.215 34.1993 138.204 34.5011L138.064 38.9751C138.053 39.4741 137.954 39.8977 137.768 40.2459C137.583 40.5941 137.177 40.7682 136.55 40.7682C136.19 40.7682 135.865 40.6695 135.575 40.4722C135.296 40.2749 135.157 39.9906 135.157 39.6192C135.157 39.3058 135.25 39.0621 135.436 38.888C135.633 38.7024 135.842 38.6095 136.062 38.6095C136.295 38.6095 136.498 38.6675 136.672 38.7836C136.857 38.8996 136.95 39.0853 136.95 39.3407C136.95 39.3871 136.95 39.4335 136.95 39.4799C136.95 39.5147 136.939 39.5554 136.915 39.6018C136.915 39.6134 136.91 39.625 136.898 39.6366C136.898 39.6366 136.892 39.6424 136.881 39.654C136.881 39.6656 136.875 39.6772 136.863 39.6888C136.852 39.712 136.84 39.7295 136.828 39.7411C136.828 39.7527 136.828 39.7701 136.828 39.7933C136.828 39.8165 136.828 39.8397 136.828 39.8629C136.828 39.8745 136.828 39.8919 136.828 39.9151C136.84 39.9848 136.857 40.0428 136.881 40.0892C136.904 40.1357 136.95 40.1589 137.02 40.1589C137.391 40.1589 137.606 40.0254 137.664 39.7585C137.734 39.4799 137.774 39.1434 137.786 38.7488L137.908 34.5011C137.908 34.4547 137.908 34.4082 137.908 34.3618C137.908 34.3154 137.908 34.269 137.908 34.2226C137.896 34.0369 137.826 33.8686 137.699 33.7177C137.583 33.5552 137.333 33.474 136.95 33.474H136.585V33.178H143.339V33.474H142.242V40.2981H143.339V40.5941H139.44V40.2981H140.536V33.474Z" fill="white"/>
<path d="M146.841 39.0099L149.801 34.0137V33.474H148.826V33.178H152.603V33.474H151.507V40.2981H152.603V40.5941H148.826V40.2981H149.801V34.6055L146.841 39.6018V40.2981H147.816V40.5941H144.038V40.2981H145.135V33.474H144.038V33.178H147.816V33.474H146.841V39.0099Z" fill="white"/>
<path d="M156.106 36.5205H156.733C157.186 36.5205 157.505 36.4044 157.691 36.1723C157.876 35.9286 158.01 35.6675 158.091 35.3889C158.103 35.3193 158.114 35.2555 158.126 35.1974C158.149 35.1278 158.166 35.064 158.178 35.0059C158.306 34.3792 158.462 33.886 158.648 33.5262C158.845 33.1664 159.228 32.9866 159.797 32.9866C160.145 32.9866 160.459 33.0968 160.737 33.3173C161.016 33.5262 161.155 33.8222 161.155 34.2051C161.155 34.4837 161.074 34.7332 160.911 34.9537C160.76 35.1742 160.528 35.2845 160.215 35.2845C159.948 35.2845 159.727 35.2148 159.553 35.0756C159.391 34.9247 159.31 34.7448 159.31 34.5359C159.31 34.4663 159.315 34.4024 159.327 34.3444C159.339 34.2748 159.35 34.211 159.362 34.1529C159.362 34.1413 159.362 34.1297 159.362 34.1181C159.373 34.1065 159.379 34.0949 159.379 34.0833C159.391 34.0601 159.397 34.0369 159.397 34.0137C159.408 33.9904 159.414 33.9672 159.414 33.944C159.414 33.828 159.379 33.7583 159.31 33.7351C159.24 33.7119 159.159 33.7003 159.066 33.7003C159.066 33.7003 159.06 33.7003 159.048 33.7003C159.048 33.7003 159.043 33.7003 159.031 33.7003C159.019 33.7003 159.008 33.7003 158.996 33.7003C158.915 33.7003 158.845 33.7757 158.787 33.9266C158.729 34.0659 158.677 34.2226 158.631 34.3966C158.596 34.5359 158.567 34.6694 158.544 34.797C158.532 34.9131 158.52 35.0001 158.509 35.0582C158.509 35.0814 158.503 35.1046 158.491 35.1278C158.491 35.151 158.486 35.1742 158.474 35.1974C158.381 35.6385 158.271 35.9634 158.143 36.1723C158.016 36.3696 157.83 36.5031 157.586 36.5727V36.6249C158.457 36.6714 159.066 36.8454 159.414 37.1472C159.762 37.4373 159.989 37.7565 160.093 38.1047C160.128 38.2323 160.157 38.36 160.18 38.4876C160.203 38.6037 160.221 38.7198 160.232 38.8358C160.232 38.8474 160.232 38.859 160.232 38.8706C160.232 38.8822 160.232 38.8938 160.232 38.9055C160.267 39.2072 160.313 39.4741 160.371 39.7062C160.441 39.9384 160.586 40.0544 160.807 40.0544C160.958 40.0544 161.097 40.008 161.225 39.9151C161.352 39.8107 161.451 39.7004 161.52 39.5844L161.747 39.7062C161.596 40.0312 161.364 40.2923 161.05 40.4896C160.737 40.6753 160.371 40.7682 159.954 40.7682C159.362 40.7682 158.985 40.5825 158.822 40.2111C158.66 39.8397 158.544 39.4277 158.474 38.9751C158.474 38.9519 158.474 38.9287 158.474 38.9055C158.474 38.8822 158.468 38.859 158.457 38.8358C158.457 38.8126 158.451 38.7894 158.439 38.7662C158.439 38.7314 158.439 38.7024 158.439 38.6791C158.323 37.8319 158.137 37.3097 157.882 37.1124C157.638 36.9035 157.296 36.799 156.855 36.799H156.489L156.106 36.8164V40.2981H157.203V40.5941H153.304V40.2981H154.4V33.474H153.304V33.178H157.203V33.474H156.106V36.5205Z" fill="white"/>
<path d="M169.87 39.6714L170.114 39.8977C170.032 40.0138 169.945 40.1182 169.853 40.2111C169.76 40.3039 169.667 40.3794 169.574 40.4374C169.33 40.5999 169.092 40.6927 168.86 40.7159C168.64 40.7508 168.477 40.7682 168.373 40.7682C168.013 40.7682 167.729 40.6869 167.52 40.5244C167.323 40.362 167.172 40.1821 167.067 39.9848C167.032 39.9268 167.003 39.8745 166.98 39.8281C166.957 39.7701 166.94 39.712 166.928 39.654C166.359 40.1531 165.872 40.4664 165.466 40.5941C165.071 40.7101 164.711 40.7682 164.386 40.7682C163.736 40.7682 163.237 40.5883 162.889 40.2285C162.541 39.8571 162.367 39.4045 162.367 38.8706C162.367 38.035 162.733 37.4141 163.464 37.0079C164.206 36.6017 165.17 36.3986 166.353 36.3986C166.446 36.3986 166.539 36.3986 166.632 36.3986C166.736 36.3986 166.835 36.4044 166.928 36.416V34.4663C166.928 34.4082 166.928 34.3502 166.928 34.2922C166.928 34.2226 166.922 34.1587 166.911 34.1007C166.876 33.8918 166.783 33.7061 166.632 33.5436C166.481 33.3811 166.191 33.2999 165.762 33.2999C165.483 33.2999 165.228 33.3347 164.996 33.4044C164.764 33.4624 164.647 33.5552 164.647 33.6829C164.647 33.7177 164.647 33.7583 164.647 33.8048C164.659 33.8396 164.671 33.8744 164.682 33.9092C164.694 33.9556 164.705 34.002 164.717 34.0485C164.729 34.0833 164.746 34.1181 164.769 34.1529C164.781 34.1761 164.787 34.1993 164.787 34.2226C164.798 34.2342 164.81 34.2516 164.822 34.2748C164.833 34.298 164.845 34.3212 164.856 34.3444C164.868 34.3676 164.885 34.3908 164.909 34.4141C164.943 34.4721 164.972 34.5359 164.996 34.6055C165.03 34.6752 165.048 34.7564 165.048 34.8493C165.048 35.1278 164.955 35.3773 164.769 35.5978C164.595 35.8183 164.334 35.9286 163.986 35.9286C163.661 35.9286 163.4 35.8241 163.203 35.6152C163.005 35.3947 162.907 35.0988 162.907 34.7274C162.907 34.2051 163.197 33.7873 163.777 33.474C164.369 33.149 165.036 32.9866 165.779 32.9866C166.835 32.9866 167.549 33.1432 167.92 33.4566C168.292 33.7699 168.512 34.1123 168.582 34.4837C168.605 34.5997 168.617 34.71 168.617 34.8144C168.628 34.9189 168.634 35.0234 168.634 35.1278V39.654C168.634 39.6888 168.634 39.7295 168.634 39.7759C168.634 39.8107 168.64 39.8513 168.651 39.8977C168.675 39.979 168.709 40.0544 168.756 40.124C168.814 40.1937 168.907 40.2285 169.034 40.2285C169.081 40.2285 169.127 40.2227 169.174 40.2111C169.22 40.1995 169.267 40.1821 169.313 40.1589C169.383 40.124 169.452 40.0776 169.522 40.0196C169.603 39.9616 169.673 39.9035 169.731 39.8455C169.754 39.8107 169.777 39.7817 169.8 39.7585C169.835 39.7237 169.858 39.6946 169.87 39.6714ZM166.928 39.1144V36.6946C166.034 36.6714 165.373 36.7932 164.943 37.0601C164.526 37.3271 164.317 37.9248 164.317 38.8532C164.317 39.3291 164.439 39.6482 164.682 39.8107C164.938 39.9732 165.216 40.0544 165.518 40.0544C165.599 40.0544 165.692 40.0428 165.796 40.0196C165.901 39.9848 166.005 39.9384 166.11 39.8803C166.237 39.8223 166.359 39.7527 166.475 39.6714C166.603 39.5786 166.707 39.4915 166.789 39.4103C166.835 39.3523 166.87 39.3 166.893 39.2536C166.916 39.2072 166.928 39.1608 166.928 39.1144Z" fill="white"/>
<path d="M173.26 36.7294V40.2981H174.235V40.5941H170.457V40.2981H171.554V33.474H170.457V33.178H174.235V33.474H173.26V36.4508H176.219V33.474H175.244V33.178H179.022V33.474H177.925V40.2981H179.022V40.5941H175.244V40.2981H176.219V36.7294H173.26Z" fill="white"/>
<path d="M52.0225 50.5839H50V44.9388H53.3802V45.4791H50.5233V47.0759H52.0225C52.5741 47.0759 53.0031 47.2371 53.3095 47.5597C53.6206 47.8823 53.7762 48.307 53.7762 48.8339C53.7762 49.3662 53.6206 49.7909 53.3095 50.1081C52.9983 50.4253 52.5693 50.5839 52.0225 50.5839ZM50.5233 47.6162V50.0436H51.973C52.3784 50.0436 52.6919 49.9388 52.9135 49.7291C53.1398 49.514 53.2529 49.2129 53.2529 48.8259C53.2529 48.4441 53.1398 48.1484 52.9135 47.9388C52.6919 47.7237 52.3784 47.6162 51.973 47.6162H50.5233Z" fill="white"/>
<path d="M54.3226 50.5839V50.0355C54.3697 50.0463 54.4358 50.0517 54.5206 50.0517C54.7375 50.0517 54.9095 49.9656 55.0368 49.7936C55.1688 49.6216 55.2749 49.3716 55.3551 49.0436C55.4116 48.8232 55.4493 48.5812 55.4682 48.3178C55.4965 48.0167 55.5177 47.7318 55.5318 47.4629C55.5413 47.264 55.5507 46.9361 55.5601 46.4791L55.5884 44.9388H58.6858V50.5839H58.1625V45.4791H56.0976L56.0622 46.7694C56.0339 47.8285 55.9632 48.6242 55.8501 49.1565C55.7511 49.6404 55.5955 49.9979 55.3833 50.2291C55.1759 50.4549 54.8883 50.5759 54.5206 50.592C54.4122 50.592 54.3462 50.5893 54.3226 50.5839Z" fill="white"/>
<path d="M60.1322 50.5839H59.5877L61.794 44.9065H62.2819L64.4953 50.5839H63.9437L63.3285 49.0275H60.7333L60.1322 50.5839ZM62.0344 45.6565L60.91 48.5033H63.1588L62.0344 45.6565Z" fill="white"/>
<path d="M65.9233 50.5839H65.4V44.9388H68.7166V45.4791H65.9233V50.5839Z" fill="white"/>
<path d="M69.7624 45.6807C70.2386 45.1215 70.8326 44.842 71.5445 44.842C72.2516 44.842 72.8433 45.1215 73.3194 45.6807C73.7956 46.2398 74.0337 46.9334 74.0337 47.7613C74.0337 48.5947 73.7956 49.2909 73.3194 49.85C72.848 50.4038 72.2563 50.6807 71.5445 50.6807C70.8279 50.6807 70.2339 50.4038 69.7624 49.85C69.291 49.2963 69.0553 48.6 69.0553 47.7613C69.0553 46.928 69.291 46.2345 69.7624 45.6807ZM70.1514 49.4468C70.5238 49.8984 70.9882 50.1242 71.5445 50.1242C72.1008 50.1242 72.5651 49.8984 72.9376 49.4468C73.3147 48.9898 73.5033 48.428 73.5033 47.7613C73.5033 47.0947 73.3147 46.5328 72.9376 46.0759C72.5651 45.6242 72.1008 45.3984 71.5445 45.3984C70.9882 45.3984 70.5238 45.6242 70.1514 46.0759C69.7742 46.5328 69.5856 47.0947 69.5856 47.7613C69.5856 48.428 69.7742 48.9898 70.1514 49.4468Z" fill="white"/>
<path d="M76.6154 50.5839H76.0921V45.4791H74.3878V44.9388H78.3409V45.4791H76.6154V50.5839Z" fill="white"/>
<path d="M81.6495 50.5839H79.2876V44.9388H81.4303C81.8687 44.9388 82.2152 45.0624 82.4698 45.3097C82.7244 45.5517 82.8517 45.885 82.8517 46.3097C82.8517 46.6 82.7928 46.85 82.6749 47.0597C82.5617 47.2694 82.4038 47.4172 82.2011 47.5033C82.5311 47.5624 82.7928 47.7264 82.986 47.9952C83.1793 48.264 83.276 48.6027 83.276 49.0113C83.276 49.4898 83.1298 49.8716 82.8375 50.1565C82.5452 50.4414 82.1492 50.5839 81.6495 50.5839ZM79.8109 47.85V50.0436H81.5576C81.9253 50.0436 82.2105 49.9468 82.4132 49.7533C82.616 49.5597 82.7173 49.2882 82.7173 48.9388C82.7173 48.5947 82.616 48.3285 82.4132 48.1404C82.2105 47.9468 81.9253 47.85 81.5576 47.85H79.8109ZM79.8109 45.4791V47.3259H81.3454C81.6613 47.3259 81.9041 47.2479 82.0738 47.092C82.2482 46.9361 82.3355 46.7103 82.3355 46.4146C82.3355 46.1135 82.2482 45.8823 82.0738 45.721C81.9041 45.5597 81.6613 45.4791 81.3454 45.4791H79.8109Z" fill="white"/>
<path d="M84.8171 45.6807C85.2933 45.1215 85.8873 44.842 86.5992 44.842C87.3063 44.842 87.898 45.1215 88.3741 45.6807C88.8503 46.2398 89.0884 46.9334 89.0884 47.7613C89.0884 48.5947 88.8503 49.2909 88.3741 49.85C87.9027 50.4038 87.311 50.6807 86.5992 50.6807C85.8826 50.6807 85.2886 50.4038 84.8171 49.85C84.3457 49.2963 84.11 48.6 84.11 47.7613C84.11 46.928 84.3457 46.2345 84.8171 45.6807ZM85.2061 49.4468C85.5785 49.8984 86.0429 50.1242 86.5992 50.1242C87.1555 50.1242 87.6198 49.8984 87.9923 49.4468C88.3694 48.9898 88.558 48.428 88.558 47.7613C88.558 47.0947 88.3694 46.5328 87.9923 46.0759C87.6198 45.6242 87.1555 45.3984 86.5992 45.3984C86.0429 45.3984 85.5785 45.6242 85.2061 46.0759C84.8289 46.5328 84.6403 47.0947 84.6403 47.7613C84.6403 48.428 84.8289 48.9898 85.2061 49.4468Z" fill="white"/>
<path d="M90.8119 50.5839H90.2886V44.9388H92.3676C92.8579 44.9388 93.2445 45.0812 93.5274 45.3662C93.8102 45.6511 93.9517 46.0302 93.9517 46.5033C93.9517 46.9871 93.8102 47.3742 93.5274 47.6646C93.2445 47.9495 92.8579 48.092 92.3676 48.092H90.8119V50.5839ZM90.8119 45.4791V47.5517H92.3323C92.6811 47.5517 92.9522 47.4629 93.1455 47.2855C93.3388 47.1027 93.4354 46.8474 93.4354 46.5194C93.4354 46.1861 93.3388 45.9307 93.1455 45.7533C92.9569 45.5705 92.6859 45.4791 92.3323 45.4791H90.8119Z" fill="white"/>
<path d="M95.4299 50.5839H94.9915V44.9388H95.5077V49.5839L98.5838 44.9388H99.0435V50.5839H98.5272V45.9226L95.4299 50.5839Z" fill="white"/>
<path d="M102.215 50.5839H101.692V45.4791H99.9877V44.9388H103.941V45.4791H102.215V50.5839Z" fill="white"/>
<path d="M108.388 50.5839H104.888V44.9388H108.282V45.4791H105.411V47.2855H107.766V47.8259H105.411V50.0436H108.388V50.5839Z" fill="white"/>
<path d="M108.803 50.5839V50.0355C108.85 50.0463 108.916 50.0517 109.001 50.0517C109.218 50.0517 109.39 49.9656 109.517 49.7936C109.649 49.6216 109.755 49.3716 109.835 49.0436C109.892 48.8232 109.929 48.5812 109.948 48.3178C109.977 48.0167 109.998 47.7318 110.012 47.4629C110.021 47.264 110.031 46.9361 110.04 46.4791L110.068 44.9388H113.166V50.5839H112.643V45.4791H110.578L110.542 46.7694C110.514 47.8285 110.443 48.6242 110.33 49.1565C110.231 49.6404 110.076 49.9979 109.863 50.2291C109.656 50.4549 109.368 50.5759 109.001 50.592C108.892 50.592 108.826 50.5893 108.803 50.5839Z" fill="white"/>
<path d="M116.557 50.5839H114.556V44.9388H115.079V47.0436H116.557C117.118 47.0436 117.552 47.2076 117.858 47.5355C118.174 47.8635 118.332 48.2909 118.332 48.8178C118.332 49.3554 118.174 49.7855 117.858 50.1081C117.542 50.4253 117.108 50.5839 116.557 50.5839ZM115.079 47.5839V50.0436H116.522C116.927 50.0436 117.243 49.9388 117.469 49.7291C117.695 49.514 117.809 49.2103 117.809 48.8178C117.809 48.4253 117.695 48.1215 117.469 47.9065C117.248 47.6914 116.932 47.5839 116.522 47.5839H115.079Z" fill="white"/>
<path d="M119.892 50.5839H119.369V44.9388H119.892V47.2855H122.834V44.9388H123.357V50.5839H122.834V47.8259H119.892V50.5839Z" fill="white"/>
<path d="M125.251 45.6807C125.727 45.1215 126.321 44.842 127.033 44.842C127.74 44.842 128.332 45.1215 128.808 45.6807C129.284 46.2398 129.522 46.9334 129.522 47.7613C129.522 48.5947 129.284 49.2909 128.808 49.85C128.336 50.4038 127.745 50.6807 127.033 50.6807C126.316 50.6807 125.722 50.4038 125.251 49.85C124.779 49.2963 124.544 48.6 124.544 47.7613C124.544 46.928 124.779 46.2345 125.251 45.6807ZM125.64 49.4468C126.012 49.8984 126.476 50.1242 127.033 50.1242C127.589 50.1242 128.053 49.8984 128.426 49.4468C128.803 48.9898 128.992 48.428 128.992 47.7613C128.992 47.0947 128.803 46.5328 128.426 46.0759C128.053 45.6242 127.589 45.3984 127.033 45.3984C126.476 45.3984 126.012 45.6242 125.64 46.0759C125.263 46.5328 125.074 47.0947 125.074 47.7613C125.074 48.428 125.263 48.9898 125.64 49.4468Z" fill="white"/>
<path d="M134.223 50.5839H130.722V44.9388H134.117V45.4791H131.245V47.2855H133.6V47.8259H131.245V50.0436H134.223V50.5839Z" fill="white"/>
<path d="M137.018 51.842H136.53V50.0436H136.997C137.303 49.5543 137.523 48.9818 137.655 48.3259C137.791 47.6592 137.86 46.756 137.86 45.6162V44.9388H140.915V50.0436H141.664V51.842H141.176V50.5839H137.018V51.842ZM137.584 50.0436H140.391V45.4791H138.376V45.8581C138.376 47.7828 138.112 49.178 137.584 50.0436Z" fill="white"/>
<path d="M144.962 50.5839H142.6V44.9388H144.743C145.181 44.9388 145.528 45.0624 145.782 45.3097C146.037 45.5517 146.164 45.885 146.164 46.3097C146.164 46.6 146.105 46.85 145.988 47.0597C145.874 47.2694 145.716 47.4172 145.514 47.5033C145.844 47.5624 146.105 47.7264 146.299 47.9952C146.492 48.264 146.589 48.6027 146.589 49.0113C146.589 49.4898 146.442 49.8716 146.15 50.1565C145.858 50.4414 145.462 50.5839 144.962 50.5839ZM143.124 47.85V50.0436H144.87C145.238 50.0436 145.523 49.9468 145.726 49.7533C145.929 49.5597 146.03 49.2882 146.03 48.9388C146.03 48.5947 145.929 48.3285 145.726 48.1404C145.523 47.9468 145.238 47.85 144.87 47.85H143.124ZM143.124 45.4791V47.3259H144.658C144.974 47.3259 145.217 47.2479 145.386 47.092C145.561 46.9361 145.648 46.7103 145.648 46.4146C145.648 46.1135 145.561 45.8823 145.386 45.721C145.217 45.5597 144.974 45.4791 144.658 45.4791H143.124Z" fill="white"/>
<path d="M148.17 50.5839H147.731V44.9388H148.247V49.5839L151.324 44.9388H151.783V50.5839H151.267V45.9226L148.17 50.5839Z" fill="white"/>
<path d="M152.954 44.9388H153.619L155.691 47.4468V44.9388H156.214V47.4629L158.3 44.9388H158.965L156.744 47.6162L159.248 50.5839H158.547L156.214 47.8097V50.5839H155.691V47.8259L153.371 50.5839H152.678L155.174 47.6162L152.954 44.9388Z" fill="white"/>
<path d="M163.655 50.5839H160.155V44.9388H163.549V45.4791H160.678V47.2855H163.033V47.8259H160.678V50.0436H163.655V50.5839Z" fill="white"/>
<path d="M165.201 50.5839H164.678V44.9388H165.201V47.2855H168.143V44.9388H168.667V50.5839H168.143V47.8259H165.201V50.5839Z" fill="white"/>
<path d="M170.496 50.5839H170.058V44.9388H170.574V49.5839L173.65 44.9388H174.11V50.5839H173.594V45.9226L170.496 50.5839Z" fill="white"/>
<path d="M179 50.5839H175.5V44.9388H178.894V45.4791H176.023V47.2855H178.378V47.8259H176.023V50.0436H179V50.5839Z" fill="white"/>
</svg>
