<svg width="34" height="34" viewBox="0 0 34 34" fill="none" xmlns="http://www.w3.org/2000/svg">
<rect width="34" height="34" rx="17" fill="#2C2C2C"/>
<path fill-rule="evenodd" clip-rule="evenodd" d="M27.8136 11.712C27.9712 11.1867 27.8136 10.8005 27.0637 10.8005H24.5839C23.9533 10.8005 23.6629 11.1341 23.5052 11.502C23.5052 11.502 22.2441 14.5756 20.4576 16.5721C19.8797 17.1501 19.617 17.3338 19.3017 17.3338C19.1441 17.3338 18.9159 17.1501 18.9159 16.6248V11.712C18.9159 11.0815 18.733 10.8005 18.2074 10.8005H14.3107C13.9168 10.8005 13.6798 11.0931 13.6798 11.3705C13.6798 11.9683 14.5728 12.1061 14.6649 13.7874V17.4392C14.6649 18.2398 14.5204 18.385 14.2051 18.385C13.3645 18.385 11.3197 15.2974 10.1068 11.7646C9.8691 11.0779 9.63069 10.8005 8.99694 10.8005H6.51719C5.80869 10.8005 5.66699 11.1341 5.66699 11.502C5.66699 12.1587 6.5078 15.4164 9.58145 19.7248C11.6308 22.6668 14.5176 24.262 17.1447 24.262C18.7211 24.262 18.9159 23.9078 18.9159 23.2976V21.0738C18.9159 20.3653 19.0652 20.2239 19.5642 20.2239C19.9323 20.2239 20.5626 20.4078 22.034 21.8264C23.7153 23.5075 23.9923 24.262 24.9382 24.262H27.4179C28.1264 24.262 28.4807 23.9078 28.2763 23.2087C28.0527 22.5118 27.25 21.5012 26.1848 20.3027C25.6068 19.6196 24.7398 18.884 24.4773 18.5163C24.1094 18.0433 24.2144 17.8333 24.4773 17.4131C24.4773 17.4131 27.4983 13.1572 27.8136 11.7122V11.712Z" fill="white"/>
</svg>
